<?xml version="1.0" encoding="UTF-8" standalone="no"?>
<!DOCTYPE svg PUBLIC "-//W3C//DTD SVG 1.1//EN" "http://www.w3.org/Graphics/SVG/1.1/DTD/svg11.dtd">
<svg width="100%" height="100%" viewBox="0 0 1000 200" version="1.1" xmlns="http://www.w3.org/2000/svg" xmlns:xlink="http://www.w3.org/1999/xlink" xml:space="preserve" style="fill-rule:evenodd;clip-rule:evenodd;stroke-linejoin:round;stroke-miterlimit:1.41421;">
    <g transform="matrix(6.92921,0,0,7.203,-4.99781,79.6861)">
        <path d="M6.611,3.845C6.611,3.519 6.71,3.193 6.907,2.867C7.105,2.541 7.366,2.223 7.692,1.912C8.018,1.601 8.389,1.309 8.804,1.038C9.218,0.766 9.641,0.526 10.07,0.319C10.5,0.112 10.92,-0.051 11.33,-0.17C11.74,-0.288 12.098,-0.348 12.404,-0.348C12.404,-0.061 12.332,0.201 12.189,0.438C12.046,0.675 11.856,0.897 11.619,1.104C11.382,1.312 11.117,1.512 10.826,1.704C10.535,1.897 10.248,2.087 9.967,2.275C9.685,2.462 9.416,2.66 9.159,2.867C8.902,3.075 8.695,3.297 8.537,3.534C8.527,3.564 8.517,3.584 8.507,3.593L8.507,3.771C8.517,3.801 8.527,3.826 8.537,3.845C8.557,3.855 8.604,3.905 8.678,3.993C8.752,4.082 8.808,4.137 8.848,4.156C8.897,4.196 9.013,4.27 9.196,4.379C9.379,4.487 9.591,4.621 9.833,4.779C10.075,4.937 10.332,5.1 10.604,5.268C10.875,5.436 11.13,5.598 11.367,5.757C11.604,5.915 11.811,6.05 11.989,6.164C12.167,6.278 12.29,6.354 12.359,6.394C12.379,6.403 12.431,6.45 12.515,6.534C12.599,6.618 12.646,6.67 12.656,6.69C12.656,6.72 12.661,6.749 12.67,6.779C12.67,6.789 12.673,6.804 12.678,6.823C12.683,6.843 12.685,6.858 12.685,6.868C12.685,6.878 12.683,6.89 12.678,6.905C12.673,6.92 12.67,6.932 12.67,6.942C12.661,6.971 12.656,6.996 12.656,7.016C12.636,7.055 12.591,7.115 12.522,7.194C12.453,7.273 12.387,7.344 12.322,7.408C12.258,7.473 12.196,7.529 12.137,7.579C12.078,7.628 12.038,7.653 12.019,7.653C11.861,7.653 11.616,7.591 11.285,7.468C10.954,7.344 10.589,7.179 10.189,6.971C9.789,6.764 9.379,6.527 8.959,6.26C8.539,5.994 8.154,5.717 7.803,5.431C7.453,5.144 7.166,4.863 6.944,4.586C6.722,4.309 6.611,4.063 6.611,3.845Z" style="fill:rgb(20,70,160);fill-rule:nonzero;"/>
        <path d="M13.567,6.483C13.586,6.413 13.618,6.29 13.663,6.112C13.707,5.934 13.752,5.744 13.796,5.542C13.841,5.339 13.883,5.152 13.922,4.979C13.962,4.806 13.991,4.685 14.011,4.616C14.08,4.339 14.184,3.956 14.322,3.467C14.46,2.979 14.631,2.455 14.833,1.897C15.036,1.339 15.268,0.776 15.53,0.208C15.791,-0.36 16.083,-0.859 16.404,-1.288C16.725,-1.718 17.073,-2.047 17.448,-2.274C17.824,-2.501 18.229,-2.555 18.663,-2.437C18.525,-1.884 18.35,-1.363 18.137,-0.874C17.925,-0.385 17.698,0.094 17.456,0.564C17.214,1.033 16.967,1.497 16.715,1.956C16.463,2.416 16.219,2.882 15.982,3.356C15.745,3.83 15.53,4.324 15.337,4.838C15.144,5.352 14.994,5.9 14.885,6.483C14.836,6.769 14.742,6.934 14.604,6.979C14.465,7.023 14.307,7.021 14.13,6.971C14.001,6.942 13.883,6.897 13.774,6.838C13.665,6.779 13.596,6.66 13.567,6.483Z" style="fill:rgb(219,48,105);fill-rule:nonzero;"/>
        <path d="M20.297,7.016C20.297,6.858 20.366,6.65 20.504,6.394C20.642,6.137 20.82,5.863 21.037,5.571C21.255,5.28 21.489,4.979 21.741,4.668C21.993,4.356 22.237,4.06 22.475,3.779C22.712,3.497 22.919,3.25 23.097,3.038C23.275,2.825 23.403,2.67 23.482,2.571C23.482,2.551 23.487,2.524 23.497,2.49C23.507,2.455 23.512,2.428 23.512,2.408C23.512,2.408 23.507,2.383 23.497,2.334C23.487,2.314 23.482,2.29 23.482,2.26C23.462,2.22 23.413,2.161 23.334,2.082C23.255,2.003 23.196,1.954 23.156,1.934C23.097,1.894 22.978,1.82 22.8,1.712C22.623,1.603 22.415,1.47 22.178,1.312C21.941,1.154 21.687,0.991 21.415,0.823C21.144,0.655 20.889,0.494 20.652,0.341C20.415,0.188 20.208,0.055 20.03,-0.059C19.852,-0.172 19.729,-0.244 19.659,-0.274C19.511,-0.372 19.41,-0.476 19.356,-0.585C19.301,-0.693 19.274,-0.837 19.274,-1.014C19.541,-1.014 19.889,-0.972 20.319,-0.888C20.748,-0.804 21.2,-0.691 21.674,-0.548C22.149,-0.404 22.628,-0.234 23.112,-0.037C23.596,0.161 24.03,0.376 24.415,0.608C24.801,0.84 25.117,1.085 25.364,1.341C25.611,1.598 25.734,1.85 25.734,2.097C25.734,2.117 25.729,2.144 25.719,2.178C25.709,2.213 25.704,2.24 25.704,2.26C25.616,2.369 25.482,2.529 25.304,2.741C25.127,2.954 24.924,3.198 24.697,3.475C24.47,3.751 24.23,4.04 23.978,4.342C23.726,4.643 23.484,4.927 23.252,5.194C23.02,5.46 22.81,5.702 22.623,5.919C22.435,6.137 22.297,6.295 22.208,6.394C22.06,6.562 21.941,6.705 21.852,6.823C21.763,6.942 21.682,7.041 21.608,7.12C21.534,7.199 21.45,7.258 21.356,7.297C21.262,7.337 21.131,7.357 20.963,7.357C20.924,7.357 20.867,7.354 20.793,7.349C20.719,7.344 20.645,7.332 20.571,7.312C20.497,7.292 20.432,7.26 20.378,7.216C20.324,7.171 20.297,7.105 20.297,7.016Z" style="fill:rgb(20,70,160);fill-rule:nonzero;"/>
    </g>
    <g transform="matrix(4.36632,0,0,4.06758,206.372,127.371)">
        <path d="M9.758,-11.083C9.901,-10.594 10.059,-10.041 10.232,-9.427C10.406,-8.812 10.591,-8.176 10.787,-7.52C10.984,-6.863 11.184,-6.207 11.387,-5.55C11.59,-4.894 11.787,-4.285 11.978,-3.724C12.133,-4.333 12.291,-4.995 12.453,-5.712C12.614,-6.428 12.766,-7.168 12.909,-7.932C13.052,-8.696 13.193,-9.457 13.33,-10.215C13.467,-10.973 13.596,-11.704 13.715,-12.408L16.615,-12.408C16.198,-10.331 15.717,-8.224 15.174,-6.088C14.631,-3.951 14.043,-1.922 13.411,0L10.85,0C10.432,-1.146 10.027,-2.348 9.633,-3.608C9.239,-4.867 8.851,-6.129 8.469,-7.395C8.087,-6.129 7.705,-4.867 7.323,-3.608C6.941,-2.348 6.541,-1.146 6.123,0L3.563,0C2.93,-1.922 2.343,-3.951 1.799,-6.088C1.256,-8.224 0.776,-10.331 0.358,-12.408L3.384,-12.408C3.503,-11.704 3.635,-10.973 3.778,-10.215C3.921,-9.457 4.07,-8.696 4.225,-7.932C4.381,-7.168 4.539,-6.428 4.7,-5.712C4.861,-4.995 5.025,-4.333 5.192,-3.724C5.407,-4.309 5.616,-4.93 5.819,-5.586C6.022,-6.243 6.219,-6.899 6.41,-7.556C6.601,-8.212 6.777,-8.845 6.938,-9.454C7.099,-10.062 7.245,-10.605 7.377,-11.083L9.758,-11.083Z" style="fill:rgb(20,70,160);fill-rule:nonzero;"/>
        <path d="M17.206,-4.637C17.206,-5.473 17.335,-6.204 17.591,-6.831C17.848,-7.457 18.185,-7.979 18.603,-8.397C19.021,-8.815 19.501,-9.131 20.044,-9.346C20.587,-9.561 21.145,-9.668 21.718,-9.668C23.055,-9.668 24.112,-9.26 24.888,-8.442C25.663,-7.624 26.051,-6.422 26.051,-4.834C26.051,-4.679 26.045,-4.509 26.033,-4.324C26.022,-4.139 26.01,-3.975 25.998,-3.832L19.946,-3.832C20.006,-3.283 20.262,-2.847 20.716,-2.525C21.169,-2.202 21.778,-2.041 22.542,-2.041C23.031,-2.041 23.512,-2.086 23.983,-2.175C24.455,-2.265 24.84,-2.375 25.138,-2.507L25.496,-0.34C25.353,-0.269 25.162,-0.197 24.923,-0.125C24.685,-0.054 24.419,0.009 24.127,0.063C23.834,0.116 23.521,0.161 23.187,0.197C22.852,0.233 22.518,0.251 22.184,0.251C21.336,0.251 20.599,0.125 19.973,-0.125C19.346,-0.376 18.827,-0.719 18.415,-1.155C18.003,-1.591 17.699,-2.107 17.502,-2.704C17.305,-3.3 17.206,-3.945 17.206,-4.637ZM23.473,-5.658C23.461,-5.885 23.422,-6.105 23.357,-6.32C23.291,-6.535 23.19,-6.726 23.052,-6.893C22.915,-7.06 22.742,-7.198 22.533,-7.305C22.324,-7.412 22.065,-7.466 21.754,-7.466C21.456,-7.466 21.199,-7.415 20.984,-7.314C20.77,-7.213 20.59,-7.078 20.447,-6.911C20.304,-6.744 20.194,-6.55 20.116,-6.329C20.038,-6.108 19.982,-5.885 19.946,-5.658L23.473,-5.658Z" style="fill:rgb(20,70,160);fill-rule:nonzero;"/>
        <path d="M30.814,-1.916C31.303,-1.916 31.649,-1.964 31.852,-2.059C32.055,-2.155 32.157,-2.34 32.157,-2.614C32.157,-2.829 32.025,-3.017 31.763,-3.178C31.5,-3.339 31.1,-3.521 30.563,-3.724C30.146,-3.879 29.767,-4.04 29.426,-4.208C29.086,-4.375 28.797,-4.575 28.558,-4.807C28.319,-5.04 28.134,-5.318 28.003,-5.64C27.872,-5.962 27.806,-6.35 27.806,-6.804C27.806,-7.687 28.134,-8.385 28.791,-8.899C29.447,-9.412 30.348,-9.668 31.494,-9.668C32.067,-9.668 32.616,-9.618 33.142,-9.516C33.667,-9.415 34.085,-9.304 34.395,-9.185L33.929,-7.108C33.619,-7.216 33.282,-7.311 32.918,-7.395C32.554,-7.478 32.145,-7.52 31.691,-7.52C30.856,-7.52 30.438,-7.287 30.438,-6.822C30.438,-6.714 30.456,-6.619 30.492,-6.535C30.527,-6.452 30.599,-6.371 30.707,-6.293C30.814,-6.216 30.96,-6.132 31.145,-6.043C31.33,-5.953 31.566,-5.855 31.852,-5.747C32.437,-5.533 32.921,-5.321 33.303,-5.112C33.685,-4.903 33.986,-4.676 34.207,-4.431C34.428,-4.187 34.583,-3.915 34.672,-3.617C34.762,-3.318 34.807,-2.972 34.807,-2.578C34.807,-1.647 34.458,-0.943 33.759,-0.466C33.061,0.012 32.073,0.251 30.796,0.251C29.961,0.251 29.265,0.179 28.71,0.036C28.155,-0.107 27.77,-0.227 27.555,-0.322L28.003,-2.489C28.457,-2.31 28.922,-2.169 29.399,-2.068C29.877,-1.967 30.348,-1.916 30.814,-1.916Z" style="fill:rgb(20,70,160);fill-rule:nonzero;"/>
        <path d="M36.705,-11.763L39.372,-12.193L39.372,-9.418L42.577,-9.418L42.577,-7.198L39.372,-7.198L39.372,-3.885C39.372,-3.324 39.471,-2.877 39.668,-2.542C39.865,-2.208 40.262,-2.041 40.858,-2.041C41.145,-2.041 41.44,-2.068 41.745,-2.122C42.049,-2.175 42.327,-2.25 42.577,-2.345L42.953,-0.269C42.631,-0.137 42.273,-0.024 41.879,0.072C41.485,0.167 41.002,0.215 40.429,0.215C39.701,0.215 39.098,0.116 38.62,-0.081C38.143,-0.278 37.761,-0.552 37.474,-0.904C37.188,-1.256 36.988,-1.683 36.875,-2.184C36.761,-2.686 36.705,-3.241 36.705,-3.849L36.705,-11.763Z" style="fill:rgb(20,70,160);fill-rule:nonzero;"/>
        <path d="M57.51,-2.399L57.51,0L49.22,0L49.22,-12.408L52.013,-12.408L52.013,-2.399L57.51,-2.399Z" style="fill:rgb(20,70,160);fill-rule:nonzero;"/>
        <path d="M67.93,-4.727C67.93,-3.987 67.823,-3.309 67.608,-2.695C67.393,-2.08 67.083,-1.555 66.677,-1.119C66.271,-0.683 65.785,-0.346 65.218,-0.107C64.651,0.131 64.015,0.251 63.311,0.251C62.618,0.251 61.989,0.131 61.422,-0.107C60.855,-0.346 60.368,-0.683 59.963,-1.119C59.557,-1.555 59.24,-2.08 59.014,-2.695C58.787,-3.309 58.673,-3.987 58.673,-4.727C58.673,-5.467 58.79,-6.141 59.023,-6.75C59.255,-7.359 59.578,-7.878 59.989,-8.308C60.401,-8.737 60.891,-9.072 61.458,-9.31C62.025,-9.549 62.642,-9.668 63.311,-9.668C63.991,-9.668 64.615,-9.549 65.182,-9.31C65.749,-9.072 66.235,-8.737 66.641,-8.308C67.047,-7.878 67.363,-7.359 67.59,-6.75C67.817,-6.141 67.93,-5.467 67.93,-4.727ZM65.209,-4.727C65.209,-5.55 65.044,-6.198 64.716,-6.669C64.388,-7.141 63.919,-7.377 63.311,-7.377C62.702,-7.377 62.23,-7.141 61.896,-6.669C61.562,-6.198 61.395,-5.55 61.395,-4.727C61.395,-3.903 61.562,-3.25 61.896,-2.766C62.23,-2.283 62.702,-2.041 63.311,-2.041C63.919,-2.041 64.388,-2.283 64.716,-2.766C65.044,-3.25 65.209,-3.903 65.209,-4.727Z" style="fill:rgb(20,70,160);fill-rule:nonzero;"/>
        <path d="M69.989,-9.096C70.443,-9.227 71.028,-9.349 71.744,-9.463C72.46,-9.576 73.212,-9.633 74,-9.633C74.799,-9.633 75.465,-9.528 75.996,-9.319C76.527,-9.11 76.948,-8.815 77.258,-8.433C77.569,-8.051 77.79,-7.597 77.921,-7.072C78.052,-6.547 78.118,-5.962 78.118,-5.318L78.118,0L75.45,0L75.45,-4.995C75.45,-5.855 75.337,-6.464 75.11,-6.822C74.883,-7.18 74.459,-7.359 73.839,-7.359C73.648,-7.359 73.445,-7.35 73.23,-7.332C73.015,-7.314 72.824,-7.293 72.657,-7.269L72.657,0L69.989,0L69.989,-9.096Z" style="fill:rgb(20,70,160);fill-rule:nonzero;"/>
        <path d="M82.809,-4.781C82.809,-3.957 82.994,-3.294 83.364,-2.793C83.734,-2.292 84.283,-2.041 85.011,-2.041C85.25,-2.041 85.471,-2.05 85.673,-2.068C85.876,-2.086 86.044,-2.107 86.175,-2.131L86.175,-6.983C86.008,-7.09 85.79,-7.18 85.521,-7.251C85.253,-7.323 84.981,-7.359 84.707,-7.359C83.441,-7.359 82.809,-6.499 82.809,-4.781ZM88.843,-0.304C88.604,-0.233 88.329,-0.164 88.019,-0.098C87.709,-0.033 87.383,0.024 87.043,0.072C86.703,0.119 86.357,0.158 86.005,0.188C85.653,0.218 85.315,0.233 84.993,0.233C84.217,0.233 83.525,0.119 82.916,-0.107C82.307,-0.334 81.794,-0.659 81.376,-1.083C80.959,-1.507 80.639,-2.02 80.419,-2.623C80.198,-3.226 80.087,-3.903 80.087,-4.655C80.087,-5.419 80.183,-6.108 80.374,-6.723C80.565,-7.338 80.839,-7.86 81.197,-8.29C81.555,-8.72 81.994,-9.048 82.513,-9.275C83.033,-9.501 83.626,-9.615 84.295,-9.615C84.665,-9.615 84.996,-9.579 85.289,-9.507C85.581,-9.436 85.876,-9.334 86.175,-9.203L86.175,-13.464L88.843,-13.894L88.843,-0.304Z" style="fill:rgb(20,70,160);fill-rule:nonzero;"/>
        <path d="M100.158,-4.727C100.158,-3.987 100.051,-3.309 99.836,-2.695C99.621,-2.08 99.311,-1.555 98.905,-1.119C98.499,-0.683 98.013,-0.346 97.446,-0.107C96.879,0.131 96.243,0.251 95.539,0.251C94.847,0.251 94.217,0.131 93.65,-0.107C93.083,-0.346 92.597,-0.683 92.191,-1.119C91.785,-1.555 91.469,-2.08 91.242,-2.695C91.015,-3.309 90.902,-3.987 90.902,-4.727C90.902,-5.467 91.018,-6.141 91.251,-6.75C91.484,-7.359 91.806,-7.878 92.218,-8.308C92.629,-8.737 93.119,-9.072 93.686,-9.31C94.253,-9.549 94.87,-9.668 95.539,-9.668C96.219,-9.668 96.843,-9.549 97.41,-9.31C97.977,-9.072 98.463,-8.737 98.869,-8.308C99.275,-7.878 99.591,-7.359 99.818,-6.75C100.045,-6.141 100.158,-5.467 100.158,-4.727ZM97.437,-4.727C97.437,-5.55 97.273,-6.198 96.944,-6.669C96.616,-7.141 96.148,-7.377 95.539,-7.377C94.93,-7.377 94.459,-7.141 94.124,-6.669C93.79,-6.198 93.623,-5.55 93.623,-4.727C93.623,-3.903 93.79,-3.25 94.124,-2.766C94.459,-2.283 94.93,-2.041 95.539,-2.041C96.148,-2.041 96.616,-2.283 96.944,-2.766C97.273,-3.25 97.437,-3.903 97.437,-4.727Z" style="fill:rgb(20,70,160);fill-rule:nonzero;"/>
        <path d="M102.217,-9.096C102.671,-9.227 103.256,-9.349 103.972,-9.463C104.688,-9.576 105.44,-9.633 106.228,-9.633C107.028,-9.633 107.693,-9.528 108.224,-9.319C108.755,-9.11 109.176,-8.815 109.487,-8.433C109.797,-8.051 110.018,-7.597 110.149,-7.072C110.28,-6.547 110.346,-5.962 110.346,-5.318L110.346,0L107.678,0L107.678,-4.995C107.678,-5.855 107.565,-6.464 107.338,-6.822C107.111,-7.18 106.687,-7.359 106.067,-7.359C105.876,-7.359 105.673,-7.35 105.458,-7.332C105.243,-7.314 105.052,-7.293 104.885,-7.269L104.885,0L102.217,0L102.217,-9.096Z" style="fill:rgb(20,70,160);fill-rule:nonzero;"/>
        <path d="M122.897,0.251C120.88,0.251 119.343,-0.31 118.287,-1.432C117.23,-2.554 116.702,-4.148 116.702,-6.213C116.702,-7.239 116.863,-8.156 117.185,-8.961C117.508,-9.767 117.949,-10.447 118.51,-11.002C119.071,-11.557 119.74,-11.978 120.516,-12.265C121.292,-12.551 122.133,-12.694 123.04,-12.694C123.565,-12.694 124.043,-12.656 124.473,-12.578C124.902,-12.5 125.278,-12.411 125.601,-12.309C125.923,-12.208 126.191,-12.103 126.406,-11.996C126.621,-11.889 126.776,-11.805 126.872,-11.745L126.066,-9.489C125.684,-9.692 125.24,-9.865 124.732,-10.009C124.225,-10.152 123.649,-10.223 123.004,-10.223C122.575,-10.223 122.154,-10.152 121.742,-10.009C121.33,-9.865 120.966,-9.636 120.65,-9.319C120.334,-9.003 120.08,-8.594 119.889,-8.093C119.698,-7.592 119.603,-6.983 119.603,-6.267C119.603,-5.694 119.665,-5.159 119.791,-4.664C119.916,-4.169 120.119,-3.742 120.399,-3.384C120.68,-3.026 121.047,-2.742 121.5,-2.533C121.954,-2.325 122.503,-2.22 123.148,-2.22C123.554,-2.22 123.918,-2.244 124.24,-2.292C124.562,-2.34 124.849,-2.396 125.099,-2.462C125.35,-2.528 125.571,-2.602 125.762,-2.686C125.953,-2.769 126.126,-2.847 126.281,-2.918L127.051,-0.68C126.657,-0.442 126.102,-0.227 125.386,-0.036C124.67,0.155 123.84,0.251 122.897,0.251Z" style="fill:rgb(20,70,160);fill-rule:nonzero;"/>
        <path d="M137.263,-4.727C137.263,-3.987 137.156,-3.309 136.941,-2.695C136.726,-2.08 136.416,-1.555 136.01,-1.119C135.604,-0.683 135.118,-0.346 134.551,-0.107C133.984,0.131 133.348,0.251 132.644,0.251C131.951,0.251 131.322,0.131 130.755,-0.107C130.188,-0.346 129.701,-0.683 129.296,-1.119C128.89,-1.555 128.573,-2.08 128.347,-2.695C128.12,-3.309 128.006,-3.987 128.006,-4.727C128.006,-5.467 128.123,-6.141 128.356,-6.75C128.588,-7.359 128.911,-7.878 129.322,-8.308C129.734,-8.737 130.224,-9.072 130.791,-9.31C131.358,-9.549 131.975,-9.668 132.644,-9.668C133.324,-9.668 133.948,-9.549 134.515,-9.31C135.082,-9.072 135.568,-8.737 135.974,-8.308C136.38,-7.878 136.696,-7.359 136.923,-6.75C137.15,-6.141 137.263,-5.467 137.263,-4.727ZM134.542,-4.727C134.542,-5.55 134.377,-6.198 134.049,-6.669C133.721,-7.141 133.252,-7.377 132.644,-7.377C132.035,-7.377 131.563,-7.141 131.229,-6.669C130.895,-6.198 130.728,-5.55 130.728,-4.727C130.728,-3.903 130.895,-3.25 131.229,-2.766C131.563,-2.283 132.035,-2.041 132.644,-2.041C133.252,-2.041 133.721,-2.283 134.049,-2.766C134.377,-3.25 134.542,-3.903 134.542,-4.727Z" style="fill:rgb(20,70,160);fill-rule:nonzero;"/>
        <path d="M141.596,-4.781C141.596,-3.957 141.781,-3.294 142.151,-2.793C142.521,-2.292 143.07,-2.041 143.798,-2.041C144.037,-2.041 144.258,-2.05 144.461,-2.068C144.664,-2.086 144.831,-2.107 144.962,-2.131L144.962,-6.983C144.795,-7.09 144.577,-7.18 144.309,-7.251C144.04,-7.323 143.768,-7.359 143.494,-7.359C142.229,-7.359 141.596,-6.499 141.596,-4.781ZM147.63,-0.304C147.391,-0.233 147.117,-0.164 146.806,-0.098C146.496,-0.033 146.171,0.024 145.83,0.072C145.49,0.119 145.144,0.158 144.792,0.188C144.44,0.218 144.103,0.233 143.78,0.233C143.004,0.233 142.312,0.119 141.703,-0.107C141.095,-0.334 140.581,-0.659 140.164,-1.083C139.746,-1.507 139.427,-2.02 139.206,-2.623C138.985,-3.226 138.874,-3.903 138.874,-4.655C138.874,-5.419 138.97,-6.108 139.161,-6.723C139.352,-7.338 139.626,-7.86 139.985,-8.29C140.343,-8.72 140.781,-9.048 141.301,-9.275C141.82,-9.501 142.414,-9.615 143.082,-9.615C143.452,-9.615 143.783,-9.579 144.076,-9.507C144.368,-9.436 144.664,-9.334 144.962,-9.203L144.962,-13.464L147.63,-13.894L147.63,-0.304Z" style="fill:rgb(20,70,160);fill-rule:nonzero;"/>
        <path d="M149.689,-4.637C149.689,-5.473 149.817,-6.204 150.074,-6.831C150.33,-7.457 150.668,-7.979 151.085,-8.397C151.503,-8.815 151.984,-9.131 152.527,-9.346C153.07,-9.561 153.628,-9.668 154.201,-9.668C155.538,-9.668 156.594,-9.26 157.37,-8.442C158.146,-7.624 158.534,-6.422 158.534,-4.834C158.534,-4.679 158.528,-4.509 158.516,-4.324C158.504,-4.139 158.492,-3.975 158.48,-3.832L152.428,-3.832C152.488,-3.283 152.745,-2.847 153.198,-2.525C153.652,-2.202 154.26,-2.041 155.024,-2.041C155.514,-2.041 155.994,-2.086 156.466,-2.175C156.937,-2.265 157.322,-2.375 157.621,-2.507L157.979,-0.34C157.835,-0.269 157.644,-0.197 157.406,-0.125C157.167,-0.054 156.901,0.009 156.609,0.063C156.317,0.116 156.003,0.161 155.669,0.197C155.335,0.233 155.001,0.251 154.666,0.251C153.819,0.251 153.082,0.125 152.455,-0.125C151.828,-0.376 151.309,-0.719 150.897,-1.155C150.486,-1.591 150.181,-2.107 149.984,-2.704C149.787,-3.3 149.689,-3.945 149.689,-4.637ZM155.955,-5.658C155.944,-5.885 155.905,-6.105 155.839,-6.32C155.773,-6.535 155.672,-6.726 155.535,-6.893C155.397,-7.06 155.224,-7.198 155.015,-7.305C154.807,-7.412 154.547,-7.466 154.237,-7.466C153.938,-7.466 153.682,-7.415 153.467,-7.314C153.252,-7.213 153.073,-7.078 152.93,-6.911C152.786,-6.744 152.676,-6.55 152.598,-6.329C152.521,-6.108 152.464,-5.885 152.428,-5.658L155.955,-5.658Z" style="fill:rgb(20,70,160);fill-rule:nonzero;"/>
        <path d="M166.268,-7.054C166.03,-7.114 165.749,-7.177 165.427,-7.242C165.105,-7.308 164.759,-7.341 164.388,-7.341C164.221,-7.341 164.021,-7.326 163.789,-7.296C163.556,-7.266 163.38,-7.233 163.26,-7.198L163.26,0L160.593,0L160.593,-8.916C161.07,-9.084 161.634,-9.242 162.285,-9.391C162.935,-9.54 163.66,-9.615 164.46,-9.615C164.603,-9.615 164.776,-9.606 164.979,-9.588C165.182,-9.57 165.385,-9.546 165.588,-9.516C165.791,-9.486 165.994,-9.451 166.197,-9.409C166.4,-9.367 166.573,-9.316 166.716,-9.257L166.268,-7.054Z" style="fill:rgb(20,70,160);fill-rule:nonzero;"/>
        <path d="M170.852,-1.916C171.341,-1.916 171.688,-1.964 171.89,-2.059C172.093,-2.155 172.195,-2.34 172.195,-2.614C172.195,-2.829 172.064,-3.017 171.801,-3.178C171.538,-3.339 171.138,-3.521 170.601,-3.724C170.184,-3.879 169.805,-4.04 169.464,-4.208C169.124,-4.375 168.835,-4.575 168.596,-4.807C168.357,-5.04 168.172,-5.318 168.041,-5.64C167.91,-5.962 167.844,-6.35 167.844,-6.804C167.844,-7.687 168.172,-8.385 168.829,-8.899C169.485,-9.412 170.387,-9.668 171.532,-9.668C172.105,-9.668 172.654,-9.618 173.18,-9.516C173.705,-9.415 174.123,-9.304 174.433,-9.185L173.967,-7.108C173.657,-7.216 173.32,-7.311 172.956,-7.395C172.592,-7.478 172.183,-7.52 171.729,-7.52C170.894,-7.52 170.476,-7.287 170.476,-6.822C170.476,-6.714 170.494,-6.619 170.53,-6.535C170.566,-6.452 170.637,-6.371 170.745,-6.293C170.852,-6.216 170.998,-6.132 171.183,-6.043C171.368,-5.953 171.604,-5.855 171.89,-5.747C172.475,-5.533 172.959,-5.321 173.341,-5.112C173.723,-4.903 174.024,-4.676 174.245,-4.431C174.466,-4.187 174.621,-3.915 174.71,-3.617C174.8,-3.318 174.845,-2.972 174.845,-2.578C174.845,-1.647 174.496,-0.943 173.797,-0.466C173.099,0.012 172.111,0.251 170.834,0.251C169.999,0.251 169.303,0.179 168.748,0.036C168.193,-0.107 167.808,-0.227 167.593,-0.322L168.041,-2.489C168.495,-2.31 168.96,-2.169 169.438,-2.068C169.915,-1.967 170.387,-1.916 170.852,-1.916Z" style="fill:rgb(20,70,160);fill-rule:nonzero;"/>
    </g>
</svg>
