<?xml version="1.0" encoding="UTF-8" standalone="no"?>
<!DOCTYPE svg PUBLIC "-//W3C//DTD SVG 1.1//EN"
 "http://www.w3.org/Graphics/SVG/1.1/DTD/svg11.dtd">
<!-- Generated by graphviz version 2.40.1 (20161225.0304)
 -->
<!-- Title: controllers_diagram Pages: 1 -->
<svg width="1121pt" height="1091pt"
 viewBox="0.00 0.00 1121.30 1091.00" xmlns="http://www.w3.org/2000/svg" xmlns:xlink="http://www.w3.org/1999/xlink">
<g id="graph0" class="graph" transform="scale(1 1) rotate(0) translate(4 1087)">
<title>controllers_diagram</title>
<polygon fill="transparent" stroke="transparent" points="-4,4 -4,-1087 1117.2969,-1087 1117.2969,4 -4,4"/>
<!-- _diagram_info -->
<g id="node1" class="node">
<title>_diagram_info</title>
<text text-anchor="start" x="825" y="-96.6" font-family="Times,serif" font-size="13.00" fill="#000000">Controllers diagram</text>
<text text-anchor="start" x="825" y="-83.6" font-family="Times,serif" font-size="13.00" fill="#000000">Date: Jun 12 2017 &#45; 20:25</text>
<text text-anchor="start" x="825" y="-70.6" font-family="Times,serif" font-size="13.00" fill="#000000">Migration version: 20170611232955</text>
<text text-anchor="start" x="825" y="-57.6" font-family="Times,serif" font-size="13.00" fill="#000000">Generated by RailRoady 1.5.3</text>
<text text-anchor="start" x="825" y="-44.6" font-family="Times,serif" font-size="13.00" fill="#000000">http://railroady.prestonlee.com</text>
</g>
<!-- Admin::BaseController -->
<g id="node2" class="node">
<title>Admin::BaseController</title>
<path fill="none" stroke="#000000" d="M50,-19.5C50,-19.5 173.4277,-19.5 173.4277,-19.5 179.4277,-19.5 185.4277,-25.5 185.4277,-31.5 185.4277,-31.5 185.4277,-99.5 185.4277,-99.5 185.4277,-105.5 179.4277,-111.5 173.4277,-111.5 173.4277,-111.5 50,-111.5 50,-111.5 44,-111.5 38,-105.5 38,-99.5 38,-99.5 38,-31.5 38,-31.5 38,-25.5 44,-19.5 50,-19.5"/>
<text text-anchor="middle" x="111.7139" y="-96.3" font-family="Times,serif" font-size="14.00" fill="#000000">Admin::BaseController</text>
<polyline fill="none" stroke="#000000" points="38,-89.5 185.4277,-89.5 "/>
<polyline fill="none" stroke="#000000" points="38,-65.5 185.4277,-65.5 "/>
<polyline fill="none" stroke="#000000" points="38,-41.5 185.4277,-41.5 "/>
<text text-anchor="start" x="46" y="-26.3" font-family="Times,serif" font-size="14.00" fill="#000000">_layout</text>
</g>
<!-- Admin::MeetupsController -->
<g id="node3" class="node">
<title>Admin::MeetupsController</title>
<path fill="none" stroke="#000000" d="M373,-684.5C373,-684.5 557.0625,-684.5 557.0625,-684.5 563.0625,-684.5 569.0625,-690.5 569.0625,-696.5 569.0625,-696.5 569.0625,-930.5 569.0625,-930.5 569.0625,-936.5 563.0625,-942.5 557.0625,-942.5 557.0625,-942.5 373,-942.5 373,-942.5 367,-942.5 361,-936.5 361,-930.5 361,-930.5 361,-696.5 361,-696.5 361,-690.5 367,-684.5 373,-684.5"/>
<text text-anchor="middle" x="465.0313" y="-927.3" font-family="Times,serif" font-size="14.00" fill="#000000">Admin::MeetupsController</text>
<polyline fill="none" stroke="#000000" points="361,-920.5 569.0625,-920.5 "/>
<text text-anchor="start" x="369" y="-905.3" font-family="Times,serif" font-size="14.00" fill="#000000">your_meetups</text>
<text text-anchor="start" x="369" y="-891.3" font-family="Times,serif" font-size="14.00" fill="#000000">destroy</text>
<text text-anchor="start" x="369" y="-877.3" font-family="Times,serif" font-size="14.00" fill="#000000">edit</text>
<text text-anchor="start" x="369" y="-863.3" font-family="Times,serif" font-size="14.00" fill="#000000">index</text>
<text text-anchor="start" x="369" y="-849.3" font-family="Times,serif" font-size="14.00" fill="#000000">new</text>
<text text-anchor="start" x="369" y="-835.3" font-family="Times,serif" font-size="14.00" fill="#000000">search</text>
<text text-anchor="start" x="369" y="-821.3" font-family="Times,serif" font-size="14.00" fill="#000000">update</text>
<text text-anchor="start" x="369" y="-807.3" font-family="Times,serif" font-size="14.00" fill="#000000">create</text>
<polyline fill="none" stroke="#000000" points="361,-800.5 569.0625,-800.5 "/>
<polyline fill="none" stroke="#000000" points="361,-776.5 569.0625,-776.5 "/>
<text text-anchor="start" x="369" y="-761.3" font-family="Times,serif" font-size="14.00" fill="#000000">_layout</text>
<text text-anchor="start" x="369" y="-747.3" font-family="Times,serif" font-size="14.00" fill="#000000">create_slug</text>
<text text-anchor="start" x="369" y="-733.3" font-family="Times,serif" font-size="14.00" fill="#000000">get_meetup</text>
<text text-anchor="start" x="369" y="-719.3" font-family="Times,serif" font-size="14.00" fill="#000000">meetup_params</text>
<text text-anchor="start" x="369" y="-705.3" font-family="Times,serif" font-size="14.00" fill="#000000">new_meetup_slack_message</text>
<text text-anchor="start" x="369" y="-691.3" font-family="Times,serif" font-size="14.00" fill="#000000">post_new_meetup_slack_message</text>
</g>
<!-- Admin::RolesController -->
<g id="node4" class="node">
<title>Admin::RolesController</title>
<path fill="none" stroke="#000000" d="M69,-437.5C69,-437.5 197.1035,-437.5 197.1035,-437.5 203.1035,-437.5 209.1035,-443.5 209.1035,-449.5 209.1035,-449.5 209.1035,-557.5 209.1035,-557.5 209.1035,-563.5 203.1035,-569.5 197.1035,-569.5 197.1035,-569.5 69,-569.5 69,-569.5 63,-569.5 57,-563.5 57,-557.5 57,-557.5 57,-449.5 57,-449.5 57,-443.5 63,-437.5 69,-437.5"/>
<text text-anchor="middle" x="133.0518" y="-554.3" font-family="Times,serif" font-size="14.00" fill="#000000">Admin::RolesController</text>
<polyline fill="none" stroke="#000000" points="57,-547.5 209.1035,-547.5 "/>
<text text-anchor="start" x="65" y="-532.3" font-family="Times,serif" font-size="14.00" fill="#000000">index</text>
<text text-anchor="start" x="65" y="-518.3" font-family="Times,serif" font-size="14.00" fill="#000000">update</text>
<polyline fill="none" stroke="#000000" points="57,-511.5 209.1035,-511.5 "/>
<polyline fill="none" stroke="#000000" points="57,-487.5 209.1035,-487.5 "/>
<text text-anchor="start" x="65" y="-472.3" font-family="Times,serif" font-size="14.00" fill="#000000">_layout</text>
<text text-anchor="start" x="65" y="-458.3" font-family="Times,serif" font-size="14.00" fill="#000000">get_role</text>
<text text-anchor="start" x="65" y="-444.3" font-family="Times,serif" font-size="14.00" fill="#000000">role_params</text>
</g>
<!-- Admin::SponsorsController -->
<g id="node5" class="node">
<title>Admin::SponsorsController</title>
<path fill="none" stroke="#000000" d="M620,-133.5C620,-133.5 767.5586,-133.5 767.5586,-133.5 773.5586,-133.5 779.5586,-139.5 779.5586,-145.5 779.5586,-145.5 779.5586,-309.5 779.5586,-309.5 779.5586,-315.5 773.5586,-321.5 767.5586,-321.5 767.5586,-321.5 620,-321.5 620,-321.5 614,-321.5 608,-315.5 608,-309.5 608,-309.5 608,-145.5 608,-145.5 608,-139.5 614,-133.5 620,-133.5"/>
<text text-anchor="middle" x="693.7793" y="-306.3" font-family="Times,serif" font-size="14.00" fill="#000000">Admin::SponsorsController</text>
<polyline fill="none" stroke="#000000" points="608,-299.5 779.5586,-299.5 "/>
<text text-anchor="start" x="616" y="-284.3" font-family="Times,serif" font-size="14.00" fill="#000000">create</text>
<text text-anchor="start" x="616" y="-270.3" font-family="Times,serif" font-size="14.00" fill="#000000">destroy</text>
<text text-anchor="start" x="616" y="-256.3" font-family="Times,serif" font-size="14.00" fill="#000000">edit</text>
<text text-anchor="start" x="616" y="-242.3" font-family="Times,serif" font-size="14.00" fill="#000000">index</text>
<text text-anchor="start" x="616" y="-228.3" font-family="Times,serif" font-size="14.00" fill="#000000">new</text>
<text text-anchor="start" x="616" y="-214.3" font-family="Times,serif" font-size="14.00" fill="#000000">update</text>
<polyline fill="none" stroke="#000000" points="608,-207.5 779.5586,-207.5 "/>
<polyline fill="none" stroke="#000000" points="608,-183.5 779.5586,-183.5 "/>
<text text-anchor="start" x="616" y="-168.3" font-family="Times,serif" font-size="14.00" fill="#000000">_layout</text>
<text text-anchor="start" x="616" y="-154.3" font-family="Times,serif" font-size="14.00" fill="#000000">get_sponsor</text>
<text text-anchor="start" x="616" y="-140.3" font-family="Times,serif" font-size="14.00" fill="#000000">sponsor_params</text>
</g>
<!-- Admin::UsersController -->
<g id="node6" class="node">
<title>Admin::UsersController</title>
<path fill="none" stroke="#000000" d="M392,-95.5C392,-95.5 520.0967,-95.5 520.0967,-95.5 526.0967,-95.5 532.0967,-101.5 532.0967,-107.5 532.0967,-107.5 532.0967,-243.5 532.0967,-243.5 532.0967,-249.5 526.0967,-255.5 520.0967,-255.5 520.0967,-255.5 392,-255.5 392,-255.5 386,-255.5 380,-249.5 380,-243.5 380,-243.5 380,-107.5 380,-107.5 380,-101.5 386,-95.5 392,-95.5"/>
<text text-anchor="middle" x="456.0483" y="-240.3" font-family="Times,serif" font-size="14.00" fill="#000000">Admin::UsersController</text>
<polyline fill="none" stroke="#000000" points="380,-233.5 532.0967,-233.5 "/>
<text text-anchor="start" x="388" y="-218.3" font-family="Times,serif" font-size="14.00" fill="#000000">destroy</text>
<text text-anchor="start" x="388" y="-204.3" font-family="Times,serif" font-size="14.00" fill="#000000">index</text>
<text text-anchor="start" x="388" y="-190.3" font-family="Times,serif" font-size="14.00" fill="#000000">search</text>
<text text-anchor="start" x="388" y="-176.3" font-family="Times,serif" font-size="14.00" fill="#000000">update</text>
<polyline fill="none" stroke="#000000" points="380,-169.5 532.0967,-169.5 "/>
<polyline fill="none" stroke="#000000" points="380,-145.5 532.0967,-145.5 "/>
<text text-anchor="start" x="388" y="-130.3" font-family="Times,serif" font-size="14.00" fill="#000000">_layout</text>
<text text-anchor="start" x="388" y="-116.3" font-family="Times,serif" font-size="14.00" fill="#000000">get_user</text>
<text text-anchor="start" x="388" y="-102.3" font-family="Times,serif" font-size="14.00" fill="#000000">user_params</text>
</g>
<!-- ApplicationController -->
<g id="node7" class="node">
<title>ApplicationController</title>
<path fill="none" stroke="#000000" d="M981,-950.5C981,-950.5 1101.2969,-950.5 1101.2969,-950.5 1107.2969,-950.5 1113.2969,-956.5 1113.2969,-962.5 1113.2969,-962.5 1113.2969,-1070.5 1113.2969,-1070.5 1113.2969,-1076.5 1107.2969,-1082.5 1101.2969,-1082.5 1101.2969,-1082.5 981,-1082.5 981,-1082.5 975,-1082.5 969,-1076.5 969,-1070.5 969,-1070.5 969,-962.5 969,-962.5 969,-956.5 975,-950.5 981,-950.5"/>
<text text-anchor="middle" x="1041.1484" y="-1067.3" font-family="Times,serif" font-size="14.00" fill="#000000">ApplicationController</text>
<polyline fill="none" stroke="#000000" points="969,-1060.5 1113.2969,-1060.5 "/>
<text text-anchor="start" x="977" y="-1045.3" font-family="Times,serif" font-size="14.00" fill="#000000">after_sign_in_path_for</text>
<text text-anchor="start" x="977" y="-1031.3" font-family="Times,serif" font-size="14.00" fill="#000000">notify_all</text>
<text text-anchor="start" x="977" y="-1017.3" font-family="Times,serif" font-size="14.00" fill="#000000">require_sign_in</text>
<text text-anchor="start" x="977" y="-1003.3" font-family="Times,serif" font-size="14.00" fill="#000000">store_location</text>
<polyline fill="none" stroke="#000000" points="969,-996.5 1113.2969,-996.5 "/>
<polyline fill="none" stroke="#000000" points="969,-972.5 1113.2969,-972.5 "/>
<text text-anchor="start" x="977" y="-957.3" font-family="Times,serif" font-size="14.00" fill="#000000">_layout</text>
</g>
<!-- CallbacksController -->
<g id="node8" class="node">
<title>CallbacksController</title>
<path fill="none" stroke="#000000" d="M12,-304.5C12,-304.5 116.752,-304.5 116.752,-304.5 122.752,-304.5 128.752,-310.5 128.752,-316.5 128.752,-316.5 128.752,-382.5 128.752,-382.5 128.752,-388.5 122.752,-394.5 116.752,-394.5 116.752,-394.5 12,-394.5 12,-394.5 6,-394.5 0,-388.5 0,-382.5 0,-382.5 0,-316.5 0,-316.5 0,-310.5 6,-304.5 12,-304.5"/>
<text text-anchor="middle" x="64.376" y="-379.3" font-family="Times,serif" font-size="14.00" fill="#000000">CallbacksController</text>
<polyline fill="none" stroke="#000000" points="0,-372.5 128.752,-372.5 "/>
<text text-anchor="start" x="8" y="-357.3" font-family="Times,serif" font-size="14.00" fill="#000000">github</text>
<polyline fill="none" stroke="#000000" points="0,-350.5 128.752,-350.5 "/>
<polyline fill="none" stroke="#000000" points="0,-326.5 128.752,-326.5 "/>
<text text-anchor="start" x="8" y="-311.3" font-family="Times,serif" font-size="14.00" fill="#000000">_layout</text>
</g>
<!-- CommentRepliesController -->
<g id="node9" class="node">
<title>CommentRepliesController</title>
<path fill="none" stroke="#000000" d="M183,-152.5C183,-152.5 329.7588,-152.5 329.7588,-152.5 335.7588,-152.5 341.7588,-158.5 341.7588,-164.5 341.7588,-164.5 341.7588,-328.5 341.7588,-328.5 341.7588,-334.5 335.7588,-340.5 329.7588,-340.5 329.7588,-340.5 183,-340.5 183,-340.5 177,-340.5 171,-334.5 171,-328.5 171,-328.5 171,-164.5 171,-164.5 171,-158.5 177,-152.5 183,-152.5"/>
<text text-anchor="middle" x="256.3794" y="-325.3" font-family="Times,serif" font-size="14.00" fill="#000000">CommentRepliesController</text>
<polyline fill="none" stroke="#000000" points="171,-318.5 341.7588,-318.5 "/>
<text text-anchor="start" x="179" y="-303.3" font-family="Times,serif" font-size="14.00" fill="#000000">create</text>
<text text-anchor="start" x="179" y="-289.3" font-family="Times,serif" font-size="14.00" fill="#000000">destroy</text>
<text text-anchor="start" x="179" y="-275.3" font-family="Times,serif" font-size="14.00" fill="#000000">hide</text>
<text text-anchor="start" x="179" y="-261.3" font-family="Times,serif" font-size="14.00" fill="#000000">new</text>
<polyline fill="none" stroke="#000000" points="171,-254.5 341.7588,-254.5 "/>
<polyline fill="none" stroke="#000000" points="171,-230.5 341.7588,-230.5 "/>
<text text-anchor="start" x="179" y="-215.3" font-family="Times,serif" font-size="14.00" fill="#000000">_layout</text>
<text text-anchor="start" x="179" y="-201.3" font-family="Times,serif" font-size="14.00" fill="#000000">comment_params</text>
<text text-anchor="start" x="179" y="-187.3" font-family="Times,serif" font-size="14.00" fill="#000000">find_comment</text>
<text text-anchor="start" x="179" y="-173.3" font-family="Times,serif" font-size="14.00" fill="#000000">find_reply</text>
<text text-anchor="start" x="179" y="-159.3" font-family="Times,serif" font-size="14.00" fill="#000000">notify_comment_author</text>
</g>
<!-- CommentsController -->
<g id="node10" class="node">
<title>CommentsController</title>
<path fill="none" stroke="#000000" d="M829,-152.5C829,-152.5 958.6484,-152.5 958.6484,-152.5 964.6484,-152.5 970.6484,-158.5 970.6484,-164.5 970.6484,-164.5 970.6484,-356.5 970.6484,-356.5 970.6484,-362.5 964.6484,-368.5 958.6484,-368.5 958.6484,-368.5 829,-368.5 829,-368.5 823,-368.5 817,-362.5 817,-356.5 817,-356.5 817,-164.5 817,-164.5 817,-158.5 823,-152.5 829,-152.5"/>
<text text-anchor="middle" x="893.8242" y="-353.3" font-family="Times,serif" font-size="14.00" fill="#000000">CommentsController</text>
<polyline fill="none" stroke="#000000" points="817,-346.5 970.6484,-346.5 "/>
<text text-anchor="start" x="825" y="-331.3" font-family="Times,serif" font-size="14.00" fill="#000000">create</text>
<text text-anchor="start" x="825" y="-317.3" font-family="Times,serif" font-size="14.00" fill="#000000">destroy</text>
<text text-anchor="start" x="825" y="-303.3" font-family="Times,serif" font-size="14.00" fill="#000000">hide</text>
<text text-anchor="start" x="825" y="-289.3" font-family="Times,serif" font-size="14.00" fill="#000000">new</text>
<text text-anchor="start" x="825" y="-275.3" font-family="Times,serif" font-size="14.00" fill="#000000">show</text>
<polyline fill="none" stroke="#000000" points="817,-268.5 970.6484,-268.5 "/>
<polyline fill="none" stroke="#000000" points="817,-244.5 970.6484,-244.5 "/>
<text text-anchor="start" x="825" y="-229.3" font-family="Times,serif" font-size="14.00" fill="#000000">_layout</text>
<text text-anchor="start" x="825" y="-215.3" font-family="Times,serif" font-size="14.00" fill="#000000">comment_params</text>
<text text-anchor="start" x="825" y="-201.3" font-family="Times,serif" font-size="14.00" fill="#000000">find_comment</text>
<text text-anchor="start" x="825" y="-187.3" font-family="Times,serif" font-size="14.00" fill="#000000">find_commentable</text>
<text text-anchor="start" x="825" y="-173.3" font-family="Times,serif" font-size="14.00" fill="#000000">send_notifications</text>
<text text-anchor="start" x="825" y="-159.3" font-family="Times,serif" font-size="14.00" fill="#000000">set_post_and_comments</text>
</g>
<!-- HackroomsController -->
<g id="node11" class="node">
<title>HackroomsController</title>
<path fill="none" stroke="#000000" d="M392,-285.5C392,-285.5 566.7109,-285.5 566.7109,-285.5 572.7109,-285.5 578.7109,-291.5 578.7109,-297.5 578.7109,-297.5 578.7109,-629.5 578.7109,-629.5 578.7109,-635.5 572.7109,-641.5 566.7109,-641.5 566.7109,-641.5 392,-641.5 392,-641.5 386,-641.5 380,-635.5 380,-629.5 380,-629.5 380,-297.5 380,-297.5 380,-291.5 386,-285.5 392,-285.5"/>
<text text-anchor="middle" x="479.3555" y="-626.3" font-family="Times,serif" font-size="14.00" fill="#000000">HackroomsController</text>
<polyline fill="none" stroke="#000000" points="380,-619.5 578.7109,-619.5 "/>
<text text-anchor="start" x="388" y="-604.3" font-family="Times,serif" font-size="14.00" fill="#000000">update</text>
<text text-anchor="start" x="388" y="-590.3" font-family="Times,serif" font-size="14.00" fill="#000000">create</text>
<text text-anchor="start" x="388" y="-576.3" font-family="Times,serif" font-size="14.00" fill="#000000">destroy</text>
<text text-anchor="start" x="388" y="-562.3" font-family="Times,serif" font-size="14.00" fill="#000000">discussion</text>
<text text-anchor="start" x="388" y="-548.3" font-family="Times,serif" font-size="14.00" fill="#000000">edit</text>
<text text-anchor="start" x="388" y="-534.3" font-family="Times,serif" font-size="14.00" fill="#000000">index</text>
<text text-anchor="start" x="388" y="-520.3" font-family="Times,serif" font-size="14.00" fill="#000000">join</text>
<text text-anchor="start" x="388" y="-506.3" font-family="Times,serif" font-size="14.00" fill="#000000">languages</text>
<text text-anchor="start" x="388" y="-492.3" font-family="Times,serif" font-size="14.00" fill="#000000">members</text>
<text text-anchor="start" x="388" y="-478.3" font-family="Times,serif" font-size="14.00" fill="#000000">new</text>
<text text-anchor="start" x="388" y="-464.3" font-family="Times,serif" font-size="14.00" fill="#000000">search</text>
<text text-anchor="start" x="388" y="-450.3" font-family="Times,serif" font-size="14.00" fill="#000000">admins</text>
<polyline fill="none" stroke="#000000" points="380,-443.5 578.7109,-443.5 "/>
<polyline fill="none" stroke="#000000" points="380,-419.5 578.7109,-419.5 "/>
<text text-anchor="start" x="388" y="-404.3" font-family="Times,serif" font-size="14.00" fill="#000000">slack_announce_new_hackroom</text>
<text text-anchor="start" x="388" y="-390.3" font-family="Times,serif" font-size="14.00" fill="#000000">add_user_to_hackroom</text>
<text text-anchor="start" x="388" y="-376.3" font-family="Times,serif" font-size="14.00" fill="#000000">find_comments</text>
<text text-anchor="start" x="388" y="-362.3" font-family="Times,serif" font-size="14.00" fill="#000000">get_hackroom</text>
<text text-anchor="start" x="388" y="-348.3" font-family="Times,serif" font-size="14.00" fill="#000000">get_user</text>
<text text-anchor="start" x="388" y="-334.3" font-family="Times,serif" font-size="14.00" fill="#000000">hackroom_params</text>
<text text-anchor="start" x="388" y="-320.3" font-family="Times,serif" font-size="14.00" fill="#000000">remove_user_from_hackroom</text>
<text text-anchor="start" x="388" y="-306.3" font-family="Times,serif" font-size="14.00" fill="#000000">require_hackroom_admin</text>
<text text-anchor="start" x="388" y="-292.3" font-family="Times,serif" font-size="14.00" fill="#000000">_layout</text>
</g>
<!-- LanguagesController -->
<g id="node12" class="node">
<title>LanguagesController</title>
<path fill="none" stroke="#000000" d="M753,-722.5C753,-722.5 863.1865,-722.5 863.1865,-722.5 869.1865,-722.5 875.1865,-728.5 875.1865,-734.5 875.1865,-734.5 875.1865,-982.5 875.1865,-982.5 875.1865,-988.5 869.1865,-994.5 863.1865,-994.5 863.1865,-994.5 753,-994.5 753,-994.5 747,-994.5 741,-988.5 741,-982.5 741,-982.5 741,-734.5 741,-734.5 741,-728.5 747,-722.5 753,-722.5"/>
<text text-anchor="middle" x="808.0933" y="-979.3" font-family="Times,serif" font-size="14.00" fill="#000000">LanguagesController</text>
<polyline fill="none" stroke="#000000" points="741,-972.5 875.1865,-972.5 "/>
<text text-anchor="start" x="749" y="-957.3" font-family="Times,serif" font-size="14.00" fill="#000000">update</text>
<text text-anchor="start" x="749" y="-943.3" font-family="Times,serif" font-size="14.00" fill="#000000">destroy</text>
<text text-anchor="start" x="749" y="-929.3" font-family="Times,serif" font-size="14.00" fill="#000000">discussion</text>
<text text-anchor="start" x="749" y="-915.3" font-family="Times,serif" font-size="14.00" fill="#000000">edit</text>
<text text-anchor="start" x="749" y="-901.3" font-family="Times,serif" font-size="14.00" fill="#000000">fans</text>
<text text-anchor="start" x="749" y="-887.3" font-family="Times,serif" font-size="14.00" fill="#000000">hackrooms</text>
<text text-anchor="start" x="749" y="-873.3" font-family="Times,serif" font-size="14.00" fill="#000000">index</text>
<text text-anchor="start" x="749" y="-859.3" font-family="Times,serif" font-size="14.00" fill="#000000">new</text>
<text text-anchor="start" x="749" y="-845.3" font-family="Times,serif" font-size="14.00" fill="#000000">search</text>
<text text-anchor="start" x="749" y="-831.3" font-family="Times,serif" font-size="14.00" fill="#000000">create</text>
<polyline fill="none" stroke="#000000" points="741,-824.5 875.1865,-824.5 "/>
<polyline fill="none" stroke="#000000" points="741,-800.5 875.1865,-800.5 "/>
<text text-anchor="start" x="749" y="-785.3" font-family="Times,serif" font-size="14.00" fill="#000000">_layout</text>
<text text-anchor="start" x="749" y="-771.3" font-family="Times,serif" font-size="14.00" fill="#000000">find_comments</text>
<text text-anchor="start" x="749" y="-757.3" font-family="Times,serif" font-size="14.00" fill="#000000">find_language</text>
<text text-anchor="start" x="749" y="-743.3" font-family="Times,serif" font-size="14.00" fill="#000000">language_params</text>
<text text-anchor="start" x="749" y="-729.3" font-family="Times,serif" font-size="14.00" fill="#000000">set_other_attributes</text>
</g>
<!-- MeetupsController -->
<g id="node13" class="node">
<title>MeetupsController</title>
<path fill="none" stroke="#000000" d="M221,-760.5C221,-760.5 318.7588,-760.5 318.7588,-760.5 324.7588,-760.5 330.7588,-766.5 330.7588,-772.5 330.7588,-772.5 330.7588,-922.5 330.7588,-922.5 330.7588,-928.5 324.7588,-934.5 318.7588,-934.5 318.7588,-934.5 221,-934.5 221,-934.5 215,-934.5 209,-928.5 209,-922.5 209,-922.5 209,-772.5 209,-772.5 209,-766.5 215,-760.5 221,-760.5"/>
<text text-anchor="middle" x="269.8794" y="-919.3" font-family="Times,serif" font-size="14.00" fill="#000000">MeetupsController</text>
<polyline fill="none" stroke="#000000" points="209,-912.5 330.7588,-912.5 "/>
<text text-anchor="start" x="217" y="-897.3" font-family="Times,serif" font-size="14.00" fill="#000000">index</text>
<text text-anchor="start" x="217" y="-883.3" font-family="Times,serif" font-size="14.00" fill="#000000">past_meetups</text>
<text text-anchor="start" x="217" y="-869.3" font-family="Times,serif" font-size="14.00" fill="#000000">rsvp</text>
<text text-anchor="start" x="217" y="-855.3" font-family="Times,serif" font-size="14.00" fill="#000000">search</text>
<text text-anchor="start" x="217" y="-841.3" font-family="Times,serif" font-size="14.00" fill="#000000">show</text>
<polyline fill="none" stroke="#000000" points="209,-834.5 330.7588,-834.5 "/>
<polyline fill="none" stroke="#000000" points="209,-810.5 330.7588,-810.5 "/>
<text text-anchor="start" x="217" y="-795.3" font-family="Times,serif" font-size="14.00" fill="#000000">_layout</text>
<text text-anchor="start" x="217" y="-781.3" font-family="Times,serif" font-size="14.00" fill="#000000">find_comments</text>
<text text-anchor="start" x="217" y="-767.3" font-family="Times,serif" font-size="14.00" fill="#000000">get_meetup</text>
</g>
<!-- NotificationsController -->
<g id="node14" class="node">
<title>NotificationsController</title>
<path fill="none" stroke="#000000" d="M69,-608.5C69,-608.5 190.876,-608.5 190.876,-608.5 196.876,-608.5 202.876,-614.5 202.876,-620.5 202.876,-620.5 202.876,-714.5 202.876,-714.5 202.876,-720.5 196.876,-726.5 190.876,-726.5 190.876,-726.5 69,-726.5 69,-726.5 63,-726.5 57,-720.5 57,-714.5 57,-714.5 57,-620.5 57,-620.5 57,-614.5 63,-608.5 69,-608.5"/>
<text text-anchor="middle" x="129.938" y="-711.3" font-family="Times,serif" font-size="14.00" fill="#000000">NotificationsController</text>
<polyline fill="none" stroke="#000000" points="57,-704.5 202.876,-704.5 "/>
<text text-anchor="start" x="65" y="-689.3" font-family="Times,serif" font-size="14.00" fill="#000000">index</text>
<text text-anchor="start" x="65" y="-675.3" font-family="Times,serif" font-size="14.00" fill="#000000">link_through</text>
<text text-anchor="start" x="65" y="-661.3" font-family="Times,serif" font-size="14.00" fill="#000000">mark_all_read</text>
<polyline fill="none" stroke="#000000" points="57,-654.5 202.876,-654.5 "/>
<polyline fill="none" stroke="#000000" points="57,-630.5 202.876,-630.5 "/>
<text text-anchor="start" x="65" y="-615.3" font-family="Times,serif" font-size="14.00" fill="#000000">_layout</text>
</g>
<!-- OrganiserInterestsController -->
<g id="node15" class="node">
<title>OrganiserInterestsController</title>
<path fill="none" stroke="#000000" d="M924,-646.5C924,-646.5 1075.9268,-646.5 1075.9268,-646.5 1081.9268,-646.5 1087.9268,-652.5 1087.9268,-658.5 1087.9268,-658.5 1087.9268,-724.5 1087.9268,-724.5 1087.9268,-730.5 1081.9268,-736.5 1075.9268,-736.5 1075.9268,-736.5 924,-736.5 924,-736.5 918,-736.5 912,-730.5 912,-724.5 912,-724.5 912,-658.5 912,-658.5 912,-652.5 918,-646.5 924,-646.5"/>
<text text-anchor="middle" x="999.9634" y="-721.3" font-family="Times,serif" font-size="14.00" fill="#000000">OrganiserInterestsController</text>
<polyline fill="none" stroke="#000000" points="912,-714.5 1087.9268,-714.5 "/>
<text text-anchor="start" x="920" y="-699.3" font-family="Times,serif" font-size="14.00" fill="#000000">create</text>
<polyline fill="none" stroke="#000000" points="912,-692.5 1087.9268,-692.5 "/>
<polyline fill="none" stroke="#000000" points="912,-668.5 1087.9268,-668.5 "/>
<text text-anchor="start" x="920" y="-653.3" font-family="Times,serif" font-size="14.00" fill="#000000">_layout</text>
</g>
<!-- PagesController -->
<g id="node16" class="node">
<title>PagesController</title>
<path fill="none" stroke="#000000" d="M582,-.5C582,-.5 664.207,-.5 664.207,-.5 670.207,-.5 676.207,-6.5 676.207,-12.5 676.207,-12.5 676.207,-92.5 676.207,-92.5 676.207,-98.5 670.207,-104.5 664.207,-104.5 664.207,-104.5 582,-104.5 582,-104.5 576,-104.5 570,-98.5 570,-92.5 570,-92.5 570,-12.5 570,-12.5 570,-6.5 576,-.5 582,-.5"/>
<text text-anchor="middle" x="623.1035" y="-89.3" font-family="Times,serif" font-size="14.00" fill="#000000">PagesController</text>
<polyline fill="none" stroke="#000000" points="570,-82.5 676.207,-82.5 "/>
<text text-anchor="start" x="578" y="-67.3" font-family="Times,serif" font-size="14.00" fill="#000000">home</text>
<text text-anchor="start" x="578" y="-53.3" font-family="Times,serif" font-size="14.00" fill="#000000">learn</text>
<polyline fill="none" stroke="#000000" points="570,-46.5 676.207,-46.5 "/>
<polyline fill="none" stroke="#000000" points="570,-22.5 676.207,-22.5 "/>
<text text-anchor="start" x="578" y="-7.3" font-family="Times,serif" font-size="14.00" fill="#000000">_layout</text>
</g>
<!-- PasswordsController -->
<g id="node17" class="node">
<title>PasswordsController</title>
<path fill="none" stroke="#000000" d="M50,-931.5C50,-931.5 158.6621,-931.5 158.6621,-931.5 164.6621,-931.5 170.6621,-937.5 170.6621,-943.5 170.6621,-943.5 170.6621,-1025.5 170.6621,-1025.5 170.6621,-1031.5 164.6621,-1037.5 158.6621,-1037.5 158.6621,-1037.5 50,-1037.5 50,-1037.5 44,-1037.5 38,-1031.5 38,-1025.5 38,-1025.5 38,-943.5 38,-943.5 38,-937.5 44,-931.5 50,-931.5"/>
<text text-anchor="middle" x="104.3311" y="-1022.3" font-family="Times,serif" font-size="14.00" fill="#000000">PasswordsController</text>
<polyline fill="none" stroke="#000000" points="38,-1015.5 170.6621,-1015.5 "/>
<polyline fill="none" stroke="#000000" points="38,-991.5 170.6621,-991.5 "/>
<polyline fill="none" stroke="#000000" points="38,-967.5 170.6621,-967.5 "/>
<text text-anchor="start" x="46" y="-952.3" font-family="Times,serif" font-size="14.00" fill="#000000">_layout</text>
<text text-anchor="start" x="46" y="-938.3" font-family="Times,serif" font-size="14.00" fill="#000000">check_captcha</text>
</g>
<!-- PostAttachmentsController -->
<g id="node18" class="node">
<title>PostAttachmentsController</title>
<path fill="none" stroke="#000000" d="M829,-399.5C829,-399.5 973.4277,-399.5 973.4277,-399.5 979.4277,-399.5 985.4277,-405.5 985.4277,-411.5 985.4277,-411.5 985.4277,-589.5 985.4277,-589.5 985.4277,-595.5 979.4277,-601.5 973.4277,-601.5 973.4277,-601.5 829,-601.5 829,-601.5 823,-601.5 817,-595.5 817,-589.5 817,-589.5 817,-411.5 817,-411.5 817,-405.5 823,-399.5 829,-399.5"/>
<text text-anchor="middle" x="901.2139" y="-586.3" font-family="Times,serif" font-size="14.00" fill="#000000">PostAttachmentsController</text>
<polyline fill="none" stroke="#000000" points="817,-579.5 985.4277,-579.5 "/>
<text text-anchor="start" x="825" y="-564.3" font-family="Times,serif" font-size="14.00" fill="#000000">index</text>
<text text-anchor="start" x="825" y="-550.3" font-family="Times,serif" font-size="14.00" fill="#000000">destroy</text>
<text text-anchor="start" x="825" y="-536.3" font-family="Times,serif" font-size="14.00" fill="#000000">edit</text>
<text text-anchor="start" x="825" y="-522.3" font-family="Times,serif" font-size="14.00" fill="#000000">create</text>
<text text-anchor="start" x="825" y="-508.3" font-family="Times,serif" font-size="14.00" fill="#000000">new</text>
<text text-anchor="start" x="825" y="-494.3" font-family="Times,serif" font-size="14.00" fill="#000000">show</text>
<text text-anchor="start" x="825" y="-480.3" font-family="Times,serif" font-size="14.00" fill="#000000">update</text>
<polyline fill="none" stroke="#000000" points="817,-473.5 985.4277,-473.5 "/>
<polyline fill="none" stroke="#000000" points="817,-449.5 985.4277,-449.5 "/>
<text text-anchor="start" x="825" y="-434.3" font-family="Times,serif" font-size="14.00" fill="#000000">_layout</text>
<text text-anchor="start" x="825" y="-420.3" font-family="Times,serif" font-size="14.00" fill="#000000">post_attachment_params</text>
<text text-anchor="start" x="825" y="-406.3" font-family="Times,serif" font-size="14.00" fill="#000000">set_post_attachment</text>
</g>
<!-- PostsController -->
<g id="node19" class="node">
<title>PostsController</title>
<path fill="none" stroke="#000000" d="M259,-380.5C259,-380.5 338.1172,-380.5 338.1172,-380.5 344.1172,-380.5 350.1172,-386.5 350.1172,-392.5 350.1172,-392.5 350.1172,-640.5 350.1172,-640.5 350.1172,-646.5 344.1172,-652.5 338.1172,-652.5 338.1172,-652.5 259,-652.5 259,-652.5 253,-652.5 247,-646.5 247,-640.5 247,-640.5 247,-392.5 247,-392.5 247,-386.5 253,-380.5 259,-380.5"/>
<text text-anchor="middle" x="298.5586" y="-637.3" font-family="Times,serif" font-size="14.00" fill="#000000">PostsController</text>
<polyline fill="none" stroke="#000000" points="247,-630.5 350.1172,-630.5 "/>
<text text-anchor="start" x="255" y="-615.3" font-family="Times,serif" font-size="14.00" fill="#000000">update</text>
<text text-anchor="start" x="255" y="-601.3" font-family="Times,serif" font-size="14.00" fill="#000000">create</text>
<text text-anchor="start" x="255" y="-587.3" font-family="Times,serif" font-size="14.00" fill="#000000">destroy</text>
<text text-anchor="start" x="255" y="-573.3" font-family="Times,serif" font-size="14.00" fill="#000000">edit</text>
<text text-anchor="start" x="255" y="-559.3" font-family="Times,serif" font-size="14.00" fill="#000000">index</text>
<text text-anchor="start" x="255" y="-545.3" font-family="Times,serif" font-size="14.00" fill="#000000">new</text>
<text text-anchor="start" x="255" y="-531.3" font-family="Times,serif" font-size="14.00" fill="#000000">new_comment</text>
<text text-anchor="start" x="255" y="-517.3" font-family="Times,serif" font-size="14.00" fill="#000000">search</text>
<text text-anchor="start" x="255" y="-503.3" font-family="Times,serif" font-size="14.00" fill="#000000">show</text>
<text text-anchor="start" x="255" y="-489.3" font-family="Times,serif" font-size="14.00" fill="#000000">announce</text>
<polyline fill="none" stroke="#000000" points="247,-482.5 350.1172,-482.5 "/>
<polyline fill="none" stroke="#000000" points="247,-458.5 350.1172,-458.5 "/>
<text text-anchor="start" x="255" y="-443.3" font-family="Times,serif" font-size="14.00" fill="#000000">_layout</text>
<text text-anchor="start" x="255" y="-429.3" font-family="Times,serif" font-size="14.00" fill="#000000">get_post</text>
<text text-anchor="start" x="255" y="-415.3" font-family="Times,serif" font-size="14.00" fill="#000000">post_params</text>
<text text-anchor="start" x="255" y="-401.3" font-family="Times,serif" font-size="14.00" fill="#000000">slack</text>
<text text-anchor="start" x="255" y="-387.3" font-family="Times,serif" font-size="14.00" fill="#000000">tag_params</text>
</g>
<!-- RegistrationsController -->
<g id="node20" class="node">
<title>RegistrationsController</title>
<path fill="none" stroke="#000000" d="M924,-779.5C924,-779.5 1051.2764,-779.5 1051.2764,-779.5 1057.2764,-779.5 1063.2764,-785.5 1063.2764,-791.5 1063.2764,-791.5 1063.2764,-899.5 1063.2764,-899.5 1063.2764,-905.5 1057.2764,-911.5 1051.2764,-911.5 1051.2764,-911.5 924,-911.5 924,-911.5 918,-911.5 912,-905.5 912,-899.5 912,-899.5 912,-791.5 912,-791.5 912,-785.5 918,-779.5 924,-779.5"/>
<text text-anchor="middle" x="987.6382" y="-896.3" font-family="Times,serif" font-size="14.00" fill="#000000">RegistrationsController</text>
<polyline fill="none" stroke="#000000" points="912,-889.5 1063.2764,-889.5 "/>
<text text-anchor="start" x="920" y="-874.3" font-family="Times,serif" font-size="14.00" fill="#000000">create</text>
<polyline fill="none" stroke="#000000" points="912,-867.5 1063.2764,-867.5 "/>
<polyline fill="none" stroke="#000000" points="912,-843.5 1063.2764,-843.5 "/>
<text text-anchor="start" x="920" y="-828.3" font-family="Times,serif" font-size="14.00" fill="#000000">_layout</text>
<text text-anchor="start" x="920" y="-814.3" font-family="Times,serif" font-size="14.00" fill="#000000">account_update_params</text>
<text text-anchor="start" x="920" y="-800.3" font-family="Times,serif" font-size="14.00" fill="#000000">check_captcha</text>
<text text-anchor="start" x="920" y="-786.3" font-family="Times,serif" font-size="14.00" fill="#000000">sign_up_params</text>
</g>
<!-- RolesController -->
<g id="node21" class="node">
<title>RolesController</title>
<path fill="none" stroke="#000000" d="M620,-722.5C620,-722.5 701.4346,-722.5 701.4346,-722.5 707.4346,-722.5 713.4346,-728.5 713.4346,-734.5 713.4346,-734.5 713.4346,-870.5 713.4346,-870.5 713.4346,-876.5 707.4346,-882.5 701.4346,-882.5 701.4346,-882.5 620,-882.5 620,-882.5 614,-882.5 608,-876.5 608,-870.5 608,-870.5 608,-734.5 608,-734.5 608,-728.5 614,-722.5 620,-722.5"/>
<text text-anchor="middle" x="660.7173" y="-867.3" font-family="Times,serif" font-size="14.00" fill="#000000">RolesController</text>
<polyline fill="none" stroke="#000000" points="608,-860.5 713.4346,-860.5 "/>
<text text-anchor="start" x="616" y="-845.3" font-family="Times,serif" font-size="14.00" fill="#000000">create</text>
<text text-anchor="start" x="616" y="-831.3" font-family="Times,serif" font-size="14.00" fill="#000000">destroy</text>
<text text-anchor="start" x="616" y="-817.3" font-family="Times,serif" font-size="14.00" fill="#000000">new</text>
<text text-anchor="start" x="616" y="-803.3" font-family="Times,serif" font-size="14.00" fill="#000000">update</text>
<polyline fill="none" stroke="#000000" points="608,-796.5 713.4346,-796.5 "/>
<polyline fill="none" stroke="#000000" points="608,-772.5 713.4346,-772.5 "/>
<text text-anchor="start" x="616" y="-757.3" font-family="Times,serif" font-size="14.00" fill="#000000">_layout</text>
<text text-anchor="start" x="616" y="-743.3" font-family="Times,serif" font-size="14.00" fill="#000000">find_role</text>
<text text-anchor="start" x="616" y="-729.3" font-family="Times,serif" font-size="14.00" fill="#000000">role_params</text>
</g>
<!-- SessionsController -->
<g id="node22" class="node">
<title>SessionsController</title>
<path fill="none" stroke="#000000" d="M69,-779.5C69,-779.5 166.7793,-779.5 166.7793,-779.5 172.7793,-779.5 178.7793,-785.5 178.7793,-791.5 178.7793,-791.5 178.7793,-873.5 178.7793,-873.5 178.7793,-879.5 172.7793,-885.5 166.7793,-885.5 166.7793,-885.5 69,-885.5 69,-885.5 63,-885.5 57,-879.5 57,-873.5 57,-873.5 57,-791.5 57,-791.5 57,-785.5 63,-779.5 69,-779.5"/>
<text text-anchor="middle" x="117.8896" y="-870.3" font-family="Times,serif" font-size="14.00" fill="#000000">SessionsController</text>
<polyline fill="none" stroke="#000000" points="57,-863.5 178.7793,-863.5 "/>
<polyline fill="none" stroke="#000000" points="57,-839.5 178.7793,-839.5 "/>
<polyline fill="none" stroke="#000000" points="57,-815.5 178.7793,-815.5 "/>
<text text-anchor="start" x="65" y="-800.3" font-family="Times,serif" font-size="14.00" fill="#000000">_layout</text>
<text text-anchor="start" x="65" y="-786.3" font-family="Times,serif" font-size="14.00" fill="#000000">check_captcha</text>
</g>
<!-- SponsorsController -->
<g id="node23" class="node">
<title>SponsorsController</title>
<path fill="none" stroke="#000000" d="M240,-19.5C240,-19.5 340.8896,-19.5 340.8896,-19.5 346.8896,-19.5 352.8896,-25.5 352.8896,-31.5 352.8896,-31.5 352.8896,-111.5 352.8896,-111.5 352.8896,-117.5 346.8896,-123.5 340.8896,-123.5 340.8896,-123.5 240,-123.5 240,-123.5 234,-123.5 228,-117.5 228,-111.5 228,-111.5 228,-31.5 228,-31.5 228,-25.5 234,-19.5 240,-19.5"/>
<text text-anchor="middle" x="290.4448" y="-108.3" font-family="Times,serif" font-size="14.00" fill="#000000">SponsorsController</text>
<polyline fill="none" stroke="#000000" points="228,-101.5 352.8896,-101.5 "/>
<text text-anchor="start" x="236" y="-86.3" font-family="Times,serif" font-size="14.00" fill="#000000">index</text>
<polyline fill="none" stroke="#000000" points="228,-79.5 352.8896,-79.5 "/>
<polyline fill="none" stroke="#000000" points="228,-55.5 352.8896,-55.5 "/>
<text text-anchor="start" x="236" y="-40.3" font-family="Times,serif" font-size="14.00" fill="#000000">_layout</text>
<text text-anchor="start" x="236" y="-26.3" font-family="Times,serif" font-size="14.00" fill="#000000">get_sponsor</text>
</g>
<!-- UsersController -->
<g id="node24" class="node">
<title>UsersController</title>
<path fill="none" stroke="#000000" d="M620,-361.5C620,-361.5 759.7451,-361.5 759.7451,-361.5 765.7451,-361.5 771.7451,-367.5 771.7451,-373.5 771.7451,-373.5 771.7451,-663.5 771.7451,-663.5 771.7451,-669.5 765.7451,-675.5 759.7451,-675.5 759.7451,-675.5 620,-675.5 620,-675.5 614,-675.5 608,-669.5 608,-663.5 608,-663.5 608,-373.5 608,-373.5 608,-367.5 614,-361.5 620,-361.5"/>
<text text-anchor="middle" x="689.8726" y="-660.3" font-family="Times,serif" font-size="14.00" fill="#000000">UsersController</text>
<polyline fill="none" stroke="#000000" points="608,-653.5 771.7451,-653.5 "/>
<text text-anchor="start" x="616" y="-638.3" font-family="Times,serif" font-size="14.00" fill="#000000">update</text>
<text text-anchor="start" x="616" y="-624.3" font-family="Times,serif" font-size="14.00" fill="#000000">edit</text>
<text text-anchor="start" x="616" y="-610.3" font-family="Times,serif" font-size="14.00" fill="#000000">follow</text>
<text text-anchor="start" x="616" y="-596.3" font-family="Times,serif" font-size="14.00" fill="#000000">hackrooms</text>
<text text-anchor="start" x="616" y="-582.3" font-family="Times,serif" font-size="14.00" fill="#000000">index</text>
<text text-anchor="start" x="616" y="-568.3" font-family="Times,serif" font-size="14.00" fill="#000000">languages</text>
<text text-anchor="start" x="616" y="-554.3" font-family="Times,serif" font-size="14.00" fill="#000000">meetups</text>
<text text-anchor="start" x="616" y="-540.3" font-family="Times,serif" font-size="14.00" fill="#000000">organisers</text>
<text text-anchor="start" x="616" y="-526.3" font-family="Times,serif" font-size="14.00" fill="#000000">posts</text>
<text text-anchor="start" x="616" y="-512.3" font-family="Times,serif" font-size="14.00" fill="#000000">search</text>
<text text-anchor="start" x="616" y="-498.3" font-family="Times,serif" font-size="14.00" fill="#000000">show</text>
<text text-anchor="start" x="616" y="-484.3" font-family="Times,serif" font-size="14.00" fill="#000000">unfollow</text>
<text text-anchor="start" x="616" y="-470.3" font-family="Times,serif" font-size="14.00" fill="#000000">discussion</text>
<polyline fill="none" stroke="#000000" points="608,-463.5 771.7451,-463.5 "/>
<polyline fill="none" stroke="#000000" points="608,-439.5 771.7451,-439.5 "/>
<text text-anchor="start" x="616" y="-424.3" font-family="Times,serif" font-size="14.00" fill="#000000">_layout</text>
<text text-anchor="start" x="616" y="-410.3" font-family="Times,serif" font-size="14.00" fill="#000000">create_follow_notification</text>
<text text-anchor="start" x="616" y="-396.3" font-family="Times,serif" font-size="14.00" fill="#000000">delete_follow_notification</text>
<text text-anchor="start" x="616" y="-382.3" font-family="Times,serif" font-size="14.00" fill="#000000">get_user</text>
<text text-anchor="start" x="616" y="-368.3" font-family="Times,serif" font-size="14.00" fill="#000000">user_params</text>
</g>
</g>
</svg>
