<?xml version="1.0" encoding="UTF-8" standalone="no"?>
<!DOCTYPE svg PUBLIC "-//W3C//DTD SVG 1.1//EN"
 "http://www.w3.org/Graphics/SVG/1.1/DTD/svg11.dtd">
<!-- Generated by graphviz version 2.40.1 (20161225.0304)
 -->
<!-- Title: models_diagram Pages: 1 -->
<svg width="3488pt" height="1940pt"
 viewBox="0.00 0.00 3488.24 1940.00" xmlns="http://www.w3.org/2000/svg" xmlns:xlink="http://www.w3.org/1999/xlink">
<g id="graph0" class="graph" transform="scale(1 1) rotate(0) translate(4 1936)">
<title>models_diagram</title>
<polygon fill="transparent" stroke="transparent" points="-4,4 -4,-1936 3484.2357,-1936 3484.2357,4 -4,4"/>
<!-- _diagram_info -->
<g id="node1" class="node">
<title>_diagram_info</title>
<text text-anchor="start" x="2143.9236" y="-1875.6" font-family="Times,serif" font-size="13.00" fill="#000000">Models diagram</text>
<text text-anchor="start" x="2143.9236" y="-1862.6" font-family="Times,serif" font-size="13.00" fill="#000000">Date: Jun 12 2017 &#45; 20:24</text>
<text text-anchor="start" x="2143.9236" y="-1849.6" font-family="Times,serif" font-size="13.00" fill="#000000">Migration version: 20170611232955</text>
<text text-anchor="start" x="2143.9236" y="-1836.6" font-family="Times,serif" font-size="13.00" fill="#000000">Generated by RailRoady 1.5.3</text>
<text text-anchor="start" x="2143.9236" y="-1823.6" font-family="Times,serif" font-size="13.00" fill="#000000">http://railroady.prestonlee.com</text>
</g>
<!-- Ability -->
<g id="node2" class="node">
<title>Ability</title>
<polygon fill="none" stroke="#000000" points="2360.5389,-1831.5 2360.5389,-1875.5 2416.2078,-1875.5 2416.2078,-1831.5 2360.5389,-1831.5"/>
<text text-anchor="middle" x="2388.3734" y="-1860.3" font-family="Times,serif" font-size="14.00" fill="#000000">Ability</text>
<polyline fill="none" stroke="#000000" points="2360.5389,-1853.5 2416.2078,-1853.5 "/>
<text text-anchor="middle" x="2388.3734" y="-1838.3" font-family="Times,serif" font-size="14.00" fill="#000000"> </text>
</g>
<!-- Assignment -->
<g id="node3" class="node">
<title>Assignment</title>
<path fill="none" stroke="#000000" d="M2861.5111,-1038.5C2861.5111,-1038.5 3085.2357,-1038.5 3085.2357,-1038.5 3091.2357,-1038.5 3097.2357,-1044.5 3097.2357,-1050.5 3097.2357,-1050.5 3097.2357,-1126.5 3097.2357,-1126.5 3097.2357,-1132.5 3091.2357,-1138.5 3085.2357,-1138.5 3085.2357,-1138.5 2861.5111,-1138.5 2861.5111,-1138.5 2855.5111,-1138.5 2849.5111,-1132.5 2849.5111,-1126.5 2849.5111,-1126.5 2849.5111,-1050.5 2849.5111,-1050.5 2849.5111,-1044.5 2855.5111,-1038.5 2861.5111,-1038.5"/>
<text text-anchor="middle" x="2973.3734" y="-1123.3" font-family="Times,serif" font-size="14.00" fill="#000000">Assignment</text>
<polyline fill="none" stroke="#000000" points="2849.5111,-1116.5 3097.2357,-1116.5 "/>
<text text-anchor="start" x="2857.5111" y="-1101.3" font-family="Times,serif" font-size="14.00" fill="#000000">id :integer</text>
<text text-anchor="start" x="2857.5111" y="-1087.3" font-family="Times,serif" font-size="14.00" fill="#000000">user_id :integer</text>
<text text-anchor="start" x="2857.5111" y="-1073.3" font-family="Times,serif" font-size="14.00" fill="#000000">role_id :integer</text>
<text text-anchor="start" x="2857.5111" y="-1059.3" font-family="Times,serif" font-size="14.00" fill="#000000">created_at :timestamp without time zone</text>
<text text-anchor="start" x="2857.5111" y="-1045.3" font-family="Times,serif" font-size="14.00" fill="#000000">updated_at :timestamp without time zone</text>
</g>
<!-- Ckeditor::Asset -->
<g id="node4" class="node">
<title>Ckeditor::Asset</title>
<path fill="none" stroke="#000000" d="M2712.5111,-1775.5C2712.5111,-1775.5 2936.2357,-1775.5 2936.2357,-1775.5 2942.2357,-1775.5 2948.2357,-1781.5 2948.2357,-1787.5 2948.2357,-1787.5 2948.2357,-1919.5 2948.2357,-1919.5 2948.2357,-1925.5 2942.2357,-1931.5 2936.2357,-1931.5 2936.2357,-1931.5 2712.5111,-1931.5 2712.5111,-1931.5 2706.5111,-1931.5 2700.5111,-1925.5 2700.5111,-1919.5 2700.5111,-1919.5 2700.5111,-1787.5 2700.5111,-1787.5 2700.5111,-1781.5 2706.5111,-1775.5 2712.5111,-1775.5"/>
<text text-anchor="middle" x="2824.3734" y="-1916.3" font-family="Times,serif" font-size="14.00" fill="#000000">Ckeditor::Asset</text>
<polyline fill="none" stroke="#000000" points="2700.5111,-1909.5 2948.2357,-1909.5 "/>
<text text-anchor="start" x="2708.5111" y="-1894.3" font-family="Times,serif" font-size="14.00" fill="#000000">updated_at :timestamp without time zone</text>
<text text-anchor="start" x="2708.5111" y="-1880.3" font-family="Times,serif" font-size="14.00" fill="#000000">data_file_name :character varying</text>
<text text-anchor="start" x="2708.5111" y="-1866.3" font-family="Times,serif" font-size="14.00" fill="#000000">data_content_type :character varying</text>
<text text-anchor="start" x="2708.5111" y="-1852.3" font-family="Times,serif" font-size="14.00" fill="#000000">data_file_size :integer</text>
<text text-anchor="start" x="2708.5111" y="-1838.3" font-family="Times,serif" font-size="14.00" fill="#000000">type :character varying(30)</text>
<text text-anchor="start" x="2708.5111" y="-1824.3" font-family="Times,serif" font-size="14.00" fill="#000000">width :integer</text>
<text text-anchor="start" x="2708.5111" y="-1810.3" font-family="Times,serif" font-size="14.00" fill="#000000">height :integer</text>
<text text-anchor="start" x="2708.5111" y="-1796.3" font-family="Times,serif" font-size="14.00" fill="#000000">created_at :timestamp without time zone</text>
<text text-anchor="start" x="2708.5111" y="-1782.3" font-family="Times,serif" font-size="14.00" fill="#000000">id :integer</text>
</g>
<!-- Ckeditor::AttachmentFile -->
<g id="node5" class="node">
<title>Ckeditor::AttachmentFile</title>
<path fill="none" stroke="#000000" d="M2978.5111,-1775.5C2978.5111,-1775.5 3202.2357,-1775.5 3202.2357,-1775.5 3208.2357,-1775.5 3214.2357,-1781.5 3214.2357,-1787.5 3214.2357,-1787.5 3214.2357,-1919.5 3214.2357,-1919.5 3214.2357,-1925.5 3208.2357,-1931.5 3202.2357,-1931.5 3202.2357,-1931.5 2978.5111,-1931.5 2978.5111,-1931.5 2972.5111,-1931.5 2966.5111,-1925.5 2966.5111,-1919.5 2966.5111,-1919.5 2966.5111,-1787.5 2966.5111,-1787.5 2966.5111,-1781.5 2972.5111,-1775.5 2978.5111,-1775.5"/>
<text text-anchor="middle" x="3090.3734" y="-1916.3" font-family="Times,serif" font-size="14.00" fill="#000000">Ckeditor::AttachmentFile</text>
<polyline fill="none" stroke="#000000" points="2966.5111,-1909.5 3214.2357,-1909.5 "/>
<text text-anchor="start" x="2974.5111" y="-1894.3" font-family="Times,serif" font-size="14.00" fill="#000000">updated_at :timestamp without time zone</text>
<text text-anchor="start" x="2974.5111" y="-1880.3" font-family="Times,serif" font-size="14.00" fill="#000000">data_file_name :character varying</text>
<text text-anchor="start" x="2974.5111" y="-1866.3" font-family="Times,serif" font-size="14.00" fill="#000000">data_content_type :character varying</text>
<text text-anchor="start" x="2974.5111" y="-1852.3" font-family="Times,serif" font-size="14.00" fill="#000000">data_file_size :integer</text>
<text text-anchor="start" x="2974.5111" y="-1838.3" font-family="Times,serif" font-size="14.00" fill="#000000">type :character varying(30)</text>
<text text-anchor="start" x="2974.5111" y="-1824.3" font-family="Times,serif" font-size="14.00" fill="#000000">width :integer</text>
<text text-anchor="start" x="2974.5111" y="-1810.3" font-family="Times,serif" font-size="14.00" fill="#000000">height :integer</text>
<text text-anchor="start" x="2974.5111" y="-1796.3" font-family="Times,serif" font-size="14.00" fill="#000000">created_at :timestamp without time zone</text>
<text text-anchor="start" x="2974.5111" y="-1782.3" font-family="Times,serif" font-size="14.00" fill="#000000">id :integer</text>
</g>
<!-- Ckeditor::Picture -->
<g id="node6" class="node">
<title>Ckeditor::Picture</title>
<path fill="none" stroke="#000000" d="M3244.5111,-1775.5C3244.5111,-1775.5 3468.2357,-1775.5 3468.2357,-1775.5 3474.2357,-1775.5 3480.2357,-1781.5 3480.2357,-1787.5 3480.2357,-1787.5 3480.2357,-1919.5 3480.2357,-1919.5 3480.2357,-1925.5 3474.2357,-1931.5 3468.2357,-1931.5 3468.2357,-1931.5 3244.5111,-1931.5 3244.5111,-1931.5 3238.5111,-1931.5 3232.5111,-1925.5 3232.5111,-1919.5 3232.5111,-1919.5 3232.5111,-1787.5 3232.5111,-1787.5 3232.5111,-1781.5 3238.5111,-1775.5 3244.5111,-1775.5"/>
<text text-anchor="middle" x="3356.3734" y="-1916.3" font-family="Times,serif" font-size="14.00" fill="#000000">Ckeditor::Picture</text>
<polyline fill="none" stroke="#000000" points="3232.5111,-1909.5 3480.2357,-1909.5 "/>
<text text-anchor="start" x="3240.5111" y="-1894.3" font-family="Times,serif" font-size="14.00" fill="#000000">updated_at :timestamp without time zone</text>
<text text-anchor="start" x="3240.5111" y="-1880.3" font-family="Times,serif" font-size="14.00" fill="#000000">data_file_name :character varying</text>
<text text-anchor="start" x="3240.5111" y="-1866.3" font-family="Times,serif" font-size="14.00" fill="#000000">data_content_type :character varying</text>
<text text-anchor="start" x="3240.5111" y="-1852.3" font-family="Times,serif" font-size="14.00" fill="#000000">data_file_size :integer</text>
<text text-anchor="start" x="3240.5111" y="-1838.3" font-family="Times,serif" font-size="14.00" fill="#000000">type :character varying(30)</text>
<text text-anchor="start" x="3240.5111" y="-1824.3" font-family="Times,serif" font-size="14.00" fill="#000000">width :integer</text>
<text text-anchor="start" x="3240.5111" y="-1810.3" font-family="Times,serif" font-size="14.00" fill="#000000">height :integer</text>
<text text-anchor="start" x="3240.5111" y="-1796.3" font-family="Times,serif" font-size="14.00" fill="#000000">created_at :timestamp without time zone</text>
<text text-anchor="start" x="3240.5111" y="-1782.3" font-family="Times,serif" font-size="14.00" fill="#000000">id :integer</text>
</g>
<!-- Comment -->
<g id="node7" class="node">
<title>Comment</title>
<path fill="none" stroke="#000000" d="M496.5111,-179.5C496.5111,-179.5 720.2357,-179.5 720.2357,-179.5 726.2357,-179.5 732.2357,-185.5 732.2357,-191.5 732.2357,-191.5 732.2357,-309.5 732.2357,-309.5 732.2357,-315.5 726.2357,-321.5 720.2357,-321.5 720.2357,-321.5 496.5111,-321.5 496.5111,-321.5 490.5111,-321.5 484.5111,-315.5 484.5111,-309.5 484.5111,-309.5 484.5111,-191.5 484.5111,-191.5 484.5111,-185.5 490.5111,-179.5 496.5111,-179.5"/>
<text text-anchor="middle" x="608.3734" y="-306.3" font-family="Times,serif" font-size="14.00" fill="#000000">Comment</text>
<polyline fill="none" stroke="#000000" points="484.5111,-299.5 732.2357,-299.5 "/>
<text text-anchor="start" x="492.5111" y="-284.3" font-family="Times,serif" font-size="14.00" fill="#000000">public :boolean</text>
<text text-anchor="start" x="492.5111" y="-270.3" font-family="Times,serif" font-size="14.00" fill="#000000">body :text</text>
<text text-anchor="start" x="492.5111" y="-256.3" font-family="Times,serif" font-size="14.00" fill="#000000">commentable_id :integer</text>
<text text-anchor="start" x="492.5111" y="-242.3" font-family="Times,serif" font-size="14.00" fill="#000000">commentable_type :character varying</text>
<text text-anchor="start" x="492.5111" y="-228.3" font-family="Times,serif" font-size="14.00" fill="#000000">created_at :timestamp without time zone</text>
<text text-anchor="start" x="492.5111" y="-214.3" font-family="Times,serif" font-size="14.00" fill="#000000">updated_at :timestamp without time zone</text>
<text text-anchor="start" x="492.5111" y="-200.3" font-family="Times,serif" font-size="14.00" fill="#000000">author_id :integer</text>
<text text-anchor="start" x="492.5111" y="-186.3" font-family="Times,serif" font-size="14.00" fill="#000000">id :integer</text>
</g>
<!-- Comment&#45;&gt;Comment -->
<g id="edge1" class="edge">
<title>Comment&#45;&gt;Comment</title>
<path fill="none" stroke="#649cee" d="M740.2197,-261.2162C746.5303,-258.5256 750.2357,-254.9536 750.2357,-250.5 750.2357,-246.5202 747.2767,-243.2444 742.144,-240.6724"/>
<ellipse fill="none" stroke="#649cee" cx="736.2011" cy="-262.539" rx="4" ry="4"/>
<polygon fill="#649cee" stroke="#649cee" points="741.8244,-240.5589 733.9085,-232.9701 737.113,-238.8846 732.4016,-237.2103 732.4016,-237.2103 732.4016,-237.2103 737.113,-238.8846 730.8948,-241.4505 741.8244,-240.5589 741.8244,-240.5589"/>
</g>
<!-- CommentReply -->
<g id="node8" class="node">
<title>CommentReply</title>
<path fill="none" stroke="#000000" d="M496.5111,-.5C496.5111,-.5 720.2357,-.5 720.2357,-.5 726.2357,-.5 732.2357,-6.5 732.2357,-12.5 732.2357,-12.5 732.2357,-116.5 732.2357,-116.5 732.2357,-122.5 726.2357,-128.5 720.2357,-128.5 720.2357,-128.5 496.5111,-128.5 496.5111,-128.5 490.5111,-128.5 484.5111,-122.5 484.5111,-116.5 484.5111,-116.5 484.5111,-12.5 484.5111,-12.5 484.5111,-6.5 490.5111,-.5 496.5111,-.5"/>
<text text-anchor="middle" x="608.3734" y="-113.3" font-family="Times,serif" font-size="14.00" fill="#000000">CommentReply</text>
<polyline fill="none" stroke="#000000" points="484.5111,-106.5 732.2357,-106.5 "/>
<text text-anchor="start" x="492.5111" y="-91.3" font-family="Times,serif" font-size="14.00" fill="#000000">author_id :integer</text>
<text text-anchor="start" x="492.5111" y="-77.3" font-family="Times,serif" font-size="14.00" fill="#000000">body :text</text>
<text text-anchor="start" x="492.5111" y="-63.3" font-family="Times,serif" font-size="14.00" fill="#000000">comment_id :integer</text>
<text text-anchor="start" x="492.5111" y="-49.3" font-family="Times,serif" font-size="14.00" fill="#000000">id :integer</text>
<text text-anchor="start" x="492.5111" y="-35.3" font-family="Times,serif" font-size="14.00" fill="#000000">public :boolean</text>
<text text-anchor="start" x="492.5111" y="-21.3" font-family="Times,serif" font-size="14.00" fill="#000000">created_at :timestamp without time zone</text>
<text text-anchor="start" x="492.5111" y="-7.3" font-family="Times,serif" font-size="14.00" fill="#000000">updated_at :timestamp without time zone</text>
</g>
<!-- Comment&#45;&gt;CommentReply -->
<g id="edge2" class="edge">
<title>Comment&#45;&gt;CommentReply</title>
<path fill="none" stroke="#1fa6c4" d="M608.3734,-171.0871C608.3734,-160.3292 608.3734,-149.3235 608.3734,-138.6625"/>
<ellipse fill="none" stroke="#1fa6c4" cx="608.3734" cy="-175.3852" rx="4" ry="4"/>
<polygon fill="#1fa6c4" stroke="#1fa6c4" points="608.3735,-138.5661 612.8734,-128.566 608.3734,-133.5661 608.3734,-128.5661 608.3734,-128.5661 608.3734,-128.5661 608.3734,-133.5661 603.8734,-128.5661 608.3735,-138.5661 608.3735,-138.5661"/>
<text text-anchor="middle" x="627.032" y="-149.8" font-family="Times,serif" font-size="14.00" fill="#000000">replies</text>
</g>
<!-- Hackroom -->
<g id="node9" class="node">
<title>Hackroom</title>
<path fill="none" stroke="#000000" d="M466.5111,-1003.5C466.5111,-1003.5 690.2357,-1003.5 690.2357,-1003.5 696.2357,-1003.5 702.2357,-1009.5 702.2357,-1015.5 702.2357,-1015.5 702.2357,-1161.5 702.2357,-1161.5 702.2357,-1167.5 696.2357,-1173.5 690.2357,-1173.5 690.2357,-1173.5 466.5111,-1173.5 466.5111,-1173.5 460.5111,-1173.5 454.5111,-1167.5 454.5111,-1161.5 454.5111,-1161.5 454.5111,-1015.5 454.5111,-1015.5 454.5111,-1009.5 460.5111,-1003.5 466.5111,-1003.5"/>
<text text-anchor="middle" x="578.3734" y="-1158.3" font-family="Times,serif" font-size="14.00" fill="#000000">Hackroom</text>
<polyline fill="none" stroke="#000000" points="454.5111,-1151.5 702.2357,-1151.5 "/>
<text text-anchor="start" x="462.5111" y="-1136.3" font-family="Times,serif" font-size="14.00" fill="#000000">author_id :integer</text>
<text text-anchor="start" x="462.5111" y="-1122.3" font-family="Times,serif" font-size="14.00" fill="#000000">name :character varying</text>
<text text-anchor="start" x="462.5111" y="-1108.3" font-family="Times,serif" font-size="14.00" fill="#000000">mission :text</text>
<text text-anchor="start" x="462.5111" y="-1094.3" font-family="Times,serif" font-size="14.00" fill="#000000">slack :character varying</text>
<text text-anchor="start" x="462.5111" y="-1080.3" font-family="Times,serif" font-size="14.00" fill="#000000">project_url :character varying</text>
<text text-anchor="start" x="462.5111" y="-1066.3" font-family="Times,serif" font-size="14.00" fill="#000000">created_at :timestamp without time zone</text>
<text text-anchor="start" x="462.5111" y="-1052.3" font-family="Times,serif" font-size="14.00" fill="#000000">updated_at :timestamp without time zone</text>
<text text-anchor="start" x="462.5111" y="-1038.3" font-family="Times,serif" font-size="14.00" fill="#000000">slug :character varying</text>
<text text-anchor="start" x="462.5111" y="-1024.3" font-family="Times,serif" font-size="14.00" fill="#000000">popularity_score :integer</text>
<text text-anchor="start" x="462.5111" y="-1010.3" font-family="Times,serif" font-size="14.00" fill="#000000">id :integer</text>
</g>
<!-- Hackroom&#45;&gt;Comment -->
<g id="edge11" class="edge">
<title>Hackroom&#45;&gt;Comment</title>
<path fill="none" stroke="#b731ed" d="M457.6212,-999.7843C454.8758,-998.4626 452.1249,-997.1986 449.3734,-996 412.3748,-979.8833 399.7451,-986.8603 360.3734,-978 212.7617,-944.7811 38.3734,-1018.8033 38.3734,-867.5 38.3734,-867.5 38.3734,-867.5 38.3734,-444.5 38.3734,-352.8344 305.8967,-295.7141 474.3918,-268.8286"/>
<ellipse fill="none" stroke="#b731ed" cx="461.2946" cy="-1001.6224" rx="4" ry="4"/>
<polygon fill="#b731ed" stroke="#b731ed" points="474.4628,-268.8175 485.0423,-271.7028 479.4017,-268.0377 484.3405,-267.2579 484.3405,-267.2579 484.3405,-267.2579 479.4017,-268.0377 483.6386,-262.8129 474.4628,-268.8175 474.4628,-268.8175"/>
</g>
<!-- HackroomLanguage -->
<g id="node10" class="node">
<title>HackroomLanguage</title>
<path fill="none" stroke="#000000" d="M78.5111,-609.5C78.5111,-609.5 302.2357,-609.5 302.2357,-609.5 308.2357,-609.5 314.2357,-615.5 314.2357,-621.5 314.2357,-621.5 314.2357,-697.5 314.2357,-697.5 314.2357,-703.5 308.2357,-709.5 302.2357,-709.5 302.2357,-709.5 78.5111,-709.5 78.5111,-709.5 72.5111,-709.5 66.5111,-703.5 66.5111,-697.5 66.5111,-697.5 66.5111,-621.5 66.5111,-621.5 66.5111,-615.5 72.5111,-609.5 78.5111,-609.5"/>
<text text-anchor="middle" x="190.3734" y="-694.3" font-family="Times,serif" font-size="14.00" fill="#000000">HackroomLanguage</text>
<polyline fill="none" stroke="#000000" points="66.5111,-687.5 314.2357,-687.5 "/>
<text text-anchor="start" x="74.5111" y="-672.3" font-family="Times,serif" font-size="14.00" fill="#000000">id :integer</text>
<text text-anchor="start" x="74.5111" y="-658.3" font-family="Times,serif" font-size="14.00" fill="#000000">hackroom_id :integer</text>
<text text-anchor="start" x="74.5111" y="-644.3" font-family="Times,serif" font-size="14.00" fill="#000000">language_id :integer</text>
<text text-anchor="start" x="74.5111" y="-630.3" font-family="Times,serif" font-size="14.00" fill="#000000">created_at :timestamp without time zone</text>
<text text-anchor="start" x="74.5111" y="-616.3" font-family="Times,serif" font-size="14.00" fill="#000000">updated_at :timestamp without time zone</text>
</g>
<!-- Hackroom&#45;&gt;HackroomLanguage -->
<g id="edge5" class="edge">
<title>Hackroom&#45;&gt;HackroomLanguage</title>
<path fill="none" stroke="#3a00d3" d="M447.594,-999.593C445.1829,-998.3613 442.7748,-997.1623 440.3734,-996 416.8415,-984.611 406.7896,-991.4524 384.3734,-978 288.0749,-920.2096 233.2076,-794.5046 207.838,-719.4538"/>
<ellipse fill="none" stroke="#3a00d3" cx="451.2888" cy="-1001.5267" rx="4" ry="4"/>
<polygon fill="#3a00d3" stroke="#3a00d3" points="207.7394,-719.1558 208.8703,-708.2484 206.1688,-714.4089 204.5981,-709.662 204.5981,-709.662 204.5981,-709.662 206.1688,-714.4089 200.3259,-711.0756 207.7394,-719.1558 207.7394,-719.1558"/>
</g>
<!-- HackroomOwner -->
<g id="node11" class="node">
<title>HackroomOwner</title>
<path fill="none" stroke="#000000" d="M660.5111,-817.5C660.5111,-817.5 884.2357,-817.5 884.2357,-817.5 890.2357,-817.5 896.2357,-823.5 896.2357,-829.5 896.2357,-829.5 896.2357,-905.5 896.2357,-905.5 896.2357,-911.5 890.2357,-917.5 884.2357,-917.5 884.2357,-917.5 660.5111,-917.5 660.5111,-917.5 654.5111,-917.5 648.5111,-911.5 648.5111,-905.5 648.5111,-905.5 648.5111,-829.5 648.5111,-829.5 648.5111,-823.5 654.5111,-817.5 660.5111,-817.5"/>
<text text-anchor="middle" x="772.3734" y="-902.3" font-family="Times,serif" font-size="14.00" fill="#000000">HackroomOwner</text>
<polyline fill="none" stroke="#000000" points="648.5111,-895.5 896.2357,-895.5 "/>
<text text-anchor="start" x="656.5111" y="-880.3" font-family="Times,serif" font-size="14.00" fill="#000000">id :integer</text>
<text text-anchor="start" x="656.5111" y="-866.3" font-family="Times,serif" font-size="14.00" fill="#000000">user_id :integer</text>
<text text-anchor="start" x="656.5111" y="-852.3" font-family="Times,serif" font-size="14.00" fill="#000000">hackroom_id :integer</text>
<text text-anchor="start" x="656.5111" y="-838.3" font-family="Times,serif" font-size="14.00" fill="#000000">created_at :timestamp without time zone</text>
<text text-anchor="start" x="656.5111" y="-824.3" font-family="Times,serif" font-size="14.00" fill="#000000">updated_at :timestamp without time zone</text>
</g>
<!-- Hackroom&#45;&gt;HackroomOwner -->
<g id="edge9" class="edge">
<title>Hackroom&#45;&gt;HackroomOwner</title>
<path fill="none" stroke="#9d3bb7" d="M661.2446,-997.367C667.0638,-990.8329 672.8206,-984.3282 678.3734,-978 693.283,-961.0082 709.2926,-942.3483 723.7981,-925.2787"/>
<ellipse fill="none" stroke="#9d3bb7" cx="658.55" cy="-1000.3871" rx="4" ry="4"/>
<polygon fill="#9d3bb7" stroke="#9d3bb7" points="723.8778,-925.1846 733.7789,-920.4708 727.1127,-921.372 730.3476,-917.5594 730.3476,-917.5594 730.3476,-917.5594 727.1127,-921.372 726.9162,-914.6481 723.8778,-925.1846 723.8778,-925.1846"/>
</g>
<!-- HackroomPrimary -->
<g id="node12" class="node">
<title>HackroomPrimary</title>
<path fill="none" stroke="#000000" d="M344.5111,-609.5C344.5111,-609.5 568.2357,-609.5 568.2357,-609.5 574.2357,-609.5 580.2357,-615.5 580.2357,-621.5 580.2357,-621.5 580.2357,-697.5 580.2357,-697.5 580.2357,-703.5 574.2357,-709.5 568.2357,-709.5 568.2357,-709.5 344.5111,-709.5 344.5111,-709.5 338.5111,-709.5 332.5111,-703.5 332.5111,-697.5 332.5111,-697.5 332.5111,-621.5 332.5111,-621.5 332.5111,-615.5 338.5111,-609.5 344.5111,-609.5"/>
<text text-anchor="middle" x="456.3734" y="-694.3" font-family="Times,serif" font-size="14.00" fill="#000000">HackroomPrimary</text>
<polyline fill="none" stroke="#000000" points="332.5111,-687.5 580.2357,-687.5 "/>
<text text-anchor="start" x="340.5111" y="-672.3" font-family="Times,serif" font-size="14.00" fill="#000000">id :integer</text>
<text text-anchor="start" x="340.5111" y="-658.3" font-family="Times,serif" font-size="14.00" fill="#000000">hackroom_id :integer</text>
<text text-anchor="start" x="340.5111" y="-644.3" font-family="Times,serif" font-size="14.00" fill="#000000">language_id :integer</text>
<text text-anchor="start" x="340.5111" y="-630.3" font-family="Times,serif" font-size="14.00" fill="#000000">created_at :timestamp without time zone</text>
<text text-anchor="start" x="340.5111" y="-616.3" font-family="Times,serif" font-size="14.00" fill="#000000">updated_at :timestamp without time zone</text>
</g>
<!-- Hackroom&#45;&gt;HackroomPrimary -->
<g id="edge7" class="edge">
<title>Hackroom&#45;&gt;HackroomPrimary</title>
<path fill="none" stroke="#7320a7" d="M447.3644,-1000.4563C445.0188,-998.9547 442.6869,-997.4681 440.3734,-996 427.2445,-987.6686 422.9673,-987.1197 410.3734,-978 392.764,-965.2485 382.4144,-965.7725 373.3734,-946 344.3569,-882.5415 353.7558,-855.9633 373.3734,-789 380.7303,-763.8875 394.6164,-739.0257 408.9551,-717.9021"/>
<ellipse fill="none" stroke="#7320a7" cx="451.0732" cy="-1002.84" rx="4" ry="4"/>
<polygon fill="#7320a7" stroke="#7320a7" points="408.9568,-717.8996 418.3667,-712.269 411.8159,-713.7977 414.675,-709.6958 414.675,-709.6958 414.675,-709.6958 411.8159,-713.7977 410.9832,-707.1226 408.9568,-717.8996 408.9568,-717.8996"/>
</g>
<!-- Language -->
<g id="node13" class="node">
<title>Language</title>
<path fill="none" stroke="#000000" d="M394.5111,-789.5C394.5111,-789.5 618.2357,-789.5 618.2357,-789.5 624.2357,-789.5 630.2357,-795.5 630.2357,-801.5 630.2357,-801.5 630.2357,-933.5 630.2357,-933.5 630.2357,-939.5 624.2357,-945.5 618.2357,-945.5 618.2357,-945.5 394.5111,-945.5 394.5111,-945.5 388.5111,-945.5 382.5111,-939.5 382.5111,-933.5 382.5111,-933.5 382.5111,-801.5 382.5111,-801.5 382.5111,-795.5 388.5111,-789.5 394.5111,-789.5"/>
<text text-anchor="middle" x="506.3734" y="-930.3" font-family="Times,serif" font-size="14.00" fill="#000000">Language</text>
<polyline fill="none" stroke="#000000" points="382.5111,-923.5 630.2357,-923.5 "/>
<text text-anchor="start" x="390.5111" y="-908.3" font-family="Times,serif" font-size="14.00" fill="#000000">author_id :integer</text>
<text text-anchor="start" x="390.5111" y="-894.3" font-family="Times,serif" font-size="14.00" fill="#000000">name :character varying</text>
<text text-anchor="start" x="390.5111" y="-880.3" font-family="Times,serif" font-size="14.00" fill="#000000">created_at :timestamp without time zone</text>
<text text-anchor="start" x="390.5111" y="-866.3" font-family="Times,serif" font-size="14.00" fill="#000000">updated_at :timestamp without time zone</text>
<text text-anchor="start" x="390.5111" y="-852.3" font-family="Times,serif" font-size="14.00" fill="#000000">description :text</text>
<text text-anchor="start" x="390.5111" y="-838.3" font-family="Times,serif" font-size="14.00" fill="#000000">colour :character varying</text>
<text text-anchor="start" x="390.5111" y="-824.3" font-family="Times,serif" font-size="14.00" fill="#000000">slug :character varying</text>
<text text-anchor="start" x="390.5111" y="-810.3" font-family="Times,serif" font-size="14.00" fill="#000000">popularity_score :integer</text>
<text text-anchor="start" x="390.5111" y="-796.3" font-family="Times,serif" font-size="14.00" fill="#000000">id :integer</text>
</g>
<!-- Hackroom&#45;&gt;Language -->
<g id="edge6" class="edge">
<title>Hackroom&#45;&gt;Language</title>
<path fill="none" stroke="#154e8d" d="M666.4272,-993.4664C668.0419,-983.6464 666.7654,-973.7085 661.3734,-964 660.2608,-961.9967 651.7406,-955.9738 639.2166,-947.8496"/>
<polygon fill="#154e8d" stroke="#154e8d" points="666.4045,-993.5543 659.5382,-1002.1044 665.1493,-998.3942 663.8941,-1003.2341 663.8941,-1003.2341 663.8941,-1003.2341 665.1493,-998.3942 668.25,-1004.3638 666.4045,-993.5543 666.4045,-993.5543"/>
<polygon fill="#154e8d" stroke="#154e8d" points="638.8652,-947.6244 632.874,-938.4398 634.6555,-944.9265 630.4459,-942.2285 630.4459,-942.2285 630.4459,-942.2285 634.6555,-944.9265 628.0177,-946.0172 638.8652,-947.6244 638.8652,-947.6244"/>
</g>
<!-- Hackroom&#45;&gt;Language -->
<g id="edge8" class="edge">
<title>Hackroom&#45;&gt;Language</title>
<path fill="none" stroke="#b85a1f" d="M445.7607,-999.6706C430.2214,-988.6799 419.348,-980.4208 418.0765,-978 414.1121,-970.4521 412.847,-962.9191 413.6221,-955.5358"/>
<polygon fill="#b85a1f" stroke="#b85a1f" points="446.0991,-999.9079 451.7017,-1009.3346 450.1925,-1002.7792 454.2859,-1005.6505 454.2859,-1005.6505 454.2859,-1005.6505 450.1925,-1002.7792 456.87,-1001.9665 446.0991,-999.9079 446.0991,-999.9079"/>
<polygon fill="#b85a1f" stroke="#b85a1f" points="413.6697,-955.3254 420.2701,-946.5684 414.7756,-950.4492 415.8815,-945.573 415.8815,-945.573 415.8815,-945.573 414.7756,-950.4492 411.493,-944.5777 413.6697,-955.3254 413.6697,-955.3254"/>
<text text-anchor="middle" x="472.0218" y="-966.8" font-family="Times,serif" font-size="14.00" fill="#000000">primary_languages</text>
</g>
<!-- User -->
<g id="node26" class="node">
<title>User</title>
<path fill="none" stroke="#000000" d="M1175.7386,-1231.5C1175.7386,-1231.5 1471.0081,-1231.5 1471.0081,-1231.5 1477.0081,-1231.5 1483.0081,-1237.5 1483.0081,-1243.5 1483.0081,-1243.5 1483.0081,-1725.5 1483.0081,-1725.5 1483.0081,-1731.5 1477.0081,-1737.5 1471.0081,-1737.5 1471.0081,-1737.5 1175.7386,-1737.5 1175.7386,-1737.5 1169.7386,-1737.5 1163.7386,-1731.5 1163.7386,-1725.5 1163.7386,-1725.5 1163.7386,-1243.5 1163.7386,-1243.5 1163.7386,-1237.5 1169.7386,-1231.5 1175.7386,-1231.5"/>
<text text-anchor="middle" x="1323.3734" y="-1722.3" font-family="Times,serif" font-size="14.00" fill="#000000">User</text>
<polyline fill="none" stroke="#000000" points="1163.7386,-1715.5 1483.0081,-1715.5 "/>
<text text-anchor="start" x="1171.7386" y="-1700.3" font-family="Times,serif" font-size="14.00" fill="#000000">user_follows_count :integer</text>
<text text-anchor="start" x="1171.7386" y="-1686.3" font-family="Times,serif" font-size="14.00" fill="#000000">email :character varying</text>
<text text-anchor="start" x="1171.7386" y="-1672.3" font-family="Times,serif" font-size="14.00" fill="#000000">encrypted_password :character varying</text>
<text text-anchor="start" x="1171.7386" y="-1658.3" font-family="Times,serif" font-size="14.00" fill="#000000">reset_password_token :character varying</text>
<text text-anchor="start" x="1171.7386" y="-1644.3" font-family="Times,serif" font-size="14.00" fill="#000000">reset_password_sent_at :timestamp without time zone</text>
<text text-anchor="start" x="1171.7386" y="-1630.3" font-family="Times,serif" font-size="14.00" fill="#000000">remember_created_at :timestamp without time zone</text>
<text text-anchor="start" x="1171.7386" y="-1616.3" font-family="Times,serif" font-size="14.00" fill="#000000">sign_in_count :integer</text>
<text text-anchor="start" x="1171.7386" y="-1602.3" font-family="Times,serif" font-size="14.00" fill="#000000">current_sign_in_at :timestamp without time zone</text>
<text text-anchor="start" x="1171.7386" y="-1588.3" font-family="Times,serif" font-size="14.00" fill="#000000">last_sign_in_at :timestamp without time zone</text>
<text text-anchor="start" x="1171.7386" y="-1574.3" font-family="Times,serif" font-size="14.00" fill="#000000">current_sign_in_ip :inet</text>
<text text-anchor="start" x="1171.7386" y="-1560.3" font-family="Times,serif" font-size="14.00" fill="#000000">last_sign_in_ip :inet</text>
<text text-anchor="start" x="1171.7386" y="-1546.3" font-family="Times,serif" font-size="14.00" fill="#000000">created_at :timestamp without time zone</text>
<text text-anchor="start" x="1171.7386" y="-1532.3" font-family="Times,serif" font-size="14.00" fill="#000000">updated_at :timestamp without time zone</text>
<text text-anchor="start" x="1171.7386" y="-1518.3" font-family="Times,serif" font-size="14.00" fill="#000000">provider :character varying</text>
<text text-anchor="start" x="1171.7386" y="-1504.3" font-family="Times,serif" font-size="14.00" fill="#000000">uid :character varying</text>
<text text-anchor="start" x="1171.7386" y="-1490.3" font-family="Times,serif" font-size="14.00" fill="#000000">name :character varying</text>
<text text-anchor="start" x="1171.7386" y="-1476.3" font-family="Times,serif" font-size="14.00" fill="#000000">image :character varying</text>
<text text-anchor="start" x="1171.7386" y="-1462.3" font-family="Times,serif" font-size="14.00" fill="#000000">bio :text</text>
<text text-anchor="start" x="1171.7386" y="-1448.3" font-family="Times,serif" font-size="14.00" fill="#000000">twitter :character varying</text>
<text text-anchor="start" x="1171.7386" y="-1434.3" font-family="Times,serif" font-size="14.00" fill="#000000">facebook :character varying</text>
<text text-anchor="start" x="1171.7386" y="-1420.3" font-family="Times,serif" font-size="14.00" fill="#000000">github :character varying</text>
<text text-anchor="start" x="1171.7386" y="-1406.3" font-family="Times,serif" font-size="14.00" fill="#000000">instagram :character varying</text>
<text text-anchor="start" x="1171.7386" y="-1392.3" font-family="Times,serif" font-size="14.00" fill="#000000">website_url :character varying</text>
<text text-anchor="start" x="1171.7386" y="-1378.3" font-family="Times,serif" font-size="14.00" fill="#000000">linkedin :character varying</text>
<text text-anchor="start" x="1171.7386" y="-1364.3" font-family="Times,serif" font-size="14.00" fill="#000000">tagline :character varying</text>
<text text-anchor="start" x="1171.7386" y="-1350.3" font-family="Times,serif" font-size="14.00" fill="#000000">slug :character varying</text>
<text text-anchor="start" x="1171.7386" y="-1336.3" font-family="Times,serif" font-size="14.00" fill="#000000">permission :integer</text>
<text text-anchor="start" x="1171.7386" y="-1322.3" font-family="Times,serif" font-size="14.00" fill="#000000">logo :character varying</text>
<text text-anchor="start" x="1171.7386" y="-1308.3" font-family="Times,serif" font-size="14.00" fill="#000000">logo_link :character varying</text>
<text text-anchor="start" x="1171.7386" y="-1294.3" font-family="Times,serif" font-size="14.00" fill="#000000">username :character varying</text>
<text text-anchor="start" x="1171.7386" y="-1280.3" font-family="Times,serif" font-size="14.00" fill="#000000">listed :boolean</text>
<text text-anchor="start" x="1171.7386" y="-1266.3" font-family="Times,serif" font-size="14.00" fill="#000000">first_name :character varying</text>
<text text-anchor="start" x="1171.7386" y="-1252.3" font-family="Times,serif" font-size="14.00" fill="#000000">last_name :character varying</text>
<text text-anchor="start" x="1171.7386" y="-1238.3" font-family="Times,serif" font-size="14.00" fill="#000000">id :integer</text>
</g>
<!-- Hackroom&#45;&gt;User -->
<g id="edge4" class="edge">
<title>Hackroom&#45;&gt;User</title>
<path fill="none" stroke="#52b097" d="M563.7043,-1183.8819C565.6118,-1194.3043 569.2609,-1204.2788 575.3734,-1213 643.2106,-1309.7904 954.5415,-1398.4869 1153.5549,-1446.6672"/>
<polygon fill="#52b097" stroke="#52b097" points="563.6799,-1183.6941 566.8477,-1173.1958 563.0327,-1178.7362 562.3856,-1173.7782 562.3856,-1173.7782 562.3856,-1173.7782 563.0327,-1178.7362 557.9234,-1174.3606 563.6799,-1183.6941 563.6799,-1183.6941"/>
<polygon fill="#52b097" stroke="#52b097" points="1153.8145,-1446.7297 1162.482,-1453.4472 1158.6754,-1447.9011 1163.5362,-1449.0725 1163.5362,-1449.0725 1163.5362,-1449.0725 1158.6754,-1447.9011 1164.5905,-1444.6977 1153.8145,-1446.7297 1153.8145,-1446.7297"/>
</g>
<!-- Hackroom&#45;&gt;User -->
<g id="edge10" class="edge">
<title>Hackroom&#45;&gt;User</title>
<path fill="none" stroke="#457973" d="M579.9073,-1183.4729C583.1937,-1194.1679 588.0173,-1204.3199 594.9388,-1213 730.5479,-1383.064 984.1137,-1446.6049 1153.371,-1470.3439"/>
<polygon fill="#457973" stroke="#457973" points="579.8358,-1183.1994 581.6588,-1172.3861 578.5705,-1178.3621 577.3052,-1173.5249 577.3052,-1173.5249 577.3052,-1173.5249 578.5705,-1178.3621 572.9517,-1174.6636 579.8358,-1183.1994 579.8358,-1183.1994"/>
<polygon fill="#457973" stroke="#457973" points="1153.4766,-1470.3583 1162.7732,-1476.1741 1158.4303,-1471.037 1163.384,-1471.7157 1163.384,-1471.7157 1163.384,-1471.7157 1158.4303,-1471.037 1163.9949,-1467.2574 1153.4766,-1470.3583 1153.4766,-1470.3583"/>
<text text-anchor="middle" x="615.5906" y="-1201.8" font-family="Times,serif" font-size="14.00" fill="#000000">owners</text>
</g>
<!-- UserHackroom -->
<g id="node28" class="node">
<title>UserHackroom</title>
<path fill="none" stroke="#000000" d="M926.5111,-817.5C926.5111,-817.5 1150.2357,-817.5 1150.2357,-817.5 1156.2357,-817.5 1162.2357,-823.5 1162.2357,-829.5 1162.2357,-829.5 1162.2357,-905.5 1162.2357,-905.5 1162.2357,-911.5 1156.2357,-917.5 1150.2357,-917.5 1150.2357,-917.5 926.5111,-917.5 926.5111,-917.5 920.5111,-917.5 914.5111,-911.5 914.5111,-905.5 914.5111,-905.5 914.5111,-829.5 914.5111,-829.5 914.5111,-823.5 920.5111,-817.5 926.5111,-817.5"/>
<text text-anchor="middle" x="1038.3734" y="-902.3" font-family="Times,serif" font-size="14.00" fill="#000000">UserHackroom</text>
<polyline fill="none" stroke="#000000" points="914.5111,-895.5 1162.2357,-895.5 "/>
<text text-anchor="start" x="922.5111" y="-880.3" font-family="Times,serif" font-size="14.00" fill="#000000">id :integer</text>
<text text-anchor="start" x="922.5111" y="-866.3" font-family="Times,serif" font-size="14.00" fill="#000000">user_id :integer</text>
<text text-anchor="start" x="922.5111" y="-852.3" font-family="Times,serif" font-size="14.00" fill="#000000">hackroom_id :integer</text>
<text text-anchor="start" x="922.5111" y="-838.3" font-family="Times,serif" font-size="14.00" fill="#000000">created_at :timestamp without time zone</text>
<text text-anchor="start" x="922.5111" y="-824.3" font-family="Times,serif" font-size="14.00" fill="#000000">updated_at :timestamp without time zone</text>
</g>
<!-- Hackroom&#45;&gt;UserHackroom -->
<g id="edge3" class="edge">
<title>Hackroom&#45;&gt;UserHackroom</title>
<path fill="none" stroke="#0fa587" d="M709.9861,-1035.4792C770.3243,-1010.073 842.3001,-978.2045 905.3734,-946 919.4138,-938.8311 934.0206,-930.8143 948.193,-922.7172"/>
<ellipse fill="none" stroke="#0fa587" cx="705.9976" cy="-1037.1542" rx="4" ry="4"/>
<polygon fill="#0fa587" stroke="#0fa587" points="948.2868,-922.6633 959.1982,-921.5716 952.6195,-920.1677 956.9522,-917.6722 956.9522,-917.6722 956.9522,-917.6722 952.6195,-920.1677 954.7062,-913.7727 948.2868,-922.6633 948.2868,-922.6633"/>
</g>
<!-- Language&#45;&gt;Comment -->
<g id="edge21" class="edge">
<title>Language&#45;&gt;Comment</title>
<path fill="none" stroke="#384270" d="M575.5105,-782.3781C581.0262,-772.5519 585.827,-762.337 589.3734,-752 637.8928,-610.5733 629.9011,-433.4036 619.3591,-331.9611"/>
<ellipse fill="none" stroke="#384270" cx="573.3925" cy="-786.0061" rx="4" ry="4"/>
<polygon fill="#384270" stroke="#384270" points="619.3338,-331.7247 622.7403,-321.3014 618.7999,-326.7533 618.2661,-321.7819 618.2661,-321.7819 618.2661,-321.7819 618.7999,-326.7533 613.7918,-322.2623 619.3338,-331.7247 619.3338,-331.7247"/>
</g>
<!-- Language&#45;&gt;Hackroom -->
<g id="edge14" class="edge">
<title>Language&#45;&gt;Hackroom</title>
<path fill="none" stroke="#0dcd15" d="M534.9558,-955.2323C539.0536,-967.8102 543.2855,-980.7996 547.4263,-993.5097"/>
<polygon fill="#0dcd15" stroke="#0dcd15" points="534.9498,-955.2136 536.1307,-944.3115 533.4009,-950.4595 531.8521,-945.7055 531.8521,-945.7055 531.8521,-945.7055 533.4009,-950.4595 527.5734,-947.0994 534.9498,-955.2136 534.9498,-955.2136"/>
<polygon fill="#0dcd15" stroke="#0dcd15" points="547.5415,-993.8636 546.3606,-1004.7657 549.0904,-998.6177 550.6393,-1003.3718 550.6393,-1003.3718 550.6393,-1003.3718 549.0904,-998.6177 554.9179,-1001.9778 547.5415,-993.8636 547.5415,-993.8636"/>
<text text-anchor="middle" x="598.7459" y="-966.8" font-family="Times,serif" font-size="14.00" fill="#000000">primary_hackrooms</text>
</g>
<!-- Language&#45;&gt;HackroomLanguage -->
<g id="edge12" class="edge">
<title>Language&#45;&gt;HackroomLanguage</title>
<path fill="none" stroke="#e7e6d8" d="M375.3697,-785.8133C357.8107,-774.5741 340.0987,-763.0863 323.3734,-752 305.8458,-740.382 287.212,-727.6604 269.6131,-715.4707"/>
<ellipse fill="none" stroke="#e7e6d8" cx="378.9808" cy="-788.1207" rx="4" ry="4"/>
<polygon fill="#e7e6d8" stroke="#e7e6d8" points="269.2804,-715.2398 263.6326,-705.8402 265.1733,-712.3882 261.0661,-709.5366 261.0661,-709.5366 261.0661,-709.5366 265.1733,-712.3882 258.4997,-713.233 269.2804,-715.2398 269.2804,-715.2398"/>
</g>
<!-- Language&#45;&gt;HackroomPrimary -->
<g id="edge13" class="edge">
<title>Language&#45;&gt;HackroomPrimary</title>
<path fill="none" stroke="#36a4ae" d="M485.7144,-781.5588C480.6998,-760.6981 475.4448,-738.8374 470.7902,-719.4739"/>
<ellipse fill="none" stroke="#36a4ae" cx="486.678" cy="-785.5675" rx="4" ry="4"/>
<polygon fill="#36a4ae" stroke="#36a4ae" points="470.7526,-719.3172 472.7906,-708.5424 469.5839,-714.4557 468.4152,-709.5942 468.4152,-709.5942 468.4152,-709.5942 469.5839,-714.4557 464.0399,-710.646 470.7526,-719.3172 470.7526,-719.3172"/>
</g>
<!-- Sponsor -->
<g id="node22" class="node">
<title>Sponsor</title>
<path fill="none" stroke="#000000" d="M686.5111,-567.5C686.5111,-567.5 910.2357,-567.5 910.2357,-567.5 916.2357,-567.5 922.2357,-573.5 922.2357,-579.5 922.2357,-579.5 922.2357,-739.5 922.2357,-739.5 922.2357,-745.5 916.2357,-751.5 910.2357,-751.5 910.2357,-751.5 686.5111,-751.5 686.5111,-751.5 680.5111,-751.5 674.5111,-745.5 674.5111,-739.5 674.5111,-739.5 674.5111,-579.5 674.5111,-579.5 674.5111,-573.5 680.5111,-567.5 686.5111,-567.5"/>
<text text-anchor="middle" x="798.3734" y="-736.3" font-family="Times,serif" font-size="14.00" fill="#000000">Sponsor</text>
<polyline fill="none" stroke="#000000" points="674.5111,-729.5 922.2357,-729.5 "/>
<text text-anchor="start" x="682.5111" y="-714.3" font-family="Times,serif" font-size="14.00" fill="#000000">slug :character varying</text>
<text text-anchor="start" x="682.5111" y="-700.3" font-family="Times,serif" font-size="14.00" fill="#000000">name :character varying</text>
<text text-anchor="start" x="682.5111" y="-686.3" font-family="Times,serif" font-size="14.00" fill="#000000">description :text</text>
<text text-anchor="start" x="682.5111" y="-672.3" font-family="Times,serif" font-size="14.00" fill="#000000">logo :character varying</text>
<text text-anchor="start" x="682.5111" y="-658.3" font-family="Times,serif" font-size="14.00" fill="#000000">address :text</text>
<text text-anchor="start" x="682.5111" y="-644.3" font-family="Times,serif" font-size="14.00" fill="#000000">created_at :timestamp without time zone</text>
<text text-anchor="start" x="682.5111" y="-630.3" font-family="Times,serif" font-size="14.00" fill="#000000">updated_at :timestamp without time zone</text>
<text text-anchor="start" x="682.5111" y="-616.3" font-family="Times,serif" font-size="14.00" fill="#000000">link :character varying</text>
<text text-anchor="start" x="682.5111" y="-602.3" font-family="Times,serif" font-size="14.00" fill="#000000">description_heading :character varying</text>
<text text-anchor="start" x="682.5111" y="-588.3" font-family="Times,serif" font-size="14.00" fill="#000000">listed :boolean</text>
<text text-anchor="start" x="682.5111" y="-574.3" font-family="Times,serif" font-size="14.00" fill="#000000">id :integer</text>
</g>
<!-- Language&#45;&gt;Sponsor -->
<g id="edge20" class="edge">
<title>Language&#45;&gt;Sponsor</title>
<path fill="none" stroke="#0c95fa" d="M638.9858,-785.8449C646.2782,-780.9076 653.4504,-775.9389 660.3734,-771 666.3207,-766.7571 672.3506,-762.3432 678.3967,-757.8266"/>
<polygon fill="#0c95fa" stroke="#0c95fa" points="638.6808,-786.0497 627.8698,-787.8866 634.5293,-788.8363 630.3778,-791.6229 630.3778,-791.6229 630.3778,-791.6229 634.5293,-788.8363 632.8858,-795.3593 638.6808,-786.0497 638.6808,-786.0497"/>
<polygon fill="#0c95fa" stroke="#0c95fa" points="678.6592,-757.6288 689.3536,-755.2038 682.6522,-754.6194 686.6452,-751.6101 686.6452,-751.6101 686.6452,-751.6101 682.6522,-754.6194 683.9368,-748.0164 678.6592,-757.6288 678.6592,-757.6288"/>
</g>
<!-- SponsorLanguage -->
<g id="node23" class="node">
<title>SponsorLanguage</title>
<path fill="none" stroke="#000000" d="M658.5111,-394.5C658.5111,-394.5 882.2357,-394.5 882.2357,-394.5 888.2357,-394.5 894.2357,-400.5 894.2357,-406.5 894.2357,-406.5 894.2357,-482.5 894.2357,-482.5 894.2357,-488.5 888.2357,-494.5 882.2357,-494.5 882.2357,-494.5 658.5111,-494.5 658.5111,-494.5 652.5111,-494.5 646.5111,-488.5 646.5111,-482.5 646.5111,-482.5 646.5111,-406.5 646.5111,-406.5 646.5111,-400.5 652.5111,-394.5 658.5111,-394.5"/>
<text text-anchor="middle" x="770.3734" y="-479.3" font-family="Times,serif" font-size="14.00" fill="#000000">SponsorLanguage</text>
<polyline fill="none" stroke="#000000" points="646.5111,-472.5 894.2357,-472.5 "/>
<text text-anchor="start" x="654.5111" y="-457.3" font-family="Times,serif" font-size="14.00" fill="#000000">id :integer</text>
<text text-anchor="start" x="654.5111" y="-443.3" font-family="Times,serif" font-size="14.00" fill="#000000">sponsor_id :integer</text>
<text text-anchor="start" x="654.5111" y="-429.3" font-family="Times,serif" font-size="14.00" fill="#000000">language_id :integer</text>
<text text-anchor="start" x="654.5111" y="-415.3" font-family="Times,serif" font-size="14.00" fill="#000000">created_at :timestamp without time zone</text>
<text text-anchor="start" x="654.5111" y="-401.3" font-family="Times,serif" font-size="14.00" fill="#000000">updated_at :timestamp without time zone</text>
</g>
<!-- Language&#45;&gt;SponsorLanguage -->
<g id="edge19" class="edge">
<title>Language&#45;&gt;SponsorLanguage</title>
<path fill="none" stroke="#33f35b" d="M614.3003,-783.0018C617.1983,-779.0997 619.9048,-775.0966 622.3734,-771 670.1973,-691.6366 624.3884,-650.1018 665.3734,-567 676.8581,-543.7134 693.7923,-521.2296 710.7239,-502.0203"/>
<ellipse fill="none" stroke="#33f35b" cx="611.7118" cy="-786.3188" rx="4" ry="4"/>
<polygon fill="#33f35b" stroke="#33f35b" points="710.7606,-501.9794 720.7971,-497.5613 714.1071,-498.2644 717.4536,-494.5494 717.4536,-494.5494 717.4536,-494.5494 714.1071,-498.2644 714.1101,-491.5376 710.7606,-501.9794 710.7606,-501.9794"/>
</g>
<!-- Language&#45;&gt;User -->
<g id="edge16" class="edge">
<title>Language&#45;&gt;User</title>
<path fill="none" stroke="#19fec9" d="M639.095,-945.854C639.1878,-945.9027 639.2806,-945.9514 639.3734,-946 656.2817,-954.863 662.6304,-953.2017 678.3734,-964 795.6582,-1044.4476 773.4305,-1118.1123 879.3734,-1213 961.9299,-1286.9418 1067.3081,-1352.3574 1154.6842,-1400.4416"/>
<polygon fill="#19fec9" stroke="#19fec9" points="639.2276,-945.9245 632.5071,-937.2594 634.8119,-943.579 630.3961,-941.2335 630.3961,-941.2335 630.3961,-941.2335 634.8119,-943.579 628.2852,-945.2077 639.2276,-945.9245 639.2276,-945.9245"/>
<polygon fill="#19fec9" stroke="#19fec9" points="1154.8496,-1400.5321 1161.4604,-1409.2812 1159.2355,-1402.933 1163.6213,-1405.334 1163.6213,-1405.334 1163.6213,-1405.334 1159.2355,-1402.933 1165.7822,-1401.3868 1154.8496,-1400.5321 1154.8496,-1400.5321"/>
</g>
<!-- Language&#45;&gt;User -->
<g id="edge18" class="edge">
<title>Language&#45;&gt;User</title>
<path fill="none" stroke="#34b1b7" d="M639.7294,-945.8261C710.3215,-973.1121 744.4653,-949.7333 798.3734,-996 868.4987,-1056.1853 832.6869,-1111.2298 893.2835,-1181 966.8637,-1265.7194 1068.8024,-1338.9899 1154.9691,-1392.3046"/>
<polygon fill="#34b1b7" stroke="#34b1b7" points="639.723,-945.8236 632.171,-937.8726 635.0951,-943.9306 630.4673,-942.0376 630.4673,-942.0376 630.4673,-942.0376 635.0951,-943.9306 628.7636,-946.2027 639.723,-945.8236 639.723,-945.8236"/>
<polygon fill="#34b1b7" stroke="#34b1b7" points="1155.0044,-1392.3262 1161.166,-1401.3974 1159.2637,-1394.9451 1163.523,-1397.564 1163.523,-1397.564 1163.523,-1397.564 1159.2637,-1394.9451 1165.88,-1393.7306 1155.0044,-1392.3262 1155.0044,-1392.3262"/>
<text text-anchor="middle" x="933.4183" y="-1084.3" font-family="Times,serif" font-size="14.00" fill="#000000">primary_users</text>
</g>
<!-- UserLanguage -->
<g id="node29" class="node">
<title>UserLanguage</title>
<path fill="none" stroke="#000000" d="M952.5111,-609.5C952.5111,-609.5 1176.2357,-609.5 1176.2357,-609.5 1182.2357,-609.5 1188.2357,-615.5 1188.2357,-621.5 1188.2357,-621.5 1188.2357,-697.5 1188.2357,-697.5 1188.2357,-703.5 1182.2357,-709.5 1176.2357,-709.5 1176.2357,-709.5 952.5111,-709.5 952.5111,-709.5 946.5111,-709.5 940.5111,-703.5 940.5111,-697.5 940.5111,-697.5 940.5111,-621.5 940.5111,-621.5 940.5111,-615.5 946.5111,-609.5 952.5111,-609.5"/>
<text text-anchor="middle" x="1064.3734" y="-694.3" font-family="Times,serif" font-size="14.00" fill="#000000">UserLanguage</text>
<polyline fill="none" stroke="#000000" points="940.5111,-687.5 1188.2357,-687.5 "/>
<text text-anchor="start" x="948.5111" y="-672.3" font-family="Times,serif" font-size="14.00" fill="#000000">id :integer</text>
<text text-anchor="start" x="948.5111" y="-658.3" font-family="Times,serif" font-size="14.00" fill="#000000">user_id :integer</text>
<text text-anchor="start" x="948.5111" y="-644.3" font-family="Times,serif" font-size="14.00" fill="#000000">language_id :integer</text>
<text text-anchor="start" x="948.5111" y="-630.3" font-family="Times,serif" font-size="14.00" fill="#000000">created_at :timestamp without time zone</text>
<text text-anchor="start" x="948.5111" y="-616.3" font-family="Times,serif" font-size="14.00" fill="#000000">updated_at :timestamp without time zone</text>
</g>
<!-- Language&#45;&gt;UserLanguage -->
<g id="edge15" class="edge">
<title>Language&#45;&gt;UserLanguage</title>
<path fill="none" stroke="#927196" d="M638.279,-789.3775C638.6439,-789.2506 639.0087,-789.1248 639.3734,-789 763.1464,-746.6571 809.2629,-798.9225 931.3734,-752 954.3329,-743.1775 977.1265,-729.5884 997.1885,-715.5188"/>
<ellipse fill="none" stroke="#927196" cx="634.3639" cy="-790.8142" rx="4" ry="4"/>
<polygon fill="#927196" stroke="#927196" points="997.1927,-715.5158 1007.9413,-713.3438 1001.2555,-712.6015 1005.3184,-709.6872 1005.3184,-709.6872 1005.3184,-709.6872 1001.2555,-712.6015 1002.6956,-706.0306 997.1927,-715.5158 997.1927,-715.5158"/>
</g>
<!-- UserPrimary -->
<g id="node30" class="node">
<title>UserPrimary</title>
<path fill="none" stroke="#000000" d="M1294.5111,-609.5C1294.5111,-609.5 1518.2357,-609.5 1518.2357,-609.5 1524.2357,-609.5 1530.2357,-615.5 1530.2357,-621.5 1530.2357,-621.5 1530.2357,-697.5 1530.2357,-697.5 1530.2357,-703.5 1524.2357,-709.5 1518.2357,-709.5 1518.2357,-709.5 1294.5111,-709.5 1294.5111,-709.5 1288.5111,-709.5 1282.5111,-703.5 1282.5111,-697.5 1282.5111,-697.5 1282.5111,-621.5 1282.5111,-621.5 1282.5111,-615.5 1288.5111,-609.5 1294.5111,-609.5"/>
<text text-anchor="middle" x="1406.3734" y="-694.3" font-family="Times,serif" font-size="14.00" fill="#000000">UserPrimary</text>
<polyline fill="none" stroke="#000000" points="1282.5111,-687.5 1530.2357,-687.5 "/>
<text text-anchor="start" x="1290.5111" y="-672.3" font-family="Times,serif" font-size="14.00" fill="#000000">id :integer</text>
<text text-anchor="start" x="1290.5111" y="-658.3" font-family="Times,serif" font-size="14.00" fill="#000000">user_id :integer</text>
<text text-anchor="start" x="1290.5111" y="-644.3" font-family="Times,serif" font-size="14.00" fill="#000000">language_id :integer</text>
<text text-anchor="start" x="1290.5111" y="-630.3" font-family="Times,serif" font-size="14.00" fill="#000000">created_at :timestamp without time zone</text>
<text text-anchor="start" x="1290.5111" y="-616.3" font-family="Times,serif" font-size="14.00" fill="#000000">updated_at :timestamp without time zone</text>
</g>
<!-- Language&#45;&gt;UserPrimary -->
<g id="edge17" class="edge">
<title>Language&#45;&gt;UserPrimary</title>
<path fill="none" stroke="#12ed11" d="M638.2685,-789.345C638.6368,-789.2288 639.0051,-789.1138 639.3734,-789 698.7397,-770.6549 1137.0395,-766.8568 1197.3734,-752 1233.0312,-743.2195 1270.2226,-728.6982 1303.1782,-713.7346"/>
<ellipse fill="none" stroke="#12ed11" cx="634.3212" cy="-790.6749" rx="4" ry="4"/>
<polygon fill="#12ed11" stroke="#12ed11" points="1303.2736,-713.6907 1314.2391,-713.594 1307.815,-711.5987 1312.3563,-709.5068 1312.3563,-709.5068 1312.3563,-709.5068 1307.815,-711.5987 1310.4736,-705.4195 1303.2736,-713.6907 1303.2736,-713.6907"/>
</g>
<!-- Meetup -->
<g id="node14" class="node">
<title>Meetup</title>
<path fill="none" stroke="#000000" d="M1484.5008,-359.5C1484.5008,-359.5 1708.2459,-359.5 1708.2459,-359.5 1714.2459,-359.5 1720.2459,-365.5 1720.2459,-371.5 1720.2459,-371.5 1720.2459,-517.5 1720.2459,-517.5 1720.2459,-523.5 1714.2459,-529.5 1708.2459,-529.5 1708.2459,-529.5 1484.5008,-529.5 1484.5008,-529.5 1478.5008,-529.5 1472.5008,-523.5 1472.5008,-517.5 1472.5008,-517.5 1472.5008,-371.5 1472.5008,-371.5 1472.5008,-365.5 1478.5008,-359.5 1484.5008,-359.5"/>
<text text-anchor="middle" x="1596.3734" y="-514.3" font-family="Times,serif" font-size="14.00" fill="#000000">Meetup</text>
<polyline fill="none" stroke="#000000" points="1472.5008,-507.5 1720.2459,-507.5 "/>
<text text-anchor="start" x="1480.5008" y="-492.3" font-family="Times,serif" font-size="14.00" fill="#000000">author_id :integer</text>
<text text-anchor="start" x="1480.5008" y="-478.3" font-family="Times,serif" font-size="14.00" fill="#000000">name :character varying</text>
<text text-anchor="start" x="1480.5008" y="-464.3" font-family="Times,serif" font-size="14.00" fill="#000000">description :text</text>
<text text-anchor="start" x="1480.5008" y="-450.3" font-family="Times,serif" font-size="14.00" fill="#000000">slug :character varying</text>
<text text-anchor="start" x="1480.5008" y="-436.3" font-family="Times,serif" font-size="14.00" fill="#000000">date :timestamp without time zone</text>
<text text-anchor="start" x="1480.5008" y="-422.3" font-family="Times,serif" font-size="14.00" fill="#000000">created_at :timestamp without time zone</text>
<text text-anchor="start" x="1480.5008" y="-408.3" font-family="Times,serif" font-size="14.00" fill="#000000">updated_at :timestamp without time zone</text>
<text text-anchor="start" x="1480.5008" y="-394.3" font-family="Times,serif" font-size="14.00" fill="#000000">sponsor_id :integer</text>
<text text-anchor="start" x="1480.5008" y="-380.3" font-family="Times,serif" font-size="14.00" fill="#000000">finish_date :timestamp without time zone</text>
<text text-anchor="start" x="1480.5008" y="-366.3" font-family="Times,serif" font-size="14.00" fill="#000000">id :integer</text>
</g>
<!-- Meetup&#45;&gt;Comment -->
<g id="edge27" class="edge">
<title>Meetup&#45;&gt;Comment</title>
<path fill="none" stroke="#3a3442" d="M1464.3442,-411.8588C1394.6641,-395.1094 1307.6116,-374.9354 1229.3734,-359 1062.3076,-324.9723 868.6132,-292.1805 742.5622,-271.7208"/>
<ellipse fill="none" stroke="#3a3442" cx="1468.4328" cy="-412.8432" rx="4" ry="4"/>
<polygon fill="#3a3442" stroke="#3a3442" points="742.3433,-271.6854 733.1918,-265.6438 737.4077,-270.8856 732.4721,-270.0859 732.4721,-270.0859 732.4721,-270.0859 737.4077,-270.8856 731.7523,-274.528 742.3433,-271.6854 742.3433,-271.6854"/>
</g>
<!-- Meetup&#45;&gt;Language -->
<g id="edge26" class="edge">
<title>Meetup&#45;&gt;Language</title>
<path fill="none" stroke="#cace1d" d="M1462.4137,-469.2695C1398.3721,-487.0714 1324.6827,-517.0723 1273.3734,-567 1209.6667,-628.9911 1269.5322,-700.0911 1197.3734,-752 1098.9549,-822.7993 774.4872,-755.7519 640.2449,-789.2451"/>
<polygon fill="#cace1d" stroke="#cace1d" points="1462.5427,-469.2347 1473.3709,-470.9672 1467.3692,-467.929 1472.1958,-466.6234 1472.1958,-466.6234 1472.1958,-466.6234 1467.3692,-467.929 1471.0207,-462.2795 1462.5427,-469.2347 1462.5427,-469.2347"/>
<polygon fill="#cace1d" stroke="#cace1d" points="640.1636,-789.2677 629.3226,-787.6173 635.3471,-790.6099 630.5306,-791.9522 630.5306,-791.9522 630.5306,-791.9522 635.3471,-790.6099 631.7386,-796.287 640.1636,-789.2677 640.1636,-789.2677"/>
</g>
<!-- MeetupRsvp -->
<g id="node15" class="node">
<title>MeetupRsvp</title>
<path fill="none" stroke="#000000" d="M2220.5111,-200.5C2220.5111,-200.5 2444.2357,-200.5 2444.2357,-200.5 2450.2357,-200.5 2456.2357,-206.5 2456.2357,-212.5 2456.2357,-212.5 2456.2357,-288.5 2456.2357,-288.5 2456.2357,-294.5 2450.2357,-300.5 2444.2357,-300.5 2444.2357,-300.5 2220.5111,-300.5 2220.5111,-300.5 2214.5111,-300.5 2208.5111,-294.5 2208.5111,-288.5 2208.5111,-288.5 2208.5111,-212.5 2208.5111,-212.5 2208.5111,-206.5 2214.5111,-200.5 2220.5111,-200.5"/>
<text text-anchor="middle" x="2332.3734" y="-285.3" font-family="Times,serif" font-size="14.00" fill="#000000">MeetupRsvp</text>
<polyline fill="none" stroke="#000000" points="2208.5111,-278.5 2456.2357,-278.5 "/>
<text text-anchor="start" x="2216.5111" y="-263.3" font-family="Times,serif" font-size="14.00" fill="#000000">id :integer</text>
<text text-anchor="start" x="2216.5111" y="-249.3" font-family="Times,serif" font-size="14.00" fill="#000000">user_id :integer</text>
<text text-anchor="start" x="2216.5111" y="-235.3" font-family="Times,serif" font-size="14.00" fill="#000000">meetup_id :integer</text>
<text text-anchor="start" x="2216.5111" y="-221.3" font-family="Times,serif" font-size="14.00" fill="#000000">created_at :timestamp without time zone</text>
<text text-anchor="start" x="2216.5111" y="-207.3" font-family="Times,serif" font-size="14.00" fill="#000000">updated_at :timestamp without time zone</text>
</g>
<!-- Meetup&#45;&gt;MeetupRsvp -->
<g id="edge22" class="edge">
<title>Meetup&#45;&gt;MeetupRsvp</title>
<path fill="none" stroke="#abc81b" d="M1728.4421,-409.6884C1861.3023,-374.6682 2065.1011,-320.9495 2198.5735,-285.7679"/>
<ellipse fill="none" stroke="#abc81b" cx="1724.2613" cy="-410.7904" rx="4" ry="4"/>
<polygon fill="#abc81b" stroke="#abc81b" points="2198.7899,-285.7109 2209.6066,-287.5134 2203.6247,-284.4365 2208.4596,-283.1621 2208.4596,-283.1621 2208.4596,-283.1621 2203.6247,-284.4365 2207.3126,-278.8107 2198.7899,-285.7109 2198.7899,-285.7109"/>
</g>
<!-- Meetup&#45;&gt;User -->
<g id="edge23" class="edge">
<title>Meetup&#45;&gt;User</title>
<path fill="none" stroke="#91c75b" d="M1601.8456,-539.7874C1602.3253,-601.962 1597.0198,-683.9152 1572.3734,-752 1527.1244,-876.9985 1449.3662,-872.822 1399.3734,-996 1390.1686,-1018.6797 1374.0773,-1118.1385 1359.0641,-1221.4498"/>
<polygon fill="#91c75b" stroke="#91c75b" points="1601.8432,-539.5925 1606.2137,-529.5352 1601.7786,-534.5929 1601.714,-529.5933 1601.714,-529.5933 1601.714,-529.5933 1601.7786,-534.5929 1597.2144,-529.6514 1601.8432,-539.5925 1601.8432,-539.5925"/>
<polygon fill="#91c75b" stroke="#91c75b" points="1359.0481,-1221.5605 1353.1612,-1230.8123 1358.3314,-1226.5089 1357.6148,-1231.4573 1357.6148,-1231.4573 1357.6148,-1231.4573 1358.3314,-1226.5089 1362.0683,-1232.1022 1359.0481,-1221.5605 1359.0481,-1221.5605"/>
<text text-anchor="middle" x="1571.1527" y="-863.3" font-family="Times,serif" font-size="14.00" fill="#000000">rsvps</text>
</g>
<!-- Meetup&#45;&gt;User -->
<g id="edge24" class="edge">
<title>Meetup&#45;&gt;User</title>
<path fill="none" stroke="#8abcee" d="M1637.2728,-539.0032C1685.4194,-644.3522 1772.0512,-816.8673 1875.3734,-946 1896.2188,-972.0528 1917.7385,-965.5472 1931.3734,-996 1964.9732,-1071.0436 1974.6231,-1111.0718 1931.3734,-1181 1836.3603,-1334.6213 1637.5196,-1413.0485 1493.0302,-1451.2757"/>
<polygon fill="#8abcee" stroke="#8abcee" points="1637.1595,-538.7538 1637.1155,-527.788 1635.0894,-534.2025 1633.0193,-529.6511 1633.0193,-529.6511 1633.0193,-529.6511 1635.0894,-534.2025 1628.923,-531.5142 1637.1595,-538.7538 1637.1595,-538.7538"/>
<polygon fill="#8abcee" stroke="#8abcee" points="1492.8353,-1451.3263 1482.0238,-1449.4928 1487.9968,-1452.5869 1483.1583,-1453.8475 1483.1583,-1453.8475 1483.1583,-1453.8475 1487.9968,-1452.5869 1484.2928,-1458.2021 1492.8353,-1451.3263 1492.8353,-1451.3263"/>
<text text-anchor="middle" x="1920.8734" y="-863.3" font-family="Times,serif" font-size="14.00" fill="#000000">sponsor_admins</text>
</g>
<!-- Meetup&#45;&gt;User -->
<g id="edge25" class="edge">
<title>Meetup&#45;&gt;User</title>
<path fill="none" stroke="#80db8f" d="M1730.2496,-462.0982C1843.7986,-485.4275 1988.3734,-538.8256 1988.3734,-659.5 1988.3734,-1088.5 1988.3734,-1088.5 1988.3734,-1088.5 1988.3734,-1318.9197 1689.9937,-1418.3305 1492.9702,-1458.8562"/>
<polygon fill="#80db8f" stroke="#80db8f" points="1730.2113,-462.0906 1721.2851,-455.721 1725.308,-461.1123 1720.4046,-460.134 1720.4046,-460.134 1720.4046,-460.134 1725.308,-461.1123 1719.5241,-464.5471 1730.2113,-462.0906 1730.2113,-462.0906"/>
<polygon fill="#80db8f" stroke="#80db8f" points="1492.8815,-1458.8741 1482.1873,-1456.4482 1487.9809,-1459.8664 1483.0804,-1460.8587 1483.0804,-1460.8587 1483.0804,-1460.8587 1487.9809,-1459.8664 1483.9734,-1465.2692 1492.8815,-1458.8741 1492.8815,-1458.8741"/>
<text text-anchor="middle" x="2017.0194" y="-863.3" font-family="Times,serif" font-size="14.00" fill="#000000">organisers</text>
</g>
<!-- Notification -->
<g id="node16" class="node">
<title>Notification</title>
<path fill="none" stroke="#000000" d="M1420.5111,-1010.5C1420.5111,-1010.5 1644.2357,-1010.5 1644.2357,-1010.5 1650.2357,-1010.5 1656.2357,-1016.5 1656.2357,-1022.5 1656.2357,-1022.5 1656.2357,-1154.5 1656.2357,-1154.5 1656.2357,-1160.5 1650.2357,-1166.5 1644.2357,-1166.5 1644.2357,-1166.5 1420.5111,-1166.5 1420.5111,-1166.5 1414.5111,-1166.5 1408.5111,-1160.5 1408.5111,-1154.5 1408.5111,-1154.5 1408.5111,-1022.5 1408.5111,-1022.5 1408.5111,-1016.5 1414.5111,-1010.5 1420.5111,-1010.5"/>
<text text-anchor="middle" x="1532.3734" y="-1151.3" font-family="Times,serif" font-size="14.00" fill="#000000">Notification</text>
<polyline fill="none" stroke="#000000" points="1408.5111,-1144.5 1656.2357,-1144.5 "/>
<text text-anchor="start" x="1416.5111" y="-1129.3" font-family="Times,serif" font-size="14.00" fill="#000000">updated_at :timestamp without time zone</text>
<text text-anchor="start" x="1416.5111" y="-1115.3" font-family="Times,serif" font-size="14.00" fill="#000000">user_id :integer</text>
<text text-anchor="start" x="1416.5111" y="-1101.3" font-family="Times,serif" font-size="14.00" fill="#000000">notified_by_id :integer</text>
<text text-anchor="start" x="1416.5111" y="-1087.3" font-family="Times,serif" font-size="14.00" fill="#000000">action :character varying</text>
<text text-anchor="start" x="1416.5111" y="-1073.3" font-family="Times,serif" font-size="14.00" fill="#000000">notifiable_type :character varying</text>
<text text-anchor="start" x="1416.5111" y="-1059.3" font-family="Times,serif" font-size="14.00" fill="#000000">notifiable_id :integer</text>
<text text-anchor="start" x="1416.5111" y="-1045.3" font-family="Times,serif" font-size="14.00" fill="#000000">read :boolean</text>
<text text-anchor="start" x="1416.5111" y="-1031.3" font-family="Times,serif" font-size="14.00" fill="#000000">created_at :timestamp without time zone</text>
<text text-anchor="start" x="1416.5111" y="-1017.3" font-family="Times,serif" font-size="14.00" fill="#000000">id :integer</text>
</g>
<!-- OrganiserInterest -->
<g id="node17" class="node">
<title>OrganiserInterest</title>
<path fill="none" stroke="#000000" d="M1686.5111,-1038.5C1686.5111,-1038.5 1910.2357,-1038.5 1910.2357,-1038.5 1916.2357,-1038.5 1922.2357,-1044.5 1922.2357,-1050.5 1922.2357,-1050.5 1922.2357,-1126.5 1922.2357,-1126.5 1922.2357,-1132.5 1916.2357,-1138.5 1910.2357,-1138.5 1910.2357,-1138.5 1686.5111,-1138.5 1686.5111,-1138.5 1680.5111,-1138.5 1674.5111,-1132.5 1674.5111,-1126.5 1674.5111,-1126.5 1674.5111,-1050.5 1674.5111,-1050.5 1674.5111,-1044.5 1680.5111,-1038.5 1686.5111,-1038.5"/>
<text text-anchor="middle" x="1798.3734" y="-1123.3" font-family="Times,serif" font-size="14.00" fill="#000000">OrganiserInterest</text>
<polyline fill="none" stroke="#000000" points="1674.5111,-1116.5 1922.2357,-1116.5 "/>
<text text-anchor="start" x="1682.5111" y="-1101.3" font-family="Times,serif" font-size="14.00" fill="#000000">id :integer</text>
<text text-anchor="start" x="1682.5111" y="-1087.3" font-family="Times,serif" font-size="14.00" fill="#000000">user_id :integer</text>
<text text-anchor="start" x="1682.5111" y="-1073.3" font-family="Times,serif" font-size="14.00" fill="#000000">created_at :timestamp without time zone</text>
<text text-anchor="start" x="1682.5111" y="-1059.3" font-family="Times,serif" font-size="14.00" fill="#000000">updated_at :timestamp without time zone</text>
<text text-anchor="start" x="1682.5111" y="-1045.3" font-family="Times,serif" font-size="14.00" fill="#000000">notified_at :timestamp without time zone</text>
</g>
<!-- Post -->
<g id="node18" class="node">
<title>Post</title>
<path fill="none" stroke="#000000" d="M2367.5111,-996.5C2367.5111,-996.5 2591.2357,-996.5 2591.2357,-996.5 2597.2357,-996.5 2603.2357,-1002.5 2603.2357,-1008.5 2603.2357,-1008.5 2603.2357,-1168.5 2603.2357,-1168.5 2603.2357,-1174.5 2597.2357,-1180.5 2591.2357,-1180.5 2591.2357,-1180.5 2367.5111,-1180.5 2367.5111,-1180.5 2361.5111,-1180.5 2355.5111,-1174.5 2355.5111,-1168.5 2355.5111,-1168.5 2355.5111,-1008.5 2355.5111,-1008.5 2355.5111,-1002.5 2361.5111,-996.5 2367.5111,-996.5"/>
<text text-anchor="middle" x="2479.3734" y="-1165.3" font-family="Times,serif" font-size="14.00" fill="#000000">Post</text>
<polyline fill="none" stroke="#000000" points="2355.5111,-1158.5 2603.2357,-1158.5 "/>
<text text-anchor="start" x="2363.5111" y="-1143.3" font-family="Times,serif" font-size="14.00" fill="#000000">announced :boolean</text>
<text text-anchor="start" x="2363.5111" y="-1129.3" font-family="Times,serif" font-size="14.00" fill="#000000">title :character varying</text>
<text text-anchor="start" x="2363.5111" y="-1115.3" font-family="Times,serif" font-size="14.00" fill="#000000">content :text</text>
<text text-anchor="start" x="2363.5111" y="-1101.3" font-family="Times,serif" font-size="14.00" fill="#000000">created_at :timestamp without time zone</text>
<text text-anchor="start" x="2363.5111" y="-1087.3" font-family="Times,serif" font-size="14.00" fill="#000000">updated_at :timestamp without time zone</text>
<text text-anchor="start" x="2363.5111" y="-1073.3" font-family="Times,serif" font-size="14.00" fill="#000000">created_by_id :integer</text>
<text text-anchor="start" x="2363.5111" y="-1059.3" font-family="Times,serif" font-size="14.00" fill="#000000">slug :character varying</text>
<text text-anchor="start" x="2363.5111" y="-1045.3" font-family="Times,serif" font-size="14.00" fill="#000000">featured :boolean</text>
<text text-anchor="start" x="2363.5111" y="-1031.3" font-family="Times,serif" font-size="14.00" fill="#000000">description :character varying</text>
<text text-anchor="start" x="2363.5111" y="-1017.3" font-family="Times,serif" font-size="14.00" fill="#000000">twitter_image :character varying</text>
<text text-anchor="start" x="2363.5111" y="-1003.3" font-family="Times,serif" font-size="14.00" fill="#000000">id :integer</text>
</g>
<!-- Post&#45;&gt;Comment -->
<g id="edge30" class="edge">
<title>Post&#45;&gt;Comment</title>
<path fill="none" stroke="#f81982" d="M2479.3734,-987.8323C2479.3734,-950.0894 2479.3734,-906.8265 2479.3734,-867.5 2479.3734,-867.5 2479.3734,-867.5 2479.3734,-444.5 2479.3734,-357.1383 1171.7905,-280.262 742.8602,-257.3942"/>
<ellipse fill="none" stroke="#f81982" cx="2479.3734" cy="-992.297" rx="4" ry="4"/>
<polygon fill="#f81982" stroke="#f81982" points="742.5698,-257.3788 732.8229,-252.3541 737.5768,-257.1133 732.5839,-256.8477 732.5839,-256.8477 732.5839,-256.8477 737.5768,-257.1133 732.3449,-261.3414 742.5698,-257.3788 742.5698,-257.3788"/>
</g>
<!-- PostAttachment -->
<g id="node19" class="node">
<title>PostAttachment</title>
<path fill="none" stroke="#000000" d="M2215.5111,-817.5C2215.5111,-817.5 2439.2357,-817.5 2439.2357,-817.5 2445.2357,-817.5 2451.2357,-823.5 2451.2357,-829.5 2451.2357,-829.5 2451.2357,-905.5 2451.2357,-905.5 2451.2357,-911.5 2445.2357,-917.5 2439.2357,-917.5 2439.2357,-917.5 2215.5111,-917.5 2215.5111,-917.5 2209.5111,-917.5 2203.5111,-911.5 2203.5111,-905.5 2203.5111,-905.5 2203.5111,-829.5 2203.5111,-829.5 2203.5111,-823.5 2209.5111,-817.5 2215.5111,-817.5"/>
<text text-anchor="middle" x="2327.3734" y="-902.3" font-family="Times,serif" font-size="14.00" fill="#000000">PostAttachment</text>
<polyline fill="none" stroke="#000000" points="2203.5111,-895.5 2451.2357,-895.5 "/>
<text text-anchor="start" x="2211.5111" y="-880.3" font-family="Times,serif" font-size="14.00" fill="#000000">id :integer</text>
<text text-anchor="start" x="2211.5111" y="-866.3" font-family="Times,serif" font-size="14.00" fill="#000000">post_id :integer</text>
<text text-anchor="start" x="2211.5111" y="-852.3" font-family="Times,serif" font-size="14.00" fill="#000000">avatar :character varying</text>
<text text-anchor="start" x="2211.5111" y="-838.3" font-family="Times,serif" font-size="14.00" fill="#000000">created_at :timestamp without time zone</text>
<text text-anchor="start" x="2211.5111" y="-824.3" font-family="Times,serif" font-size="14.00" fill="#000000">updated_at :timestamp without time zone</text>
</g>
<!-- Post&#45;&gt;PostAttachment -->
<g id="edge31" class="edge">
<title>Post&#45;&gt;PostAttachment</title>
<path fill="none" stroke="#d94373" d="M2411.4233,-989.7042C2396.4608,-967.9495 2381.0773,-945.5828 2367.6279,-926.028"/>
<ellipse fill="none" stroke="#d94373" cx="2413.7456" cy="-993.0807" rx="4" ry="4"/>
<polygon fill="#d94373" stroke="#d94373" points="2367.4587,-925.7819 2365.4995,-914.9925 2364.6252,-921.6623 2361.7918,-917.5426 2361.7918,-917.5426 2361.7918,-917.5426 2364.6252,-921.6623 2358.0841,-920.0927 2367.4587,-925.7819 2367.4587,-925.7819"/>
</g>
<!-- PostTag -->
<g id="node20" class="node">
<title>PostTag</title>
<path fill="none" stroke="#000000" d="M2538.5111,-609.5C2538.5111,-609.5 2762.2357,-609.5 2762.2357,-609.5 2768.2357,-609.5 2774.2357,-615.5 2774.2357,-621.5 2774.2357,-621.5 2774.2357,-697.5 2774.2357,-697.5 2774.2357,-703.5 2768.2357,-709.5 2762.2357,-709.5 2762.2357,-709.5 2538.5111,-709.5 2538.5111,-709.5 2532.5111,-709.5 2526.5111,-703.5 2526.5111,-697.5 2526.5111,-697.5 2526.5111,-621.5 2526.5111,-621.5 2526.5111,-615.5 2532.5111,-609.5 2538.5111,-609.5"/>
<text text-anchor="middle" x="2650.3734" y="-694.3" font-family="Times,serif" font-size="14.00" fill="#000000">PostTag</text>
<polyline fill="none" stroke="#000000" points="2526.5111,-687.5 2774.2357,-687.5 "/>
<text text-anchor="start" x="2534.5111" y="-672.3" font-family="Times,serif" font-size="14.00" fill="#000000">id :integer</text>
<text text-anchor="start" x="2534.5111" y="-658.3" font-family="Times,serif" font-size="14.00" fill="#000000">post_id :integer</text>
<text text-anchor="start" x="2534.5111" y="-644.3" font-family="Times,serif" font-size="14.00" fill="#000000">tag_id :integer</text>
<text text-anchor="start" x="2534.5111" y="-630.3" font-family="Times,serif" font-size="14.00" fill="#000000">created_at :timestamp without time zone</text>
<text text-anchor="start" x="2534.5111" y="-616.3" font-family="Times,serif" font-size="14.00" fill="#000000">updated_at :timestamp without time zone</text>
</g>
<!-- Post&#45;&gt;PostTag -->
<g id="edge28" class="edge">
<title>Post&#45;&gt;PostTag</title>
<path fill="none" stroke="#7efb44" d="M2492.6839,-988.0843C2503.4297,-915.1738 2519.493,-823.5079 2536.3734,-789 2549.1506,-762.8799 2568.6306,-737.9476 2587.8925,-717.0584"/>
<ellipse fill="none" stroke="#7efb44" cx="2492.0436" cy="-992.4682" rx="4" ry="4"/>
<polygon fill="#7efb44" stroke="#7efb44" points="2588.1087,-716.8289 2598.2416,-712.6365 2591.5375,-713.1898 2594.9663,-709.5506 2594.9663,-709.5506 2594.9663,-709.5506 2591.5375,-713.1898 2591.6911,-706.4647 2588.1087,-716.8289 2588.1087,-716.8289"/>
</g>
<!-- Tag -->
<g id="node25" class="node">
<title>Tag</title>
<path fill="none" stroke="#000000" d="M2557.5111,-817.5C2557.5111,-817.5 2781.2357,-817.5 2781.2357,-817.5 2787.2357,-817.5 2793.2357,-823.5 2793.2357,-829.5 2793.2357,-829.5 2793.2357,-905.5 2793.2357,-905.5 2793.2357,-911.5 2787.2357,-917.5 2781.2357,-917.5 2781.2357,-917.5 2557.5111,-917.5 2557.5111,-917.5 2551.5111,-917.5 2545.5111,-911.5 2545.5111,-905.5 2545.5111,-905.5 2545.5111,-829.5 2545.5111,-829.5 2545.5111,-823.5 2551.5111,-817.5 2557.5111,-817.5"/>
<text text-anchor="middle" x="2669.3734" y="-902.3" font-family="Times,serif" font-size="14.00" fill="#000000">Tag</text>
<polyline fill="none" stroke="#000000" points="2545.5111,-895.5 2793.2357,-895.5 "/>
<text text-anchor="start" x="2553.5111" y="-880.3" font-family="Times,serif" font-size="14.00" fill="#000000">id :integer</text>
<text text-anchor="start" x="2553.5111" y="-866.3" font-family="Times,serif" font-size="14.00" fill="#000000">name :character varying</text>
<text text-anchor="start" x="2553.5111" y="-852.3" font-family="Times,serif" font-size="14.00" fill="#000000">created_at :timestamp without time zone</text>
<text text-anchor="start" x="2553.5111" y="-838.3" font-family="Times,serif" font-size="14.00" fill="#000000">updated_at :timestamp without time zone</text>
<text text-anchor="start" x="2553.5111" y="-824.3" font-family="Times,serif" font-size="14.00" fill="#000000">creator_id :integer</text>
</g>
<!-- Post&#45;&gt;Tag -->
<g id="edge29" class="edge">
<title>Post&#45;&gt;Tag</title>
<path fill="none" stroke="#655f6d" d="M2565.1335,-988.7474C2583.8611,-966.9642 2603.0722,-944.6187 2619.8186,-925.14"/>
<polygon fill="#655f6d" stroke="#655f6d" points="2565.0939,-988.7935 2555.1623,-993.4427 2561.8343,-992.585 2558.5746,-996.3764 2558.5746,-996.3764 2558.5746,-996.3764 2561.8343,-992.585 2561.9869,-999.3101 2565.0939,-988.7935 2565.0939,-988.7935"/>
<polygon fill="#655f6d" stroke="#655f6d" points="2619.8311,-925.1255 2629.7626,-920.4762 2623.0907,-921.334 2626.3503,-917.5426 2626.3503,-917.5426 2626.3503,-917.5426 2623.0907,-921.334 2622.938,-914.6089 2619.8311,-925.1255 2619.8311,-925.1255"/>
</g>
<!-- Role -->
<g id="node21" class="node">
<title>Role</title>
<path fill="none" stroke="#000000" d="M2446.5111,-1803.5C2446.5111,-1803.5 2670.2357,-1803.5 2670.2357,-1803.5 2676.2357,-1803.5 2682.2357,-1809.5 2682.2357,-1815.5 2682.2357,-1815.5 2682.2357,-1891.5 2682.2357,-1891.5 2682.2357,-1897.5 2676.2357,-1903.5 2670.2357,-1903.5 2670.2357,-1903.5 2446.5111,-1903.5 2446.5111,-1903.5 2440.5111,-1903.5 2434.5111,-1897.5 2434.5111,-1891.5 2434.5111,-1891.5 2434.5111,-1815.5 2434.5111,-1815.5 2434.5111,-1809.5 2440.5111,-1803.5 2446.5111,-1803.5"/>
<text text-anchor="middle" x="2558.3734" y="-1888.3" font-family="Times,serif" font-size="14.00" fill="#000000">Role</text>
<polyline fill="none" stroke="#000000" points="2434.5111,-1881.5 2682.2357,-1881.5 "/>
<text text-anchor="start" x="2442.5111" y="-1866.3" font-family="Times,serif" font-size="14.00" fill="#000000">id :integer</text>
<text text-anchor="start" x="2442.5111" y="-1852.3" font-family="Times,serif" font-size="14.00" fill="#000000">name :character varying</text>
<text text-anchor="start" x="2442.5111" y="-1838.3" font-family="Times,serif" font-size="14.00" fill="#000000">created_at :timestamp without time zone</text>
<text text-anchor="start" x="2442.5111" y="-1824.3" font-family="Times,serif" font-size="14.00" fill="#000000">updated_at :timestamp without time zone</text>
<text text-anchor="start" x="2442.5111" y="-1810.3" font-family="Times,serif" font-size="14.00" fill="#000000">description :text</text>
</g>
<!-- Role&#45;&gt;Assignment -->
<g id="edge32" class="edge">
<title>Role&#45;&gt;Assignment</title>
<path fill="none" stroke="#996ad8" d="M2589.4579,-1796.1995C2666.0497,-1655.0122 2863.2609,-1291.4784 2941.0924,-1148.0059"/>
<ellipse fill="none" stroke="#996ad8" cx="2587.51" cy="-1799.7902" rx="4" ry="4"/>
<polygon fill="#996ad8" stroke="#996ad8" points="2941.2754,-1147.6685 2949.9993,-1141.0244 2943.6596,-1143.2736 2946.0438,-1138.8786 2946.0438,-1138.8786 2946.0438,-1138.8786 2943.6596,-1143.2736 2942.0883,-1136.7328 2941.2754,-1147.6685 2941.2754,-1147.6685"/>
</g>
<!-- Role&#45;&gt;User -->
<g id="edge33" class="edge">
<title>Role&#45;&gt;User</title>
<path fill="none" stroke="#6a0c1a" d="M2472.84,-1798.4008C2457.4131,-1789.8094 2441.1961,-1781.6055 2425.3734,-1775 2108.216,-1642.5966 1714.0908,-1556.1247 1493.4716,-1514.212"/>
<polygon fill="#6a0c1a" stroke="#6a0c1a" points="2473.1242,-1798.562 2479.603,-1807.4094 2477.4735,-1801.0285 2481.8228,-1803.495 2481.8228,-1803.495 2481.8228,-1803.495 2477.4735,-1801.0285 2484.0427,-1799.5806 2473.1242,-1798.562 2473.1242,-1798.562"/>
<polygon fill="#6a0c1a" stroke="#6a0c1a" points="1493.2488,-1514.1699 1484.2596,-1507.8894 1488.336,-1513.2405 1483.4231,-1512.311 1483.4231,-1512.311 1483.4231,-1512.311 1488.336,-1513.2405 1482.5866,-1516.7326 1493.2488,-1514.1699 1493.2488,-1514.1699"/>
</g>
<!-- Sponsor&#45;&gt;Meetup -->
<g id="edge34" class="edge">
<title>Sponsor&#45;&gt;Meetup</title>
<path fill="none" stroke="#a65c66" d="M929.9577,-567.5481C930.4295,-567.3634 930.9014,-567.1807 931.3734,-567 1056.0137,-519.285 1097.9785,-553.3955 1229.3734,-530 1307.0309,-516.1727 1392.9464,-496.4045 1462.1153,-479.3586"/>
<ellipse fill="none" stroke="#a65c66" cx="926.0219" cy="-569.1775" rx="4" ry="4"/>
<polygon fill="#a65c66" stroke="#a65c66" points="1462.4888,-479.2663 1473.2769,-481.2327 1467.3424,-478.0654 1472.1961,-476.8644 1472.1961,-476.8644 1472.1961,-476.8644 1467.3424,-478.0654 1471.1152,-472.4962 1462.4888,-479.2663 1462.4888,-479.2663"/>
</g>
<!-- Sponsor&#45;&gt;SponsorLanguage -->
<g id="edge37" class="edge">
<title>Sponsor&#45;&gt;SponsorLanguage</title>
<path fill="none" stroke="#538f9a" d="M785.306,-559.1616C782.8911,-540.6187 780.4391,-521.7904 778.239,-504.8966"/>
<ellipse fill="none" stroke="#538f9a" cx="785.8604" cy="-563.4185" rx="4" ry="4"/>
<polygon fill="#538f9a" stroke="#538f9a" points="778.1957,-504.564 781.3665,-494.0665 777.55,-499.6059 776.9042,-494.6477 776.9042,-494.6477 776.9042,-494.6477 777.55,-499.6059 772.4419,-495.2289 778.1957,-504.564 778.1957,-504.564"/>
</g>
<!-- SponsorshipAdmin -->
<g id="node24" class="node">
<title>SponsorshipAdmin</title>
<path fill="none" stroke="#000000" d="M984.5111,-394.5C984.5111,-394.5 1208.2357,-394.5 1208.2357,-394.5 1214.2357,-394.5 1220.2357,-400.5 1220.2357,-406.5 1220.2357,-406.5 1220.2357,-482.5 1220.2357,-482.5 1220.2357,-488.5 1214.2357,-494.5 1208.2357,-494.5 1208.2357,-494.5 984.5111,-494.5 984.5111,-494.5 978.5111,-494.5 972.5111,-488.5 972.5111,-482.5 972.5111,-482.5 972.5111,-406.5 972.5111,-406.5 972.5111,-400.5 978.5111,-394.5 984.5111,-394.5"/>
<text text-anchor="middle" x="1096.3734" y="-479.3" font-family="Times,serif" font-size="14.00" fill="#000000">SponsorshipAdmin</text>
<polyline fill="none" stroke="#000000" points="972.5111,-472.5 1220.2357,-472.5 "/>
<text text-anchor="start" x="980.5111" y="-457.3" font-family="Times,serif" font-size="14.00" fill="#000000">id :integer</text>
<text text-anchor="start" x="980.5111" y="-443.3" font-family="Times,serif" font-size="14.00" fill="#000000">user_id :integer</text>
<text text-anchor="start" x="980.5111" y="-429.3" font-family="Times,serif" font-size="14.00" fill="#000000">sponsor_id :integer</text>
<text text-anchor="start" x="980.5111" y="-415.3" font-family="Times,serif" font-size="14.00" fill="#000000">created_at :timestamp without time zone</text>
<text text-anchor="start" x="980.5111" y="-401.3" font-family="Times,serif" font-size="14.00" fill="#000000">updated_at :timestamp without time zone</text>
</g>
<!-- Sponsor&#45;&gt;SponsorshipAdmin -->
<g id="edge35" class="edge">
<title>Sponsor&#45;&gt;SponsorshipAdmin</title>
<path fill="none" stroke="#083411" d="M929.2926,-565.0448C959.7287,-543.0859 991.1862,-520.39 1018.4839,-500.6954"/>
<ellipse fill="none" stroke="#083411" cx="925.8382" cy="-567.5371" rx="4" ry="4"/>
<polygon fill="#083411" stroke="#083411" points="1018.7067,-500.5347 1029.4493,-498.3331 1022.7615,-497.6092 1026.8164,-494.6837 1026.8164,-494.6837 1026.8164,-494.6837 1022.7615,-497.6092 1024.1834,-491.0344 1018.7067,-500.5347 1018.7067,-500.5347"/>
</g>
<!-- Sponsor&#45;&gt;User -->
<g id="edge36" class="edge">
<title>Sponsor&#45;&gt;User</title>
<path fill="none" stroke="#2b8799" d="M931.8612,-751.7136C1035.4321,-787.4363 1099.2402,-713.0231 1171.3734,-789 1236.5804,-857.6817 1191.7308,-1121.0411 1214.3734,-1213 1215.0707,-1215.832 1215.7915,-1218.6736 1216.5346,-1221.5228"/>
<polygon fill="#2b8799" stroke="#2b8799" points="931.7419,-751.6691 923.9478,-743.9553 927.0577,-749.9201 922.3736,-748.171 922.3736,-748.171 922.3736,-748.171 927.0577,-749.9201 920.7995,-752.3867 931.7419,-751.6691 931.7419,-751.6691"/>
<polygon fill="#2b8799" stroke="#2b8799" points="1216.5497,-1221.5796 1214.7982,-1232.4047 1217.8469,-1226.4084 1219.1441,-1231.2372 1219.1441,-1231.2372 1219.1441,-1231.2372 1217.8469,-1226.4084 1223.4901,-1230.0698 1216.5497,-1221.5796 1216.5497,-1221.5796"/>
</g>
<!-- Tag&#45;&gt;PostTag -->
<g id="edge38" class="edge">
<title>Tag&#45;&gt;PostTag</title>
<path fill="none" stroke="#d759bf" d="M2664.0461,-809.1801C2661.4937,-781.2384 2658.4398,-747.8065 2655.8663,-719.6332"/>
<ellipse fill="none" stroke="#d759bf" cx="2664.4343" cy="-813.4307" rx="4" ry="4"/>
<polygon fill="#d759bf" stroke="#d759bf" points="2655.8515,-719.4699 2659.423,-709.102 2655.3966,-714.4907 2654.9417,-709.5114 2654.9417,-709.5114 2654.9417,-709.5114 2655.3966,-714.4907 2650.4604,-709.9208 2655.8515,-719.4699 2655.8515,-719.4699"/>
</g>
<!-- User&#45;&gt;Assignment -->
<g id="edge39" class="edge">
<title>User&#45;&gt;Assignment</title>
<path fill="none" stroke="#c3cd3e" d="M1491.2598,-1466.133C1833.606,-1426.7827 2599.8573,-1328.4691 2835.3734,-1213 2868.3253,-1196.8443 2899.2362,-1170.4699 2923.4157,-1146.1455"/>
<ellipse fill="none" stroke="#c3cd3e" cx="1487.2262" cy="-1466.5957" rx="4" ry="4"/>
<polygon fill="#c3cd3e" stroke="#c3cd3e" points="2923.7174,-1145.836 2933.9204,-1141.8173 2927.2079,-1142.2559 2930.6983,-1138.6759 2930.6983,-1138.6759 2930.6983,-1138.6759 2927.2079,-1142.2559 2927.4763,-1135.5345 2923.7174,-1145.836 2923.7174,-1145.836"/>
</g>
<!-- User&#45;&gt;Comment -->
<g id="edge40" class="edge">
<title>User&#45;&gt;Comment</title>
<path fill="none" stroke="#52c026" d="M1155.3877,-1469.7834C799.1752,-1433.9353 .3734,-1326.9619 .3734,-1088.5 .3734,-1088.5 .3734,-1088.5 .3734,-444.5 .3734,-405.0313 -4.762,-385.6254 24.3734,-359 88.6958,-300.2188 322.5835,-271.763 474.1383,-259.2102"/>
<ellipse fill="none" stroke="#52c026" cx="1159.4793" cy="-1470.1928" rx="4" ry="4"/>
<polygon fill="#52c026" stroke="#52c026" points="474.4847,-259.1821 484.8171,-262.8551 479.4682,-258.776 484.4517,-258.37 484.4517,-258.37 484.4517,-258.37 479.4682,-258.776 484.0862,-253.8848 474.4847,-259.1821 474.4847,-259.1821"/>
</g>
<!-- User&#45;&gt;Hackroom -->
<g id="edge43" class="edge">
<title>User&#45;&gt;Hackroom</title>
<path fill="none" stroke="#3c0047" d="M1153.5824,-1445.7953C1009.6028,-1406.2796 803.9444,-1333.3626 658.8353,-1213 647.9716,-1203.989 638.0698,-1193.1249 629.2163,-1181.6152"/>
<polygon fill="#3c0047" stroke="#3c0047" points="1153.7581,-1445.843 1162.2273,-1452.8089 1158.583,-1447.1547 1163.4079,-1448.4665 1163.4079,-1448.4665 1163.4079,-1448.4665 1158.583,-1447.1547 1164.5884,-1444.1241 1153.7581,-1445.843 1153.7581,-1445.843"/>
<polygon fill="#3c0047" stroke="#3c0047" points="629.2033,-1181.5976 626.8731,-1170.8821 626.2294,-1177.5781 623.2555,-1173.5587 623.2555,-1173.5587 623.2555,-1173.5587 626.2294,-1177.5781 619.638,-1176.2352 629.2033,-1181.5976 629.2033,-1181.5976"/>
<text text-anchor="middle" x="705.6424" y="-1201.8" font-family="Times,serif" font-size="14.00" fill="#000000">own_hackrooms</text>
</g>
<!-- User&#45;&gt;HackroomOwner -->
<g id="edge42" class="edge">
<title>User&#45;&gt;HackroomOwner</title>
<path fill="none" stroke="#38b09a" d="M1158.6055,-1285.9619C1132.1884,-1251.6313 1105.8478,-1215.7827 1082.3734,-1181 1029.4855,-1102.6345 1042.749,-1064.2957 977.3734,-996 967.9006,-986.1041 914.8489,-952.9256 865.0922,-922.763"/>
<ellipse fill="none" stroke="#38b09a" cx="1161.0945" cy="-1289.1872" rx="4" ry="4"/>
<polygon fill="#38b09a" stroke="#38b09a" points="865.0547,-922.7404 858.8285,-913.7135 860.7768,-920.152 856.4989,-917.5636 856.4989,-917.5636 856.4989,-917.5636 860.7768,-920.152 854.1694,-921.4137 865.0547,-922.7404 865.0547,-922.7404"/>
</g>
<!-- User&#45;&gt;Language -->
<g id="edge46" class="edge">
<title>User&#45;&gt;Language</title>
<path fill="none" stroke="#b54580" d="M1153.4425,-1456.8568C898.2532,-1411.4878 435.4829,-1312.9268 338.0765,-1181 289.2383,-1114.8538 301.6223,-1069.6993 338.0765,-996 347.1107,-977.7355 360.1228,-961.356 374.9666,-946.9015"/>
<polygon fill="#b54580" stroke="#b54580" points="1153.7107,-1456.9042 1162.7736,-1463.0778 1158.6342,-1457.7754 1163.5577,-1458.6466 1163.5577,-1458.6466 1163.5577,-1458.6466 1158.6342,-1457.7754 1164.3418,-1454.2154 1153.7107,-1456.9042 1153.7107,-1456.9042"/>
<polygon fill="#b54580" stroke="#b54580" points="375.0863,-946.7897 385.4644,-943.2478 378.7388,-943.3751 382.3913,-939.9605 382.3913,-939.9605 382.3913,-939.9605 378.7388,-943.3751 379.3182,-936.6732 375.0863,-946.7897 375.0863,-946.7897"/>
<text text-anchor="middle" x="392.0218" y="-1084.3" font-family="Times,serif" font-size="14.00" fill="#000000">primary_languages</text>
</g>
<!-- User&#45;&gt;Meetup -->
<g id="edge48" class="edge">
<title>User&#45;&gt;Meetup</title>
<path fill="none" stroke="#7735fc" d="M1333.9659,-1220.9739C1339.5916,-1147.7367 1348.2007,-1068.4394 1361.3734,-996 1378.5106,-901.7587 1354.3816,-857.4632 1421.3734,-789 1459.813,-749.716 1503.0605,-793.258 1539.3734,-752 1594.554,-689.3047 1557.0106,-649.095 1572.3734,-567 1574.0274,-558.1614 1575.7757,-548.9698 1577.5443,-539.772"/>
<polygon fill="#7735fc" stroke="#7735fc" points="1333.9418,-1221.2946 1328.7044,-1230.9289 1333.5668,-1226.2806 1333.1917,-1231.2665 1333.1917,-1231.2665 1333.1917,-1231.2665 1333.5668,-1226.2806 1337.679,-1231.604 1333.9418,-1221.2946 1333.9418,-1221.2946"/>
<polygon fill="#7735fc" stroke="#7735fc" points="1577.5728,-539.624 1583.8863,-530.658 1578.5203,-534.7146 1579.4679,-529.8052 1579.4679,-529.8052 1579.4679,-529.8052 1578.5203,-534.7146 1575.0494,-528.9524 1577.5728,-539.624 1577.5728,-539.624"/>
</g>
<!-- User&#45;&gt;Meetup -->
<g id="edge50" class="edge">
<title>User&#45;&gt;Meetup</title>
<path fill="none" stroke="#422c21" d="M1493.4236,-1454.7688C1740.7932,-1407.6643 2180.5851,-1308.0517 2273.3734,-1181 2321.8663,-1114.6003 2323.2751,-1061.3476 2273.3734,-996 2222.1533,-928.9259 2148.6946,-1006.8216 2090.1868,-946 2060.2193,-914.8473 2031.1073,-599.294 2002.3734,-567 1965.8669,-525.9705 1834.0267,-491.1593 1730.3648,-469.2531"/>
<polygon fill="#422c21" stroke="#422c21" points="1493.0744,-1454.8349 1482.4113,-1452.276 1488.1619,-1455.7661 1483.2493,-1456.6972 1483.2493,-1456.6972 1483.2493,-1456.6972 1488.1619,-1455.7661 1484.0874,-1461.1185 1493.0744,-1454.8349 1493.0744,-1454.8349"/>
<polygon fill="#422c21" stroke="#422c21" points="1730.2132,-469.2214 1721.3467,-462.769 1725.3192,-468.1975 1720.4251,-467.1736 1720.4251,-467.1736 1720.4251,-467.1736 1725.3192,-468.1975 1719.5036,-471.5782 1730.2132,-469.2214 1730.2132,-469.2214"/>
<text text-anchor="middle" x="2142.4666" y="-863.3" font-family="Times,serif" font-size="14.00" fill="#000000">managed_meetups</text>
</g>
<!-- User&#45;&gt;MeetupRsvp -->
<g id="edge47" class="edge">
<title>User&#45;&gt;MeetupRsvp</title>
<path fill="none" stroke="#45b11d" d="M1491.3298,-1457.8465C1882.5146,-1393.4785 2821.3734,-1224.7955 2821.3734,-1088.5 2821.3734,-1088.5 2821.3734,-1088.5 2821.3734,-444.5 2821.3734,-367.8296 2611.0485,-308.2828 2466.2732,-276.3762"/>
<ellipse fill="none" stroke="#45b11d" cx="1487.2776" cy="-1458.5122" rx="4" ry="4"/>
<polygon fill="#45b11d" stroke="#45b11d" points="2466.1707,-276.3539 2457.3608,-269.8243 2461.2858,-275.2873 2456.4008,-274.2208 2456.4008,-274.2208 2456.4008,-274.2208 2461.2858,-275.2873 2455.4409,-278.6172 2466.1707,-276.3539 2466.1707,-276.3539"/>
</g>
<!-- User&#45;&gt;Notification -->
<g id="edge56" class="edge">
<title>User&#45;&gt;Notification</title>
<path fill="none" stroke="#42fda7" d="M1460.7723,-1224.1652C1469.7432,-1207.1677 1478.3539,-1190.8526 1486.3004,-1175.7961"/>
<ellipse fill="none" stroke="#42fda7" cx="1458.7866" cy="-1227.9275" rx="4" ry="4"/>
<polygon fill="#42fda7" stroke="#42fda7" points="1486.492,-1175.433 1495.1394,-1168.6895 1488.8258,-1171.011 1491.1597,-1166.5891 1491.1597,-1166.5891 1491.1597,-1166.5891 1488.8258,-1171.011 1487.1799,-1164.4887 1486.492,-1175.433 1486.492,-1175.433"/>
</g>
<!-- User&#45;&gt;OrganiserInterest -->
<g id="edge57" class="edge">
<title>User&#45;&gt;OrganiserInterest</title>
<path fill="none" stroke="#4f3de5" d="M1489.3853,-1346.0985C1572.8578,-1276.5088 1669.3229,-1196.0873 1731.958,-1143.8694"/>
<ellipse fill="none" stroke="#4f3de5" cx="1486.266" cy="-1348.699" rx="4" ry="4"/>
<ellipse fill="#4f3de5" stroke="#4f3de5" cx="1735.2174" cy="-1141.1521" rx="4" ry="4"/>
</g>
<!-- User&#45;&gt;Post -->
<g id="edge51" class="edge">
<title>User&#45;&gt;Post</title>
<path fill="none" stroke="#401bc9" d="M1491.1266,-1456.9247C1692.0881,-1419.7183 2035.5386,-1342.7062 2306.3734,-1213 2322.4241,-1205.3131 2338.5499,-1196.1204 2354.156,-1186.2588"/>
<ellipse fill="none" stroke="#401bc9" cx="1487.0828" cy="-1457.6698" rx="4" ry="4"/>
<polygon fill="#401bc9" stroke="#401bc9" points="2354.3593,-1186.128 2365.2039,-1184.501 2358.5641,-1183.4224 2362.7688,-1180.7167 2362.7688,-1180.7167 2362.7688,-1180.7167 2358.5641,-1183.4224 2360.3337,-1176.9325 2354.3593,-1186.128 2354.3593,-1186.128"/>
</g>
<!-- User&#45;&gt;SponsorshipAdmin -->
<g id="edge49" class="edge">
<title>User&#45;&gt;SponsorshipAdmin</title>
<path fill="none" stroke="#d7005a" d="M1268.3565,-1223.4788C1265.8623,-1209.1333 1263.5128,-1194.903 1261.3734,-1181 1219.6441,-909.8246 1303.3769,-820.0626 1197.3734,-567 1187.5923,-543.6496 1171.8291,-521.2862 1155.6352,-502.2073"/>
<ellipse fill="none" stroke="#d7005a" cx="1269.0654" cy="-1227.5193" rx="4" ry="4"/>
<polygon fill="#d7005a" stroke="#d7005a" points="1155.5013,-502.0537 1152.3244,-491.558 1152.2165,-498.284 1148.9317,-494.5144 1148.9317,-494.5144 1148.9317,-494.5144 1152.2165,-498.284 1145.539,-497.4707 1155.5013,-502.0537 1155.5013,-502.0537"/>
</g>
<!-- User&#45;&gt;User -->
<g id="edge53" class="edge">
<title>User&#45;&gt;User</title>
<path fill="none" stroke="#62f8fc" d="M1492.2549,-1498.4722C1497.8301,-1494.7272 1501.0081,-1490.0698 1501.0081,-1484.5 1501.0081,-1478.9302 1497.8301,-1474.2728 1492.2549,-1470.5278"/>
<polygon fill="#62f8fc" stroke="#62f8fc" points="1492.1708,-1498.5145 1481.2154,-1498.9944 1487.7053,-1500.7639 1483.2399,-1503.0133 1483.2399,-1503.0133 1483.2399,-1503.0133 1487.7053,-1500.7639 1485.2644,-1507.0322 1492.1708,-1498.5145 1492.1708,-1498.5145"/>
<polygon fill="#62f8fc" stroke="#62f8fc" points="1492.1708,-1470.4855 1485.2644,-1461.9678 1487.7053,-1468.2361 1483.2399,-1465.9867 1483.2399,-1465.9867 1483.2399,-1465.9867 1487.7053,-1468.2361 1481.2154,-1470.0056 1492.1708,-1470.4855 1492.1708,-1470.4855"/>
<text text-anchor="middle" x="1543.7772" y="-1480.3" font-family="Times,serif" font-size="14.00" fill="#000000">followed_users</text>
</g>
<!-- User&#45;&gt;User -->
<g id="edge55" class="edge">
<title>User&#45;&gt;User</title>
<path fill="none" stroke="#ce46b0" d="M1493.1933,-1535.1676C1544.7241,-1532.6444 1586.5462,-1515.7552 1586.5462,-1484.5 1586.5462,-1453.2448 1544.7241,-1436.3556 1493.1933,-1433.8324"/>
<polygon fill="#ce46b0" stroke="#ce46b0" points="1493.1129,-1535.17 1482.9797,-1530.9786 1488.1153,-1535.3232 1483.1176,-1535.4765 1483.1176,-1535.4765 1483.1176,-1535.4765 1488.1153,-1535.3232 1483.2555,-1539.9743 1493.1129,-1535.17 1493.1129,-1535.17"/>
<polygon fill="#ce46b0" stroke="#ce46b0" points="1493.1129,-1433.83 1483.2555,-1429.0257 1488.1153,-1433.6768 1483.1176,-1433.5235 1483.1176,-1433.5235 1483.1176,-1433.5235 1488.1153,-1433.6768 1482.9797,-1438.0214 1493.1129,-1433.83 1493.1129,-1433.83"/>
<text text-anchor="middle" x="1612.9842" y="-1480.3" font-family="Times,serif" font-size="14.00" fill="#000000">followers</text>
</g>
<!-- UserFollow -->
<g id="node27" class="node">
<title>UserFollow</title>
<path fill="none" stroke="#000000" d="M2028.5111,-1038.5C2028.5111,-1038.5 2252.2357,-1038.5 2252.2357,-1038.5 2258.2357,-1038.5 2264.2357,-1044.5 2264.2357,-1050.5 2264.2357,-1050.5 2264.2357,-1126.5 2264.2357,-1126.5 2264.2357,-1132.5 2258.2357,-1138.5 2252.2357,-1138.5 2252.2357,-1138.5 2028.5111,-1138.5 2028.5111,-1138.5 2022.5111,-1138.5 2016.5111,-1132.5 2016.5111,-1126.5 2016.5111,-1126.5 2016.5111,-1050.5 2016.5111,-1050.5 2016.5111,-1044.5 2022.5111,-1038.5 2028.5111,-1038.5"/>
<text text-anchor="middle" x="2140.3734" y="-1123.3" font-family="Times,serif" font-size="14.00" fill="#000000">UserFollow</text>
<polyline fill="none" stroke="#000000" points="2016.5111,-1116.5 2264.2357,-1116.5 "/>
<text text-anchor="start" x="2024.5111" y="-1101.3" font-family="Times,serif" font-size="14.00" fill="#000000">id :integer</text>
<text text-anchor="start" x="2024.5111" y="-1087.3" font-family="Times,serif" font-size="14.00" fill="#000000">follower_id :integer</text>
<text text-anchor="start" x="2024.5111" y="-1073.3" font-family="Times,serif" font-size="14.00" fill="#000000">user_id :integer</text>
<text text-anchor="start" x="2024.5111" y="-1059.3" font-family="Times,serif" font-size="14.00" fill="#000000">created_at :timestamp without time zone</text>
<text text-anchor="start" x="2024.5111" y="-1045.3" font-family="Times,serif" font-size="14.00" fill="#000000">updated_at :timestamp without time zone</text>
</g>
<!-- User&#45;&gt;UserFollow -->
<g id="edge52" class="edge">
<title>User&#45;&gt;UserFollow</title>
<path fill="none" stroke="#f2dbca" d="M1491.131,-1467.766C1664.5891,-1441.8655 1932.5255,-1376.5298 2096.3734,-1213 2113.6879,-1195.719 2124.2129,-1171.2129 2130.6002,-1148.5074"/>
<ellipse fill="none" stroke="#f2dbca" cx="1487.1583" cy="-1468.3503" rx="4" ry="4"/>
<polygon fill="#f2dbca" stroke="#f2dbca" points="2130.6653,-1148.2556 2137.5288,-1139.7032 2131.9189,-1143.4153 2133.1725,-1138.575 2133.1725,-1138.575 2133.1725,-1138.575 2131.9189,-1143.4153 2128.8162,-1137.4467 2130.6653,-1148.2556 2130.6653,-1148.2556"/>
</g>
<!-- User&#45;&gt;UserFollow -->
<g id="edge54" class="edge">
<title>User&#45;&gt;UserFollow</title>
<path fill="none" stroke="#629c53" d="M1491.2228,-1435.7923C1633.6223,-1390.2665 1840.0415,-1314.1411 2002.3734,-1213 2032.4046,-1194.289 2062.0286,-1168.7643 2086.084,-1145.6963"/>
<ellipse fill="none" stroke="#629c53" cx="1487.0273" cy="-1437.128" rx="4" ry="4"/>
<polygon fill="#629c53" stroke="#629c53" points="2086.1907,-1145.5927 2096.4998,-1141.8548 2089.7778,-1142.1095 2093.365,-1138.6264 2093.365,-1138.6264 2093.365,-1138.6264 2089.7778,-1142.1095 2090.2301,-1135.3979 2086.1907,-1145.5927 2086.1907,-1145.5927"/>
<text text-anchor="middle" x="2049.3182" y="-1201.8" font-family="Times,serif" font-size="14.00" fill="#000000">followings</text>
</g>
<!-- User&#45;&gt;UserHackroom -->
<g id="edge41" class="edge">
<title>User&#45;&gt;UserHackroom</title>
<path fill="none" stroke="#ac43e4" d="M1181.5107,-1223.8611C1179.7745,-1220.2242 1178.0611,-1216.6024 1176.3734,-1213 1130.3777,-1114.8221 1085.3701,-996.8538 1059.8294,-927.2563"/>
<ellipse fill="none" stroke="#ac43e4" cx="1183.3739" cy="-1227.7407" rx="4" ry="4"/>
<polygon fill="#ac43e4" stroke="#ac43e4" points="1059.7925,-927.1552 1060.5827,-916.2178 1058.0746,-922.4595 1056.3566,-917.7639 1056.3566,-917.7639 1056.3566,-917.7639 1058.0746,-922.4595 1052.1306,-919.31 1059.7925,-927.1552 1059.7925,-927.1552"/>
</g>
<!-- User&#45;&gt;UserLanguage -->
<g id="edge44" class="edge">
<title>User&#45;&gt;UserLanguage</title>
<path fill="none" stroke="#0a9c1a" d="M1297.418,-1223.0316C1277.4621,-1057.8402 1246.2067,-862.2193 1204.3734,-789 1188.8049,-761.7511 1165.5727,-736.9274 1142.486,-716.4684"/>
<ellipse fill="none" stroke="#0a9c1a" cx="1297.9422" cy="-1227.3996" rx="4" ry="4"/>
<polygon fill="#0a9c1a" stroke="#0a9c1a" points="1142.2317,-716.2481 1137.62,-706.299 1138.4526,-712.9741 1134.6734,-709.7002 1134.6734,-709.7002 1134.6734,-709.7002 1138.4526,-712.9741 1131.7269,-713.1014 1142.2317,-716.2481 1142.2317,-716.2481"/>
</g>
<!-- User&#45;&gt;UserPrimary -->
<g id="edge45" class="edge">
<title>User&#45;&gt;UserPrimary</title>
<path fill="none" stroke="#c88bd0" d="M1318.0166,-1223.46C1318.6821,-1149.779 1321.4645,-1069.632 1328.3734,-996 1337.1041,-902.9506 1342.9996,-879.7405 1365.3734,-789 1371.028,-766.0665 1378.5341,-741.2551 1385.5772,-719.5457"/>
<ellipse fill="none" stroke="#c88bd0" cx="1317.9843" cy="-1227.4879" rx="4" ry="4"/>
<polygon fill="#c88bd0" stroke="#c88bd0" points="1385.6548,-719.309 1393.0481,-711.2102 1387.2136,-714.5582 1388.7723,-709.8073 1388.7723,-709.8073 1388.7723,-709.8073 1387.2136,-714.5582 1384.4966,-708.4044 1385.6548,-719.309 1385.6548,-719.309"/>
</g>
</g>
</svg>
