<?xml version="1.0" encoding="UTF-8" standalone="no"?>
<!DOCTYPE svg PUBLIC "-//W3C//DTD SVG 1.1//EN"
 "http://www.w3.org/Graphics/SVG/1.1/DTD/svg11.dtd">
<!-- Generated by graphviz version 2.40.1 (20161225.0304)
 -->
<!-- Title: models_diagram Pages: 1 -->
<svg width="2213pt" height="631pt"
 viewBox="0.00 0.00 2213.02 631.00" xmlns="http://www.w3.org/2000/svg" xmlns:xlink="http://www.w3.org/1999/xlink">
<g id="graph0" class="graph" transform="scale(1 1) rotate(0) translate(4 627)">
<title>models_diagram</title>
<polygon fill="transparent" stroke="transparent" points="-4,4 -4,-627 2209.0179,-627 2209.0179,4 -4,4"/>
<!-- _diagram_info -->
<g id="node1" class="node">
<title>_diagram_info</title>
<text text-anchor="start" x="1274.3123" y="-608.6" font-family="Times,serif" font-size="13.00" fill="#000000">Models diagram</text>
<text text-anchor="start" x="1274.3123" y="-595.6" font-family="Times,serif" font-size="13.00" fill="#000000">Date: Jun 13 2017 &#45; 19:07</text>
<text text-anchor="start" x="1274.3123" y="-582.6" font-family="Times,serif" font-size="13.00" fill="#000000">Migration version: 20170612233319</text>
<text text-anchor="start" x="1274.3123" y="-569.6" font-family="Times,serif" font-size="13.00" fill="#000000">Generated by RailRoady 1.5.3</text>
<text text-anchor="start" x="1274.3123" y="-556.6" font-family="Times,serif" font-size="13.00" fill="#000000">http://railroady.prestonlee.com</text>
</g>
<!-- Ability -->
<g id="node2" class="node">
<title>Ability</title>
<polygon fill="none" stroke="#000000" points="1547.6699,-604.5 1492.3301,-604.5 1492.3301,-568.5 1547.6699,-568.5 1547.6699,-604.5"/>
<text text-anchor="middle" x="1520" y="-582.3" font-family="Times,serif" font-size="14.00" fill="#000000">Ability</text>
</g>
<!-- Assignment -->
<g id="node3" class="node">
<title>Assignment</title>
<ellipse fill="none" stroke="#000000" cx="1823" cy="-409" rx="52.2192" ry="18"/>
<text text-anchor="middle" x="1823" y="-404.8" font-family="Times,serif" font-size="14.00" fill="#000000">Assignment</text>
</g>
<!-- Ckeditor::Asset -->
<g id="node4" class="node">
<title>Ckeditor::Asset</title>
<ellipse fill="none" stroke="#000000" cx="2039" cy="-586.5" rx="65.7408" ry="18"/>
<text text-anchor="middle" x="2039" y="-582.3" font-family="Times,serif" font-size="14.00" fill="#000000">Ckeditor::Asset</text>
</g>
<!-- Ckeditor::AttachmentFile -->
<g id="node5" class="node">
<title>Ckeditor::AttachmentFile</title>
<ellipse fill="none" stroke="#000000" cx="1944" cy="-495" rx="100.9624" ry="18"/>
<text text-anchor="middle" x="1944" y="-490.8" font-family="Times,serif" font-size="14.00" fill="#000000">Ckeditor::AttachmentFile</text>
</g>
<!-- Ckeditor::Asset&#45;&gt;Ckeditor::AttachmentFile -->
<g id="edge1" class="edge">
<title>Ckeditor::Asset&#45;&gt;Ckeditor::AttachmentFile</title>
<path fill="none" stroke="#000000" d="M2020.683,-568.8579C2003.9685,-552.7592 1979.3828,-529.0793 1962.5849,-512.9002"/>
</g>
<!-- Ckeditor::Picture -->
<g id="node6" class="node">
<title>Ckeditor::Picture</title>
<ellipse fill="none" stroke="#000000" cx="2134" cy="-495" rx="71.0358" ry="18"/>
<text text-anchor="middle" x="2134" y="-490.8" font-family="Times,serif" font-size="14.00" fill="#000000">Ckeditor::Picture</text>
</g>
<!-- Ckeditor::Asset&#45;&gt;Ckeditor::Picture -->
<g id="edge2" class="edge">
<title>Ckeditor::Asset&#45;&gt;Ckeditor::Picture</title>
<path fill="none" stroke="#000000" d="M2057.317,-568.8579C2074.1393,-552.6553 2098.9347,-528.7734 2115.7393,-512.588"/>
</g>
<!-- Comment -->
<g id="node7" class="node">
<title>Comment</title>
<ellipse fill="none" stroke="#000000" cx="823" cy="-104" rx="44.9768" ry="18"/>
<text text-anchor="middle" x="823" y="-99.8" font-family="Times,serif" font-size="14.00" fill="#000000">Comment</text>
</g>
<!-- Comment&#45;&gt;Comment -->
<g id="edge3" class="edge">
<title>Comment&#45;&gt;Comment</title>
<path fill="none" stroke="#8275d9" d="M873.1551,-110.1551C880.7983,-109.2158 885.9884,-107.1641 885.9884,-104 885.9884,-101.0996 881.6273,-99.1339 875.0132,-98.1029"/>
<ellipse fill="none" stroke="#8275d9" cx="868.7864" cy="-110.4522" rx="4" ry="4"/>
<polygon fill="#8275d9" stroke="#8275d9" points="874.763,-98.0828 865.1584,-92.791 869.7793,-97.6796 864.7956,-97.2764 864.7956,-97.2764 864.7956,-97.2764 869.7793,-97.6796 864.4327,-101.7617 874.763,-98.0828 874.763,-98.0828"/>
</g>
<!-- CommentReply -->
<g id="node8" class="node">
<title>CommentReply</title>
<ellipse fill="none" stroke="#000000" cx="823" cy="-18" rx="66.2253" ry="18"/>
<text text-anchor="middle" x="823" y="-13.8" font-family="Times,serif" font-size="14.00" fill="#000000">CommentReply</text>
</g>
<!-- Comment&#45;&gt;CommentReply -->
<g id="edge4" class="edge">
<title>Comment&#45;&gt;CommentReply</title>
<path fill="none" stroke="#85852f" d="M823,-77.4021C823,-67.585 823,-56.4263 823,-46.4515"/>
<ellipse fill="none" stroke="#85852f" cx="823" cy="-81.7616" rx="4" ry="4"/>
<polygon fill="#85852f" stroke="#85852f" points="823.0001,-46.2121 827.5,-36.2121 823,-41.2121 823,-36.2121 823,-36.2121 823,-36.2121 823,-41.2121 818.5,-36.2121 823.0001,-46.2121 823.0001,-46.2121"/>
<text text-anchor="middle" x="841.6587" y="-56.8" font-family="Times,serif" font-size="14.00" fill="#000000">replies</text>
</g>
<!-- Hackroom -->
<g id="node9" class="node">
<title>Hackroom</title>
<ellipse fill="none" stroke="#000000" cx="477" cy="-409" rx="47.365" ry="18"/>
<text text-anchor="middle" x="477" y="-404.8" font-family="Times,serif" font-size="14.00" fill="#000000">Hackroom</text>
</g>
<!-- Hackroom&#45;&gt;Comment -->
<g id="edge13" class="edge">
<title>Hackroom&#45;&gt;Comment</title>
<path fill="none" stroke="#012824" d="M531.5793,-403.7514C601.9164,-396.6208 717.2059,-383.552 734,-373 815.7813,-321.6152 824.4685,-190.8125 824.0764,-132.6423"/>
<ellipse fill="none" stroke="#012824" cx="527.214" cy="-404.1905" rx="4" ry="4"/>
<polygon fill="#012824" stroke="#012824" points="824.0714,-132.3397 828.4039,-122.266 823.988,-127.3403 823.9045,-122.341 823.9045,-122.341 823.9045,-122.341 823.988,-127.3403 819.4052,-122.4161 824.0714,-132.3397 824.0714,-132.3397"/>
</g>
<!-- HackroomLanguage -->
<g id="node10" class="node">
<title>HackroomLanguage</title>
<ellipse fill="none" stroke="#000000" cx="457" cy="-250" rx="82.0941" ry="18"/>
<text text-anchor="middle" x="457" y="-245.8" font-family="Times,serif" font-size="14.00" fill="#000000">HackroomLanguage</text>
</g>
<!-- Hackroom&#45;&gt;HackroomLanguage -->
<g id="edge7" class="edge">
<title>Hackroom&#45;&gt;HackroomLanguage</title>
<path fill="none" stroke="#4263bb" d="M468.3535,-383.1672C467.4411,-379.7759 466.6214,-376.3244 466,-373 460.0027,-340.9161 457.9566,-303.428 457.2825,-278.3484"/>
<ellipse fill="none" stroke="#4263bb" cx="469.4823" cy="-387.0426" rx="4" ry="4"/>
<polygon fill="#4263bb" stroke="#4263bb" points="457.2771,-278.085 461.5641,-267.9919 457.1711,-273.0862 457.0651,-268.0873 457.0651,-268.0873 457.0651,-268.0873 457.1711,-273.0862 452.5661,-268.1827 457.2771,-278.085 457.2771,-278.085"/>
</g>
<!-- HackroomOwner -->
<g id="node11" class="node">
<title>HackroomOwner</title>
<ellipse fill="none" stroke="#000000" cx="175" cy="-323" rx="71.4945" ry="18"/>
<text text-anchor="middle" x="175" y="-318.8" font-family="Times,serif" font-size="14.00" fill="#000000">HackroomOwner</text>
</g>
<!-- Hackroom&#45;&gt;HackroomOwner -->
<g id="edge11" class="edge">
<title>Hackroom&#45;&gt;HackroomOwner</title>
<path fill="none" stroke="#7c28dc" d="M431.0277,-395.9085C377.7226,-380.7289 289.8186,-355.6967 232.1592,-339.2771"/>
<ellipse fill="none" stroke="#7c28dc" cx="435.2102" cy="-397.0996" rx="4" ry="4"/>
<polygon fill="#7c28dc" stroke="#7c28dc" points="232.086,-339.2564 223.7009,-332.1896 227.2772,-337.8869 222.4684,-336.5175 222.4684,-336.5175 222.4684,-336.5175 227.2772,-337.8869 221.2359,-340.8454 232.086,-339.2564 232.086,-339.2564"/>
</g>
<!-- HackroomPrimary -->
<g id="node12" class="node">
<title>HackroomPrimary</title>
<ellipse fill="none" stroke="#000000" cx="281" cy="-250" rx="75.8466" ry="18"/>
<text text-anchor="middle" x="281" y="-245.8" font-family="Times,serif" font-size="14.00" fill="#000000">HackroomPrimary</text>
</g>
<!-- Hackroom&#45;&gt;HackroomPrimary -->
<g id="edge9" class="edge">
<title>Hackroom&#45;&gt;HackroomPrimary</title>
<path fill="none" stroke="#1d7027" d="M463.9323,-383.9108C450.8677,-360.8573 428.8823,-327.0212 402,-305 382.7963,-289.2689 358.3644,-277.0465 336.4899,-268.1618"/>
<ellipse fill="none" stroke="#1d7027" cx="465.9162" cy="-387.4897" rx="4" ry="4"/>
<polygon fill="#1d7027" stroke="#1d7027" points="336.284,-268.0813 328.6123,-260.2458 331.628,-266.2588 326.972,-264.4363 326.972,-264.4363 326.972,-264.4363 331.628,-266.2588 325.3317,-268.6267 336.284,-268.0813 336.284,-268.0813"/>
</g>
<!-- Language -->
<g id="node13" class="node">
<title>Language</title>
<ellipse fill="none" stroke="#000000" cx="630" cy="-323" rx="44.9423" ry="18"/>
<text text-anchor="middle" x="630" y="-318.8" font-family="Times,serif" font-size="14.00" fill="#000000">Language</text>
</g>
<!-- Hackroom&#45;&gt;Language -->
<g id="edge8" class="edge">
<title>Hackroom&#45;&gt;Language</title>
<path fill="none" stroke="#3dd497" d="M530.359,-399.2201C550.591,-393.7664 573.0551,-385.4654 591,-373 599.9511,-366.7821 607.8116,-357.8958 614.0864,-349.3348"/>
<polygon fill="#3dd497" stroke="#3dd497" points="530.3317,-399.2269 519.5344,-397.3113 525.4837,-400.4507 520.6358,-401.6744 520.6358,-401.6744 520.6358,-401.6744 525.4837,-400.4507 521.7372,-406.0375 530.3317,-399.2269 530.3317,-399.2269"/>
<polygon fill="#3dd497" stroke="#3dd497" points="614.1536,-349.2369 623.5238,-343.5404 616.9839,-345.115 619.8142,-340.9932 619.8142,-340.9932 619.8142,-340.9932 616.9839,-345.115 616.1045,-338.4459 614.1536,-349.2369 614.1536,-349.2369"/>
</g>
<!-- Hackroom&#45;&gt;Language -->
<g id="edge10" class="edge">
<title>Hackroom&#45;&gt;Language</title>
<path fill="none" stroke="#6379bf" d="M530.6745,-400.1464C563.2687,-393.7753 600.8637,-384.3269 613,-373 619.2211,-367.1938 623.1658,-359.0256 625.667,-350.9713"/>
<polygon fill="#6379bf" stroke="#6379bf" points="530.5791,-400.1644 519.9168,-397.602 525.6662,-401.094 520.7534,-402.0235 520.7534,-402.0235 520.7534,-402.0235 525.6662,-401.094 521.59,-406.4451 530.5791,-400.1644 530.5791,-400.1644"/>
<polygon fill="#6379bf" stroke="#6379bf" points="625.7278,-350.7245 632.4946,-342.0954 626.9268,-345.8704 628.1258,-341.0163 628.1258,-341.0163 628.1258,-341.0163 626.9268,-345.8704 623.7571,-339.9372 625.7278,-350.7245 625.7278,-350.7245"/>
<text text-anchor="middle" x="676.6484" y="-361.8" font-family="Times,serif" font-size="14.00" fill="#000000">primary_languages</text>
</g>
<!-- User -->
<g id="node25" class="node">
<title>User</title>
<ellipse fill="none" stroke="#000000" cx="977" cy="-495" rx="27" ry="18"/>
<text text-anchor="middle" x="977" y="-490.8" font-family="Times,serif" font-size="14.00" fill="#000000">User</text>
</g>
<!-- Hackroom&#45;&gt;User -->
<g id="edge6" class="edge">
<title>Hackroom&#45;&gt;User</title>
<path fill="none" stroke="#5c56be" d="M458.3331,-435.6613C454.8842,-443.9402 454.0021,-452.5699 460,-459 476.3478,-476.5257 823.7135,-489.8189 939.6832,-493.7823"/>
<polygon fill="#5c56be" stroke="#5c56be" points="458.4416,-435.4545 467.0726,-428.6902 460.7647,-431.0269 463.0878,-426.5994 463.0878,-426.5994 463.0878,-426.5994 460.7647,-431.0269 459.103,-424.5086 458.4416,-435.4545 458.4416,-435.4545"/>
<polygon fill="#5c56be" stroke="#5c56be" points="939.8565,-493.7881 949.6987,-498.6235 944.8536,-493.9571 949.8507,-494.1261 949.8507,-494.1261 949.8507,-494.1261 944.8536,-493.9571 950.0028,-489.6286 939.8565,-493.7881 939.8565,-493.7881"/>
</g>
<!-- Hackroom&#45;&gt;User -->
<g id="edge12" class="edge">
<title>Hackroom&#45;&gt;User</title>
<path fill="none" stroke="#824221" d="M471.9223,-437.2913C472.0748,-445.2604 473.9839,-453.3001 479.5654,-459 495.6309,-475.4062 826.7075,-489.3445 939.6397,-493.6375"/>
<polygon fill="#824221" stroke="#824221" points="471.9383,-437.0384 477.0634,-427.344 472.2554,-432.0485 472.5725,-427.0586 472.5725,-427.0586 472.5725,-427.0586 472.2554,-432.0485 468.0815,-426.7732 471.9383,-437.0384 471.9383,-437.0384"/>
<polygon fill="#824221" stroke="#824221" points="939.8769,-493.6464 949.7005,-498.5195 944.8733,-493.8345 949.8698,-494.0226 949.8698,-494.0226 949.8698,-494.0226 944.8733,-493.8345 950.0391,-489.5258 939.8769,-493.6464 939.8769,-493.6464"/>
<text text-anchor="middle" x="500.2173" y="-447.8" font-family="Times,serif" font-size="14.00" fill="#000000">owners</text>
</g>
<!-- UserHackroom -->
<g id="node27" class="node">
<title>UserHackroom</title>
<ellipse fill="none" stroke="#000000" cx="329" cy="-323" rx="64.2614" ry="18"/>
<text text-anchor="middle" x="329" y="-318.8" font-family="Times,serif" font-size="14.00" fill="#000000">UserHackroom</text>
</g>
<!-- Hackroom&#45;&gt;UserHackroom -->
<g id="edge5" class="edge">
<title>Hackroom&#45;&gt;UserHackroom</title>
<path fill="none" stroke="#169fb2" d="M439.8203,-391.0858C428.8032,-385.5271 416.8006,-379.2212 406,-373 391.2711,-364.516 375.4517,-354.424 362.0063,-345.5358"/>
<ellipse fill="none" stroke="#169fb2" cx="443.685" cy="-393.0167" rx="4" ry="4"/>
<polygon fill="#169fb2" stroke="#169fb2" points="361.8695,-345.4446 356.0449,-336.1535 357.7092,-342.6712 353.5488,-339.8978 353.5488,-339.8978 353.5488,-339.8978 357.7092,-342.6712 351.0528,-343.6421 361.8695,-345.4446 361.8695,-345.4446"/>
</g>
<!-- Language&#45;&gt;Comment -->
<g id="edge23" class="edge">
<title>Language&#45;&gt;Comment</title>
<path fill="none" stroke="#7a04e8" d="M625.3401,-296.7976C623.2963,-277.5502 623.5207,-251.472 635,-232 667.8802,-176.2262 735.7665,-139.3877 780.327,-120.1092"/>
<ellipse fill="none" stroke="#7a04e8" cx="625.8611" cy="-300.8822" rx="4" ry="4"/>
<polygon fill="#7a04e8" stroke="#7a04e8" points="780.5194,-120.0283 791.482,-120.2961 785.1278,-118.0884 789.7362,-116.1486 789.7362,-116.1486 789.7362,-116.1486 785.1278,-118.0884 787.9903,-112.001 780.5194,-120.0283 780.5194,-120.0283"/>
</g>
<!-- Language&#45;&gt;Hackroom -->
<g id="edge16" class="edge">
<title>Language&#45;&gt;Hackroom</title>
<path fill="none" stroke="#fa2697" d="M576.0222,-328.3676C536.2363,-333.5698 486.9271,-343.0645 474.2549,-359 469.3638,-365.1506 468.269,-373.1913 468.8993,-381.0206"/>
<polygon fill="#fa2697" stroke="#fa2697" points="576.2418,-328.3404 586.721,-331.5708 581.2035,-327.7228 586.1652,-327.1053 586.1652,-327.1053 586.1652,-327.1053 581.2035,-327.7228 585.6094,-322.6397 576.2418,-328.3404 576.2418,-328.3404"/>
<polygon fill="#fa2697" stroke="#fa2697" points="468.9202,-381.1478 466.1074,-391.7468 469.7338,-386.0811 470.5475,-391.0145 470.5475,-391.0145 470.5475,-391.0145 469.7338,-386.0811 474.9875,-390.2822 468.9202,-381.1478 468.9202,-381.1478"/>
<text text-anchor="middle" x="531.3726" y="-361.8" font-family="Times,serif" font-size="14.00" fill="#000000">primary_hackrooms</text>
</g>
<!-- Language&#45;&gt;HackroomLanguage -->
<g id="edge14" class="edge">
<title>Language&#45;&gt;HackroomLanguage</title>
<path fill="none" stroke="#69406e" d="M591.2321,-306.6413C565.5444,-295.802 531.6807,-281.5126 504.3934,-269.9984"/>
<ellipse fill="none" stroke="#69406e" cx="594.9857" cy="-308.2251" rx="4" ry="4"/>
<polygon fill="#69406e" stroke="#69406e" points="504.2533,-269.9393 496.7895,-261.9056 499.6467,-267.9954 495.04,-266.0516 495.04,-266.0516 495.04,-266.0516 499.6467,-267.9954 493.2905,-270.1976 504.2533,-269.9393 504.2533,-269.9393"/>
</g>
<!-- Language&#45;&gt;HackroomPrimary -->
<g id="edge15" class="edge">
<title>Language&#45;&gt;HackroomPrimary</title>
<path fill="none" stroke="#bb1a98" d="M581.8671,-313.0218C528.9412,-302.0385 441.3941,-283.8364 366,-268 359.9937,-266.7384 353.7495,-265.4231 347.4947,-264.1031"/>
<ellipse fill="none" stroke="#bb1a98" cx="585.8213" cy="-313.8422" rx="4" ry="4"/>
<polygon fill="#bb1a98" stroke="#bb1a98" points="347.4738,-264.0988 338.6198,-257.6291 342.5818,-263.0654 337.6897,-262.0319 337.6897,-262.0319 337.6897,-262.0319 342.5818,-263.0654 336.7596,-266.4348 347.4738,-264.0988 347.4738,-264.0988"/>
</g>
<!-- Sponsor -->
<g id="node21" class="node">
<title>Sponsor</title>
<ellipse fill="none" stroke="#000000" cx="148" cy="-250" rx="39.1973" ry="18"/>
<text text-anchor="middle" x="148" y="-245.8" font-family="Times,serif" font-size="14.00" fill="#000000">Sponsor</text>
</g>
<!-- Language&#45;&gt;Sponsor -->
<g id="edge22" class="edge">
<title>Language&#45;&gt;Sponsor</title>
<path fill="none" stroke="#f7cf30" d="M575.1089,-320.1434C492.0187,-314.9039 329.8095,-301.0879 196,-268 192.9869,-267.2549 189.9039,-266.3788 186.826,-265.4212"/>
<polygon fill="#f7cf30" stroke="#f7cf30" points="575.3463,-320.1578 585.0523,-325.261 580.3369,-320.4636 585.3276,-320.7694 585.3276,-320.7694 585.3276,-320.7694 580.3369,-320.4636 585.6028,-316.2778 575.3463,-320.1578 575.3463,-320.1578"/>
<polygon fill="#f7cf30" stroke="#f7cf30" points="186.5809,-265.3386 178.5412,-257.881 181.8426,-263.7421 177.1043,-262.1455 177.1043,-262.1455 177.1043,-262.1455 181.8426,-263.7421 175.6674,-266.4099 186.5809,-265.3386 186.5809,-265.3386"/>
</g>
<!-- SponsorLanguage -->
<g id="node22" class="node">
<title>SponsorLanguage</title>
<ellipse fill="none" stroke="#000000" cx="404" cy="-177" rx="73.9257" ry="18"/>
<text text-anchor="middle" x="404" y="-172.8" font-family="Times,serif" font-size="14.00" fill="#000000">SponsorLanguage</text>
</g>
<!-- Language&#45;&gt;SponsorLanguage -->
<g id="edge21" class="edge">
<title>Language&#45;&gt;SponsorLanguage</title>
<path fill="none" stroke="#3b0ad4" d="M604.8492,-300.9029C600.1139,-296.4337 595.3022,-291.6696 591,-287 569.9758,-264.1801 572.9609,-250.4314 548,-232 523.8412,-214.1609 493.1923,-201.3929 466.3856,-192.6781"/>
<ellipse fill="none" stroke="#3b0ad4" cx="607.827" cy="-303.6597" rx="4" ry="4"/>
<polygon fill="#3b0ad4" stroke="#3b0ad4" points="466.2463,-192.6346 458.0459,-185.3542 461.4743,-191.1418 456.7024,-189.6489 456.7024,-189.6489 456.7024,-189.6489 461.4743,-191.1418 455.3588,-193.9437 466.2463,-192.6346 466.2463,-192.6346"/>
</g>
<!-- Language&#45;&gt;User -->
<g id="edge18" class="edge">
<title>Language&#45;&gt;User</title>
<path fill="none" stroke="#c2efd1" d="M681.7927,-331.416C716.157,-337.8863 757.3547,-347.6271 771,-359 808.5798,-390.3216 778.9752,-428.2202 817,-459 835.6674,-474.1106 899.2156,-484.9395 940.3851,-490.5678"/>
<polygon fill="#c2efd1" stroke="#c2efd1" points="681.6857,-331.3966 672.6587,-325.1706 676.7673,-330.4968 671.8489,-329.5971 671.8489,-329.5971 671.8489,-329.5971 676.7673,-330.4968 671.0392,-334.0237 681.6857,-331.3966 681.6857,-331.3966"/>
<polygon fill="#c2efd1" stroke="#c2efd1" points="940.4156,-490.5717 949.7374,-496.347 945.3722,-491.2289 950.3288,-491.8861 950.3288,-491.8861 950.3288,-491.8861 945.3722,-491.2289 950.9203,-487.4251 940.4156,-490.5717 940.4156,-490.5717"/>
</g>
<!-- Language&#45;&gt;User -->
<g id="edge20" class="edge">
<title>Language&#45;&gt;User</title>
<path fill="none" stroke="#e263fa" d="M682.582,-330.7344C722.6803,-337.3551 773.9878,-347.6038 792,-359 824.3601,-379.4741 815.4374,-402.5516 844.9102,-427 874.9209,-451.8947 915.5503,-471.1007 943.7916,-482.6552"/>
<polygon fill="#e263fa" stroke="#e263fa" points="682.5281,-330.7258 673.3738,-324.6884 677.5921,-329.9283 672.6561,-329.1308 672.6561,-329.1308 672.6561,-329.1308 677.5921,-329.9283 671.9384,-333.5732 682.5281,-330.7258 682.5281,-330.7258"/>
<polygon fill="#e263fa" stroke="#e263fa" points="943.9386,-482.7137 951.5588,-490.5994 948.5825,-484.5668 953.2265,-486.4198 953.2265,-486.4198 953.2265,-486.4198 948.5825,-484.5668 954.8942,-482.2402 943.9386,-482.7137 943.9386,-482.7137"/>
<text text-anchor="middle" x="885.0449" y="-404.8" font-family="Times,serif" font-size="14.00" fill="#000000">primary_users</text>
</g>
<!-- UserLanguage -->
<g id="node28" class="node">
<title>UserLanguage</title>
<ellipse fill="none" stroke="#000000" cx="733" cy="-250" rx="61.8389" ry="18"/>
<text text-anchor="middle" x="733" y="-245.8" font-family="Times,serif" font-size="14.00" fill="#000000">UserLanguage</text>
</g>
<!-- Language&#45;&gt;UserLanguage -->
<g id="edge17" class="edge">
<title>Language&#45;&gt;UserLanguage</title>
<path fill="none" stroke="#2ea27e" d="M658.9166,-302.5057C671.9505,-293.2681 687.3908,-282.3249 700.7933,-272.8261"/>
<ellipse fill="none" stroke="#2ea27e" cx="655.613" cy="-304.8471" rx="4" ry="4"/>
<polygon fill="#2ea27e" stroke="#2ea27e" points="701.1019,-272.6074 711.8627,-270.4964 705.1813,-269.7162 709.2606,-266.825 709.2606,-266.825 709.2606,-266.825 705.1813,-269.7162 706.6585,-263.1536 701.1019,-272.6074 701.1019,-272.6074"/>
</g>
<!-- UserPrimary -->
<g id="node29" class="node">
<title>UserPrimary</title>
<ellipse fill="none" stroke="#000000" cx="906" cy="-250" rx="55.0922" ry="18"/>
<text text-anchor="middle" x="906" y="-245.8" font-family="Times,serif" font-size="14.00" fill="#000000">UserPrimary</text>
</g>
<!-- Language&#45;&gt;UserPrimary -->
<g id="edge19" class="edge">
<title>Language&#45;&gt;UserPrimary</title>
<path fill="none" stroke="#99fa18" d="M675.5327,-310.9569C724.2305,-298.0767 801.382,-277.6707 852.8313,-264.0627"/>
<ellipse fill="none" stroke="#99fa18" cx="671.6649" cy="-311.9799" rx="4" ry="4"/>
<polygon fill="#99fa18" stroke="#99fa18" points="853.0949,-263.9931 863.9131,-265.7864 857.9286,-262.7146 862.7624,-261.436 862.7624,-261.436 862.7624,-261.436 857.9286,-262.7146 861.6117,-257.0856 853.0949,-263.9931 853.0949,-263.9931"/>
</g>
<!-- Meetup -->
<g id="node14" class="node">
<title>Meetup</title>
<ellipse fill="none" stroke="#000000" cx="1053" cy="-177" rx="37.2421" ry="18"/>
<text text-anchor="middle" x="1053" y="-172.8" font-family="Times,serif" font-size="14.00" fill="#000000">Meetup</text>
</g>
<!-- Meetup&#45;&gt;Comment -->
<g id="edge29" class="edge">
<title>Meetup&#45;&gt;Comment</title>
<path fill="none" stroke="#9a648f" d="M1013.6674,-164.5162C973.2521,-151.6887 910.4176,-131.7456 868.0348,-118.2936"/>
<ellipse fill="none" stroke="#9a648f" cx="1017.6892" cy="-165.7926" rx="4" ry="4"/>
<polygon fill="#9a648f" stroke="#9a648f" points="867.7893,-118.2158 859.6192,-110.9014 863.0236,-116.7032 858.2579,-115.1905 858.2579,-115.1905 858.2579,-115.1905 863.0236,-116.7032 856.8965,-119.4797 867.7893,-118.2158 867.7893,-118.2158"/>
</g>
<!-- Meetup&#45;&gt;Language -->
<g id="edge28" class="edge">
<title>Meetup&#45;&gt;Language</title>
<path fill="none" stroke="#914348" d="M1005.977,-180.8751C907.8696,-189.3494 688.2566,-210.4967 662,-232 643.3539,-247.2706 635.5592,-274.1306 632.3081,-294.7238"/>
<polygon fill="#914348" stroke="#914348" points="1006.2385,-180.8528 1016.5859,-184.4835 1011.2203,-180.4264 1016.2021,-179.9999 1016.2021,-179.9999 1016.2021,-179.9999 1011.2203,-180.4264 1015.8182,-175.5163 1006.2385,-180.8528 1006.2385,-180.8528"/>
<polygon fill="#914348" stroke="#914348" points="632.2837,-294.9111 626.5266,-304.2442 631.6362,-299.869 630.9887,-304.8269 630.9887,-304.8269 630.9887,-304.8269 631.6362,-299.869 635.4508,-305.4097 632.2837,-294.9111 632.2837,-294.9111"/>
</g>
<!-- MeetupRsvp -->
<g id="node15" class="node">
<title>MeetupRsvp</title>
<ellipse fill="none" stroke="#000000" cx="1398" cy="-104" rx="55.1094" ry="18"/>
<text text-anchor="middle" x="1398" y="-99.8" font-family="Times,serif" font-size="14.00" fill="#000000">MeetupRsvp</text>
</g>
<!-- Meetup&#45;&gt;MeetupRsvp -->
<g id="edge24" class="edge">
<title>Meetup&#45;&gt;MeetupRsvp</title>
<path fill="none" stroke="#066ef3" d="M1095.0125,-168.1104C1156.8338,-155.0294 1272.4423,-130.5673 1341.5963,-115.9347"/>
<ellipse fill="none" stroke="#066ef3" cx="1090.9375" cy="-168.9726" rx="4" ry="4"/>
<polygon fill="#066ef3" stroke="#066ef3" points="1341.667,-115.9198 1352.382,-118.2521 1346.5587,-114.8847 1351.4504,-113.8496 1351.4504,-113.8496 1351.4504,-113.8496 1346.5587,-114.8847 1350.5188,-109.4471 1341.667,-115.9198 1341.667,-115.9198"/>
</g>
<!-- Meetup&#45;&gt;User -->
<g id="edge25" class="edge">
<title>Meetup&#45;&gt;User</title>
<path fill="none" stroke="#fa2133" d="M1039.7041,-204.0832C1027.7941,-229.5269 1010.8038,-268.9731 1001.4414,-305 984.0897,-371.7699 991.0658,-390.6106 982,-459 981.659,-461.5725 981.2985,-464.2475 980.9336,-466.9257"/>
<polygon fill="#fa2133" stroke="#fa2133" points="1039.8561,-203.7634 1048.2131,-196.6634 1042.0024,-199.2475 1044.1488,-194.7317 1044.1488,-194.7317 1044.1488,-194.7317 1042.0024,-199.2475 1040.0845,-192.7999 1039.8561,-203.7634 1039.8561,-203.7634"/>
<polygon fill="#fa2133" stroke="#fa2133" points="980.9022,-467.1544 975.0784,-476.4461 980.2192,-472.1076 979.5363,-477.0607 979.5363,-477.0607 979.5363,-477.0607 980.2192,-472.1076 983.9941,-477.6754 980.9022,-467.1544 980.9022,-467.1544"/>
<text text-anchor="middle" x="1016.7793" y="-318.8" font-family="Times,serif" font-size="14.00" fill="#000000">rsvps</text>
</g>
<!-- Meetup&#45;&gt;User -->
<g id="edge26" class="edge">
<title>Meetup&#45;&gt;User</title>
<path fill="none" stroke="#9162e6" d="M1053,-205.4302C1053,-218.934 1053,-235.2996 1053,-250 1053,-409 1053,-409 1053,-409 1053,-438.4208 1027.7165,-462.5131 1006.3156,-477.636"/>
<polygon fill="#9162e6" stroke="#9162e6" points="1053.0001,-205.3003 1057.5,-195.3003 1053,-200.3003 1053,-195.3003 1053,-195.3003 1053,-195.3003 1053,-200.3003 1048.5,-195.3004 1053.0001,-205.3003 1053.0001,-205.3003"/>
<polygon fill="#9162e6" stroke="#9162e6" points="1006.0736,-477.7982 995.2616,-479.6287 1001.9205,-480.5824 997.7673,-483.3665 997.7673,-483.3665 997.7673,-483.3665 1001.9205,-480.5824 1000.2731,-487.1044 1006.0736,-477.7982 1006.0736,-477.7982"/>
<text text-anchor="middle" x="1098.5" y="-318.8" font-family="Times,serif" font-size="14.00" fill="#000000">sponsor_admins</text>
</g>
<!-- Meetup&#45;&gt;User -->
<g id="edge27" class="edge">
<title>Meetup&#45;&gt;User</title>
<path fill="none" stroke="#4d66a6" d="M1098.7125,-184.1829C1135.1147,-192.8102 1180,-211.2954 1180,-250 1180,-409 1180,-409 1180,-409 1180,-444.8365 1071.3846,-474.2606 1013.052,-487.4789"/>
<polygon fill="#4d66a6" stroke="#4d66a6" points="1098.4849,-184.1333 1089.6735,-177.6057 1093.5997,-183.0678 1088.7146,-182.0023 1088.7146,-182.0023 1088.7146,-182.0023 1093.5997,-183.0678 1087.7556,-186.399 1098.4849,-184.1333 1098.4849,-184.1333"/>
<polygon fill="#4d66a6" stroke="#4d66a6" points="1012.8856,-487.5158 1002.1481,-485.2894 1008.0044,-488.5992 1003.1231,-489.6825 1003.1231,-489.6825 1003.1231,-489.6825 1008.0044,-488.5992 1004.0981,-494.0756 1012.8856,-487.5158 1012.8856,-487.5158"/>
<text text-anchor="middle" x="1208.646" y="-318.8" font-family="Times,serif" font-size="14.00" fill="#000000">organisers</text>
</g>
<!-- Notification -->
<g id="node16" class="node">
<title>Notification</title>
<ellipse fill="none" stroke="#000000" cx="1350" cy="-409" rx="52.2106" ry="18"/>
<text text-anchor="middle" x="1350" y="-404.8" font-family="Times,serif" font-size="14.00" fill="#000000">Notification</text>
</g>
<!-- Post -->
<g id="node17" class="node">
<title>Post</title>
<ellipse fill="none" stroke="#000000" cx="1569" cy="-409" rx="27" ry="18"/>
<text text-anchor="middle" x="1569" y="-404.8" font-family="Times,serif" font-size="14.00" fill="#000000">Post</text>
</g>
<!-- Post&#45;&gt;Comment -->
<g id="edge32" class="edge">
<title>Post&#45;&gt;Comment</title>
<path fill="none" stroke="#f76e4e" d="M1541.1147,-393.2413C1504.0015,-371.8114 1443,-334.7939 1443,-323 1443,-323 1443,-323 1443,-177 1443,-120.384 1029.9599,-107.5566 878.132,-104.7539"/>
<ellipse fill="none" stroke="#f76e4e" cx="1544.7251" cy="-395.3151" rx="4" ry="4"/>
<polygon fill="#f76e4e" stroke="#f76e4e" points="878.0867,-104.7532 868.1679,-100.0769 873.0875,-104.6647 868.0883,-104.5762 868.0883,-104.5762 868.0883,-104.5762 873.0875,-104.6647 868.0086,-109.0755 878.0867,-104.7532 878.0867,-104.7532"/>
</g>
<!-- PostAttachment -->
<g id="node18" class="node">
<title>PostAttachment</title>
<ellipse fill="none" stroke="#000000" cx="1648" cy="-323" rx="66.7012" ry="18"/>
<text text-anchor="middle" x="1648" y="-318.8" font-family="Times,serif" font-size="14.00" fill="#000000">PostAttachment</text>
</g>
<!-- Post&#45;&gt;PostAttachment -->
<g id="edge33" class="edge">
<title>Post&#45;&gt;PostAttachment</title>
<path fill="none" stroke="#7a274f" d="M1588.5531,-387.7144C1599.58,-375.7104 1613.4189,-360.6453 1624.9692,-348.0715"/>
<ellipse fill="none" stroke="#7a274f" cx="1585.8296" cy="-390.6791" rx="4" ry="4"/>
<polygon fill="#7a274f" stroke="#7a274f" points="1625.0545,-347.9786 1635.1336,-343.6584 1628.437,-344.2964 1631.8196,-340.6142 1631.8196,-340.6142 1631.8196,-340.6142 1628.437,-344.2964 1628.5055,-337.5699 1625.0545,-347.9786 1625.0545,-347.9786"/>
</g>
<!-- PostTag -->
<g id="node19" class="node">
<title>PostTag</title>
<ellipse fill="none" stroke="#000000" cx="1531" cy="-250" rx="38.4535" ry="18"/>
<text text-anchor="middle" x="1531" y="-245.8" font-family="Times,serif" font-size="14.00" fill="#000000">PostTag</text>
</g>
<!-- Post&#45;&gt;PostTag -->
<g id="edge30" class="edge">
<title>Post&#45;&gt;PostTag</title>
<path fill="none" stroke="#94f89d" d="M1562.7763,-382.9587C1555.8904,-354.1468 1544.8328,-307.8793 1537.7446,-278.2209"/>
<ellipse fill="none" stroke="#94f89d" cx="1563.785" cy="-387.1793" rx="4" ry="4"/>
<polygon fill="#94f89d" stroke="#94f89d" points="1537.6524,-277.8348 1539.7046,-267.0626 1536.4901,-272.9717 1535.3279,-268.1087 1535.3279,-268.1087 1535.3279,-268.1087 1536.4901,-272.9717 1530.9511,-269.1547 1537.6524,-277.8348 1537.6524,-277.8348"/>
</g>
<!-- Tag -->
<g id="node24" class="node">
<title>Tag</title>
<ellipse fill="none" stroke="#000000" cx="1498" cy="-323" rx="27" ry="18"/>
<text text-anchor="middle" x="1498" y="-318.8" font-family="Times,serif" font-size="14.00" fill="#000000">Tag</text>
</g>
<!-- Post&#45;&gt;Tag -->
<g id="edge31" class="edge">
<title>Post&#45;&gt;Tag</title>
<path fill="none" stroke="#453f9f" d="M1549.3813,-385.5121C1545.9168,-381.3488 1542.3482,-377.0504 1539,-373 1532.0264,-364.564 1524.4176,-355.3012 1517.6688,-347.065"/>
<polygon fill="#453f9f" stroke="#453f9f" points="1549.4284,-385.5687 1552.373,-396.1318 1552.6293,-389.4099 1555.8301,-393.2511 1555.8301,-393.2511 1555.8301,-393.2511 1552.6293,-389.4099 1559.2872,-390.3703 1549.4284,-385.5687 1549.4284,-385.5687"/>
<polygon fill="#453f9f" stroke="#453f9f" points="1517.5971,-346.9773 1514.7442,-336.389 1514.4296,-343.1085 1511.2622,-339.2397 1511.2622,-339.2397 1511.2622,-339.2397 1514.4296,-343.1085 1507.7803,-342.0904 1517.5971,-346.9773 1517.5971,-346.9773"/>
</g>
<!-- Role -->
<g id="node20" class="node">
<title>Role</title>
<ellipse fill="none" stroke="#000000" cx="1593" cy="-586.5" rx="27" ry="18"/>
<text text-anchor="middle" x="1593" y="-582.3" font-family="Times,serif" font-size="14.00" fill="#000000">Role</text>
</g>
<!-- Role&#45;&gt;Assignment -->
<g id="edge34" class="edge">
<title>Role&#45;&gt;Assignment</title>
<path fill="none" stroke="#c3fdb8" d="M1621.7559,-571.1847C1661.0084,-549.4549 1732.3755,-506.9477 1784,-459 1791.6631,-451.8827 1799.0095,-443.1622 1805.2189,-435.0086"/>
<ellipse fill="none" stroke="#c3fdb8" cx="1617.8558" cy="-573.3248" rx="4" ry="4"/>
<polygon fill="#c3fdb8" stroke="#c3fdb8" points="1805.3231,-434.8667 1814.8703,-429.4721 1808.2834,-430.8372 1811.2438,-426.8078 1811.2438,-426.8078 1811.2438,-426.8078 1808.2834,-430.8372 1807.6173,-424.1435 1805.3231,-434.8667 1805.3231,-434.8667"/>
</g>
<!-- Role&#45;&gt;User -->
<g id="edge35" class="edge">
<title>Role&#45;&gt;User</title>
<path fill="none" stroke="#53fcf7" d="M1574.3317,-562.6617C1569.2527,-557.6804 1563.3739,-553.0274 1557,-550 1508.0555,-526.7531 1134.6775,-503.8883 1014.2873,-497.0536"/>
<polygon fill="#53fcf7" stroke="#53fcf7" points="1574.372,-562.7053 1577.8629,-573.1007 1577.7686,-566.3745 1581.1652,-570.0438 1581.1652,-570.0438 1581.1652,-570.0438 1577.7686,-566.3745 1584.4675,-566.9868 1574.372,-562.7053 1574.372,-562.7053"/>
<polygon fill="#53fcf7" stroke="#53fcf7" points="1014.0781,-497.0419 1004.3473,-491.9862 1009.0861,-496.7605 1004.094,-496.479 1004.094,-496.479 1004.094,-496.479 1009.0861,-496.7605 1003.8407,-500.9719 1014.0781,-497.0419 1014.0781,-497.0419"/>
</g>
<!-- Sponsor&#45;&gt;Meetup -->
<g id="edge36" class="edge">
<title>Sponsor&#45;&gt;Meetup</title>
<path fill="none" stroke="#90ced8" d="M184.5301,-235.0491C188.3578,-233.861 192.2283,-232.8095 196,-232 352.3901,-198.4328 848.6771,-182.4967 1005.2159,-178.2178"/>
<ellipse fill="none" stroke="#90ced8" cx="180.5714" cy="-236.3755" rx="4" ry="4"/>
<polygon fill="#90ced8" stroke="#90ced8" points="1005.4636,-178.2112 1015.5814,-182.4396 1010.4617,-178.0762 1015.4599,-177.9412 1015.4599,-177.9412 1015.4599,-177.9412 1010.4617,-178.0762 1015.3384,-173.4429 1005.4636,-178.2112 1005.4636,-178.2112"/>
</g>
<!-- Sponsor&#45;&gt;SponsorLanguage -->
<g id="edge39" class="edge">
<title>Sponsor&#45;&gt;SponsorLanguage</title>
<path fill="none" stroke="#a8d823" d="M185.4836,-235.5337C189.0224,-234.292 192.5685,-233.0941 196,-232 243.9997,-216.6964 299.1594,-202.2512 340.61,-192.0081"/>
<ellipse fill="none" stroke="#a8d823" cx="181.5599" cy="-236.9448" rx="4" ry="4"/>
<polygon fill="#a8d823" stroke="#a8d823" points="340.8603,-191.9467 351.6449,-193.9321 345.716,-190.7543 350.5718,-189.562 350.5718,-189.562 350.5718,-189.562 345.716,-190.7543 349.4986,-185.1918 340.8603,-191.9467 340.8603,-191.9467"/>
</g>
<!-- SponsorshipAdmin -->
<g id="node23" class="node">
<title>SponsorshipAdmin</title>
<ellipse fill="none" stroke="#000000" cx="119" cy="-177" rx="78.3125" ry="18"/>
<text text-anchor="middle" x="119" y="-172.8" font-family="Times,serif" font-size="14.00" fill="#000000">SponsorshipAdmin</text>
</g>
<!-- Sponsor&#45;&gt;SponsorshipAdmin -->
<g id="edge37" class="edge">
<title>Sponsor&#45;&gt;SponsorshipAdmin</title>
<path fill="none" stroke="#26b55c" d="M137.8639,-224.485C135.3369,-218.1239 132.6149,-211.2719 130.0464,-204.8064"/>
<ellipse fill="none" stroke="#26b55c" cx="139.3546" cy="-228.2376" rx="4" ry="4"/>
<polygon fill="#26b55c" stroke="#26b55c" points="129.8786,-204.3839 130.3687,-193.429 128.0326,-199.7371 126.1866,-195.0904 126.1866,-195.0904 126.1866,-195.0904 128.0326,-199.7371 122.0045,-196.7518 129.8786,-204.3839 129.8786,-204.3839"/>
</g>
<!-- Sponsor&#45;&gt;User -->
<g id="edge38" class="edge">
<title>Sponsor&#45;&gt;User</title>
<path fill="none" stroke="#ccfd8c" d="M120.0912,-272.5757C100.6431,-291.1461 80.5631,-318.0471 95,-341 168.2104,-457.3954 245.6062,-434.9964 381,-459 489.1495,-478.1735 826.6491,-490.2722 939.6839,-493.8707"/>
<polygon fill="#ccfd8c" stroke="#ccfd8c" points="120.3164,-272.3712 130.7452,-268.9812 124.0184,-269.0103 127.7204,-265.6494 127.7204,-265.6494 127.7204,-265.6494 124.0184,-269.0103 124.6956,-262.3176 120.3164,-272.3712 120.3164,-272.3712"/>
<polygon fill="#ccfd8c" stroke="#ccfd8c" points="939.9117,-493.8777 949.7652,-498.6901 944.9093,-494.035 949.9068,-494.1923 949.9068,-494.1923 949.9068,-494.1923 944.9093,-494.035 950.0483,-489.6946 939.9117,-493.8777 939.9117,-493.8777"/>
</g>
<!-- Tag&#45;&gt;PostTag -->
<g id="edge40" class="edge">
<title>Tag&#45;&gt;PostTag</title>
<path fill="none" stroke="#a4b2ba" d="M1509.151,-298.3327C1512.2754,-291.4211 1515.6867,-283.8748 1518.8652,-276.8436"/>
<ellipse fill="none" stroke="#a4b2ba" cx="1507.4683" cy="-302.0551" rx="4" ry="4"/>
<polygon fill="#a4b2ba" stroke="#a4b2ba" points="1518.8871,-276.7951 1527.1068,-269.5366 1520.9467,-272.239 1523.0064,-267.6829 1523.0064,-267.6829 1523.0064,-267.6829 1520.9467,-272.239 1518.9059,-265.8292 1518.8871,-276.7951 1518.8871,-276.7951"/>
</g>
<!-- User&#45;&gt;Assignment -->
<g id="edge41" class="edge">
<title>User&#45;&gt;Assignment</title>
<path fill="none" stroke="#524179" d="M1012.1416,-494.6027C1154.8078,-492.8238 1686.4639,-484.5262 1757,-459 1772.3759,-453.4356 1787.1183,-442.9445 1798.7545,-433.0034"/>
<ellipse fill="none" stroke="#524179" cx="1008.0852" cy="-494.6523" rx="4" ry="4"/>
<polygon fill="#524179" stroke="#524179" points="1798.8266,-432.939 1809.2819,-429.632 1802.5551,-429.6076 1806.2837,-426.2763 1806.2837,-426.2763 1806.2837,-426.2763 1802.5551,-429.6076 1803.2855,-422.9206 1798.8266,-432.939 1798.8266,-432.939"/>
</g>
<!-- User&#45;&gt;Comment -->
<g id="edge42" class="edge">
<title>User&#45;&gt;Comment</title>
<path fill="none" stroke="#c0ba4e" d="M941.568,-494.4138C776.0422,-491.576 85.2133,-478.5968 44,-459 17.2668,-446.2884 0,-438.6015 0,-409 0,-409 0,-409 0,-177 0,-160.6822 16.3678,-163.6803 32,-159 170.0972,-117.6539 611.6627,-107.1473 767.7215,-104.6932"/>
<ellipse fill="none" stroke="#c0ba4e" cx="945.9424" cy="-494.4882" rx="4" ry="4"/>
<polygon fill="#c0ba4e" stroke="#c0ba4e" points="768.0206,-104.6888 778.088,-109.036 773.02,-104.6126 778.0195,-104.5365 778.0195,-104.5365 778.0195,-104.5365 773.02,-104.6126 777.9509,-100.037 768.0206,-104.6888 768.0206,-104.6888"/>
</g>
<!-- User&#45;&gt;Hackroom -->
<g id="edge45" class="edge">
<title>User&#45;&gt;Hackroom</title>
<path fill="none" stroke="#ab04a3" d="M939.7383,-494.5451C848.3886,-493.0104 615.5122,-486.4423 543.4619,-459 535.0021,-455.7778 518.8847,-443.7166 504.6408,-432.2482"/>
<polygon fill="#ab04a3" stroke="#ab04a3" points="939.9059,-494.5477 949.834,-499.2042 944.9053,-494.6262 949.9047,-494.7048 949.9047,-494.7048 949.9047,-494.7048 944.9053,-494.6262 949.9753,-490.2053 939.9059,-494.5477 939.9059,-494.5477"/>
<polygon fill="#ab04a3" stroke="#ab04a3" points="504.2884,-431.9605 499.3889,-422.15 500.4156,-428.7981 496.5427,-425.6356 496.5427,-425.6356 496.5427,-425.6356 500.4156,-428.7981 493.6965,-429.1212 504.2884,-431.9605 504.2884,-431.9605"/>
<text text-anchor="middle" x="590.269" y="-447.8" font-family="Times,serif" font-size="14.00" fill="#000000">own_hackrooms</text>
</g>
<!-- User&#45;&gt;HackroomOwner -->
<g id="edge44" class="edge">
<title>User&#45;&gt;HackroomOwner</title>
<path fill="none" stroke="#f31b72" d="M941.6366,-494.6742C835.7536,-493.3877 522.5667,-487.2328 425,-459 340.2818,-434.4852 252.1637,-378.0388 206.5733,-346.1075"/>
<ellipse fill="none" stroke="#f31b72" cx="945.7747" cy="-494.722" rx="4" ry="4"/>
<polygon fill="#f31b72" stroke="#f31b72" points="206.464,-346.0302 200.8999,-336.5808 202.3824,-343.1423 198.3007,-340.2543 198.3007,-340.2543 198.3007,-340.2543 202.3824,-343.1423 195.7015,-343.9278 206.464,-346.0302 206.464,-346.0302"/>
</g>
<!-- User&#45;&gt;Language -->
<g id="edge48" class="edge">
<title>User&#45;&gt;Language</title>
<path fill="none" stroke="#2b7b6c" d="M939.7944,-492.1979C867.4284,-485.8806 712.0521,-467.7782 680.7031,-427 670.9514,-414.3152 671.3734,-403.9983 680.7031,-391 695.2819,-370.6885 719.4212,-393.3115 734,-373 737.6282,-367.9451 737.6091,-364.0686 734,-359 727.1877,-349.4329 702.9342,-340.7524 679.562,-334.3132"/>
<polygon fill="#2b7b6c" stroke="#2b7b6c" points="939.8797,-492.205 949.466,-497.5298 944.862,-492.6254 949.8443,-493.0457 949.8443,-493.0457 949.8443,-493.0457 944.862,-492.6254 950.2227,-488.5616 939.8797,-492.205 939.8797,-492.205"/>
<polygon fill="#2b7b6c" stroke="#2b7b6c" points="679.3208,-334.2496 670.8023,-327.3441 674.4867,-332.9722 669.6526,-331.6948 669.6526,-331.6948 669.6526,-331.6948 674.4867,-332.9722 668.503,-336.0454 679.3208,-334.2496 679.3208,-334.2496"/>
<text text-anchor="middle" x="734.6484" y="-404.8" font-family="Times,serif" font-size="14.00" fill="#000000">primary_languages</text>
</g>
<!-- User&#45;&gt;Meetup -->
<g id="edge50" class="edge">
<title>User&#45;&gt;Meetup</title>
<path fill="none" stroke="#676f05" d="M1014.4638,-493.8493C1079.139,-491.2379 1208.423,-483.0848 1246,-459 1276.1048,-439.7045 1262.8944,-415.4359 1289,-391 1322.9755,-359.1975 1357.2138,-380.9993 1381,-341 1421.5832,-272.7545 1298.5065,-218.7532 1287,-213 1255.0932,-197.0466 1158.8759,-186.1767 1100.227,-180.8311"/>
<polygon fill="#676f05" stroke="#676f05" points="1014.2828,-493.856 1004.1192,-489.7389 1009.2864,-494.0458 1004.29,-494.2357 1004.29,-494.2357 1004.29,-494.2357 1009.2864,-494.0458 1004.4608,-498.7324 1014.2828,-493.856 1014.2828,-493.856"/>
<polygon fill="#676f05" stroke="#676f05" points="1100.0519,-180.8156 1090.4907,-175.4458 1095.0716,-180.3718 1090.0913,-179.928 1090.0913,-179.928 1090.0913,-179.928 1095.0716,-180.3718 1089.6919,-184.4103 1100.0519,-180.8156 1100.0519,-180.8156"/>
</g>
<!-- User&#45;&gt;Meetup -->
<g id="edge52" class="edge">
<title>User&#45;&gt;Meetup</title>
<path fill="none" stroke="#13ddc6" d="M1013.9697,-490.9406C1048.222,-486.2595 1100.053,-476.8046 1142,-459 1205.0158,-432.2526 1222.8962,-407.0202 1241,-341 1257.8202,-279.6607 1230.8302,-246.8784 1177,-213 1153.322,-198.0981 1123.2593,-189.1698 1098.6649,-183.9325"/>
<polygon fill="#13ddc6" stroke="#13ddc6" points="1013.8512,-490.9559 1003.3548,-487.7816 1008.8928,-491.6 1003.9345,-492.2441 1003.9345,-492.2441 1003.9345,-492.2441 1008.8928,-491.6 1004.5141,-496.7066 1013.8512,-490.9559 1013.8512,-490.9559"/>
<polygon fill="#13ddc6" stroke="#13ddc6" points="1098.6482,-183.9292 1089.7224,-177.5589 1093.7449,-182.9506 1088.8416,-181.9719 1088.8416,-181.9719 1088.8416,-181.9719 1093.7449,-182.9506 1087.9608,-186.3849 1098.6482,-183.9292 1098.6482,-183.9292"/>
<text text-anchor="middle" x="1298.0933" y="-318.8" font-family="Times,serif" font-size="14.00" fill="#000000">managed_meetups</text>
</g>
<!-- User&#45;&gt;MeetupRsvp -->
<g id="edge49" class="edge">
<title>User&#45;&gt;MeetupRsvp</title>
<path fill="none" stroke="#f2f38d" d="M1012.3323,-494.7967C1162.8601,-493.4726 1743,-483.5347 1743,-409 1743,-409 1743,-409 1743,-177 1743,-148.4782 1560.1906,-122.7987 1460.7168,-110.9368"/>
<ellipse fill="none" stroke="#f2f38d" cx="1008.2622" cy="-494.83" rx="4" ry="4"/>
<polygon fill="#f2f38d" stroke="#f2f38d" points="1460.7048,-110.9355 1451.3008,-105.295 1455.7392,-110.3497 1450.7736,-109.764 1450.7736,-109.764 1450.7736,-109.764 1455.7392,-110.3497 1450.2465,-114.233 1460.7048,-110.9355 1460.7048,-110.9355"/>
</g>
<!-- User&#45;&gt;Notification -->
<g id="edge58" class="edge">
<title>User&#45;&gt;Notification</title>
<path fill="none" stroke="#952be1" d="M1012.1262,-493.2023C1081.8777,-489.2553 1235.3224,-478.5855 1284,-459 1299.0615,-452.94 1313.6791,-442.4957 1325.3131,-432.7148"/>
<ellipse fill="none" stroke="#952be1" cx="1008.0413" cy="-493.4288" rx="4" ry="4"/>
<polygon fill="#952be1" stroke="#952be1" points="1325.3338,-432.6967 1335.8228,-429.4981 1329.0966,-429.4041 1332.8595,-426.1115 1332.8595,-426.1115 1332.8595,-426.1115 1329.0966,-429.4041 1329.8962,-422.725 1325.3338,-432.6967 1325.3338,-432.6967"/>
</g>
<!-- User&#45;&gt;Post -->
<g id="edge53" class="edge">
<title>User&#45;&gt;Post</title>
<path fill="none" stroke="#dcf725" d="M1012.2121,-494.2457C1110.1925,-491.8602 1384.4859,-483.1543 1471,-459 1495.9794,-452.0259 1522.0302,-438.3839 1540.9887,-427.1092"/>
<ellipse fill="none" stroke="#dcf725" cx="1008.1022" cy="-494.3433" rx="4" ry="4"/>
<polygon fill="#dcf725" stroke="#dcf725" points="1541.1518,-427.0098 1552.0326,-425.6463 1545.4209,-424.4069 1549.69,-421.8041 1549.69,-421.8041 1549.69,-421.8041 1545.4209,-424.4069 1547.3475,-417.9619 1541.1518,-427.0098 1541.1518,-427.0098"/>
</g>
<!-- User&#45;&gt;SponsorshipAdmin -->
<g id="edge51" class="edge">
<title>User&#45;&gt;SponsorshipAdmin</title>
<path fill="none" stroke="#e21edb" d="M941.6839,-493.9431C817.8447,-490.1202 403.6971,-476.3201 272,-459 166.5603,-445.1331 38,-515.3477 38,-409 38,-409 38,-409 38,-250 38,-227.6735 55.1913,-210.425 73.7341,-198.3141"/>
<ellipse fill="none" stroke="#e21edb" cx="945.7555" cy="-494.068" rx="4" ry="4"/>
<polygon fill="#e21edb" stroke="#e21edb" points="73.7471,-198.3063 84.6296,-196.9566 78.0195,-195.7088 82.2919,-193.1114 82.2919,-193.1114 82.2919,-193.1114 78.0195,-195.7088 79.9543,-189.2663 73.7471,-198.3063 73.7471,-198.3063"/>
</g>
<!-- User&#45;&gt;User -->
<g id="edge55" class="edge">
<title>User&#45;&gt;User</title>
<path fill="none" stroke="#cf9d06" d="M1013.9433,-497.9717C1018.7892,-497.4627 1022,-496.4722 1022,-495 1022,-493.5278 1018.7892,-492.5373 1013.9433,-492.0283"/>
<polygon fill="#cf9d06" stroke="#cf9d06" points="1013.7873,-497.9776 1003.6194,-493.871 1008.7911,-498.1726 1003.7949,-498.3676 1003.7949,-498.3676 1003.7949,-498.3676 1008.7911,-498.1726 1003.9703,-502.8642 1013.7873,-497.9776 1013.7873,-497.9776"/>
<polygon fill="#cf9d06" stroke="#cf9d06" points="1013.7873,-492.0224 1003.9703,-487.1358 1008.7911,-491.8274 1003.7949,-491.6324 1003.7949,-491.6324 1003.7949,-491.6324 1008.7911,-491.8274 1003.6194,-496.129 1013.7873,-492.0224 1013.7873,-492.0224"/>
<text text-anchor="middle" x="1064.769" y="-490.8" font-family="Times,serif" font-size="14.00" fill="#000000">followed_users</text>
</g>
<!-- User&#45;&gt;User -->
<g id="edge57" class="edge">
<title>User&#45;&gt;User</title>
<path fill="none" stroke="#6c9828" d="M1013.379,-500.5997C1052.8776,-503.2242 1107.5381,-501.3577 1107.5381,-495 1107.5381,-488.6423 1052.8776,-486.7758 1013.379,-489.4003"/>
<polygon fill="#6c9828" stroke="#6c9828" points="1013.1715,-500.5833 1003.5607,-495.3028 1008.1873,-500.1859 1003.2031,-499.7885 1003.2031,-499.7885 1003.2031,-499.7885 1008.1873,-500.1859 1002.8455,-504.2743 1013.1715,-500.5833 1013.1715,-500.5833"/>
<polygon fill="#6c9828" stroke="#6c9828" points="1013.1715,-489.4167 1002.8455,-485.7257 1008.1873,-489.8141 1003.2031,-490.2115 1003.2031,-490.2115 1003.2031,-490.2115 1008.1873,-489.8141 1003.5607,-494.6972 1013.1715,-489.4167 1013.1715,-489.4167"/>
<text text-anchor="middle" x="1133.9761" y="-490.8" font-family="Times,serif" font-size="14.00" fill="#000000">followers</text>
</g>
<!-- UserFollow -->
<g id="node26" class="node">
<title>UserFollow</title>
<ellipse fill="none" stroke="#000000" cx="1472" cy="-409" rx="51.7346" ry="18"/>
<text text-anchor="middle" x="1472" y="-404.8" font-family="Times,serif" font-size="14.00" fill="#000000">UserFollow</text>
</g>
<!-- User&#45;&gt;UserFollow -->
<g id="edge54" class="edge">
<title>User&#45;&gt;UserFollow</title>
<path fill="none" stroke="#43a48c" d="M1012.4174,-494.4153C1116.3899,-492.4096 1415.6714,-484.4614 1451,-459 1458.3565,-453.6982 1463.15,-445.3085 1466.2678,-436.905"/>
<ellipse fill="none" stroke="#43a48c" cx="1008.1212" cy="-494.4957" rx="4" ry="4"/>
<polygon fill="#43a48c" stroke="#43a48c" points="1466.304,-436.7857 1473.5169,-428.5259 1467.7576,-432.0017 1469.2113,-427.2176 1469.2113,-427.2176 1469.2113,-427.2176 1467.7576,-432.0017 1464.9056,-425.9094 1466.304,-436.7857 1466.304,-436.7857"/>
</g>
<!-- User&#45;&gt;UserFollow -->
<g id="edge56" class="edge">
<title>User&#45;&gt;UserFollow</title>
<path fill="none" stroke="#8c5532" d="M1012.1951,-493.4142C1073.3259,-490.1683 1202.85,-481.1142 1310,-459 1350.2311,-450.6969 1394.7443,-436.5866 1426.9138,-425.4687"/>
<ellipse fill="none" stroke="#8c5532" cx="1008.0274" cy="-493.6288" rx="4" ry="4"/>
<polygon fill="#8c5532" stroke="#8c5532" points="1427.0427,-425.4237 1437.9675,-426.3721 1431.7627,-423.7739 1436.4827,-422.1241 1436.4827,-422.1241 1436.4827,-422.1241 1431.7627,-423.7739 1434.9979,-417.8761 1427.0427,-425.4237 1427.0427,-425.4237"/>
<text text-anchor="middle" x="1394.9448" y="-447.8" font-family="Times,serif" font-size="14.00" fill="#000000">followings</text>
</g>
<!-- User&#45;&gt;UserHackroom -->
<g id="edge43" class="edge">
<title>User&#45;&gt;UserHackroom</title>
<path fill="none" stroke="#b97e4a" d="M941.5797,-494.0378C830.8814,-490.8279 496.1617,-479.5142 452,-459 402.3341,-435.9289 363.8776,-382.4566 343.9912,-349.8564"/>
<ellipse fill="none" stroke="#b97e4a" cx="945.7678" cy="-494.1576" rx="4" ry="4"/>
<polygon fill="#b97e4a" stroke="#b97e4a" points="343.7564,-349.4608 342.5216,-338.5647 341.2042,-345.1613 338.652,-340.8617 338.652,-340.8617 338.652,-340.8617 341.2042,-345.1613 334.7824,-343.1587 343.7564,-349.4608 343.7564,-349.4608"/>
</g>
<!-- User&#45;&gt;UserLanguage -->
<g id="edge46" class="edge">
<title>User&#45;&gt;UserLanguage</title>
<path fill="none" stroke="#e2ec92" d="M966.1677,-470.0571C954.3795,-443.5666 935.7775,-403.7823 925,-391 880.9158,-338.7154 813.6698,-295.1439 771.5802,-270.8455"/>
<ellipse fill="none" stroke="#e2ec92" cx="967.8286" cy="-473.8158" rx="4" ry="4"/>
<polygon fill="#e2ec92" stroke="#e2ec92" points="771.4306,-270.7604 764.9672,-261.9017 767.0856,-268.2863 762.7406,-265.8122 762.7406,-265.8122 762.7406,-265.8122 767.0856,-268.2863 760.5139,-269.7228 771.4306,-270.7604 771.4306,-270.7604"/>
</g>
<!-- User&#45;&gt;UserPrimary -->
<g id="edge47" class="edge">
<title>User&#45;&gt;UserPrimary</title>
<path fill="none" stroke="#26be02" d="M971.7039,-468.939C967.2359,-447.7983 960.3993,-417.2977 953,-391 941.7961,-351.1803 926.1933,-305.9389 916.0945,-277.6816"/>
<ellipse fill="none" stroke="#26be02" cx="972.5352" cy="-472.916" rx="4" ry="4"/>
<polygon fill="#26be02" stroke="#26be02" points="916.026,-277.4908 916.8758,-266.5579 914.3336,-272.7859 912.6413,-268.081 912.6413,-268.081 912.6413,-268.081 914.3336,-272.7859 908.4069,-269.6041 916.026,-277.4908 916.026,-277.4908"/>
</g>
</g>
</svg>
