<?xml version="1.0" encoding="UTF-8" standalone="no"?>
<!DOCTYPE svg PUBLIC "-//W3C//DTD SVG 1.1//EN"
 "http://www.w3.org/Graphics/SVG/1.1/DTD/svg11.dtd">
<!-- Generated by graphviz version 2.40.1 (20161225.0304)
 -->
<!-- Title: models_diagram Pages: 1 -->
<svg width="3222pt" height="1847pt"
 viewBox="0.00 0.00 3222.02 1847.00" xmlns="http://www.w3.org/2000/svg" xmlns:xlink="http://www.w3.org/1999/xlink">
<g id="graph0" class="graph" transform="scale(1 1) rotate(0) translate(4 1843)">
<title>models_diagram</title>
<polygon fill="transparent" stroke="transparent" points="-4,4 -4,-1843 3218.0217,-1843 3218.0217,4 -4,4"/>
<!-- _diagram_info -->
<g id="node1" class="node">
<title>_diagram_info</title>
<text text-anchor="start" x="1829.4716" y="-1782.6" font-family="Times,serif" font-size="13.00" fill="#000000">Models diagram</text>
<text text-anchor="start" x="1829.4716" y="-1769.6" font-family="Times,serif" font-size="13.00" fill="#000000">Date: Jun 13 2017 &#45; 19:07</text>
<text text-anchor="start" x="1829.4716" y="-1756.6" font-family="Times,serif" font-size="13.00" fill="#000000">Migration version: 20170612233319</text>
<text text-anchor="start" x="1829.4716" y="-1743.6" font-family="Times,serif" font-size="13.00" fill="#000000">Generated by RailRoady 1.5.3</text>
<text text-anchor="start" x="1829.4716" y="-1730.6" font-family="Times,serif" font-size="13.00" fill="#000000">http://railroady.prestonlee.com</text>
</g>
<!-- Ability -->
<g id="node2" class="node">
<title>Ability</title>
<polygon fill="none" stroke="#000000" points="2047.3249,-1738.5 2047.3249,-1782.5 2102.9938,-1782.5 2102.9938,-1738.5 2047.3249,-1738.5"/>
<text text-anchor="middle" x="2075.1594" y="-1767.3" font-family="Times,serif" font-size="14.00" fill="#000000">Ability</text>
<polyline fill="none" stroke="#000000" points="2047.3249,-1760.5 2102.9938,-1760.5 "/>
<text text-anchor="middle" x="2075.1594" y="-1745.3" font-family="Times,serif" font-size="14.00" fill="#000000"> </text>
</g>
<!-- Assignment -->
<g id="node3" class="node">
<title>Assignment</title>
<path fill="none" stroke="#000000" d="M2586.297,-945.5C2586.297,-945.5 2810.0217,-945.5 2810.0217,-945.5 2816.0217,-945.5 2822.0217,-951.5 2822.0217,-957.5 2822.0217,-957.5 2822.0217,-1033.5 2822.0217,-1033.5 2822.0217,-1039.5 2816.0217,-1045.5 2810.0217,-1045.5 2810.0217,-1045.5 2586.297,-1045.5 2586.297,-1045.5 2580.297,-1045.5 2574.297,-1039.5 2574.297,-1033.5 2574.297,-1033.5 2574.297,-957.5 2574.297,-957.5 2574.297,-951.5 2580.297,-945.5 2586.297,-945.5"/>
<text text-anchor="middle" x="2698.1594" y="-1030.3" font-family="Times,serif" font-size="14.00" fill="#000000">Assignment</text>
<polyline fill="none" stroke="#000000" points="2574.297,-1023.5 2822.0217,-1023.5 "/>
<text text-anchor="start" x="2582.297" y="-1008.3" font-family="Times,serif" font-size="14.00" fill="#000000">id :integer</text>
<text text-anchor="start" x="2582.297" y="-994.3" font-family="Times,serif" font-size="14.00" fill="#000000">user_id :integer</text>
<text text-anchor="start" x="2582.297" y="-980.3" font-family="Times,serif" font-size="14.00" fill="#000000">role_id :integer</text>
<text text-anchor="start" x="2582.297" y="-966.3" font-family="Times,serif" font-size="14.00" fill="#000000">created_at :timestamp without time zone</text>
<text text-anchor="start" x="2582.297" y="-952.3" font-family="Times,serif" font-size="14.00" fill="#000000">updated_at :timestamp without time zone</text>
</g>
<!-- Ckeditor::Asset -->
<g id="node4" class="node">
<title>Ckeditor::Asset</title>
<path fill="none" stroke="#000000" d="M2845.297,-1682.5C2845.297,-1682.5 3069.0217,-1682.5 3069.0217,-1682.5 3075.0217,-1682.5 3081.0217,-1688.5 3081.0217,-1694.5 3081.0217,-1694.5 3081.0217,-1826.5 3081.0217,-1826.5 3081.0217,-1832.5 3075.0217,-1838.5 3069.0217,-1838.5 3069.0217,-1838.5 2845.297,-1838.5 2845.297,-1838.5 2839.297,-1838.5 2833.297,-1832.5 2833.297,-1826.5 2833.297,-1826.5 2833.297,-1694.5 2833.297,-1694.5 2833.297,-1688.5 2839.297,-1682.5 2845.297,-1682.5"/>
<text text-anchor="middle" x="2957.1594" y="-1823.3" font-family="Times,serif" font-size="14.00" fill="#000000">Ckeditor::Asset</text>
<polyline fill="none" stroke="#000000" points="2833.297,-1816.5 3081.0217,-1816.5 "/>
<text text-anchor="start" x="2841.297" y="-1801.3" font-family="Times,serif" font-size="14.00" fill="#000000">updated_at :timestamp without time zone</text>
<text text-anchor="start" x="2841.297" y="-1787.3" font-family="Times,serif" font-size="14.00" fill="#000000">data_file_name :character varying</text>
<text text-anchor="start" x="2841.297" y="-1773.3" font-family="Times,serif" font-size="14.00" fill="#000000">data_content_type :character varying</text>
<text text-anchor="start" x="2841.297" y="-1759.3" font-family="Times,serif" font-size="14.00" fill="#000000">data_file_size :integer</text>
<text text-anchor="start" x="2841.297" y="-1745.3" font-family="Times,serif" font-size="14.00" fill="#000000">type :character varying(30)</text>
<text text-anchor="start" x="2841.297" y="-1731.3" font-family="Times,serif" font-size="14.00" fill="#000000">width :integer</text>
<text text-anchor="start" x="2841.297" y="-1717.3" font-family="Times,serif" font-size="14.00" fill="#000000">height :integer</text>
<text text-anchor="start" x="2841.297" y="-1703.3" font-family="Times,serif" font-size="14.00" fill="#000000">created_at :timestamp without time zone</text>
<text text-anchor="start" x="2841.297" y="-1689.3" font-family="Times,serif" font-size="14.00" fill="#000000">id :integer</text>
</g>
<!-- Ckeditor::AttachmentFile -->
<g id="node5" class="node">
<title>Ckeditor::AttachmentFile</title>
<path fill="none" stroke="#000000" d="M2712.297,-1313.5C2712.297,-1313.5 2936.0217,-1313.5 2936.0217,-1313.5 2942.0217,-1313.5 2948.0217,-1319.5 2948.0217,-1325.5 2948.0217,-1325.5 2948.0217,-1457.5 2948.0217,-1457.5 2948.0217,-1463.5 2942.0217,-1469.5 2936.0217,-1469.5 2936.0217,-1469.5 2712.297,-1469.5 2712.297,-1469.5 2706.297,-1469.5 2700.297,-1463.5 2700.297,-1457.5 2700.297,-1457.5 2700.297,-1325.5 2700.297,-1325.5 2700.297,-1319.5 2706.297,-1313.5 2712.297,-1313.5"/>
<text text-anchor="middle" x="2824.1594" y="-1454.3" font-family="Times,serif" font-size="14.00" fill="#000000">Ckeditor::AttachmentFile</text>
<polyline fill="none" stroke="#000000" points="2700.297,-1447.5 2948.0217,-1447.5 "/>
<text text-anchor="start" x="2708.297" y="-1432.3" font-family="Times,serif" font-size="14.00" fill="#000000">updated_at :timestamp without time zone</text>
<text text-anchor="start" x="2708.297" y="-1418.3" font-family="Times,serif" font-size="14.00" fill="#000000">data_file_name :character varying</text>
<text text-anchor="start" x="2708.297" y="-1404.3" font-family="Times,serif" font-size="14.00" fill="#000000">data_content_type :character varying</text>
<text text-anchor="start" x="2708.297" y="-1390.3" font-family="Times,serif" font-size="14.00" fill="#000000">data_file_size :integer</text>
<text text-anchor="start" x="2708.297" y="-1376.3" font-family="Times,serif" font-size="14.00" fill="#000000">type :character varying(30)</text>
<text text-anchor="start" x="2708.297" y="-1362.3" font-family="Times,serif" font-size="14.00" fill="#000000">width :integer</text>
<text text-anchor="start" x="2708.297" y="-1348.3" font-family="Times,serif" font-size="14.00" fill="#000000">height :integer</text>
<text text-anchor="start" x="2708.297" y="-1334.3" font-family="Times,serif" font-size="14.00" fill="#000000">created_at :timestamp without time zone</text>
<text text-anchor="start" x="2708.297" y="-1320.3" font-family="Times,serif" font-size="14.00" fill="#000000">id :integer</text>
</g>
<!-- Ckeditor::Asset&#45;&gt;Ckeditor::AttachmentFile -->
<g id="edge1" class="edge">
<title>Ckeditor::Asset&#45;&gt;Ckeditor::AttachmentFile</title>
<path fill="none" stroke="#000000" d="M2928.9535,-1682.2446C2906.3829,-1619.624 2874.8844,-1532.2334 2852.3246,-1469.6426"/>
</g>
<!-- Ckeditor::Picture -->
<g id="node6" class="node">
<title>Ckeditor::Picture</title>
<path fill="none" stroke="#000000" d="M2978.297,-1313.5C2978.297,-1313.5 3202.0217,-1313.5 3202.0217,-1313.5 3208.0217,-1313.5 3214.0217,-1319.5 3214.0217,-1325.5 3214.0217,-1325.5 3214.0217,-1457.5 3214.0217,-1457.5 3214.0217,-1463.5 3208.0217,-1469.5 3202.0217,-1469.5 3202.0217,-1469.5 2978.297,-1469.5 2978.297,-1469.5 2972.297,-1469.5 2966.297,-1463.5 2966.297,-1457.5 2966.297,-1457.5 2966.297,-1325.5 2966.297,-1325.5 2966.297,-1319.5 2972.297,-1313.5 2978.297,-1313.5"/>
<text text-anchor="middle" x="3090.1594" y="-1454.3" font-family="Times,serif" font-size="14.00" fill="#000000">Ckeditor::Picture</text>
<polyline fill="none" stroke="#000000" points="2966.297,-1447.5 3214.0217,-1447.5 "/>
<text text-anchor="start" x="2974.297" y="-1432.3" font-family="Times,serif" font-size="14.00" fill="#000000">updated_at :timestamp without time zone</text>
<text text-anchor="start" x="2974.297" y="-1418.3" font-family="Times,serif" font-size="14.00" fill="#000000">data_file_name :character varying</text>
<text text-anchor="start" x="2974.297" y="-1404.3" font-family="Times,serif" font-size="14.00" fill="#000000">data_content_type :character varying</text>
<text text-anchor="start" x="2974.297" y="-1390.3" font-family="Times,serif" font-size="14.00" fill="#000000">data_file_size :integer</text>
<text text-anchor="start" x="2974.297" y="-1376.3" font-family="Times,serif" font-size="14.00" fill="#000000">type :character varying(30)</text>
<text text-anchor="start" x="2974.297" y="-1362.3" font-family="Times,serif" font-size="14.00" fill="#000000">width :integer</text>
<text text-anchor="start" x="2974.297" y="-1348.3" font-family="Times,serif" font-size="14.00" fill="#000000">height :integer</text>
<text text-anchor="start" x="2974.297" y="-1334.3" font-family="Times,serif" font-size="14.00" fill="#000000">created_at :timestamp without time zone</text>
<text text-anchor="start" x="2974.297" y="-1320.3" font-family="Times,serif" font-size="14.00" fill="#000000">id :integer</text>
</g>
<!-- Ckeditor::Asset&#45;&gt;Ckeditor::Picture -->
<g id="edge2" class="edge">
<title>Ckeditor::Asset&#45;&gt;Ckeditor::Picture</title>
<path fill="none" stroke="#000000" d="M2985.3652,-1682.2446C3007.9358,-1619.624 3039.4343,-1532.2334 3061.9941,-1469.6426"/>
</g>
<!-- Comment -->
<g id="node7" class="node">
<title>Comment</title>
<path fill="none" stroke="#000000" d="M1142.297,-86.5C1142.297,-86.5 1366.0217,-86.5 1366.0217,-86.5 1372.0217,-86.5 1378.0217,-92.5 1378.0217,-98.5 1378.0217,-98.5 1378.0217,-216.5 1378.0217,-216.5 1378.0217,-222.5 1372.0217,-228.5 1366.0217,-228.5 1366.0217,-228.5 1142.297,-228.5 1142.297,-228.5 1136.297,-228.5 1130.297,-222.5 1130.297,-216.5 1130.297,-216.5 1130.297,-98.5 1130.297,-98.5 1130.297,-92.5 1136.297,-86.5 1142.297,-86.5"/>
<text text-anchor="middle" x="1254.1594" y="-213.3" font-family="Times,serif" font-size="14.00" fill="#000000">Comment</text>
<polyline fill="none" stroke="#000000" points="1130.297,-206.5 1378.0217,-206.5 "/>
<text text-anchor="start" x="1138.297" y="-191.3" font-family="Times,serif" font-size="14.00" fill="#000000">public :boolean</text>
<text text-anchor="start" x="1138.297" y="-177.3" font-family="Times,serif" font-size="14.00" fill="#000000">body :text</text>
<text text-anchor="start" x="1138.297" y="-163.3" font-family="Times,serif" font-size="14.00" fill="#000000">commentable_id :integer</text>
<text text-anchor="start" x="1138.297" y="-149.3" font-family="Times,serif" font-size="14.00" fill="#000000">commentable_type :character varying</text>
<text text-anchor="start" x="1138.297" y="-135.3" font-family="Times,serif" font-size="14.00" fill="#000000">created_at :timestamp without time zone</text>
<text text-anchor="start" x="1138.297" y="-121.3" font-family="Times,serif" font-size="14.00" fill="#000000">updated_at :timestamp without time zone</text>
<text text-anchor="start" x="1138.297" y="-107.3" font-family="Times,serif" font-size="14.00" fill="#000000">author_id :integer</text>
<text text-anchor="start" x="1138.297" y="-93.3" font-family="Times,serif" font-size="14.00" fill="#000000">id :integer</text>
</g>
<!-- Comment&#45;&gt;Comment -->
<g id="edge3" class="edge">
<title>Comment&#45;&gt;Comment</title>
<path fill="none" stroke="#df572c" d="M1386.0057,-168.2162C1392.3163,-165.5256 1396.0217,-161.9536 1396.0217,-157.5 1396.0217,-153.5202 1393.0627,-150.2444 1387.93,-147.6724"/>
<ellipse fill="none" stroke="#df572c" cx="1381.9871" cy="-169.539" rx="4" ry="4"/>
<polygon fill="#df572c" stroke="#df572c" points="1387.6104,-147.5589 1379.6945,-139.9701 1382.899,-145.8846 1378.1876,-144.2103 1378.1876,-144.2103 1378.1876,-144.2103 1382.899,-145.8846 1376.6808,-148.4505 1387.6104,-147.5589 1387.6104,-147.5589"/>
</g>
<!-- CommentReply -->
<g id="node29" class="node">
<title>CommentReply</title>
<ellipse fill="none" stroke="#000000" cx="1254.1594" cy="-18" rx="66.2253" ry="18"/>
<text text-anchor="middle" x="1254.1594" y="-13.8" font-family="Times,serif" font-size="14.00" fill="#000000">CommentReply</text>
</g>
<!-- Comment&#45;&gt;CommentReply -->
<g id="edge4" class="edge">
<title>Comment&#45;&gt;CommentReply</title>
<path fill="none" stroke="#f8c528" d="M1254.1594,-77.8444C1254.1594,-66.5384 1254.1594,-55.5868 1254.1594,-46.2106"/>
<ellipse fill="none" stroke="#f8c528" cx="1254.1594" cy="-82.1154" rx="4" ry="4"/>
<polygon fill="#f8c528" stroke="#f8c528" points="1254.1595,-46.0006 1258.6594,-36.0005 1254.1594,-41.0006 1254.1594,-36.0006 1254.1594,-36.0006 1254.1594,-36.0006 1254.1594,-41.0006 1249.6594,-36.0006 1254.1595,-46.0006 1254.1595,-46.0006"/>
<text text-anchor="middle" x="1272.818" y="-56.8" font-family="Times,serif" font-size="14.00" fill="#000000">replies</text>
</g>
<!-- Hackroom -->
<g id="node8" class="node">
<title>Hackroom</title>
<path fill="none" stroke="#000000" d="M771.297,-910.5C771.297,-910.5 995.0217,-910.5 995.0217,-910.5 1001.0217,-910.5 1007.0217,-916.5 1007.0217,-922.5 1007.0217,-922.5 1007.0217,-1068.5 1007.0217,-1068.5 1007.0217,-1074.5 1001.0217,-1080.5 995.0217,-1080.5 995.0217,-1080.5 771.297,-1080.5 771.297,-1080.5 765.297,-1080.5 759.297,-1074.5 759.297,-1068.5 759.297,-1068.5 759.297,-922.5 759.297,-922.5 759.297,-916.5 765.297,-910.5 771.297,-910.5"/>
<text text-anchor="middle" x="883.1594" y="-1065.3" font-family="Times,serif" font-size="14.00" fill="#000000">Hackroom</text>
<polyline fill="none" stroke="#000000" points="759.297,-1058.5 1007.0217,-1058.5 "/>
<text text-anchor="start" x="767.297" y="-1043.3" font-family="Times,serif" font-size="14.00" fill="#000000">author_id :integer</text>
<text text-anchor="start" x="767.297" y="-1029.3" font-family="Times,serif" font-size="14.00" fill="#000000">name :character varying</text>
<text text-anchor="start" x="767.297" y="-1015.3" font-family="Times,serif" font-size="14.00" fill="#000000">mission :text</text>
<text text-anchor="start" x="767.297" y="-1001.3" font-family="Times,serif" font-size="14.00" fill="#000000">slack :character varying</text>
<text text-anchor="start" x="767.297" y="-987.3" font-family="Times,serif" font-size="14.00" fill="#000000">project_url :character varying</text>
<text text-anchor="start" x="767.297" y="-973.3" font-family="Times,serif" font-size="14.00" fill="#000000">created_at :timestamp without time zone</text>
<text text-anchor="start" x="767.297" y="-959.3" font-family="Times,serif" font-size="14.00" fill="#000000">updated_at :timestamp without time zone</text>
<text text-anchor="start" x="767.297" y="-945.3" font-family="Times,serif" font-size="14.00" fill="#000000">slug :character varying</text>
<text text-anchor="start" x="767.297" y="-931.3" font-family="Times,serif" font-size="14.00" fill="#000000">popularity_score :integer</text>
<text text-anchor="start" x="767.297" y="-917.3" font-family="Times,serif" font-size="14.00" fill="#000000">id :integer</text>
</g>
<!-- Hackroom&#45;&gt;Comment -->
<g id="edge13" class="edge">
<title>Hackroom&#45;&gt;Comment</title>
<path fill="none" stroke="#ad4a98" d="M1014.3364,-923.6357C1031.8489,-911.7255 1048.9773,-898.7401 1064.1594,-885 1157.5488,-800.4807 1192.8219,-777.6281 1235.1594,-659 1285.4872,-517.9831 1276.8085,-340.3048 1265.6646,-238.7303"/>
<ellipse fill="none" stroke="#ad4a98" cx="1010.6684" cy="-926.094" rx="4" ry="4"/>
<polygon fill="#ad4a98" stroke="#ad4a98" points="1265.6358,-238.4753 1268.9814,-228.0323 1265.0729,-233.5071 1264.51,-228.5389 1264.51,-228.5389 1264.51,-228.5389 1265.0729,-233.5071 1260.0386,-229.0455 1265.6358,-238.4753 1265.6358,-238.4753"/>
</g>
<!-- HackroomLanguage -->
<g id="node9" class="node">
<title>HackroomLanguage</title>
<path fill="none" stroke="#000000" d="M610.297,-516.5C610.297,-516.5 834.0217,-516.5 834.0217,-516.5 840.0217,-516.5 846.0217,-522.5 846.0217,-528.5 846.0217,-528.5 846.0217,-604.5 846.0217,-604.5 846.0217,-610.5 840.0217,-616.5 834.0217,-616.5 834.0217,-616.5 610.297,-616.5 610.297,-616.5 604.297,-616.5 598.297,-610.5 598.297,-604.5 598.297,-604.5 598.297,-528.5 598.297,-528.5 598.297,-522.5 604.297,-516.5 610.297,-516.5"/>
<text text-anchor="middle" x="722.1594" y="-601.3" font-family="Times,serif" font-size="14.00" fill="#000000">HackroomLanguage</text>
<polyline fill="none" stroke="#000000" points="598.297,-594.5 846.0217,-594.5 "/>
<text text-anchor="start" x="606.297" y="-579.3" font-family="Times,serif" font-size="14.00" fill="#000000">id :integer</text>
<text text-anchor="start" x="606.297" y="-565.3" font-family="Times,serif" font-size="14.00" fill="#000000">hackroom_id :integer</text>
<text text-anchor="start" x="606.297" y="-551.3" font-family="Times,serif" font-size="14.00" fill="#000000">language_id :integer</text>
<text text-anchor="start" x="606.297" y="-537.3" font-family="Times,serif" font-size="14.00" fill="#000000">created_at :timestamp without time zone</text>
<text text-anchor="start" x="606.297" y="-523.3" font-family="Times,serif" font-size="14.00" fill="#000000">updated_at :timestamp without time zone</text>
</g>
<!-- Hackroom&#45;&gt;HackroomLanguage -->
<g id="edge7" class="edge">
<title>Hackroom&#45;&gt;HackroomLanguage</title>
<path fill="none" stroke="#0af880" d="M817.2318,-902.8276C814.2543,-896.9253 811.5283,-890.9588 809.1594,-885 774.5273,-797.8876 802.1558,-766.4659 774.1594,-677 768.8398,-660.0007 761.4115,-642.2583 753.8314,-626.0913"/>
<ellipse fill="none" stroke="#0af880" cx="819.2729" cy="-906.7214" rx="4" ry="4"/>
<polygon fill="#0af880" stroke="#0af880" points="753.6871,-625.7901 753.4237,-614.8273 751.5263,-621.281 749.3656,-616.772 749.3656,-616.772 749.3656,-616.772 751.5263,-621.281 745.3074,-618.7167 753.6871,-625.7901 753.6871,-625.7901"/>
</g>
<!-- HackroomOwner -->
<g id="node10" class="node">
<title>HackroomOwner</title>
<path fill="none" stroke="#000000" d="M230.297,-724.5C230.297,-724.5 454.0217,-724.5 454.0217,-724.5 460.0217,-724.5 466.0217,-730.5 466.0217,-736.5 466.0217,-736.5 466.0217,-812.5 466.0217,-812.5 466.0217,-818.5 460.0217,-824.5 454.0217,-824.5 454.0217,-824.5 230.297,-824.5 230.297,-824.5 224.297,-824.5 218.297,-818.5 218.297,-812.5 218.297,-812.5 218.297,-736.5 218.297,-736.5 218.297,-730.5 224.297,-724.5 230.297,-724.5"/>
<text text-anchor="middle" x="342.1594" y="-809.3" font-family="Times,serif" font-size="14.00" fill="#000000">HackroomOwner</text>
<polyline fill="none" stroke="#000000" points="218.297,-802.5 466.0217,-802.5 "/>
<text text-anchor="start" x="226.297" y="-787.3" font-family="Times,serif" font-size="14.00" fill="#000000">id :integer</text>
<text text-anchor="start" x="226.297" y="-773.3" font-family="Times,serif" font-size="14.00" fill="#000000">user_id :integer</text>
<text text-anchor="start" x="226.297" y="-759.3" font-family="Times,serif" font-size="14.00" fill="#000000">hackroom_id :integer</text>
<text text-anchor="start" x="226.297" y="-745.3" font-family="Times,serif" font-size="14.00" fill="#000000">created_at :timestamp without time zone</text>
<text text-anchor="start" x="226.297" y="-731.3" font-family="Times,serif" font-size="14.00" fill="#000000">updated_at :timestamp without time zone</text>
</g>
<!-- Hackroom&#45;&gt;HackroomOwner -->
<g id="edge11" class="edge">
<title>Hackroom&#45;&gt;HackroomOwner</title>
<path fill="none" stroke="#61c120" d="M751.4852,-956.7944C670.2581,-931.1456 564.8208,-894.622 475.1594,-853 460.3567,-846.1284 445.0744,-838.0867 430.3775,-829.8199"/>
<ellipse fill="none" stroke="#61c120" cx="755.4532" cy="-958.0423" rx="4" ry="4"/>
<polygon fill="#61c120" stroke="#61c120" points="429.9993,-829.6043 423.5403,-820.7425 425.6555,-827.1281 421.3117,-824.6519 421.3117,-824.6519 421.3117,-824.6519 425.6555,-827.1281 419.0831,-828.5613 429.9993,-829.6043 429.9993,-829.6043"/>
</g>
<!-- HackroomPrimary -->
<g id="node11" class="node">
<title>HackroomPrimary</title>
<path fill="none" stroke="#000000" d="M344.297,-516.5C344.297,-516.5 568.0217,-516.5 568.0217,-516.5 574.0217,-516.5 580.0217,-522.5 580.0217,-528.5 580.0217,-528.5 580.0217,-604.5 580.0217,-604.5 580.0217,-610.5 574.0217,-616.5 568.0217,-616.5 568.0217,-616.5 344.297,-616.5 344.297,-616.5 338.297,-616.5 332.297,-610.5 332.297,-604.5 332.297,-604.5 332.297,-528.5 332.297,-528.5 332.297,-522.5 338.297,-516.5 344.297,-516.5"/>
<text text-anchor="middle" x="456.1594" y="-601.3" font-family="Times,serif" font-size="14.00" fill="#000000">HackroomPrimary</text>
<polyline fill="none" stroke="#000000" points="332.297,-594.5 580.0217,-594.5 "/>
<text text-anchor="start" x="340.297" y="-579.3" font-family="Times,serif" font-size="14.00" fill="#000000">id :integer</text>
<text text-anchor="start" x="340.297" y="-565.3" font-family="Times,serif" font-size="14.00" fill="#000000">hackroom_id :integer</text>
<text text-anchor="start" x="340.297" y="-551.3" font-family="Times,serif" font-size="14.00" fill="#000000">language_id :integer</text>
<text text-anchor="start" x="340.297" y="-537.3" font-family="Times,serif" font-size="14.00" fill="#000000">created_at :timestamp without time zone</text>
<text text-anchor="start" x="340.297" y="-523.3" font-family="Times,serif" font-size="14.00" fill="#000000">updated_at :timestamp without time zone</text>
</g>
<!-- Hackroom&#45;&gt;HackroomPrimary -->
<g id="edge9" class="edge">
<title>Hackroom&#45;&gt;HackroomPrimary</title>
<path fill="none" stroke="#861150" d="M805.3695,-903.4495C794.3479,-887.3432 784.088,-870.2107 776.1594,-853 746.2464,-788.0683 791.2173,-747.0403 741.1594,-696 692.4755,-646.3607 652.5528,-687.5561 589.1594,-659 567.6184,-649.2967 545.8941,-636.0021 526.426,-622.5177"/>
<ellipse fill="none" stroke="#861150" cx="807.8478" cy="-907.0052" rx="4" ry="4"/>
<polygon fill="#861150" stroke="#861150" points="526.4004,-622.4997 520.821,-613.0593 522.3141,-619.6183 518.2278,-616.7369 518.2278,-616.7369 518.2278,-616.7369 522.3141,-619.6183 515.6346,-620.4146 526.4004,-622.4997 526.4004,-622.4997"/>
</g>
<!-- Language -->
<g id="node12" class="node">
<title>Language</title>
<path fill="none" stroke="#000000" d="M838.297,-696.5C838.297,-696.5 1062.0217,-696.5 1062.0217,-696.5 1068.0217,-696.5 1074.0217,-702.5 1074.0217,-708.5 1074.0217,-708.5 1074.0217,-840.5 1074.0217,-840.5 1074.0217,-846.5 1068.0217,-852.5 1062.0217,-852.5 1062.0217,-852.5 838.297,-852.5 838.297,-852.5 832.297,-852.5 826.297,-846.5 826.297,-840.5 826.297,-840.5 826.297,-708.5 826.297,-708.5 826.297,-702.5 832.297,-696.5 838.297,-696.5"/>
<text text-anchor="middle" x="950.1594" y="-837.3" font-family="Times,serif" font-size="14.00" fill="#000000">Language</text>
<polyline fill="none" stroke="#000000" points="826.297,-830.5 1074.0217,-830.5 "/>
<text text-anchor="start" x="834.297" y="-815.3" font-family="Times,serif" font-size="14.00" fill="#000000">author_id :integer</text>
<text text-anchor="start" x="834.297" y="-801.3" font-family="Times,serif" font-size="14.00" fill="#000000">name :character varying</text>
<text text-anchor="start" x="834.297" y="-787.3" font-family="Times,serif" font-size="14.00" fill="#000000">created_at :timestamp without time zone</text>
<text text-anchor="start" x="834.297" y="-773.3" font-family="Times,serif" font-size="14.00" fill="#000000">updated_at :timestamp without time zone</text>
<text text-anchor="start" x="834.297" y="-759.3" font-family="Times,serif" font-size="14.00" fill="#000000">description :text</text>
<text text-anchor="start" x="834.297" y="-745.3" font-family="Times,serif" font-size="14.00" fill="#000000">colour :character varying</text>
<text text-anchor="start" x="834.297" y="-731.3" font-family="Times,serif" font-size="14.00" fill="#000000">slug :character varying</text>
<text text-anchor="start" x="834.297" y="-717.3" font-family="Times,serif" font-size="14.00" fill="#000000">popularity_score :integer</text>
<text text-anchor="start" x="834.297" y="-703.3" font-family="Times,serif" font-size="14.00" fill="#000000">id :integer</text>
</g>
<!-- Hackroom&#45;&gt;Language -->
<g id="edge8" class="edge">
<title>Hackroom&#45;&gt;Language</title>
<path fill="none" stroke="#88f213" d="M928.9221,-900.9039C930.8371,-895.5784 932.6022,-890.2544 934.1594,-885 936.2848,-877.828 938.133,-870.3074 939.7392,-862.7061"/>
<polygon fill="#88f213" stroke="#88f213" points="928.8426,-901.1157 921.1132,-908.8943 927.0842,-905.7963 925.3258,-910.4769 925.3258,-910.4769 925.3258,-910.4769 927.0842,-905.7963 929.5383,-912.0595 928.8426,-901.1157 928.8426,-901.1157"/>
<polygon fill="#88f213" stroke="#88f213" points="939.7796,-862.5007 946.1294,-853.5603 940.747,-857.5952 941.7144,-852.6897 941.7144,-852.6897 941.7144,-852.6897 940.747,-857.5952 937.2995,-851.819 939.7796,-862.5007 939.7796,-862.5007"/>
</g>
<!-- Hackroom&#45;&gt;Language -->
<g id="edge10" class="edge">
<title>Hackroom&#45;&gt;Language</title>
<path fill="none" stroke="#76da48" d="M944.7588,-900.9497C946.8421,-895.6673 948.6685,-890.3342 950.1594,-885 952.17,-877.8059 953.569,-870.2439 954.4959,-862.5924"/>
<polygon fill="#76da48" stroke="#76da48" points="944.6574,-901.1886 936.6063,-908.6338 942.7028,-905.7907 940.7482,-910.3929 940.7482,-910.3929 940.7482,-910.3929 942.7028,-905.7907 944.8901,-912.152 944.6574,-901.1886 944.6574,-901.1886"/>
<polygon fill="#76da48" stroke="#76da48" points="954.5084,-862.4606 959.9341,-852.9311 954.9813,-857.483 955.4543,-852.5054 955.4543,-852.5054 955.4543,-852.5054 954.9813,-857.483 950.9744,-852.0798 954.5084,-862.4606 954.5084,-862.4606"/>
<text text-anchor="middle" x="1006.8078" y="-873.8" font-family="Times,serif" font-size="14.00" fill="#000000">primary_languages</text>
</g>
<!-- User -->
<g id="node24" class="node">
<title>User</title>
<path fill="none" stroke="#000000" d="M1266.5246,-1138.5C1266.5246,-1138.5 1561.7941,-1138.5 1561.7941,-1138.5 1567.7941,-1138.5 1573.7941,-1144.5 1573.7941,-1150.5 1573.7941,-1150.5 1573.7941,-1632.5 1573.7941,-1632.5 1573.7941,-1638.5 1567.7941,-1644.5 1561.7941,-1644.5 1561.7941,-1644.5 1266.5246,-1644.5 1266.5246,-1644.5 1260.5246,-1644.5 1254.5246,-1638.5 1254.5246,-1632.5 1254.5246,-1632.5 1254.5246,-1150.5 1254.5246,-1150.5 1254.5246,-1144.5 1260.5246,-1138.5 1266.5246,-1138.5"/>
<text text-anchor="middle" x="1414.1594" y="-1629.3" font-family="Times,serif" font-size="14.00" fill="#000000">User</text>
<polyline fill="none" stroke="#000000" points="1254.5246,-1622.5 1573.7941,-1622.5 "/>
<text text-anchor="start" x="1262.5246" y="-1607.3" font-family="Times,serif" font-size="14.00" fill="#000000">user_follows_count :integer</text>
<text text-anchor="start" x="1262.5246" y="-1593.3" font-family="Times,serif" font-size="14.00" fill="#000000">email :character varying</text>
<text text-anchor="start" x="1262.5246" y="-1579.3" font-family="Times,serif" font-size="14.00" fill="#000000">encrypted_password :character varying</text>
<text text-anchor="start" x="1262.5246" y="-1565.3" font-family="Times,serif" font-size="14.00" fill="#000000">reset_password_token :character varying</text>
<text text-anchor="start" x="1262.5246" y="-1551.3" font-family="Times,serif" font-size="14.00" fill="#000000">reset_password_sent_at :timestamp without time zone</text>
<text text-anchor="start" x="1262.5246" y="-1537.3" font-family="Times,serif" font-size="14.00" fill="#000000">remember_created_at :timestamp without time zone</text>
<text text-anchor="start" x="1262.5246" y="-1523.3" font-family="Times,serif" font-size="14.00" fill="#000000">sign_in_count :integer</text>
<text text-anchor="start" x="1262.5246" y="-1509.3" font-family="Times,serif" font-size="14.00" fill="#000000">current_sign_in_at :timestamp without time zone</text>
<text text-anchor="start" x="1262.5246" y="-1495.3" font-family="Times,serif" font-size="14.00" fill="#000000">last_sign_in_at :timestamp without time zone</text>
<text text-anchor="start" x="1262.5246" y="-1481.3" font-family="Times,serif" font-size="14.00" fill="#000000">current_sign_in_ip :inet</text>
<text text-anchor="start" x="1262.5246" y="-1467.3" font-family="Times,serif" font-size="14.00" fill="#000000">last_sign_in_ip :inet</text>
<text text-anchor="start" x="1262.5246" y="-1453.3" font-family="Times,serif" font-size="14.00" fill="#000000">created_at :timestamp without time zone</text>
<text text-anchor="start" x="1262.5246" y="-1439.3" font-family="Times,serif" font-size="14.00" fill="#000000">updated_at :timestamp without time zone</text>
<text text-anchor="start" x="1262.5246" y="-1425.3" font-family="Times,serif" font-size="14.00" fill="#000000">provider :character varying</text>
<text text-anchor="start" x="1262.5246" y="-1411.3" font-family="Times,serif" font-size="14.00" fill="#000000">uid :character varying</text>
<text text-anchor="start" x="1262.5246" y="-1397.3" font-family="Times,serif" font-size="14.00" fill="#000000">name :character varying</text>
<text text-anchor="start" x="1262.5246" y="-1383.3" font-family="Times,serif" font-size="14.00" fill="#000000">image :character varying</text>
<text text-anchor="start" x="1262.5246" y="-1369.3" font-family="Times,serif" font-size="14.00" fill="#000000">bio :text</text>
<text text-anchor="start" x="1262.5246" y="-1355.3" font-family="Times,serif" font-size="14.00" fill="#000000">twitter :character varying</text>
<text text-anchor="start" x="1262.5246" y="-1341.3" font-family="Times,serif" font-size="14.00" fill="#000000">facebook :character varying</text>
<text text-anchor="start" x="1262.5246" y="-1327.3" font-family="Times,serif" font-size="14.00" fill="#000000">github :character varying</text>
<text text-anchor="start" x="1262.5246" y="-1313.3" font-family="Times,serif" font-size="14.00" fill="#000000">instagram :character varying</text>
<text text-anchor="start" x="1262.5246" y="-1299.3" font-family="Times,serif" font-size="14.00" fill="#000000">website_url :character varying</text>
<text text-anchor="start" x="1262.5246" y="-1285.3" font-family="Times,serif" font-size="14.00" fill="#000000">linkedin :character varying</text>
<text text-anchor="start" x="1262.5246" y="-1271.3" font-family="Times,serif" font-size="14.00" fill="#000000">tagline :character varying</text>
<text text-anchor="start" x="1262.5246" y="-1257.3" font-family="Times,serif" font-size="14.00" fill="#000000">slug :character varying</text>
<text text-anchor="start" x="1262.5246" y="-1243.3" font-family="Times,serif" font-size="14.00" fill="#000000">permission :integer</text>
<text text-anchor="start" x="1262.5246" y="-1229.3" font-family="Times,serif" font-size="14.00" fill="#000000">logo :character varying</text>
<text text-anchor="start" x="1262.5246" y="-1215.3" font-family="Times,serif" font-size="14.00" fill="#000000">logo_link :character varying</text>
<text text-anchor="start" x="1262.5246" y="-1201.3" font-family="Times,serif" font-size="14.00" fill="#000000">username :character varying</text>
<text text-anchor="start" x="1262.5246" y="-1187.3" font-family="Times,serif" font-size="14.00" fill="#000000">listed :boolean</text>
<text text-anchor="start" x="1262.5246" y="-1173.3" font-family="Times,serif" font-size="14.00" fill="#000000">first_name :character varying</text>
<text text-anchor="start" x="1262.5246" y="-1159.3" font-family="Times,serif" font-size="14.00" fill="#000000">last_name :character varying</text>
<text text-anchor="start" x="1262.5246" y="-1145.3" font-family="Times,serif" font-size="14.00" fill="#000000">id :integer</text>
</g>
<!-- Hackroom&#45;&gt;User -->
<g id="edge6" class="edge">
<title>Hackroom&#45;&gt;User</title>
<path fill="none" stroke="#5b7dd0" d="M883.8848,-1090.3159C886.7884,-1100.8971 891.0509,-1111.0638 897.1594,-1120 977.9861,-1238.2437 1127.0583,-1308.6652 1244.4344,-1348.0354"/>
<polygon fill="#5b7dd0" stroke="#5b7dd0" points="883.8675,-1090.2418 885.9678,-1079.479 882.727,-1085.3737 881.5864,-1080.5055 881.5864,-1080.5055 881.5864,-1080.5055 882.727,-1085.3737 877.2051,-1081.532 883.8675,-1090.2418 883.8675,-1090.2418"/>
<polygon fill="#5b7dd0" stroke="#5b7dd0" points="1244.7616,-1348.1436 1252.8437,-1355.5551 1249.5089,-1349.7131 1254.2562,-1351.2826 1254.2562,-1351.2826 1254.2562,-1351.2826 1249.5089,-1349.7131 1255.6688,-1347.01 1244.7616,-1348.1436 1244.7616,-1348.1436"/>
</g>
<!-- Hackroom&#45;&gt;User -->
<g id="edge12" class="edge">
<title>Hackroom&#45;&gt;User</title>
<path fill="none" stroke="#527a18" d="M899.7556,-1090.1084C904.1516,-1100.8332 909.7066,-1111.0915 916.7248,-1120 999.9196,-1225.603 1136.0211,-1295.8229 1244.8482,-1338.3457"/>
<polygon fill="#527a18" stroke="#527a18" points="899.6956,-1089.9484 900.3964,-1079.0049 897.9394,-1085.267 896.1831,-1080.5855 896.1831,-1080.5855 896.1831,-1080.5855 897.9394,-1085.267 891.9698,-1082.1662 899.6956,-1089.9484 899.6956,-1089.9484"/>
<polygon fill="#527a18" stroke="#527a18" points="1244.9639,-1338.3903 1252.6709,-1346.1911 1249.6281,-1340.1918 1254.2923,-1341.9933 1254.2923,-1341.9933 1254.2923,-1341.9933 1249.6281,-1340.1918 1255.9137,-1337.7956 1244.9639,-1338.3903 1244.9639,-1338.3903"/>
<text text-anchor="middle" x="937.3766" y="-1108.8" font-family="Times,serif" font-size="14.00" fill="#000000">owners</text>
</g>
<!-- UserHackroom -->
<g id="node26" class="node">
<title>UserHackroom</title>
<path fill="none" stroke="#000000" d="M496.297,-724.5C496.297,-724.5 720.0217,-724.5 720.0217,-724.5 726.0217,-724.5 732.0217,-730.5 732.0217,-736.5 732.0217,-736.5 732.0217,-812.5 732.0217,-812.5 732.0217,-818.5 726.0217,-824.5 720.0217,-824.5 720.0217,-824.5 496.297,-824.5 496.297,-824.5 490.297,-824.5 484.297,-818.5 484.297,-812.5 484.297,-812.5 484.297,-736.5 484.297,-736.5 484.297,-730.5 490.297,-724.5 496.297,-724.5"/>
<text text-anchor="middle" x="608.1594" y="-809.3" font-family="Times,serif" font-size="14.00" fill="#000000">UserHackroom</text>
<polyline fill="none" stroke="#000000" points="484.297,-802.5 732.0217,-802.5 "/>
<text text-anchor="start" x="492.297" y="-787.3" font-family="Times,serif" font-size="14.00" fill="#000000">id :integer</text>
<text text-anchor="start" x="492.297" y="-773.3" font-family="Times,serif" font-size="14.00" fill="#000000">user_id :integer</text>
<text text-anchor="start" x="492.297" y="-759.3" font-family="Times,serif" font-size="14.00" fill="#000000">hackroom_id :integer</text>
<text text-anchor="start" x="492.297" y="-745.3" font-family="Times,serif" font-size="14.00" fill="#000000">created_at :timestamp without time zone</text>
<text text-anchor="start" x="492.297" y="-731.3" font-family="Times,serif" font-size="14.00" fill="#000000">updated_at :timestamp without time zone</text>
</g>
<!-- Hackroom&#45;&gt;UserHackroom -->
<g id="edge5" class="edge">
<title>Hackroom&#45;&gt;UserHackroom</title>
<path fill="none" stroke="#1b9003" d="M770.8712,-905.2612C739.7408,-880.2436 706.8251,-853.7913 678.8048,-831.2732"/>
<ellipse fill="none" stroke="#1b9003" cx="774.1126" cy="-907.866" rx="4" ry="4"/>
<polygon fill="#1b9003" stroke="#1b9003" points="678.4513,-830.9892 673.4754,-821.2173 674.5539,-827.8571 670.6565,-824.725 670.6565,-824.725 670.6565,-824.725 674.5539,-827.8571 667.8376,-828.2327 678.4513,-830.9892 678.4513,-830.9892"/>
</g>
<!-- Language&#45;&gt;Comment -->
<g id="edge23" class="edge">
<title>Language&#45;&gt;Comment</title>
<path fill="none" stroke="#dff85f" d="M928.4715,-688.1498C917.254,-626.1966 911.0865,-542.0022 939.1594,-474 979.7496,-375.6764 1067.3212,-291.8288 1139.851,-235.1857"/>
<ellipse fill="none" stroke="#dff85f" cx="929.2731" cy="-692.425" rx="4" ry="4"/>
<polygon fill="#dff85f" stroke="#dff85f" points="1140.2541,-234.8741 1150.9182,-232.3191 1144.2102,-231.8164 1148.1662,-228.7586 1148.1662,-228.7586 1148.1662,-228.7586 1144.2102,-231.8164 1145.4142,-225.1982 1140.2541,-234.8741 1140.2541,-234.8741"/>
</g>
<!-- Language&#45;&gt;Hackroom -->
<g id="edge16" class="edge">
<title>Language&#45;&gt;Hackroom</title>
<path fill="none" stroke="#4f2822" d="M823.2041,-860.963C821.1042,-864.2151 819.1661,-867.5607 817.4142,-871 812.5467,-880.5562 811.2788,-890.4938 812.5197,-900.4014"/>
<polygon fill="#4f2822" stroke="#4f2822" points="823.3586,-860.744 832.8003,-855.1668 826.2409,-856.6584 829.1232,-852.5728 829.1232,-852.5728 829.1232,-852.5728 826.2409,-856.6584 825.4462,-849.9787 823.3586,-860.744 823.3586,-860.744"/>
<polygon fill="#4f2822" stroke="#4f2822" points="812.5377,-900.4895 810.149,-911.192 813.547,-905.3866 814.5563,-910.2837 814.5563,-910.2837 814.5563,-910.2837 813.547,-905.3866 818.9637,-909.3753 812.5377,-900.4895 812.5377,-900.4895"/>
<text text-anchor="middle" x="874.5319" y="-873.8" font-family="Times,serif" font-size="14.00" fill="#000000">primary_hackrooms</text>
</g>
<!-- Language&#45;&gt;HackroomLanguage -->
<g id="edge14" class="edge">
<title>Language&#45;&gt;HackroomLanguage</title>
<path fill="none" stroke="#887ba6" d="M858.3913,-690.7818C833.6251,-668.1881 807.4025,-644.2657 784.6472,-623.5065"/>
<ellipse fill="none" stroke="#887ba6" cx="861.6568" cy="-693.7608" rx="4" ry="4"/>
<polygon fill="#887ba6" stroke="#887ba6" points="784.4579,-623.3338 780.1031,-613.2697 780.7641,-619.964 777.0703,-616.5942 777.0703,-616.5942 777.0703,-616.5942 780.7641,-619.964 774.0374,-619.9186 784.4579,-623.3338 784.4579,-623.3338"/>
</g>
<!-- Language&#45;&gt;HackroomPrimary -->
<g id="edge15" class="edge">
<title>Language&#45;&gt;HackroomPrimary</title>
<path fill="none" stroke="#73e411" d="M818.4429,-694.1655C803.8563,-687.5132 788.9297,-681.5924 774.1594,-677 695.2738,-652.4732 666.6948,-687.5086 589.1594,-659 565.8421,-650.4266 542.7817,-636.7572 522.5768,-622.5291"/>
<ellipse fill="none" stroke="#73e411" cx="822.4122" cy="-696.0169" rx="4" ry="4"/>
<polygon fill="#73e411" stroke="#73e411" points="522.5056,-622.4778 517.0272,-612.9784 518.4502,-619.553 514.3949,-616.6282 514.3949,-616.6282 514.3949,-616.6282 518.4502,-619.553 511.7626,-620.2781 522.5056,-622.4778 522.5056,-622.4778"/>
</g>
<!-- Sponsor -->
<g id="node20" class="node">
<title>Sponsor</title>
<path fill="none" stroke="#000000" d="M78.297,-474.5C78.297,-474.5 302.0217,-474.5 302.0217,-474.5 308.0217,-474.5 314.0217,-480.5 314.0217,-486.5 314.0217,-486.5 314.0217,-646.5 314.0217,-646.5 314.0217,-652.5 308.0217,-658.5 302.0217,-658.5 302.0217,-658.5 78.297,-658.5 78.297,-658.5 72.297,-658.5 66.297,-652.5 66.297,-646.5 66.297,-646.5 66.297,-486.5 66.297,-486.5 66.297,-480.5 72.297,-474.5 78.297,-474.5"/>
<text text-anchor="middle" x="190.1594" y="-643.3" font-family="Times,serif" font-size="14.00" fill="#000000">Sponsor</text>
<polyline fill="none" stroke="#000000" points="66.297,-636.5 314.0217,-636.5 "/>
<text text-anchor="start" x="74.297" y="-621.3" font-family="Times,serif" font-size="14.00" fill="#000000">slug :character varying</text>
<text text-anchor="start" x="74.297" y="-607.3" font-family="Times,serif" font-size="14.00" fill="#000000">name :character varying</text>
<text text-anchor="start" x="74.297" y="-593.3" font-family="Times,serif" font-size="14.00" fill="#000000">description :text</text>
<text text-anchor="start" x="74.297" y="-579.3" font-family="Times,serif" font-size="14.00" fill="#000000">logo :character varying</text>
<text text-anchor="start" x="74.297" y="-565.3" font-family="Times,serif" font-size="14.00" fill="#000000">address :text</text>
<text text-anchor="start" x="74.297" y="-551.3" font-family="Times,serif" font-size="14.00" fill="#000000">created_at :timestamp without time zone</text>
<text text-anchor="start" x="74.297" y="-537.3" font-family="Times,serif" font-size="14.00" fill="#000000">updated_at :timestamp without time zone</text>
<text text-anchor="start" x="74.297" y="-523.3" font-family="Times,serif" font-size="14.00" fill="#000000">link :character varying</text>
<text text-anchor="start" x="74.297" y="-509.3" font-family="Times,serif" font-size="14.00" fill="#000000">description_heading :character varying</text>
<text text-anchor="start" x="74.297" y="-495.3" font-family="Times,serif" font-size="14.00" fill="#000000">listed :boolean</text>
<text text-anchor="start" x="74.297" y="-481.3" font-family="Times,serif" font-size="14.00" fill="#000000">id :integer</text>
</g>
<!-- Language&#45;&gt;Sponsor -->
<g id="edge22" class="edge">
<title>Language&#45;&gt;Sponsor</title>
<path fill="none" stroke="#5307d9" d="M816.7095,-718.2807C791.9497,-709.6059 766.042,-701.6634 741.1594,-696 562.5027,-655.3372 500.6602,-720.243 323.6701,-658.8562"/>
<polygon fill="#5307d9" stroke="#5307d9" points="816.7176,-718.2835 824.6286,-725.8773 821.4279,-719.9608 826.1382,-721.6381 826.1382,-721.6381 826.1382,-721.6381 821.4279,-719.9608 827.6477,-717.3988 816.7176,-718.2835 816.7176,-718.2835"/>
<polygon fill="#5307d9" stroke="#5307d9" points="323.4798,-658.7886 315.5653,-651.1985 318.7688,-657.1135 314.0577,-655.4385 314.0577,-655.4385 314.0577,-655.4385 318.7688,-657.1135 312.5501,-659.6784 323.4798,-658.7886 323.4798,-658.7886"/>
</g>
<!-- SponsorLanguage -->
<g id="node21" class="node">
<title>SponsorLanguage</title>
<path fill="none" stroke="#000000" d="M493.297,-301.5C493.297,-301.5 717.0217,-301.5 717.0217,-301.5 723.0217,-301.5 729.0217,-307.5 729.0217,-313.5 729.0217,-313.5 729.0217,-389.5 729.0217,-389.5 729.0217,-395.5 723.0217,-401.5 717.0217,-401.5 717.0217,-401.5 493.297,-401.5 493.297,-401.5 487.297,-401.5 481.297,-395.5 481.297,-389.5 481.297,-389.5 481.297,-313.5 481.297,-313.5 481.297,-307.5 487.297,-301.5 493.297,-301.5"/>
<text text-anchor="middle" x="605.1594" y="-386.3" font-family="Times,serif" font-size="14.00" fill="#000000">SponsorLanguage</text>
<polyline fill="none" stroke="#000000" points="481.297,-379.5 729.0217,-379.5 "/>
<text text-anchor="start" x="489.297" y="-364.3" font-family="Times,serif" font-size="14.00" fill="#000000">id :integer</text>
<text text-anchor="start" x="489.297" y="-350.3" font-family="Times,serif" font-size="14.00" fill="#000000">sponsor_id :integer</text>
<text text-anchor="start" x="489.297" y="-336.3" font-family="Times,serif" font-size="14.00" fill="#000000">language_id :integer</text>
<text text-anchor="start" x="489.297" y="-322.3" font-family="Times,serif" font-size="14.00" fill="#000000">created_at :timestamp without time zone</text>
<text text-anchor="start" x="489.297" y="-308.3" font-family="Times,serif" font-size="14.00" fill="#000000">updated_at :timestamp without time zone</text>
</g>
<!-- Language&#45;&gt;SponsorLanguage -->
<g id="edge21" class="edge">
<title>Language&#45;&gt;SponsorLanguage</title>
<path fill="none" stroke="#39f003" d="M902.441,-688.8889C900.9163,-685.2464 899.4803,-681.6076 898.1594,-678 866.3001,-590.9904 912.0771,-547.1167 855.1594,-474 825.7705,-436.2469 781.7311,-409.3744 738.765,-390.6127"/>
<ellipse fill="none" stroke="#39f003" cx="904.0932" cy="-692.6933" rx="4" ry="4"/>
<polygon fill="#39f003" stroke="#39f003" points="738.5373,-390.5162 731.0872,-382.4697 733.9339,-388.5644 729.3306,-386.6127 729.3306,-386.6127 729.3306,-386.6127 733.9339,-388.5644 727.574,-390.7557 738.5373,-390.5162 738.5373,-390.5162"/>
</g>
<!-- Language&#45;&gt;User -->
<g id="edge18" class="edge">
<title>Language&#45;&gt;User</title>
<path fill="none" stroke="#a97d28" d="M1083.3481,-818.5551C1125.4244,-838.3863 1168.604,-865.8967 1198.1594,-903 1260.2185,-980.9079 1216.057,-1027.9718 1254.1594,-1120 1255.3759,-1122.9382 1256.6196,-1125.883 1257.8887,-1128.8325"/>
<polygon fill="#a97d28" stroke="#a97d28" points="1083.1975,-818.486 1075.9875,-810.2235 1078.6536,-816.3995 1074.1097,-814.313 1074.1097,-814.313 1074.1097,-814.313 1078.6536,-816.3995 1072.2319,-818.4025 1083.1975,-818.486 1083.1975,-818.486"/>
<polygon fill="#a97d28" stroke="#a97d28" points="1258.0094,-1129.1077 1257.9047,-1140.0731 1260.0176,-1133.6867 1262.0258,-1138.2657 1262.0258,-1138.2657 1262.0258,-1138.2657 1260.0176,-1133.6867 1266.1469,-1136.4583 1258.0094,-1129.1077 1258.0094,-1129.1077"/>
</g>
<!-- Language&#45;&gt;User -->
<g id="edge20" class="edge">
<title>Language&#45;&gt;User</title>
<path fill="none" stroke="#482345" d="M1083.8065,-802.1724C1139.9518,-820.9333 1200.2247,-851.9902 1235.1594,-903 1283.0893,-972.9849 1254.6297,-1007.7365 1282.0695,-1088 1286.6384,-1101.3644 1291.5476,-1114.9602 1296.6895,-1128.6197"/>
<polygon fill="#482345" stroke="#482345" points="1083.6248,-802.1137 1075.4934,-794.7564 1078.8672,-800.576 1074.1095,-799.0383 1074.1095,-799.0383 1074.1095,-799.0383 1078.8672,-800.576 1072.7255,-803.3202 1083.6248,-802.1137 1083.6248,-802.1137"/>
<polygon fill="#482345" stroke="#482345" points="1296.7338,-1128.7362 1296.0786,-1139.6825 1298.5095,-1133.4103 1300.2852,-1138.0844 1300.2852,-1138.0844 1300.2852,-1138.0844 1298.5095,-1133.4103 1304.4919,-1136.4862 1296.7338,-1128.7362 1296.7338,-1128.7362"/>
<text text-anchor="middle" x="1322.2043" y="-991.3" font-family="Times,serif" font-size="14.00" fill="#000000">primary_users</text>
</g>
<!-- UserLanguage -->
<g id="node27" class="node">
<title>UserLanguage</title>
<path fill="none" stroke="#000000" d="M990.297,-516.5C990.297,-516.5 1214.0217,-516.5 1214.0217,-516.5 1220.0217,-516.5 1226.0217,-522.5 1226.0217,-528.5 1226.0217,-528.5 1226.0217,-604.5 1226.0217,-604.5 1226.0217,-610.5 1220.0217,-616.5 1214.0217,-616.5 1214.0217,-616.5 990.297,-616.5 990.297,-616.5 984.297,-616.5 978.297,-610.5 978.297,-604.5 978.297,-604.5 978.297,-528.5 978.297,-528.5 978.297,-522.5 984.297,-516.5 990.297,-516.5"/>
<text text-anchor="middle" x="1102.1594" y="-601.3" font-family="Times,serif" font-size="14.00" fill="#000000">UserLanguage</text>
<polyline fill="none" stroke="#000000" points="978.297,-594.5 1226.0217,-594.5 "/>
<text text-anchor="start" x="986.297" y="-579.3" font-family="Times,serif" font-size="14.00" fill="#000000">id :integer</text>
<text text-anchor="start" x="986.297" y="-565.3" font-family="Times,serif" font-size="14.00" fill="#000000">user_id :integer</text>
<text text-anchor="start" x="986.297" y="-551.3" font-family="Times,serif" font-size="14.00" fill="#000000">language_id :integer</text>
<text text-anchor="start" x="986.297" y="-537.3" font-family="Times,serif" font-size="14.00" fill="#000000">created_at :timestamp without time zone</text>
<text text-anchor="start" x="986.297" y="-523.3" font-family="Times,serif" font-size="14.00" fill="#000000">updated_at :timestamp without time zone</text>
</g>
<!-- Language&#45;&gt;UserLanguage -->
<g id="edge17" class="edge">
<title>Language&#45;&gt;UserLanguage</title>
<path fill="none" stroke="#32647c" d="M1012.0335,-689.8301C1028.0075,-667.971 1044.8444,-644.931 1059.586,-624.7583"/>
<ellipse fill="none" stroke="#32647c" cx="1009.5511" cy="-693.2271" rx="4" ry="4"/>
<polygon fill="#32647c" stroke="#32647c" points="1059.6519,-624.6681 1069.1854,-619.2492 1062.602,-620.6311 1065.5521,-616.5942 1065.5521,-616.5942 1065.5521,-616.5942 1062.602,-620.6311 1061.9188,-613.9391 1059.6519,-624.6681 1059.6519,-624.6681"/>
</g>
<!-- UserPrimary -->
<g id="node28" class="node">
<title>UserPrimary</title>
<path fill="none" stroke="#000000" d="M1294.297,-516.5C1294.297,-516.5 1518.0217,-516.5 1518.0217,-516.5 1524.0217,-516.5 1530.0217,-522.5 1530.0217,-528.5 1530.0217,-528.5 1530.0217,-604.5 1530.0217,-604.5 1530.0217,-610.5 1524.0217,-616.5 1518.0217,-616.5 1518.0217,-616.5 1294.297,-616.5 1294.297,-616.5 1288.297,-616.5 1282.297,-610.5 1282.297,-604.5 1282.297,-604.5 1282.297,-528.5 1282.297,-528.5 1282.297,-522.5 1288.297,-516.5 1294.297,-516.5"/>
<text text-anchor="middle" x="1406.1594" y="-601.3" font-family="Times,serif" font-size="14.00" fill="#000000">UserPrimary</text>
<polyline fill="none" stroke="#000000" points="1282.297,-594.5 1530.0217,-594.5 "/>
<text text-anchor="start" x="1290.297" y="-579.3" font-family="Times,serif" font-size="14.00" fill="#000000">id :integer</text>
<text text-anchor="start" x="1290.297" y="-565.3" font-family="Times,serif" font-size="14.00" fill="#000000">user_id :integer</text>
<text text-anchor="start" x="1290.297" y="-551.3" font-family="Times,serif" font-size="14.00" fill="#000000">language_id :integer</text>
<text text-anchor="start" x="1290.297" y="-537.3" font-family="Times,serif" font-size="14.00" fill="#000000">created_at :timestamp without time zone</text>
<text text-anchor="start" x="1290.297" y="-523.3" font-family="Times,serif" font-size="14.00" fill="#000000">updated_at :timestamp without time zone</text>
</g>
<!-- Language&#45;&gt;UserPrimary -->
<g id="edge19" class="edge">
<title>Language&#45;&gt;UserPrimary</title>
<path fill="none" stroke="#6da558" d="M1081.6445,-724.7439C1130.3788,-705.3821 1185.7796,-682.274 1235.1594,-659 1259.3894,-647.5797 1285.0302,-634.3506 1308.8786,-621.5317"/>
<ellipse fill="none" stroke="#6da558" cx="1077.9125" cy="-726.2223" rx="4" ry="4"/>
<polygon fill="#6da558" stroke="#6da558" points="1309.1266,-621.3976 1320.0636,-620.6023 1313.5254,-619.0205 1317.9242,-616.6434 1317.9242,-616.6434 1317.9242,-616.6434 1313.5254,-619.0205 1315.7848,-612.6845 1309.1266,-621.3976 1309.1266,-621.3976"/>
</g>
<!-- Meetup -->
<g id="node13" class="node">
<title>Meetup</title>
<path fill="none" stroke="#000000" d="M1484.2868,-266.5C1484.2868,-266.5 1708.0319,-266.5 1708.0319,-266.5 1714.0319,-266.5 1720.0319,-272.5 1720.0319,-278.5 1720.0319,-278.5 1720.0319,-424.5 1720.0319,-424.5 1720.0319,-430.5 1714.0319,-436.5 1708.0319,-436.5 1708.0319,-436.5 1484.2868,-436.5 1484.2868,-436.5 1478.2868,-436.5 1472.2868,-430.5 1472.2868,-424.5 1472.2868,-424.5 1472.2868,-278.5 1472.2868,-278.5 1472.2868,-272.5 1478.2868,-266.5 1484.2868,-266.5"/>
<text text-anchor="middle" x="1596.1594" y="-421.3" font-family="Times,serif" font-size="14.00" fill="#000000">Meetup</text>
<polyline fill="none" stroke="#000000" points="1472.2868,-414.5 1720.0319,-414.5 "/>
<text text-anchor="start" x="1480.2868" y="-399.3" font-family="Times,serif" font-size="14.00" fill="#000000">author_id :integer</text>
<text text-anchor="start" x="1480.2868" y="-385.3" font-family="Times,serif" font-size="14.00" fill="#000000">name :character varying</text>
<text text-anchor="start" x="1480.2868" y="-371.3" font-family="Times,serif" font-size="14.00" fill="#000000">description :text</text>
<text text-anchor="start" x="1480.2868" y="-357.3" font-family="Times,serif" font-size="14.00" fill="#000000">slug :character varying</text>
<text text-anchor="start" x="1480.2868" y="-343.3" font-family="Times,serif" font-size="14.00" fill="#000000">date :timestamp without time zone</text>
<text text-anchor="start" x="1480.2868" y="-329.3" font-family="Times,serif" font-size="14.00" fill="#000000">created_at :timestamp without time zone</text>
<text text-anchor="start" x="1480.2868" y="-315.3" font-family="Times,serif" font-size="14.00" fill="#000000">updated_at :timestamp without time zone</text>
<text text-anchor="start" x="1480.2868" y="-301.3" font-family="Times,serif" font-size="14.00" fill="#000000">sponsor_id :integer</text>
<text text-anchor="start" x="1480.2868" y="-287.3" font-family="Times,serif" font-size="14.00" fill="#000000">finish_date :timestamp without time zone</text>
<text text-anchor="start" x="1480.2868" y="-273.3" font-family="Times,serif" font-size="14.00" fill="#000000">id :integer</text>
</g>
<!-- Meetup&#45;&gt;Comment -->
<g id="edge29" class="edge">
<title>Meetup&#45;&gt;Comment</title>
<path fill="none" stroke="#b52c14" d="M1464.9996,-277.0994C1439.5185,-262.6452 1412.7875,-247.4821 1387.2451,-232.9931"/>
<ellipse fill="none" stroke="#b52c14" cx="1468.7267" cy="-279.2136" rx="4" ry="4"/>
<polygon fill="#b52c14" stroke="#b52c14" points="1386.962,-232.8325 1380.4842,-223.9844 1382.613,-230.3655 1378.2639,-227.8985 1378.2639,-227.8985 1378.2639,-227.8985 1382.613,-230.3655 1376.0436,-231.8126 1386.962,-232.8325 1386.962,-232.8325"/>
</g>
<!-- Meetup&#45;&gt;Language -->
<g id="edge28" class="edge">
<title>Meetup&#45;&gt;Language</title>
<path fill="none" stroke="#d4ed5f" d="M1461.8377,-358.9926C1297.2984,-371.2193 1032.5467,-401.8007 969.1594,-474 942.3416,-504.546 941.095,-608.8771 944.2481,-686.073"/>
<polygon fill="#d4ed5f" stroke="#d4ed5f" points="1462.0646,-358.9762 1472.3655,-362.7366 1467.0513,-358.6124 1472.0381,-358.2486 1472.0381,-358.2486 1472.0381,-358.2486 1467.0513,-358.6124 1471.7107,-353.7605 1462.0646,-358.9762 1462.0646,-358.9762"/>
<polygon fill="#d4ed5f" stroke="#d4ed5f" points="944.2583,-686.3072 940.2019,-696.4952 944.4779,-691.3024 944.6975,-696.2976 944.6975,-696.2976 944.6975,-696.2976 944.4779,-691.3024 949.1932,-696.0999 944.2583,-686.3072 944.2583,-686.3072"/>
</g>
<!-- MeetupRsvp -->
<g id="node14" class="node">
<title>MeetupRsvp</title>
<path fill="none" stroke="#000000" d="M2047.297,-107.5C2047.297,-107.5 2271.0217,-107.5 2271.0217,-107.5 2277.0217,-107.5 2283.0217,-113.5 2283.0217,-119.5 2283.0217,-119.5 2283.0217,-195.5 2283.0217,-195.5 2283.0217,-201.5 2277.0217,-207.5 2271.0217,-207.5 2271.0217,-207.5 2047.297,-207.5 2047.297,-207.5 2041.297,-207.5 2035.297,-201.5 2035.297,-195.5 2035.297,-195.5 2035.297,-119.5 2035.297,-119.5 2035.297,-113.5 2041.297,-107.5 2047.297,-107.5"/>
<text text-anchor="middle" x="2159.1594" y="-192.3" font-family="Times,serif" font-size="14.00" fill="#000000">MeetupRsvp</text>
<polyline fill="none" stroke="#000000" points="2035.297,-185.5 2283.0217,-185.5 "/>
<text text-anchor="start" x="2043.297" y="-170.3" font-family="Times,serif" font-size="14.00" fill="#000000">id :integer</text>
<text text-anchor="start" x="2043.297" y="-156.3" font-family="Times,serif" font-size="14.00" fill="#000000">user_id :integer</text>
<text text-anchor="start" x="2043.297" y="-142.3" font-family="Times,serif" font-size="14.00" fill="#000000">meetup_id :integer</text>
<text text-anchor="start" x="2043.297" y="-128.3" font-family="Times,serif" font-size="14.00" fill="#000000">created_at :timestamp without time zone</text>
<text text-anchor="start" x="2043.297" y="-114.3" font-family="Times,serif" font-size="14.00" fill="#000000">updated_at :timestamp without time zone</text>
</g>
<!-- Meetup&#45;&gt;MeetupRsvp -->
<g id="edge24" class="edge">
<title>Meetup&#45;&gt;MeetupRsvp</title>
<path fill="none" stroke="#919e3c" d="M1727.8112,-306.1351C1817.3298,-275.2885 1935.3836,-234.6092 2025.3548,-203.6067"/>
<ellipse fill="none" stroke="#919e3c" cx="1723.8422" cy="-307.5027" rx="4" ry="4"/>
<polygon fill="#919e3c" stroke="#919e3c" points="2025.6207,-203.5152 2036.5412,-204.5118 2030.3479,-201.8862 2035.0752,-200.2573 2035.0752,-200.2573 2035.0752,-200.2573 2030.3479,-201.8862 2033.6091,-196.0028 2025.6207,-203.5152 2025.6207,-203.5152"/>
</g>
<!-- Meetup&#45;&gt;User -->
<g id="edge25" class="edge">
<title>Meetup&#45;&gt;User</title>
<path fill="none" stroke="#0b59d8" d="M1582.8113,-446.8205C1570.371,-530.6592 1551.8777,-641.9627 1539.1594,-659 1517.5049,-688.0078 1486.6576,-665.8654 1466.6008,-696 1454.3245,-714.4446 1438.9414,-939.1935 1428.0182,-1128.2864"/>
<polygon fill="#0b59d8" stroke="#0b59d8" points="1582.8388,-446.6336 1588.7495,-437.397 1583.5682,-441.6871 1584.2976,-436.7405 1584.2976,-436.7405 1584.2976,-436.7405 1583.5682,-441.6871 1579.8458,-436.0841 1582.8388,-446.6336 1582.8388,-446.6336"/>
<polygon fill="#0b59d8" stroke="#0b59d8" points="1428.0107,-1128.4174 1422.9436,-1138.1424 1427.7235,-1133.4092 1427.4362,-1138.4009 1427.4362,-1138.4009 1427.4362,-1138.4009 1427.7235,-1133.4092 1431.9288,-1138.6595 1428.0107,-1128.4174 1428.0107,-1128.4174"/>
<text text-anchor="middle" x="1481.9387" y="-770.3" font-family="Times,serif" font-size="14.00" fill="#000000">rsvps</text>
</g>
<!-- Meetup&#45;&gt;User -->
<g id="edge26" class="edge">
<title>Meetup&#45;&gt;User</title>
<path fill="none" stroke="#9275ba" d="M1606.8294,-447.1927C1609.7129,-510.4283 1605.2933,-593.4257 1573.1594,-659 1562.3584,-681.0411 1543.9775,-674.4872 1532.1594,-696 1521.3876,-715.6079 1484.4624,-939.4649 1454.7527,-1127.9942"/>
<polygon fill="#9275ba" stroke="#9275ba" points="1606.8093,-446.808 1610.7773,-436.5852 1606.5464,-441.8149 1606.2835,-436.8218 1606.2835,-436.8218 1606.2835,-436.8218 1606.5464,-441.8149 1601.7897,-437.0585 1606.8093,-446.808 1606.8093,-446.808"/>
<polygon fill="#9275ba" stroke="#9275ba" points="1454.7203,-1128.2004 1448.7198,-1137.3789 1453.9427,-1133.1396 1453.1651,-1138.0788 1453.1651,-1138.0788 1453.1651,-1138.0788 1453.9427,-1133.1396 1457.6103,-1138.7786 1454.7203,-1128.2004 1454.7203,-1128.2004"/>
<text text-anchor="middle" x="1577.6594" y="-770.3" font-family="Times,serif" font-size="14.00" fill="#000000">sponsor_admins</text>
</g>
<!-- Meetup&#45;&gt;User -->
<g id="edge27" class="edge">
<title>Meetup&#45;&gt;User</title>
<path fill="none" stroke="#7c93c4" d="M1621.0037,-446.7982C1621.4315,-449.5548 1621.8188,-452.2929 1622.1594,-455 1635.5276,-561.2745 1622.9371,-588.8882 1623.1594,-696 1623.3041,-765.7776 1636.0022,-784.4143 1623.1594,-853 1605.7958,-945.7278 1572.9713,-1043.022 1538.3934,-1129.0053"/>
<polygon fill="#7c93c4" stroke="#7c93c4" points="1620.9727,-446.6158 1623.7261,-436.0013 1620.1315,-441.6871 1619.2902,-436.7584 1619.2902,-436.7584 1619.2902,-436.7584 1620.1315,-441.6871 1614.8544,-437.5155 1620.9727,-446.6158 1620.9727,-446.6158"/>
<polygon fill="#7c93c4" stroke="#7c93c4" points="1538.3595,-1129.0891 1530.436,-1136.67 1536.4834,-1133.7238 1534.6073,-1138.3585 1534.6073,-1138.3585 1534.6073,-1138.3585 1536.4834,-1133.7238 1538.7785,-1140.047 1538.3595,-1129.0891 1538.3595,-1129.0891"/>
<text text-anchor="middle" x="1657.8054" y="-770.3" font-family="Times,serif" font-size="14.00" fill="#000000">organisers</text>
</g>
<!-- Notification -->
<g id="node15" class="node">
<title>Notification</title>
<path fill="none" stroke="#000000" d="M1750.297,-917.5C1750.297,-917.5 1974.0217,-917.5 1974.0217,-917.5 1980.0217,-917.5 1986.0217,-923.5 1986.0217,-929.5 1986.0217,-929.5 1986.0217,-1061.5 1986.0217,-1061.5 1986.0217,-1067.5 1980.0217,-1073.5 1974.0217,-1073.5 1974.0217,-1073.5 1750.297,-1073.5 1750.297,-1073.5 1744.297,-1073.5 1738.297,-1067.5 1738.297,-1061.5 1738.297,-1061.5 1738.297,-929.5 1738.297,-929.5 1738.297,-923.5 1744.297,-917.5 1750.297,-917.5"/>
<text text-anchor="middle" x="1862.1594" y="-1058.3" font-family="Times,serif" font-size="14.00" fill="#000000">Notification</text>
<polyline fill="none" stroke="#000000" points="1738.297,-1051.5 1986.0217,-1051.5 "/>
<text text-anchor="start" x="1746.297" y="-1036.3" font-family="Times,serif" font-size="14.00" fill="#000000">updated_at :timestamp without time zone</text>
<text text-anchor="start" x="1746.297" y="-1022.3" font-family="Times,serif" font-size="14.00" fill="#000000">user_id :integer</text>
<text text-anchor="start" x="1746.297" y="-1008.3" font-family="Times,serif" font-size="14.00" fill="#000000">notified_by_id :integer</text>
<text text-anchor="start" x="1746.297" y="-994.3" font-family="Times,serif" font-size="14.00" fill="#000000">action :character varying</text>
<text text-anchor="start" x="1746.297" y="-980.3" font-family="Times,serif" font-size="14.00" fill="#000000">notifiable_type :character varying</text>
<text text-anchor="start" x="1746.297" y="-966.3" font-family="Times,serif" font-size="14.00" fill="#000000">notifiable_id :integer</text>
<text text-anchor="start" x="1746.297" y="-952.3" font-family="Times,serif" font-size="14.00" fill="#000000">read :boolean</text>
<text text-anchor="start" x="1746.297" y="-938.3" font-family="Times,serif" font-size="14.00" fill="#000000">created_at :timestamp without time zone</text>
<text text-anchor="start" x="1746.297" y="-924.3" font-family="Times,serif" font-size="14.00" fill="#000000">id :integer</text>
</g>
<!-- Post -->
<g id="node16" class="node">
<title>Post</title>
<path fill="none" stroke="#000000" d="M2282.297,-903.5C2282.297,-903.5 2506.0217,-903.5 2506.0217,-903.5 2512.0217,-903.5 2518.0217,-909.5 2518.0217,-915.5 2518.0217,-915.5 2518.0217,-1075.5 2518.0217,-1075.5 2518.0217,-1081.5 2512.0217,-1087.5 2506.0217,-1087.5 2506.0217,-1087.5 2282.297,-1087.5 2282.297,-1087.5 2276.297,-1087.5 2270.297,-1081.5 2270.297,-1075.5 2270.297,-1075.5 2270.297,-915.5 2270.297,-915.5 2270.297,-909.5 2276.297,-903.5 2282.297,-903.5"/>
<text text-anchor="middle" x="2394.1594" y="-1072.3" font-family="Times,serif" font-size="14.00" fill="#000000">Post</text>
<polyline fill="none" stroke="#000000" points="2270.297,-1065.5 2518.0217,-1065.5 "/>
<text text-anchor="start" x="2278.297" y="-1050.3" font-family="Times,serif" font-size="14.00" fill="#000000">announced :boolean</text>
<text text-anchor="start" x="2278.297" y="-1036.3" font-family="Times,serif" font-size="14.00" fill="#000000">title :character varying</text>
<text text-anchor="start" x="2278.297" y="-1022.3" font-family="Times,serif" font-size="14.00" fill="#000000">content :text</text>
<text text-anchor="start" x="2278.297" y="-1008.3" font-family="Times,serif" font-size="14.00" fill="#000000">created_at :timestamp without time zone</text>
<text text-anchor="start" x="2278.297" y="-994.3" font-family="Times,serif" font-size="14.00" fill="#000000">updated_at :timestamp without time zone</text>
<text text-anchor="start" x="2278.297" y="-980.3" font-family="Times,serif" font-size="14.00" fill="#000000">created_by_id :integer</text>
<text text-anchor="start" x="2278.297" y="-966.3" font-family="Times,serif" font-size="14.00" fill="#000000">slug :character varying</text>
<text text-anchor="start" x="2278.297" y="-952.3" font-family="Times,serif" font-size="14.00" fill="#000000">featured :boolean</text>
<text text-anchor="start" x="2278.297" y="-938.3" font-family="Times,serif" font-size="14.00" fill="#000000">description :character varying</text>
<text text-anchor="start" x="2278.297" y="-924.3" font-family="Times,serif" font-size="14.00" fill="#000000">twitter_image :character varying</text>
<text text-anchor="start" x="2278.297" y="-910.3" font-family="Times,serif" font-size="14.00" fill="#000000">id :integer</text>
</g>
<!-- Post&#45;&gt;Comment -->
<g id="edge32" class="edge">
<title>Post&#45;&gt;Comment</title>
<path fill="none" stroke="#5be094" d="M2262.5642,-903.5755C2262.096,-903.3818 2261.6277,-903.19 2261.1594,-903 2134.2743,-851.5312 2062.7661,-940.1553 1957.1594,-853 1928.4732,-829.3259 1928.1594,-811.6935 1928.1594,-774.5 1928.1594,-774.5 1928.1594,-774.5 1928.1594,-351.5 1928.1594,-240.269 1584.8785,-188.9936 1388.2924,-168.7494"/>
<ellipse fill="none" stroke="#5be094" cx="2266.4742" cy="-905.2754" rx="4" ry="4"/>
<polygon fill="#5be094" stroke="#5be094" points="1388.1226,-168.7323 1378.6287,-163.2445 1383.1483,-168.2269 1378.1739,-167.7214 1378.1739,-167.7214 1378.1739,-167.7214 1383.1483,-168.2269 1377.719,-172.1984 1388.1226,-168.7323 1388.1226,-168.7323"/>
</g>
<!-- PostAttachment -->
<g id="node17" class="node">
<title>PostAttachment</title>
<path fill="none" stroke="#000000" d="M2282.297,-724.5C2282.297,-724.5 2506.0217,-724.5 2506.0217,-724.5 2512.0217,-724.5 2518.0217,-730.5 2518.0217,-736.5 2518.0217,-736.5 2518.0217,-812.5 2518.0217,-812.5 2518.0217,-818.5 2512.0217,-824.5 2506.0217,-824.5 2506.0217,-824.5 2282.297,-824.5 2282.297,-824.5 2276.297,-824.5 2270.297,-818.5 2270.297,-812.5 2270.297,-812.5 2270.297,-736.5 2270.297,-736.5 2270.297,-730.5 2276.297,-724.5 2282.297,-724.5"/>
<text text-anchor="middle" x="2394.1594" y="-809.3" font-family="Times,serif" font-size="14.00" fill="#000000">PostAttachment</text>
<polyline fill="none" stroke="#000000" points="2270.297,-802.5 2518.0217,-802.5 "/>
<text text-anchor="start" x="2278.297" y="-787.3" font-family="Times,serif" font-size="14.00" fill="#000000">id :integer</text>
<text text-anchor="start" x="2278.297" y="-773.3" font-family="Times,serif" font-size="14.00" fill="#000000">post_id :integer</text>
<text text-anchor="start" x="2278.297" y="-759.3" font-family="Times,serif" font-size="14.00" fill="#000000">avatar :character varying</text>
<text text-anchor="start" x="2278.297" y="-745.3" font-family="Times,serif" font-size="14.00" fill="#000000">created_at :timestamp without time zone</text>
<text text-anchor="start" x="2278.297" y="-731.3" font-family="Times,serif" font-size="14.00" fill="#000000">updated_at :timestamp without time zone</text>
</g>
<!-- Post&#45;&gt;PostAttachment -->
<g id="edge33" class="edge">
<title>Post&#45;&gt;PostAttachment</title>
<path fill="none" stroke="#e74924" d="M2394.1594,-895.1091C2394.1594,-874.4592 2394.1594,-853.3344 2394.1594,-834.6519"/>
<ellipse fill="none" stroke="#e74924" cx="2394.1594" cy="-899.3764" rx="4" ry="4"/>
<polygon fill="#e74924" stroke="#e74924" points="2394.1595,-834.5426 2398.6594,-824.5425 2394.1594,-829.5426 2394.1594,-824.5426 2394.1594,-824.5426 2394.1594,-824.5426 2394.1594,-829.5426 2389.6594,-824.5426 2394.1595,-834.5426 2394.1595,-834.5426"/>
</g>
<!-- PostTag -->
<g id="node18" class="node">
<title>PostTag</title>
<path fill="none" stroke="#000000" d="M2086.297,-516.5C2086.297,-516.5 2310.0217,-516.5 2310.0217,-516.5 2316.0217,-516.5 2322.0217,-522.5 2322.0217,-528.5 2322.0217,-528.5 2322.0217,-604.5 2322.0217,-604.5 2322.0217,-610.5 2316.0217,-616.5 2310.0217,-616.5 2310.0217,-616.5 2086.297,-616.5 2086.297,-616.5 2080.297,-616.5 2074.297,-610.5 2074.297,-604.5 2074.297,-604.5 2074.297,-528.5 2074.297,-528.5 2074.297,-522.5 2080.297,-516.5 2086.297,-516.5"/>
<text text-anchor="middle" x="2198.1594" y="-601.3" font-family="Times,serif" font-size="14.00" fill="#000000">PostTag</text>
<polyline fill="none" stroke="#000000" points="2074.297,-594.5 2322.0217,-594.5 "/>
<text text-anchor="start" x="2082.297" y="-579.3" font-family="Times,serif" font-size="14.00" fill="#000000">id :integer</text>
<text text-anchor="start" x="2082.297" y="-565.3" font-family="Times,serif" font-size="14.00" fill="#000000">post_id :integer</text>
<text text-anchor="start" x="2082.297" y="-551.3" font-family="Times,serif" font-size="14.00" fill="#000000">tag_id :integer</text>
<text text-anchor="start" x="2082.297" y="-537.3" font-family="Times,serif" font-size="14.00" fill="#000000">created_at :timestamp without time zone</text>
<text text-anchor="start" x="2082.297" y="-523.3" font-family="Times,serif" font-size="14.00" fill="#000000">updated_at :timestamp without time zone</text>
</g>
<!-- Post&#45;&gt;PostTag -->
<g id="edge30" class="edge">
<title>Post&#45;&gt;PostTag</title>
<path fill="none" stroke="#47e4f9" d="M2290.1572,-896.8846C2279.1856,-882.9689 2269.1432,-868.1983 2261.1594,-853 2250.7187,-833.1247 2224.771,-704.7007 2209.6323,-626.6947"/>
<ellipse fill="none" stroke="#47e4f9" cx="2292.7498" cy="-900.1019" rx="4" ry="4"/>
<polygon fill="#47e4f9" stroke="#47e4f9" points="2209.5608,-626.3249 2212.079,-615.6521 2208.6109,-621.4159 2207.6609,-616.507 2207.6609,-616.507 2207.6609,-616.507 2208.6109,-621.4159 2203.2429,-617.3619 2209.5608,-626.3249 2209.5608,-626.3249"/>
</g>
<!-- Tag -->
<g id="node23" class="node">
<title>Tag</title>
<path fill="none" stroke="#000000" d="M1978.297,-724.5C1978.297,-724.5 2202.0217,-724.5 2202.0217,-724.5 2208.0217,-724.5 2214.0217,-730.5 2214.0217,-736.5 2214.0217,-736.5 2214.0217,-812.5 2214.0217,-812.5 2214.0217,-818.5 2208.0217,-824.5 2202.0217,-824.5 2202.0217,-824.5 1978.297,-824.5 1978.297,-824.5 1972.297,-824.5 1966.297,-818.5 1966.297,-812.5 1966.297,-812.5 1966.297,-736.5 1966.297,-736.5 1966.297,-730.5 1972.297,-724.5 1978.297,-724.5"/>
<text text-anchor="middle" x="2090.1594" y="-809.3" font-family="Times,serif" font-size="14.00" fill="#000000">Tag</text>
<polyline fill="none" stroke="#000000" points="1966.297,-802.5 2214.0217,-802.5 "/>
<text text-anchor="start" x="1974.297" y="-787.3" font-family="Times,serif" font-size="14.00" fill="#000000">id :integer</text>
<text text-anchor="start" x="1974.297" y="-773.3" font-family="Times,serif" font-size="14.00" fill="#000000">name :character varying</text>
<text text-anchor="start" x="1974.297" y="-759.3" font-family="Times,serif" font-size="14.00" fill="#000000">created_at :timestamp without time zone</text>
<text text-anchor="start" x="1974.297" y="-745.3" font-family="Times,serif" font-size="14.00" fill="#000000">updated_at :timestamp without time zone</text>
<text text-anchor="start" x="1974.297" y="-731.3" font-family="Times,serif" font-size="14.00" fill="#000000">creator_id :integer</text>
</g>
<!-- Post&#45;&gt;Tag -->
<g id="edge31" class="edge">
<title>Post&#45;&gt;Tag</title>
<path fill="none" stroke="#9bc2b4" d="M2261.7204,-903.347C2261.5333,-903.2312 2261.3463,-903.1155 2261.1594,-903 2246.9474,-894.2176 2242.0669,-894.2569 2228.1594,-885 2203.704,-868.7225 2178.2445,-849.1699 2155.9504,-831.0668"/>
<polygon fill="#9bc2b4" stroke="#9bc2b4" points="2261.7222,-903.3481 2267.8084,-912.47 2265.9597,-906.0022 2270.1971,-908.6563 2270.1971,-908.6563 2270.1971,-908.6563 2265.9597,-906.0022 2272.5858,-904.8426 2261.7222,-903.3481 2261.7222,-903.3481"/>
<polygon fill="#9bc2b4" stroke="#9bc2b4" points="2155.9448,-831.0622 2151.0523,-821.2482 2152.0742,-827.897 2148.2036,-824.7317 2148.2036,-824.7317 2148.2036,-824.7317 2152.0742,-827.897 2145.3549,-828.2152 2155.9448,-831.0622 2155.9448,-831.0622"/>
</g>
<!-- Role -->
<g id="node19" class="node">
<title>Role</title>
<path fill="none" stroke="#000000" d="M2133.297,-1710.5C2133.297,-1710.5 2357.0217,-1710.5 2357.0217,-1710.5 2363.0217,-1710.5 2369.0217,-1716.5 2369.0217,-1722.5 2369.0217,-1722.5 2369.0217,-1798.5 2369.0217,-1798.5 2369.0217,-1804.5 2363.0217,-1810.5 2357.0217,-1810.5 2357.0217,-1810.5 2133.297,-1810.5 2133.297,-1810.5 2127.297,-1810.5 2121.297,-1804.5 2121.297,-1798.5 2121.297,-1798.5 2121.297,-1722.5 2121.297,-1722.5 2121.297,-1716.5 2127.297,-1710.5 2133.297,-1710.5"/>
<text text-anchor="middle" x="2245.1594" y="-1795.3" font-family="Times,serif" font-size="14.00" fill="#000000">Role</text>
<polyline fill="none" stroke="#000000" points="2121.297,-1788.5 2369.0217,-1788.5 "/>
<text text-anchor="start" x="2129.297" y="-1773.3" font-family="Times,serif" font-size="14.00" fill="#000000">id :integer</text>
<text text-anchor="start" x="2129.297" y="-1759.3" font-family="Times,serif" font-size="14.00" fill="#000000">name :character varying</text>
<text text-anchor="start" x="2129.297" y="-1745.3" font-family="Times,serif" font-size="14.00" fill="#000000">created_at :timestamp without time zone</text>
<text text-anchor="start" x="2129.297" y="-1731.3" font-family="Times,serif" font-size="14.00" fill="#000000">updated_at :timestamp without time zone</text>
<text text-anchor="start" x="2129.297" y="-1717.3" font-family="Times,serif" font-size="14.00" fill="#000000">description :text</text>
</g>
<!-- Role&#45;&gt;Assignment -->
<g id="edge34" class="edge">
<title>Role&#45;&gt;Assignment</title>
<path fill="none" stroke="#a28304" d="M2279.0902,-1703.1995C2362.7787,-1561.8713 2578.3941,-1197.7525 2663.1765,-1054.577"/>
<ellipse fill="none" stroke="#a28304" cx="2276.9201" cy="-1706.8644" rx="4" ry="4"/>
<polygon fill="#a28304" stroke="#a28304" points="2663.232,-1054.4832 2672.1994,-1048.1715 2665.7797,-1050.1809 2668.3273,-1045.8786 2668.3273,-1045.8786 2668.3273,-1045.8786 2665.7797,-1050.1809 2664.4553,-1043.5857 2663.232,-1054.4832 2663.232,-1054.4832"/>
</g>
<!-- Role&#45;&gt;User -->
<g id="edge35" class="edge">
<title>Role&#45;&gt;User</title>
<path fill="none" stroke="#e408a9" d="M2155.3836,-1705.2456C2141.1036,-1697.1181 2126.3581,-1689.1019 2112.1594,-1682 1936.1549,-1593.9658 1726.8937,-1509.4063 1583.7002,-1454.4475"/>
<polygon fill="#e408a9" stroke="#e408a9" points="2155.5345,-1705.3322 2161.9641,-1714.2154 2159.87,-1707.8228 2164.2056,-1710.3133 2164.2056,-1710.3133 2164.2056,-1710.3133 2159.87,-1707.8228 2166.4471,-1706.4113 2155.5345,-1705.3322 2155.5345,-1705.3322"/>
<polygon fill="#e408a9" stroke="#e408a9" points="1583.2737,-1454.2841 1575.5456,-1446.5042 1578.6046,-1452.4952 1573.9356,-1450.7063 1573.9356,-1450.7063 1573.9356,-1450.7063 1578.6046,-1452.4952 1572.3256,-1454.9084 1583.2737,-1454.2841 1583.2737,-1454.2841"/>
</g>
<!-- Sponsor&#45;&gt;Meetup -->
<g id="edge36" class="edge">
<title>Sponsor&#45;&gt;Meetup</title>
<path fill="none" stroke="#47db8a" d="M321.7346,-474.5238C322.2094,-474.3471 322.6843,-474.1725 323.1594,-474 497.216,-410.7982 553.8029,-454.4034 738.1594,-437 994.2944,-412.8206 1293.223,-382.5715 1462.046,-365.3001"/>
<ellipse fill="none" stroke="#47db8a" cx="317.7775" cy="-476.0911" rx="4" ry="4"/>
<polygon fill="#47db8a" stroke="#47db8a" points="1462.28,-365.2763 1472.6862,-368.7347 1467.254,-364.7672 1472.228,-364.2581 1472.228,-364.2581 1472.228,-364.2581 1467.254,-364.7672 1471.7698,-359.7815 1462.28,-365.2763 1462.28,-365.2763"/>
</g>
<!-- Sponsor&#45;&gt;SponsorLanguage -->
<g id="edge39" class="edge">
<title>Sponsor&#45;&gt;SponsorLanguage</title>
<path fill="none" stroke="#470249" d="M321.2228,-475.0858C321.869,-474.7216 322.5146,-474.3596 323.1594,-474 370.1416,-447.7973 423.8369,-423.2401 471.6784,-403.0939"/>
<ellipse fill="none" stroke="#470249" cx="317.7462" cy="-477.0804" rx="4" ry="4"/>
<polygon fill="#470249" stroke="#470249" points="471.94,-402.9845 482.9021,-403.2755 476.5525,-401.0544 481.165,-399.1242 481.165,-399.1242 481.165,-399.1242 476.5525,-401.0544 479.4279,-394.973 471.94,-402.9845 471.94,-402.9845"/>
</g>
<!-- SponsorshipAdmin -->
<g id="node22" class="node">
<title>SponsorshipAdmin</title>
<path fill="none" stroke="#000000" d="M50.297,-301.5C50.297,-301.5 274.0217,-301.5 274.0217,-301.5 280.0217,-301.5 286.0217,-307.5 286.0217,-313.5 286.0217,-313.5 286.0217,-389.5 286.0217,-389.5 286.0217,-395.5 280.0217,-401.5 274.0217,-401.5 274.0217,-401.5 50.297,-401.5 50.297,-401.5 44.297,-401.5 38.297,-395.5 38.297,-389.5 38.297,-389.5 38.297,-313.5 38.297,-313.5 38.297,-307.5 44.297,-301.5 50.297,-301.5"/>
<text text-anchor="middle" x="162.1594" y="-386.3" font-family="Times,serif" font-size="14.00" fill="#000000">SponsorshipAdmin</text>
<polyline fill="none" stroke="#000000" points="38.297,-379.5 286.0217,-379.5 "/>
<text text-anchor="start" x="46.297" y="-364.3" font-family="Times,serif" font-size="14.00" fill="#000000">id :integer</text>
<text text-anchor="start" x="46.297" y="-350.3" font-family="Times,serif" font-size="14.00" fill="#000000">user_id :integer</text>
<text text-anchor="start" x="46.297" y="-336.3" font-family="Times,serif" font-size="14.00" fill="#000000">sponsor_id :integer</text>
<text text-anchor="start" x="46.297" y="-322.3" font-family="Times,serif" font-size="14.00" fill="#000000">created_at :timestamp without time zone</text>
<text text-anchor="start" x="46.297" y="-308.3" font-family="Times,serif" font-size="14.00" fill="#000000">updated_at :timestamp without time zone</text>
</g>
<!-- Sponsor&#45;&gt;SponsorshipAdmin -->
<g id="edge37" class="edge">
<title>Sponsor&#45;&gt;SponsorshipAdmin</title>
<path fill="none" stroke="#6f6652" d="M177.092,-466.1616C174.6771,-447.6187 172.2251,-428.7904 170.025,-411.8966"/>
<ellipse fill="none" stroke="#6f6652" cx="177.6464" cy="-470.4185" rx="4" ry="4"/>
<polygon fill="#6f6652" stroke="#6f6652" points="169.9817,-411.564 173.1525,-401.0665 169.336,-406.6059 168.6902,-401.6477 168.6902,-401.6477 168.6902,-401.6477 169.336,-406.6059 164.2279,-402.2289 169.9817,-411.564 169.9817,-411.564"/>
</g>
<!-- Sponsor&#45;&gt;User -->
<g id="edge38" class="edge">
<title>Sponsor&#45;&gt;User</title>
<path fill="none" stroke="#57cbb9" d="M180.0471,-668.831C178.5249,-725.4289 183.5358,-795.6884 209.1594,-853 268.8088,-986.4165 314.489,-1011.7418 439.1594,-1088 696.0194,-1245.1158 1041.2143,-1327.3451 1244.4711,-1364.8977"/>
<polygon fill="#57cbb9" stroke="#57cbb9" points="180.0486,-668.7841 184.8864,-658.943 180.2188,-663.787 180.389,-658.7898 180.389,-658.7898 180.389,-658.7898 180.2188,-663.787 175.8916,-658.6367 180.0486,-668.7841 180.0486,-668.7841"/>
<polygon fill="#57cbb9" stroke="#57cbb9" points="1244.506,-1364.904 1253.5309,-1371.1332 1249.4241,-1365.8055 1254.3422,-1366.7069 1254.3422,-1366.7069 1254.3422,-1366.7069 1249.4241,-1365.8055 1255.1535,-1362.2806 1244.506,-1364.904 1244.506,-1364.904"/>
</g>
<!-- Tag&#45;&gt;PostTag -->
<g id="edge40" class="edge">
<title>Tag&#45;&gt;PostTag</title>
<path fill="none" stroke="#9c9340" d="M2120.0257,-716.9796C2134.7937,-688.5375 2152.5936,-654.2562 2167.4716,-625.6023"/>
<ellipse fill="none" stroke="#9c9340" cx="2118.0088" cy="-720.8641" rx="4" ry="4"/>
<polygon fill="#9c9340" stroke="#9c9340" points="2167.5837,-625.3864 2176.1856,-618.5851 2169.8878,-620.9489 2172.1919,-616.5114 2172.1919,-616.5114 2172.1919,-616.5114 2169.8878,-620.9489 2168.1982,-614.4377 2167.5837,-625.3864 2167.5837,-625.3864"/>
</g>
<!-- User&#45;&gt;Assignment -->
<g id="edge41" class="edge">
<title>User&#45;&gt;Assignment</title>
<path fill="none" stroke="#c2f9d1" d="M1582.068,-1378.0026C1813.8265,-1353.7 2239.4382,-1288.3261 2560.1594,-1120 2592.3961,-1103.081 2623.0232,-1076.8918 2647.1977,-1052.8903"/>
<ellipse fill="none" stroke="#c2f9d1" cx="1577.8845" cy="-1378.4368" rx="4" ry="4"/>
<polygon fill="#c2f9d1" stroke="#c2f9d1" points="2647.4532,-1052.6321 2657.686,-1048.6899 2650.9704,-1049.0783 2654.4876,-1045.5245 2654.4876,-1045.5245 2654.4876,-1045.5245 2650.9704,-1049.0783 2651.2891,-1042.359 2647.4532,-1052.6321 2647.4532,-1052.6321"/>
</g>
<!-- User&#45;&gt;Comment -->
<g id="edge42" class="edge">
<title>User&#45;&gt;Comment</title>
<path fill="none" stroke="#1d6e4a" d="M1246.3402,-1367.7993C995.0257,-1329.8141 507.7224,-1246.4764 108.1594,-1120 73.9977,-1109.1866 58.7785,-1114.0355 34.1594,-1088 4.0656,-1056.1749 .1594,-1039.3003 .1594,-995.5 .1594,-995.5 .1594,-995.5 .1594,-351.5 .1594,-311.3737 -2.3903,-290.794 29.1594,-266 113.4749,-199.7388 819.9179,-170.6553 1120.0834,-161.206"/>
<ellipse fill="none" stroke="#1d6e4a" cx="1250.4879" cy="-1368.4244" rx="4" ry="4"/>
<polygon fill="#1d6e4a" stroke="#1d6e4a" points="1120.1574,-161.2038 1130.293,-165.3894 1125.155,-161.0477 1130.1525,-160.8916 1130.1525,-160.8916 1130.1525,-160.8916 1125.155,-161.0477 1130.0121,-156.3938 1120.1574,-161.2038 1120.1574,-161.2038"/>
</g>
<!-- User&#45;&gt;Hackroom -->
<g id="edge45" class="edge">
<title>User&#45;&gt;Hackroom</title>
<path fill="none" stroke="#71a235" d="M1245.4229,-1304.1438C1161.0404,-1256.0711 1060.2174,-1191.6709 980.6213,-1120 970.0138,-1110.4487 959.6944,-1099.6408 949.9837,-1088.4809"/>
<polygon fill="#71a235" stroke="#71a235" points="1245.6185,-1304.2546 1252.0991,-1313.1007 1249.9683,-1306.7202 1254.3182,-1309.1858 1254.3182,-1309.1858 1254.3182,-1309.1858 1249.9683,-1306.7202 1256.5372,-1305.271 1245.6185,-1304.2546 1245.6185,-1304.2546"/>
<polygon fill="#71a235" stroke="#71a235" points="949.8477,-1088.3213 946.7873,-1077.7911 946.6049,-1084.5154 943.362,-1080.7096 943.362,-1080.7096 943.362,-1080.7096 946.6049,-1084.5154 939.9368,-1083.6282 949.8477,-1088.3213 949.8477,-1088.3213"/>
<text text-anchor="middle" x="1027.4284" y="-1108.8" font-family="Times,serif" font-size="14.00" fill="#000000">own_hackrooms</text>
</g>
<!-- User&#45;&gt;HackroomOwner -->
<g id="edge44" class="edge">
<title>User&#45;&gt;HackroomOwner</title>
<path fill="none" stroke="#f015ce" d="M1246.5598,-1348.8464C1082.5678,-1301.9979 830.3969,-1215.9864 640.1594,-1088 534.3372,-1016.8058 437.7592,-902.0845 384.7398,-832.9313"/>
<ellipse fill="none" stroke="#f015ce" cx="1250.4541" cy="-1349.9537" rx="4" ry="4"/>
<polygon fill="#f015ce" stroke="#f015ce" points="384.552,-832.6847 382.072,-822.0029 381.5221,-828.7073 378.4923,-824.7298 378.4923,-824.7298 378.4923,-824.7298 381.5221,-828.7073 374.9126,-827.4567 384.552,-832.6847 384.552,-832.6847"/>
</g>
<!-- User&#45;&gt;Language -->
<g id="edge48" class="edge">
<title>User&#45;&gt;Language</title>
<path fill="none" stroke="#1fd6fe" d="M1246.5186,-1276.6371C1185.9901,-1226.0919 1123.5884,-1161.447 1086.8625,-1088 1043.4935,-1001.2678 1109.4789,-956.7291 1064.1594,-871 1062.3037,-867.4897 1060.2621,-864.0541 1058.0636,-860.6968"/>
<polygon fill="#1fd6fe" stroke="#1fd6fe" points="1246.564,-1276.6746 1251.406,-1286.5136 1250.4183,-1279.8597 1254.2725,-1283.0448 1254.2725,-1283.0448 1254.2725,-1283.0448 1250.4183,-1279.8597 1257.1391,-1279.5759 1246.564,-1276.6746 1246.564,-1276.6746"/>
<polygon fill="#1fd6fe" stroke="#1fd6fe" points="1058.0562,-860.6862 1055.9689,-849.9208 1055.1739,-856.6005 1052.2917,-852.5148 1052.2917,-852.5148 1052.2917,-852.5148 1055.1739,-856.6005 1048.6146,-855.1088 1058.0562,-860.6862 1058.0562,-860.6862"/>
<text text-anchor="middle" x="1140.8078" y="-991.3" font-family="Times,serif" font-size="14.00" fill="#000000">primary_languages</text>
</g>
<!-- User&#45;&gt;Meetup -->
<g id="edge50" class="edge">
<title>User&#45;&gt;Meetup</title>
<path fill="none" stroke="#ee5b6d" d="M1581.3748,-1255.8085C1621.1325,-1215.9281 1659.6544,-1169.5758 1686.1594,-1120 1732.5153,-1033.2942 1667.2388,-979.3716 1729.1594,-903 1764.7734,-859.0743 1815.0051,-900.1936 1846.1594,-853 1946.2924,-701.3147 1866.2273,-596.5046 1752.1594,-455 1744.981,-446.0951 1736.8283,-437.6826 1728.1048,-429.7954"/>
<polygon fill="#ee5b6d" stroke="#ee5b6d" points="1581.0414,-1256.139 1570.7714,-1259.9831 1577.4904,-1259.659 1573.9394,-1263.179 1573.9394,-1263.179 1573.9394,-1263.179 1577.4904,-1259.659 1577.1074,-1266.3749 1581.0414,-1256.139 1581.0414,-1256.139"/>
<polygon fill="#ee5b6d" stroke="#ee5b6d" points="1727.8431,-429.5675 1723.2571,-419.6066 1724.0725,-426.2839 1720.3018,-423.0002 1720.3018,-423.0002 1720.3018,-423.0002 1724.0725,-426.2839 1717.3465,-426.3938 1727.8431,-429.5675 1727.8431,-429.5675"/>
</g>
<!-- User&#45;&gt;Meetup -->
<g id="edge52" class="edge">
<title>User&#45;&gt;Meetup</title>
<path fill="none" stroke="#6b691e" d="M1578.8407,-1143.3261C1626.6846,-1055.545 1671.1783,-953.5516 1690.1594,-853 1716.9015,-711.3344 1671.6496,-547.1041 1635.1347,-446.2565"/>
<polygon fill="#6b691e" stroke="#6b691e" points="1578.7152,-1143.5547 1569.9563,-1150.1526 1576.3078,-1147.937 1573.9004,-1152.3193 1573.9004,-1152.3193 1573.9004,-1152.3193 1576.3078,-1147.937 1577.8444,-1154.4859 1578.7152,-1143.5547 1578.7152,-1143.5547"/>
<polygon fill="#6b691e" stroke="#6b691e" points="1635.0726,-446.0869 1635.8561,-435.149 1633.3518,-441.3923 1631.631,-436.6978 1631.631,-436.6978 1631.631,-436.6978 1633.3518,-441.3923 1627.4058,-438.2465 1635.0726,-446.0869 1635.0726,-446.0869"/>
<text text-anchor="middle" x="1751.2526" y="-770.3" font-family="Times,serif" font-size="14.00" fill="#000000">managed_meetups</text>
</g>
<!-- User&#45;&gt;MeetupRsvp -->
<g id="edge49" class="edge">
<title>User&#45;&gt;MeetupRsvp</title>
<path fill="none" stroke="#e9da54" d="M1581.6212,-1342.0755C1762.1035,-1289.3498 2058.0833,-1204.448 2315.1594,-1138 2408.8863,-1113.7738 2459.707,-1157.4394 2527.1594,-1088 2556.4024,-1057.8955 2546.1594,-1037.4694 2546.1594,-995.5 2546.1594,-995.5 2546.1594,-995.5 2546.1594,-351.5 2546.1594,-235.3193 2405.0477,-188.7109 2293.2438,-170.0158"/>
<ellipse fill="none" stroke="#e9da54" cx="1577.7555" cy="-1343.2053" rx="4" ry="4"/>
<polygon fill="#e9da54" stroke="#e9da54" points="2293.0781,-169.9892 2283.9214,-163.9556 2288.1418,-169.1937 2283.2054,-168.3983 2283.2054,-168.3983 2283.2054,-168.3983 2288.1418,-169.1937 2282.4895,-172.8409 2293.0781,-169.9892 2293.0781,-169.9892"/>
</g>
<!-- User&#45;&gt;Notification -->
<g id="edge58" class="edge">
<title>User&#45;&gt;Notification</title>
<path fill="none" stroke="#de459b" d="M1580.1198,-1246.9474C1626.8311,-1206.0456 1677.5917,-1161.3942 1724.1594,-1120 1738.4326,-1107.3125 1753.4819,-1093.8372 1768.1857,-1080.6164"/>
<ellipse fill="none" stroke="#de459b" cx="1576.863" cy="-1249.7985" rx="4" ry="4"/>
<polygon fill="#de459b" stroke="#de459b" points="1768.4036,-1080.4203 1778.8474,-1077.0767 1772.1205,-1077.076 1775.8374,-1073.7316 1775.8374,-1073.7316 1775.8374,-1073.7316 1772.1205,-1077.076 1772.8274,-1070.3864 1768.4036,-1080.4203 1768.4036,-1080.4203"/>
</g>
<!-- User&#45;&gt;Post -->
<g id="edge53" class="edge">
<title>User&#45;&gt;Post</title>
<path fill="none" stroke="#d2616c" d="M1581.616,-1345.7667C1756.4795,-1294.7728 2036.1003,-1203.9925 2261.1594,-1088 2261.2531,-1087.9517 2261.3469,-1087.9033 2261.4406,-1087.8549"/>
<ellipse fill="none" stroke="#d2616c" cx="1577.7282" cy="-1346.8974" rx="4" ry="4"/>
<polygon fill="#d2616c" stroke="#d2616c" points="2261.3596,-1087.8981 2272.3011,-1087.1668 2265.7723,-1085.5467 2270.1849,-1083.1954 2270.1849,-1083.1954 2270.1849,-1083.1954 2265.7723,-1085.5467 2268.0687,-1079.224 2261.3596,-1087.8981 2261.3596,-1087.8981"/>
</g>
<!-- User&#45;&gt;SponsorshipAdmin -->
<g id="edge51" class="edge">
<title>User&#45;&gt;SponsorshipAdmin</title>
<path fill="none" stroke="#e54203" d="M1246.2511,-1378.7007C879.2487,-1346.1061 38.1594,-1244.2692 38.1594,-995.5 38.1594,-995.5 38.1594,-995.5 38.1594,-566.5 38.1594,-524.5306 38.6925,-511.6883 57.1594,-474 68.584,-450.6839 85.5017,-428.1919 102.4365,-408.9842"/>
<ellipse fill="none" stroke="#e54203" cx="1250.3121" cy="-1379.0591" rx="4" ry="4"/>
<polygon fill="#e54203" stroke="#e54203" points="102.4738,-408.9429 112.5113,-404.5272 105.8212,-405.2287 109.1686,-401.5145 109.1686,-401.5145 109.1686,-401.5145 105.8212,-405.2287 105.8258,-398.5019 102.4738,-408.9429 102.4738,-408.9429"/>
</g>
<!-- User&#45;&gt;User -->
<g id="edge55" class="edge">
<title>User&#45;&gt;User</title>
<path fill="none" stroke="#f27f46" d="M1583.0409,-1405.4722C1588.6161,-1401.7272 1591.7941,-1397.0698 1591.7941,-1391.5 1591.7941,-1385.9302 1588.6161,-1381.2728 1583.0409,-1377.5278"/>
<polygon fill="#f27f46" stroke="#f27f46" points="1582.9568,-1405.5145 1572.0014,-1405.9944 1578.4913,-1407.7639 1574.0259,-1410.0133 1574.0259,-1410.0133 1574.0259,-1410.0133 1578.4913,-1407.7639 1576.0504,-1414.0322 1582.9568,-1405.5145 1582.9568,-1405.5145"/>
<polygon fill="#f27f46" stroke="#f27f46" points="1582.9568,-1377.4855 1576.0504,-1368.9678 1578.4913,-1375.2361 1574.0259,-1372.9867 1574.0259,-1372.9867 1574.0259,-1372.9867 1578.4913,-1375.2361 1572.0014,-1377.0056 1582.9568,-1377.4855 1582.9568,-1377.4855"/>
<text text-anchor="middle" x="1634.5632" y="-1387.3" font-family="Times,serif" font-size="14.00" fill="#000000">followed_users</text>
</g>
<!-- User&#45;&gt;User -->
<g id="edge57" class="edge">
<title>User&#45;&gt;User</title>
<path fill="none" stroke="#e7bcf6" d="M1583.9793,-1442.1676C1635.5101,-1439.6444 1677.3322,-1422.7552 1677.3322,-1391.5 1677.3322,-1360.2448 1635.5101,-1343.3556 1583.9793,-1340.8324"/>
<polygon fill="#e7bcf6" stroke="#e7bcf6" points="1583.8989,-1442.17 1573.7657,-1437.9786 1578.9013,-1442.3232 1573.9036,-1442.4765 1573.9036,-1442.4765 1573.9036,-1442.4765 1578.9013,-1442.3232 1574.0415,-1446.9743 1583.8989,-1442.17 1583.8989,-1442.17"/>
<polygon fill="#e7bcf6" stroke="#e7bcf6" points="1583.8989,-1340.83 1574.0415,-1336.0257 1578.9013,-1340.6768 1573.9036,-1340.5235 1573.9036,-1340.5235 1573.9036,-1340.5235 1578.9013,-1340.6768 1573.7657,-1345.0214 1583.8989,-1340.83 1583.8989,-1340.83"/>
<text text-anchor="middle" x="1703.7702" y="-1387.3" font-family="Times,serif" font-size="14.00" fill="#000000">followers</text>
</g>
<!-- UserFollow -->
<g id="node25" class="node">
<title>UserFollow</title>
<path fill="none" stroke="#000000" d="M2016.297,-945.5C2016.297,-945.5 2240.0217,-945.5 2240.0217,-945.5 2246.0217,-945.5 2252.0217,-951.5 2252.0217,-957.5 2252.0217,-957.5 2252.0217,-1033.5 2252.0217,-1033.5 2252.0217,-1039.5 2246.0217,-1045.5 2240.0217,-1045.5 2240.0217,-1045.5 2016.297,-1045.5 2016.297,-1045.5 2010.297,-1045.5 2004.297,-1039.5 2004.297,-1033.5 2004.297,-1033.5 2004.297,-957.5 2004.297,-957.5 2004.297,-951.5 2010.297,-945.5 2016.297,-945.5"/>
<text text-anchor="middle" x="2128.1594" y="-1030.3" font-family="Times,serif" font-size="14.00" fill="#000000">UserFollow</text>
<polyline fill="none" stroke="#000000" points="2004.297,-1023.5 2252.0217,-1023.5 "/>
<text text-anchor="start" x="2012.297" y="-1008.3" font-family="Times,serif" font-size="14.00" fill="#000000">id :integer</text>
<text text-anchor="start" x="2012.297" y="-994.3" font-family="Times,serif" font-size="14.00" fill="#000000">follower_id :integer</text>
<text text-anchor="start" x="2012.297" y="-980.3" font-family="Times,serif" font-size="14.00" fill="#000000">user_id :integer</text>
<text text-anchor="start" x="2012.297" y="-966.3" font-family="Times,serif" font-size="14.00" fill="#000000">created_at :timestamp without time zone</text>
<text text-anchor="start" x="2012.297" y="-952.3" font-family="Times,serif" font-size="14.00" fill="#000000">updated_at :timestamp without time zone</text>
</g>
<!-- User&#45;&gt;UserFollow -->
<g id="edge54" class="edge">
<title>User&#45;&gt;UserFollow</title>
<path fill="none" stroke="#b0e003" d="M1581.4158,-1331.2041C1702.8935,-1283.3899 1868.2354,-1209.7784 1999.1594,-1120 2026.9546,-1100.94 2054.3155,-1075.7299 2076.6367,-1052.9823"/>
<ellipse fill="none" stroke="#b0e003" cx="1577.5679" cy="-1332.7131" rx="4" ry="4"/>
<polygon fill="#b0e003" stroke="#b0e003" points="2076.741,-1052.8746 2086.9322,-1048.8261 2080.221,-1049.2844 2083.7009,-1045.6941 2083.7009,-1045.6941 2083.7009,-1045.6941 2080.221,-1049.2844 2080.4697,-1042.5621 2076.741,-1052.8746 2076.741,-1052.8746"/>
</g>
<!-- User&#45;&gt;UserFollow -->
<g id="edge56" class="edge">
<title>User&#45;&gt;UserFollow</title>
<path fill="none" stroke="#7bf241" d="M1580.9685,-1288.4137C1681.1037,-1229.5274 1812.4966,-1157.4141 1935.2697,-1106 1960.9063,-1095.2641 1970.1304,-1100.0851 1995.1594,-1088 2016.0088,-1077.933 2037.2016,-1064.7759 2056.3613,-1051.5568"/>
<ellipse fill="none" stroke="#7bf241" cx="1577.2595" cy="-1290.5993" rx="4" ry="4"/>
<polygon fill="#7bf241" stroke="#7bf241" points="2056.5371,-1051.4337 2067.3087,-1049.379 2060.6315,-1048.5638 2064.7259,-1045.694 2064.7259,-1045.694 2064.7259,-1045.694 2060.6315,-1048.5638 2062.143,-1042.009 2056.5371,-1051.4337 2056.5371,-1051.4337"/>
<text text-anchor="middle" x="1966.1042" y="-1108.8" font-family="Times,serif" font-size="14.00" fill="#000000">followings</text>
</g>
<!-- User&#45;&gt;UserHackroom -->
<g id="edge43" class="edge">
<title>User&#45;&gt;UserHackroom</title>
<path fill="none" stroke="#de7a06" d="M1246.4724,-1350.8818C1099.2144,-1307.6073 887.6113,-1225.9228 750.1594,-1088 679.1053,-1016.7026 640.0746,-903.4806 621.6902,-834.3877"/>
<ellipse fill="none" stroke="#de7a06" cx="1250.4742" cy="-1352.0484" rx="4" ry="4"/>
<polygon fill="#de7a06" stroke="#de7a06" points="621.6422,-834.2024 623.4815,-823.3919 620.3842,-829.3633 619.1262,-824.5241 619.1262,-824.5241 619.1262,-824.5241 620.3842,-829.3633 614.771,-825.6562 621.6422,-834.2024 621.6422,-834.2024"/>
</g>
<!-- User&#45;&gt;UserLanguage -->
<g id="edge46" class="edge">
<title>User&#45;&gt;UserLanguage</title>
<path fill="none" stroke="#b54427" d="M1399.049,-1130.0937C1390.9886,-1037.2196 1379.129,-945.2475 1362.1594,-903 1317.4715,-791.7455 1224.8506,-686.2282 1163.0946,-623.9405"/>
<ellipse fill="none" stroke="#b54427" cx="1399.4029" cy="-1134.23" rx="4" ry="4"/>
<polygon fill="#b54427" stroke="#b54427" points="1162.7897,-623.6354 1158.905,-613.3806 1159.2557,-620.0983 1155.7217,-616.5613 1155.7217,-616.5613 1155.7217,-616.5613 1159.2557,-620.0983 1152.5383,-619.7419 1162.7897,-623.6354 1162.7897,-623.6354"/>
</g>
<!-- User&#45;&gt;UserPrimary -->
<g id="edge47" class="edge">
<title>User&#45;&gt;UserPrimary</title>
<path fill="none" stroke="#f68d93" d="M1411.6256,-1130.206C1409.9019,-952.4522 1407.7567,-731.2215 1406.7425,-626.6337"/>
<ellipse fill="none" stroke="#f68d93" cx="1411.6659" cy="-1134.3663" rx="4" ry="4"/>
<polygon fill="#f68d93" stroke="#f68d93" points="1406.742,-626.5789 1411.1448,-616.5357 1406.6935,-621.5792 1406.645,-616.5794 1406.645,-616.5794 1406.645,-616.5794 1406.6935,-621.5792 1402.1452,-616.6231 1406.742,-626.5789 1406.742,-626.5789"/>
</g>
</g>
</svg>
