<?xml version="1.0" encoding="UTF-8" standalone="no"?>
<!DOCTYPE svg PUBLIC "-//W3C//DTD SVG 1.1//EN"
 "http://www.w3.org/Graphics/SVG/1.1/DTD/svg11.dtd">
<!-- Generated by graphviz version 2.40.1 (20161225.0304)
 -->
<!-- Title: models_diagram Pages: 1 -->
<svg width="2178pt" height="631pt"
 viewBox="0.00 0.00 2178.02 631.00" xmlns="http://www.w3.org/2000/svg" xmlns:xlink="http://www.w3.org/1999/xlink">
<g id="graph0" class="graph" transform="scale(1 1) rotate(0) translate(4 627)">
<title>models_diagram</title>
<polygon fill="transparent" stroke="transparent" points="-4,4 -4,-627 2174.0179,-627 2174.0179,4 -4,4"/>
<!-- _diagram_info -->
<g id="node1" class="node">
<title>_diagram_info</title>
<text text-anchor="start" x="1295.5503" y="-608.6" font-family="Times,serif" font-size="13.00" fill="#000000">Models diagram</text>
<text text-anchor="start" x="1295.5503" y="-595.6" font-family="Times,serif" font-size="13.00" fill="#000000">Date: Jun 12 2017 &#45; 20:24</text>
<text text-anchor="start" x="1295.5503" y="-582.6" font-family="Times,serif" font-size="13.00" fill="#000000">Migration version: 20170611232955</text>
<text text-anchor="start" x="1295.5503" y="-569.6" font-family="Times,serif" font-size="13.00" fill="#000000">Generated by RailRoady 1.5.3</text>
<text text-anchor="start" x="1295.5503" y="-556.6" font-family="Times,serif" font-size="13.00" fill="#000000">http://railroady.prestonlee.com</text>
</g>
<!-- Ability -->
<g id="node2" class="node">
<title>Ability</title>
<polygon fill="none" stroke="#000000" points="1567.6699,-604.5 1512.3301,-604.5 1512.3301,-568.5 1567.6699,-568.5 1567.6699,-604.5"/>
<text text-anchor="middle" x="1540" y="-582.3" font-family="Times,serif" font-size="14.00" fill="#000000">Ability</text>
</g>
<!-- Assignment -->
<g id="node3" class="node">
<title>Assignment</title>
<ellipse fill="none" stroke="#000000" cx="1870" cy="-409" rx="52.2192" ry="18"/>
<text text-anchor="middle" x="1870" y="-404.8" font-family="Times,serif" font-size="14.00" fill="#000000">Assignment</text>
</g>
<!-- Ckeditor::Asset -->
<g id="node4" class="node">
<title>Ckeditor::Asset</title>
<ellipse fill="none" stroke="#000000" cx="1724" cy="-586.5" rx="65.7408" ry="18"/>
<text text-anchor="middle" x="1724" y="-582.3" font-family="Times,serif" font-size="14.00" fill="#000000">Ckeditor::Asset</text>
</g>
<!-- Ckeditor::AttachmentFile -->
<g id="node5" class="node">
<title>Ckeditor::AttachmentFile</title>
<ellipse fill="none" stroke="#000000" cx="1909" cy="-586.5" rx="100.9624" ry="18"/>
<text text-anchor="middle" x="1909" y="-582.3" font-family="Times,serif" font-size="14.00" fill="#000000">Ckeditor::AttachmentFile</text>
</g>
<!-- Ckeditor::Picture -->
<g id="node6" class="node">
<title>Ckeditor::Picture</title>
<ellipse fill="none" stroke="#000000" cx="2099" cy="-586.5" rx="71.0358" ry="18"/>
<text text-anchor="middle" x="2099" y="-582.3" font-family="Times,serif" font-size="14.00" fill="#000000">Ckeditor::Picture</text>
</g>
<!-- Comment -->
<g id="node7" class="node">
<title>Comment</title>
<ellipse fill="none" stroke="#000000" cx="428" cy="-104" rx="44.9768" ry="18"/>
<text text-anchor="middle" x="428" y="-99.8" font-family="Times,serif" font-size="14.00" fill="#000000">Comment</text>
</g>
<!-- Comment&#45;&gt;Comment -->
<g id="edge1" class="edge">
<title>Comment&#45;&gt;Comment</title>
<path fill="none" stroke="#11d935" d="M478.1551,-110.1551C485.7983,-109.2158 490.9884,-107.1641 490.9884,-104 490.9884,-101.0996 486.6273,-99.1339 480.0132,-98.1029"/>
<ellipse fill="none" stroke="#11d935" cx="473.7864" cy="-110.4522" rx="4" ry="4"/>
<polygon fill="#11d935" stroke="#11d935" points="479.763,-98.0828 470.1584,-92.791 474.7793,-97.6796 469.7956,-97.2764 469.7956,-97.2764 469.7956,-97.2764 474.7793,-97.6796 469.4327,-101.7617 479.763,-98.0828 479.763,-98.0828"/>
</g>
<!-- CommentReply -->
<g id="node8" class="node">
<title>CommentReply</title>
<ellipse fill="none" stroke="#000000" cx="428" cy="-18" rx="66.2253" ry="18"/>
<text text-anchor="middle" x="428" y="-13.8" font-family="Times,serif" font-size="14.00" fill="#000000">CommentReply</text>
</g>
<!-- Comment&#45;&gt;CommentReply -->
<g id="edge2" class="edge">
<title>Comment&#45;&gt;CommentReply</title>
<path fill="none" stroke="#b5aa75" d="M428,-77.4021C428,-67.585 428,-56.4263 428,-46.4515"/>
<ellipse fill="none" stroke="#b5aa75" cx="428" cy="-81.7616" rx="4" ry="4"/>
<polygon fill="#b5aa75" stroke="#b5aa75" points="428.0001,-46.2121 432.5,-36.2121 428,-41.2121 428,-36.2121 428,-36.2121 428,-36.2121 428,-41.2121 423.5,-36.2121 428.0001,-46.2121 428.0001,-46.2121"/>
<text text-anchor="middle" x="446.6587" y="-56.8" font-family="Times,serif" font-size="14.00" fill="#000000">replies</text>
</g>
<!-- Hackroom -->
<g id="node9" class="node">
<title>Hackroom</title>
<ellipse fill="none" stroke="#000000" cx="325" cy="-409" rx="47.365" ry="18"/>
<text text-anchor="middle" x="325" y="-404.8" font-family="Times,serif" font-size="14.00" fill="#000000">Hackroom</text>
</g>
<!-- Hackroom&#45;&gt;Comment -->
<g id="edge11" class="edge">
<title>Hackroom&#45;&gt;Comment</title>
<path fill="none" stroke="#27ba61" d="M283.0092,-393.8396C279.6417,-392.8153 276.2762,-391.8533 273,-391 167.7815,-363.5941 38,-431.7291 38,-323 38,-323 38,-323 38,-177 38,-143.2588 266.4468,-118.4047 373.6568,-108.5985"/>
<ellipse fill="none" stroke="#27ba61" cx="287.0161" cy="-395.1108" rx="4" ry="4"/>
<polygon fill="#27ba61" stroke="#27ba61" points="373.6823,-108.5963 384.0466,-112.1785 378.662,-108.1465 383.6417,-107.6967 383.6417,-107.6967 383.6417,-107.6967 378.662,-108.1465 383.2369,-103.215 373.6823,-108.5963 373.6823,-108.5963"/>
</g>
<!-- HackroomLanguage -->
<g id="node10" class="node">
<title>HackroomLanguage</title>
<ellipse fill="none" stroke="#000000" cx="148" cy="-250" rx="82.0941" ry="18"/>
<text text-anchor="middle" x="148" y="-245.8" font-family="Times,serif" font-size="14.00" fill="#000000">HackroomLanguage</text>
</g>
<!-- Hackroom&#45;&gt;HackroomLanguage -->
<g id="edge5" class="edge">
<title>Hackroom&#45;&gt;HackroomLanguage</title>
<path fill="none" stroke="#50d7c1" d="M277.9906,-396.7367C237.9986,-386.304 187,-373 187,-373 161.0408,-348.3534 152.2936,-306.5541 149.3853,-278.617"/>
<ellipse fill="none" stroke="#50d7c1" cx="281.9534" cy="-397.7704" rx="4" ry="4"/>
<polygon fill="#50d7c1" stroke="#50d7c1" points="149.3552,-278.2611 152.9931,-267.9163 148.9322,-273.279 148.5092,-268.2969 148.5092,-268.2969 148.5092,-268.2969 148.9322,-273.279 144.0254,-268.6776 149.3552,-278.2611 149.3552,-278.2611"/>
</g>
<!-- HackroomOwner -->
<g id="node11" class="node">
<title>HackroomOwner</title>
<ellipse fill="none" stroke="#000000" cx="470" cy="-323" rx="71.4945" ry="18"/>
<text text-anchor="middle" x="470" y="-318.8" font-family="Times,serif" font-size="14.00" fill="#000000">HackroomOwner</text>
</g>
<!-- Hackroom&#45;&gt;HackroomOwner -->
<g id="edge9" class="edge">
<title>Hackroom&#45;&gt;HackroomOwner</title>
<path fill="none" stroke="#1314b4" d="M377.7162,-401.4117C411.6684,-395.4074 451.5311,-385.884 463,-373 468.2679,-367.0821 470.6885,-359.1097 471.6156,-351.2714"/>
<ellipse fill="none" stroke="#1314b4" cx="373.6247" cy="-402.1125" rx="4" ry="4"/>
<polygon fill="#1314b4" stroke="#1314b4" points="471.6181,-351.2176 476.5831,-341.4402 471.8531,-346.2231 472.0881,-341.2287 472.0881,-341.2287 472.0881,-341.2287 471.8531,-346.2231 467.5931,-341.0171 471.6181,-351.2176 471.6181,-351.2176"/>
</g>
<!-- HackroomPrimary -->
<g id="node12" class="node">
<title>HackroomPrimary</title>
<ellipse fill="none" stroke="#000000" cx="324" cy="-250" rx="75.8466" ry="18"/>
<text text-anchor="middle" x="324" y="-245.8" font-family="Times,serif" font-size="14.00" fill="#000000">HackroomPrimary</text>
</g>
<!-- Hackroom&#45;&gt;HackroomPrimary -->
<g id="edge7" class="edge">
<title>Hackroom&#45;&gt;HackroomPrimary</title>
<path fill="none" stroke="#43c4a6" d="M278.1137,-396.5102C242.1118,-386.8114 198.3081,-374.7267 197,-373 166.3311,-332.5155 228.3672,-292.9789 276.0793,-270.0785"/>
<ellipse fill="none" stroke="#43c4a6" cx="282.2637" cy="-397.6258" rx="4" ry="4"/>
<polygon fill="#43c4a6" stroke="#43c4a6" points="276.3388,-269.9574 287.3036,-269.802 280.8689,-267.8411 285.399,-265.7249 285.399,-265.7249 285.399,-265.7249 280.8689,-267.8411 283.4944,-261.6478 276.3388,-269.9574 276.3388,-269.9574"/>
</g>
<!-- Language -->
<g id="node13" class="node">
<title>Language</title>
<ellipse fill="none" stroke="#000000" cx="336" cy="-323" rx="44.9423" ry="18"/>
<text text-anchor="middle" x="336" y="-318.8" font-family="Times,serif" font-size="14.00" fill="#000000">Language</text>
</g>
<!-- Hackroom&#45;&gt;Language -->
<g id="edge6" class="edge">
<title>Hackroom&#45;&gt;Language</title>
<path fill="none" stroke="#5fef68" d="M378.5189,-399.7354C407.2203,-393.5597 438.4249,-384.471 447,-373 450.7255,-368.0164 450.6781,-364.0187 447,-359 431.2958,-337.5721 415.269,-349.2008 390,-341 386.8512,-339.9781 383.6017,-338.9154 380.332,-337.8401"/>
<polygon fill="#5fef68" stroke="#5fef68" points="378.3066,-399.779 367.6041,-397.39 373.4095,-400.7882 368.5124,-401.7974 368.5124,-401.7974 368.5124,-401.7974 373.4095,-400.7882 369.4207,-406.2048 378.3066,-399.779 378.3066,-399.779"/>
<polygon fill="#5fef68" stroke="#5fef68" points="380.0367,-337.7426 371.954,-330.3318 375.2893,-336.1735 370.5418,-334.6045 370.5418,-334.6045 370.5418,-334.6045 375.2893,-336.1735 369.1297,-338.8772 380.0367,-337.7426 380.0367,-337.7426"/>
</g>
<!-- Hackroom&#45;&gt;Language -->
<g id="edge8" class="edge">
<title>Hackroom&#45;&gt;Language</title>
<path fill="none" stroke="#0f646c" d="M276.154,-395.9389C243.4848,-386.9706 206.0472,-376.1409 203.7031,-373 199.9815,-368.0134 199.9249,-363.9438 203.7031,-359 213.6255,-346.0168 250.958,-336.6049 283.4456,-330.6681"/>
<polygon fill="#0f646c" stroke="#0f646c" points="276.4483,-396.0191 284.9108,-402.993 281.2719,-397.3354 286.0955,-398.6518 286.0955,-398.6518 286.0955,-398.6518 281.2719,-397.3354 287.2802,-394.3105 276.4483,-396.0191 276.4483,-396.0191"/>
<polygon fill="#0f646c" stroke="#0f646c" points="283.4865,-330.661 294.1125,-333.3697 288.4116,-329.7991 293.3367,-328.9371 293.3367,-328.9371 293.3367,-328.9371 288.4116,-329.7991 292.561,-324.5045 283.4865,-330.661 283.4865,-330.661"/>
<text text-anchor="middle" x="257.6484" y="-361.8" font-family="Times,serif" font-size="14.00" fill="#000000">primary_languages</text>
</g>
<!-- User -->
<g id="node26" class="node">
<title>User</title>
<ellipse fill="none" stroke="#000000" cx="849" cy="-495" rx="27" ry="18"/>
<text text-anchor="middle" x="849" y="-490.8" font-family="Times,serif" font-size="14.00" fill="#000000">User</text>
</g>
<!-- Hackroom&#45;&gt;User -->
<g id="edge4" class="edge">
<title>Hackroom&#45;&gt;User</title>
<path fill="none" stroke="#a03297" d="M304.9857,-435.3097C301.0805,-443.6634 299.8489,-452.4276 306,-459 323.2922,-477.4766 692.0828,-490.2448 811.8185,-493.9156"/>
<polygon fill="#a03297" stroke="#a03297" points="305.0536,-435.1918 313.9479,-428.7775 307.5517,-430.8605 310.0497,-426.5292 310.0497,-426.5292 310.0497,-426.5292 307.5517,-430.8605 306.1516,-424.281 305.0536,-435.1918 305.0536,-435.1918"/>
<polygon fill="#a03297" stroke="#a03297" points="811.9672,-493.92 821.8263,-498.7209 816.9649,-494.0715 821.9626,-494.223 821.9626,-494.223 821.9626,-494.223 816.9649,-494.0715 822.099,-489.725 811.9672,-493.92 811.9672,-493.92"/>
</g>
<!-- Hackroom&#45;&gt;User -->
<g id="edge10" class="edge">
<title>Hackroom&#45;&gt;User</title>
<path fill="none" stroke="#cd19ed" d="M318.6532,-436.9077C318.4389,-444.9592 320.0339,-453.1417 325.5654,-459 342.2422,-476.6619 694.6419,-489.8879 811.6275,-493.8055"/>
<polygon fill="#cd19ed" stroke="#cd19ed" points="318.6533,-436.9057 324.2059,-427.4496 319.1927,-431.9349 319.7322,-426.9641 319.7322,-426.9641 319.7322,-426.9641 319.1927,-431.9349 315.2584,-426.4786 318.6533,-436.9057 318.6533,-436.9057"/>
<polygon fill="#cd19ed" stroke="#cd19ed" points="811.8836,-493.8139 821.7291,-498.6425 816.8809,-493.9794 821.8781,-494.145 821.8781,-494.145 821.8781,-494.145 816.8809,-493.9794 822.0272,-489.6475 811.8836,-493.8139 811.8836,-493.8139"/>
<text text-anchor="middle" x="346.2173" y="-447.8" font-family="Times,serif" font-size="14.00" fill="#000000">owners</text>
</g>
<!-- UserHackroom -->
<g id="node28" class="node">
<title>UserHackroom</title>
<ellipse fill="none" stroke="#000000" cx="624" cy="-323" rx="64.2614" ry="18"/>
<text text-anchor="middle" x="624" y="-318.8" font-family="Times,serif" font-size="14.00" fill="#000000">UserHackroom</text>
</g>
<!-- Hackroom&#45;&gt;UserHackroom -->
<g id="edge3" class="edge">
<title>Hackroom&#45;&gt;UserHackroom</title>
<path fill="none" stroke="#db20d2" d="M375.0507,-398.91C405.8279,-392.3454 445.9504,-383.1387 481,-373 513.2048,-363.6842 548.7929,-351.2489 576.4103,-341.1103"/>
<ellipse fill="none" stroke="#db20d2" cx="370.9474" cy="-399.7778" rx="4" ry="4"/>
<polygon fill="#db20d2" stroke="#db20d2" points="576.4482,-341.0964 587.3882,-341.8497 581.138,-339.3626 585.8278,-337.6289 585.8278,-337.6289 585.8278,-337.6289 581.138,-339.3626 584.2675,-333.4081 576.4482,-341.0964 576.4482,-341.0964"/>
</g>
<!-- Language&#45;&gt;Comment -->
<g id="edge21" class="edge">
<title>Language&#45;&gt;Comment</title>
<path fill="none" stroke="#d2fdeb" d="M371.7388,-304.4794C385.6651,-295.3972 400.3353,-283.1253 409,-268 433.298,-225.5845 433.6544,-166.8988 431.1847,-132.4447"/>
<ellipse fill="none" stroke="#d2fdeb" cx="367.9581" cy="-306.8265" rx="4" ry="4"/>
<polygon fill="#d2fdeb" stroke="#d2fdeb" points="431.1576,-132.1252 434.7941,-121.7798 430.7339,-127.1431 430.3103,-122.1611 430.3103,-122.1611 430.3103,-122.1611 430.7339,-127.1431 425.8265,-122.5424 431.1576,-132.1252 431.1576,-132.1252"/>
</g>
<!-- Language&#45;&gt;Hackroom -->
<g id="edge14" class="edge">
<title>Language&#45;&gt;Hackroom</title>
<path fill="none" stroke="#efd1b7" d="M331.3479,-351.2288C330.9598,-353.8533 330.5889,-356.4745 330.2549,-359 329.3169,-366.0928 328.4408,-373.7696 327.6832,-380.9292"/>
<polygon fill="#efd1b7" stroke="#efd1b7" points="331.3572,-351.1687 337.3344,-341.975 332.1223,-346.2275 332.8874,-341.2864 332.8874,-341.2864 332.8874,-341.2864 332.1223,-346.2275 328.4404,-340.5978 331.3572,-351.1687 331.3572,-351.1687"/>
<polygon fill="#efd1b7" stroke="#efd1b7" points="327.6789,-380.9722 322.1877,-390.4642 327.1717,-385.9464 326.6645,-390.9207 326.6645,-390.9207 326.6645,-390.9207 327.1717,-385.9464 331.1413,-391.3771 327.6789,-380.9722 327.6789,-380.9722"/>
<text text-anchor="middle" x="387.3726" y="-361.8" font-family="Times,serif" font-size="14.00" fill="#000000">primary_hackrooms</text>
</g>
<!-- Language&#45;&gt;HackroomLanguage -->
<g id="edge12" class="edge">
<title>Language&#45;&gt;HackroomLanguage</title>
<path fill="none" stroke="#044dcb" d="M295.9055,-307.4314C267.3088,-296.3274 228.6579,-281.3193 198.0389,-269.43"/>
<ellipse fill="none" stroke="#044dcb" cx="299.9529" cy="-309.003" rx="4" ry="4"/>
<polygon fill="#044dcb" stroke="#044dcb" points="197.7248,-269.3081 190.0317,-261.4935 193.0638,-267.4982 188.4029,-265.6883 188.4029,-265.6883 188.4029,-265.6883 193.0638,-267.4982 186.774,-269.8832 197.7248,-269.3081 197.7248,-269.3081"/>
</g>
<!-- Language&#45;&gt;HackroomPrimary -->
<g id="edge13" class="edge">
<title>Language&#45;&gt;HackroomPrimary</title>
<path fill="none" stroke="#c2de61" d="M331.7109,-296.9079C330.7058,-290.7936 329.6308,-284.2541 328.6123,-278.058"/>
<ellipse fill="none" stroke="#c2de61" cx="332.3848" cy="-301.008" rx="4" ry="4"/>
<polygon fill="#c2de61" stroke="#c2de61" points="328.5959,-277.9579 331.4142,-267.3604 327.7848,-273.0241 326.9738,-268.0904 326.9738,-268.0904 326.9738,-268.0904 327.7848,-273.0241 322.5334,-268.8203 328.5959,-277.9579 328.5959,-277.9579"/>
</g>
<!-- Sponsor -->
<g id="node22" class="node">
<title>Sponsor</title>
<ellipse fill="none" stroke="#000000" cx="533" cy="-250" rx="39.1973" ry="18"/>
<text text-anchor="middle" x="533" y="-245.8" font-family="Times,serif" font-size="14.00" fill="#000000">Sponsor</text>
</g>
<!-- Language&#45;&gt;Sponsor -->
<g id="edge20" class="edge">
<title>Language&#45;&gt;Sponsor</title>
<path fill="none" stroke="#4dd5b9" d="M379.6033,-307.9534C383.1053,-306.9017 386.6019,-305.9024 390,-305 429.4256,-294.53 442.4826,-303.0139 480,-287 488.9437,-283.1825 497.9054,-277.7099 505.8481,-272.1401"/>
<polygon fill="#4dd5b9" stroke="#4dd5b9" points="379.3409,-308.0354 368.4536,-306.7246 374.5687,-309.5275 369.7965,-311.0196 369.7965,-311.0196 369.7965,-311.0196 374.5687,-309.5275 371.1394,-315.3145 379.3409,-308.0354 379.3409,-308.0354"/>
<polygon fill="#4dd5b9" stroke="#4dd5b9" points="505.9618,-272.0565 516.6839,-269.757 509.9898,-269.0942 514.0178,-266.1318 514.0178,-266.1318 514.0178,-266.1318 509.9898,-269.0942 511.3517,-262.5066 505.9618,-272.0565 505.9618,-272.0565"/>
</g>
<!-- SponsorLanguage -->
<g id="node23" class="node">
<title>SponsorLanguage</title>
<ellipse fill="none" stroke="#000000" cx="531" cy="-177" rx="73.9257" ry="18"/>
<text text-anchor="middle" x="531" y="-172.8" font-family="Times,serif" font-size="14.00" fill="#000000">SponsorLanguage</text>
</g>
<!-- Language&#45;&gt;SponsorLanguage -->
<g id="edge19" class="edge">
<title>Language&#45;&gt;SponsorLanguage</title>
<path fill="none" stroke="#dc9c4c" d="M378.3529,-308.7667C407.5669,-298.925 441.284,-287.5083 442,-287 467.3016,-269.0391 465.4886,-256.1261 485,-232 492.8704,-222.2681 501.6545,-211.6965 509.4204,-202.446"/>
<ellipse fill="none" stroke="#dc9c4c" cx="374.4466" cy="-310.0819" rx="4" ry="4"/>
<polygon fill="#dc9c4c" stroke="#dc9c4c" points="509.4927,-202.3601 519.3764,-197.6099 512.7135,-198.5356 515.9343,-194.7111 515.9343,-194.7111 515.9343,-194.7111 512.7135,-198.5356 512.4923,-191.8124 509.4927,-202.3601 509.4927,-202.3601"/>
</g>
<!-- Language&#45;&gt;User -->
<g id="edge16" class="edge">
<title>Language&#45;&gt;User</title>
<path fill="none" stroke="#eabafa" d="M379.8015,-337.9268C383.2421,-338.9995 386.6717,-340.0366 390,-341 422.0986,-350.291 436.4964,-338.6481 463,-359 503.2304,-389.8926 475.7998,-430.8579 518,-459 542.0193,-475.0178 730.1324,-487.9597 811.5964,-492.8715"/>
<polygon fill="#eabafa" stroke="#eabafa" points="379.6756,-337.8867 371.5207,-330.5554 374.913,-336.3642 370.1504,-334.8418 370.1504,-334.8418 370.1504,-334.8418 374.913,-336.3642 368.7802,-339.1281 379.6756,-337.8867 379.6756,-337.8867"/>
<polygon fill="#eabafa" stroke="#eabafa" points="811.9172,-492.8905 821.6325,-497.9761 816.9084,-493.1873 821.8996,-493.4841 821.8996,-493.4841 821.8996,-493.4841 816.9084,-493.1873 822.1667,-488.992 811.9172,-492.8905 811.9172,-492.8905"/>
</g>
<!-- Language&#45;&gt;User -->
<g id="edge18" class="edge">
<title>Language&#45;&gt;User</title>
<path fill="none" stroke="#55b976" d="M379.5951,-338.0776C383.099,-339.1223 386.5982,-340.1115 390,-341 431.1562,-351.7493 448.2597,-335.9346 484,-359 515.0631,-379.0469 501.3787,-406.1524 531.9102,-427 577.335,-458.0172 738.1376,-481.2998 811.7331,-490.5858"/>
<polygon fill="#55b976" stroke="#55b976" points="379.3332,-337.9961 371.1227,-330.7271 374.5592,-336.5099 369.7851,-335.0237 369.7851,-335.0237 369.7851,-335.0237 374.5592,-336.5099 368.4476,-339.3203 379.3332,-337.9961 379.3332,-337.9961"/>
<polygon fill="#55b976" stroke="#55b976" points="812.0109,-490.6203 821.3796,-496.3192 816.9728,-491.2369 821.9346,-491.8536 821.9346,-491.8536 821.9346,-491.8536 816.9728,-491.2369 822.4896,-487.3879 812.0109,-490.6203 812.0109,-490.6203"/>
<text text-anchor="middle" x="572.0449" y="-404.8" font-family="Times,serif" font-size="14.00" fill="#000000">primary_users</text>
</g>
<!-- UserLanguage -->
<g id="node29" class="node">
<title>UserLanguage</title>
<ellipse fill="none" stroke="#000000" cx="652" cy="-250" rx="61.8389" ry="18"/>
<text text-anchor="middle" x="652" y="-245.8" font-family="Times,serif" font-size="14.00" fill="#000000">UserLanguage</text>
</g>
<!-- Language&#45;&gt;UserLanguage -->
<g id="edge15" class="edge">
<title>Language&#45;&gt;UserLanguage</title>
<path fill="none" stroke="#ef48dc" d="M377.1597,-308.5667C381.4692,-307.2699 385.8065,-306.0519 390,-305 435.9247,-293.4805 448.5372,-296.1097 495,-287 533.4126,-279.4687 542.9126,-277.033 581,-268 585.7018,-266.8849 590.5721,-265.7042 595.4574,-264.502"/>
<ellipse fill="none" stroke="#ef48dc" cx="373.288" cy="-309.775" rx="4" ry="4"/>
<polygon fill="#ef48dc" stroke="#ef48dc" points="595.7516,-264.429 606.5416,-266.3855 600.6042,-263.2236 605.4567,-262.0183 605.4567,-262.0183 605.4567,-262.0183 600.6042,-263.2236 604.3719,-257.651 595.7516,-264.429 595.7516,-264.429"/>
</g>
<!-- UserPrimary -->
<g id="node30" class="node">
<title>UserPrimary</title>
<ellipse fill="none" stroke="#000000" cx="863" cy="-250" rx="55.0922" ry="18"/>
<text text-anchor="middle" x="863" y="-245.8" font-family="Times,serif" font-size="14.00" fill="#000000">UserPrimary</text>
</g>
<!-- Language&#45;&gt;UserPrimary -->
<g id="edge17" class="edge">
<title>Language&#45;&gt;UserPrimary</title>
<path fill="none" stroke="#63fa12" d="M376.9141,-308.3636C381.2961,-307.0962 385.7169,-305.9407 390,-305 462.722,-289.0276 649.0735,-276.8588 723,-268 748.6546,-264.9258 776.9253,-261.3305 801.3053,-258.1648"/>
<ellipse fill="none" stroke="#63fa12" cx="372.9327" cy="-309.5773" rx="4" ry="4"/>
<polygon fill="#63fa12" stroke="#63fa12" points="801.5805,-258.1291 812.0781,-261.2995 806.5386,-257.4831 811.4967,-256.8372 811.4967,-256.8372 811.4967,-256.8372 806.5386,-257.4831 810.9154,-252.3749 801.5805,-258.1291 801.5805,-258.1291"/>
</g>
<!-- Meetup -->
<g id="node14" class="node">
<title>Meetup</title>
<ellipse fill="none" stroke="#000000" cx="984" cy="-177" rx="37.2421" ry="18"/>
<text text-anchor="middle" x="984" y="-172.8" font-family="Times,serif" font-size="14.00" fill="#000000">Meetup</text>
</g>
<!-- Meetup&#45;&gt;Comment -->
<g id="edge27" class="edge">
<title>Meetup&#45;&gt;Comment</title>
<path fill="none" stroke="#3a6365" d="M939.815,-171.1987C838.6597,-157.9175 590.5831,-125.3463 481.2394,-110.9901"/>
<ellipse fill="none" stroke="#3a6365" cx="943.9817" cy="-171.7458" rx="4" ry="4"/>
<polygon fill="#3a6365" stroke="#3a6365" points="481.0153,-110.9607 471.6862,-105.1972 476.0578,-110.3098 471.1004,-109.6589 471.1004,-109.6589 471.1004,-109.6589 476.0578,-110.3098 470.5146,-114.1206 481.0153,-110.9607 481.0153,-110.9607"/>
</g>
<!-- Meetup&#45;&gt;Language -->
<g id="edge26" class="edge">
<title>Meetup&#45;&gt;Language</title>
<path fill="none" stroke="#c6fa9f" d="M941.0464,-187.764C903.149,-197.7327 846.6836,-213.7422 799,-232 764.0955,-245.3648 758.9558,-257.7962 723,-268 579.746,-308.6534 535.444,-273.0551 390,-305 386.3594,-305.7996 382.6193,-306.7544 378.8881,-307.8012"/>
<polygon fill="#c6fa9f" stroke="#c6fa9f" points="941.0646,-187.7593 951.8759,-189.5937 945.9032,-186.4991 950.7418,-185.2389 950.7418,-185.2389 950.7418,-185.2389 945.9032,-186.4991 949.6076,-180.8842 941.0646,-187.7593 941.0646,-187.7593"/>
<polygon fill="#c6fa9f" stroke="#c6fa9f" points="378.6826,-307.8629 367.8101,-306.4346 373.8945,-309.3034 369.1065,-310.7438 369.1065,-310.7438 369.1065,-310.7438 373.8945,-309.3034 370.4029,-315.053 378.6826,-307.8629 378.6826,-307.8629"/>
</g>
<!-- MeetupRsvp -->
<g id="node15" class="node">
<title>MeetupRsvp</title>
<ellipse fill="none" stroke="#000000" cx="1526" cy="-104" rx="55.1094" ry="18"/>
<text text-anchor="middle" x="1526" y="-99.8" font-family="Times,serif" font-size="14.00" fill="#000000">MeetupRsvp</text>
</g>
<!-- Meetup&#45;&gt;MeetupRsvp -->
<g id="edge22" class="edge">
<title>Meetup&#45;&gt;MeetupRsvp</title>
<path fill="none" stroke="#233e6f" d="M1028.0208,-171.071C1124.3939,-158.0909 1354.2424,-127.1334 1464.6903,-112.2576"/>
<ellipse fill="none" stroke="#233e6f" cx="1023.9461" cy="-171.6198" rx="4" ry="4"/>
<polygon fill="#233e6f" stroke="#233e6f" points="1464.7671,-112.2473 1475.2783,-115.3722 1469.7223,-111.5799 1474.6776,-110.9124 1474.6776,-110.9124 1474.6776,-110.9124 1469.7223,-111.5799 1474.0769,-106.4527 1464.7671,-112.2473 1464.7671,-112.2473"/>
</g>
<!-- Meetup&#45;&gt;User -->
<g id="edge23" class="edge">
<title>Meetup&#45;&gt;User</title>
<path fill="none" stroke="#0e1a7d" d="M977.6324,-204.919C973.2498,-223.0676 966.9754,-247.1459 960,-268 930.9136,-354.9591 931.0814,-381.5473 882,-459 878.9934,-463.7446 875.3328,-468.4445 871.5582,-472.8051"/>
<polygon fill="#0e1a7d" stroke="#0e1a7d" points="977.6798,-204.7184 984.3639,-196.0252 978.8325,-199.8531 979.9851,-194.9878 979.9851,-194.9878 979.9851,-194.9878 978.8325,-199.8531 975.6063,-193.9504 977.6798,-204.7184 977.6798,-204.7184"/>
<polygon fill="#0e1a7d" stroke="#0e1a7d" points="871.5147,-472.8525 861.4401,-477.1831 868.136,-476.5382 864.7572,-480.2239 864.7572,-480.2239 864.7572,-480.2239 868.136,-476.5382 868.0744,-483.2648 871.5147,-472.8525 871.5147,-472.8525"/>
<text text-anchor="middle" x="963.7793" y="-318.8" font-family="Times,serif" font-size="14.00" fill="#000000">rsvps</text>
</g>
<!-- Meetup&#45;&gt;User -->
<g id="edge24" class="edge">
<title>Meetup&#45;&gt;User</title>
<path fill="none" stroke="#fb6763" d="M1007.6587,-200.7501C1039.8906,-232.9547 1099.5949,-292.0715 1152,-341 1176.3884,-363.7704 1194.3651,-360.5472 1208,-391 1214.5383,-405.6031 1218.2068,-414.6784 1208,-427 1167.35,-476.0725 969.3951,-490.0027 886.0756,-493.7257"/>
<polygon fill="#fb6763" stroke="#fb6763" points="1007.524,-200.6153 1003.637,-190.3614 1003.9892,-197.079 1000.4544,-193.5427 1000.4544,-193.5427 1000.4544,-193.5427 1003.9892,-197.079 997.2717,-196.724 1007.524,-200.6153 1007.524,-200.6153"/>
<polygon fill="#fb6763" stroke="#fb6763" points="886.0264,-493.7277 875.8455,-489.6533 881.0308,-493.9385 876.0353,-494.1493 876.0353,-494.1493 876.0353,-494.1493 881.0308,-493.9385 876.225,-498.6453 886.0264,-493.7277 886.0264,-493.7277"/>
<text text-anchor="middle" x="1197.5" y="-318.8" font-family="Times,serif" font-size="14.00" fill="#000000">sponsor_admins</text>
</g>
<!-- Meetup&#45;&gt;User -->
<g id="edge25" class="edge">
<title>Meetup&#45;&gt;User</title>
<path fill="none" stroke="#9e8a86" d="M1031.3463,-179.5728C1111.4282,-185.2327 1265,-202.3044 1265,-250 1265,-409 1265,-409 1265,-409 1265,-452.4466 1222.2073,-445.2317 1181,-459 1127.1478,-476.9933 961.3522,-488.527 886.4349,-492.9526"/>
<polygon fill="#9e8a86" stroke="#9e8a86" points="1031.0022,-179.5497 1021.3272,-174.3879 1026.0135,-179.2137 1021.0248,-178.8778 1021.0248,-178.8778 1021.0248,-178.8778 1026.0135,-179.2137 1020.7224,-183.3676 1031.0022,-179.5497 1031.0022,-179.5497"/>
<polygon fill="#9e8a86" stroke="#9e8a86" points="886.0483,-492.9749 875.8045,-489.0614 881.0566,-493.2644 876.065,-493.5539 876.065,-493.5539 876.065,-493.5539 881.0566,-493.2644 876.3256,-498.0463 886.0483,-492.9749 886.0483,-492.9749"/>
<text text-anchor="middle" x="1293.646" y="-318.8" font-family="Times,serif" font-size="14.00" fill="#000000">organisers</text>
</g>
<!-- Notification -->
<g id="node16" class="node">
<title>Notification</title>
<ellipse fill="none" stroke="#000000" cx="986" cy="-409" rx="52.2106" ry="18"/>
<text text-anchor="middle" x="986" y="-404.8" font-family="Times,serif" font-size="14.00" fill="#000000">Notification</text>
</g>
<!-- OrganiserInterest -->
<g id="node17" class="node">
<title>OrganiserInterest</title>
<ellipse fill="none" stroke="#000000" cx="1128" cy="-409" rx="71.1753" ry="18"/>
<text text-anchor="middle" x="1128" y="-404.8" font-family="Times,serif" font-size="14.00" fill="#000000">OrganiserInterest</text>
</g>
<!-- Post -->
<g id="node18" class="node">
<title>Post</title>
<ellipse fill="none" stroke="#000000" cx="1642" cy="-409" rx="27" ry="18"/>
<text text-anchor="middle" x="1642" y="-404.8" font-family="Times,serif" font-size="14.00" fill="#000000">Post</text>
</g>
<!-- Post&#45;&gt;Comment -->
<g id="edge30" class="edge">
<title>Post&#45;&gt;Comment</title>
<path fill="none" stroke="#7a056a" d="M1642,-382.5365C1642,-365.5291 1642,-342.9615 1642,-323 1642,-323 1642,-323 1642,-177 1642,-118.1279 720.3244,-106.4271 483.1294,-104.3907"/>
<ellipse fill="none" stroke="#7a056a" cx="1642" cy="-386.8801" rx="4" ry="4"/>
<polygon fill="#7a056a" stroke="#7a056a" points="483.0096,-104.3898 473.0476,-99.8063 478.0098,-104.348 473.01,-104.3062 473.01,-104.3062 473.01,-104.3062 478.0098,-104.348 472.9723,-108.806 483.0096,-104.3898 483.0096,-104.3898"/>
</g>
<!-- PostAttachment -->
<g id="node19" class="node">
<title>PostAttachment</title>
<ellipse fill="none" stroke="#000000" cx="1547" cy="-323" rx="66.7012" ry="18"/>
<text text-anchor="middle" x="1547" y="-318.8" font-family="Times,serif" font-size="14.00" fill="#000000">PostAttachment</text>
</g>
<!-- Post&#45;&gt;PostAttachment -->
<g id="edge31" class="edge">
<title>Post&#45;&gt;PostAttachment</title>
<path fill="none" stroke="#59f769" d="M1619.7283,-388.8383C1606.0029,-376.4131 1588.3182,-360.4038 1573.8245,-347.2832"/>
<ellipse fill="none" stroke="#59f769" cx="1622.9191" cy="-391.7268" rx="4" ry="4"/>
<polygon fill="#59f769" stroke="#59f769" points="1573.5596,-347.0434 1569.1661,-336.9961 1569.8528,-343.6878 1566.1461,-340.3322 1566.1461,-340.3322 1566.1461,-340.3322 1569.8528,-343.6878 1563.126,-343.6683 1573.5596,-347.0434 1573.5596,-347.0434"/>
</g>
<!-- PostTag -->
<g id="node20" class="node">
<title>PostTag</title>
<ellipse fill="none" stroke="#000000" cx="1716" cy="-250" rx="38.4535" ry="18"/>
<text text-anchor="middle" x="1716" y="-245.8" font-family="Times,serif" font-size="14.00" fill="#000000">PostTag</text>
</g>
<!-- Post&#45;&gt;PostTag -->
<g id="edge28" class="edge">
<title>Post&#45;&gt;PostTag</title>
<path fill="none" stroke="#5de429" d="M1653.4491,-384.3999C1667.0042,-355.2748 1689.5009,-306.9372 1703.4996,-276.859"/>
<ellipse fill="none" stroke="#5de429" cx="1651.748" cy="-388.0551" rx="4" ry="4"/>
<polygon fill="#5de429" stroke="#5de429" points="1703.5043,-276.8487 1711.8037,-269.6813 1705.6141,-272.3156 1707.7239,-267.7825 1707.7239,-267.7825 1707.7239,-267.7825 1705.6141,-272.3156 1703.6441,-265.8837 1703.5043,-276.8487 1703.5043,-276.8487"/>
</g>
<!-- Tag -->
<g id="node25" class="node">
<title>Tag</title>
<ellipse fill="none" stroke="#000000" cx="1735" cy="-323" rx="27" ry="18"/>
<text text-anchor="middle" x="1735" y="-318.8" font-family="Times,serif" font-size="14.00" fill="#000000">Tag</text>
</g>
<!-- Post&#45;&gt;Tag -->
<g id="edge29" class="edge">
<title>Post&#45;&gt;Tag</title>
<path fill="none" stroke="#6334f5" d="M1670.5783,-391.3219C1678.5072,-385.8677 1686.8855,-379.5585 1694,-373 1702.295,-365.3531 1710.396,-356.0044 1717.1768,-347.4685"/>
<polygon fill="#6334f5" stroke="#6334f5" points="1670.557,-391.336 1659.7388,-393.1299 1666.3944,-394.1061 1662.2319,-396.8762 1662.2319,-396.8762 1662.2319,-396.8762 1666.3944,-394.1061 1664.725,-400.6225 1670.557,-391.336 1670.557,-391.336"/>
<polygon fill="#6334f5" stroke="#6334f5" points="1717.3708,-347.2168 1727.04,-342.044 1720.4234,-343.2568 1723.476,-339.2967 1723.476,-339.2967 1723.476,-339.2967 1720.4234,-343.2568 1719.9119,-336.5494 1717.3708,-347.2168 1717.3708,-347.2168"/>
</g>
<!-- Role -->
<g id="node21" class="node">
<title>Role</title>
<ellipse fill="none" stroke="#000000" cx="1613" cy="-586.5" rx="27" ry="18"/>
<text text-anchor="middle" x="1613" y="-582.3" font-family="Times,serif" font-size="14.00" fill="#000000">Role</text>
</g>
<!-- Role&#45;&gt;Assignment -->
<g id="edge32" class="edge">
<title>Role&#45;&gt;Assignment</title>
<path fill="none" stroke="#ceb755" d="M1632.1186,-564.7753C1637.2933,-559.5744 1643.1033,-554.2911 1649,-550 1721.8032,-497.0212 1760.0421,-515.6829 1830,-459 1838.4213,-452.1767 1846.2301,-443.2981 1852.6714,-434.9196"/>
<ellipse fill="none" stroke="#ceb755" cx="1629.1355" cy="-567.8898" rx="4" ry="4"/>
<polygon fill="#ceb755" stroke="#ceb755" points="1852.7121,-434.8641 1862.2567,-429.4649 1855.6705,-430.8333 1858.6289,-426.8024 1858.6289,-426.8024 1858.6289,-426.8024 1855.6705,-430.8333 1855.0011,-424.1398 1852.7121,-434.8641 1852.7121,-434.8641"/>
</g>
<!-- Role&#45;&gt;User -->
<g id="edge33" class="edge">
<title>Role&#45;&gt;User</title>
<path fill="none" stroke="#5fe980" d="M1594.3727,-562.5743C1589.2923,-557.596 1583.4026,-552.9663 1577,-550 1514.0216,-520.8228 1025.8353,-501.3094 886.1972,-496.2835"/>
<polygon fill="#5fe980" stroke="#5fe980" points="1594.4152,-562.6204 1597.8976,-573.0187 1597.8088,-566.2924 1601.2024,-569.9644 1601.2024,-569.9644 1601.2024,-569.9644 1597.8088,-566.2924 1604.5072,-566.9102 1594.4152,-562.6204 1594.4152,-562.6204"/>
<polygon fill="#5fe980" stroke="#5fe980" points="886.0006,-496.2766 876.1673,-491.4232 881.0038,-496.0985 876.007,-495.9203 876.007,-495.9203 876.007,-495.9203 881.0038,-496.0985 875.8466,-500.4174 886.0006,-496.2766 886.0006,-496.2766"/>
</g>
<!-- Sponsor&#45;&gt;Meetup -->
<g id="edge34" class="edge">
<title>Sponsor&#45;&gt;Meetup</title>
<path fill="none" stroke="#4d576b" d="M569.7518,-235.2763C573.5154,-234.053 577.3109,-232.931 581,-232 647.7505,-215.1544 846.6101,-192.063 937.6101,-182.0128"/>
<ellipse fill="none" stroke="#4d576b" cx="565.8987" cy="-236.6005" rx="4" ry="4"/>
<polygon fill="#4d576b" stroke="#4d576b" points="937.697,-182.0034 948.1291,-185.3831 942.6671,-181.4567 947.6371,-180.9101 947.6371,-180.9101 947.6371,-180.9101 942.6671,-181.4567 947.1451,-176.437 937.697,-182.0034 937.697,-182.0034"/>
</g>
<!-- Sponsor&#45;&gt;SponsorLanguage -->
<g id="edge37" class="edge">
<title>Sponsor&#45;&gt;SponsorLanguage</title>
<path fill="none" stroke="#41c858" d="M532.2851,-223.9079C532.1217,-217.9427 531.9472,-211.5729 531.7812,-205.512"/>
<ellipse fill="none" stroke="#41c858" cx="532.396" cy="-227.9566" rx="4" ry="4"/>
<polygon fill="#41c858" stroke="#41c858" points="531.7696,-205.0866 535.9939,-194.9671 531.6326,-200.0885 531.4956,-195.0904 531.4956,-195.0904 531.4956,-195.0904 531.6326,-200.0885 526.9973,-195.2136 531.7696,-205.0866 531.7696,-205.0866"/>
</g>
<!-- SponsorshipAdmin -->
<g id="node24" class="node">
<title>SponsorshipAdmin</title>
<ellipse fill="none" stroke="#000000" cx="722" cy="-177" rx="78.3125" ry="18"/>
<text text-anchor="middle" x="722" y="-172.8" font-family="Times,serif" font-size="14.00" fill="#000000">SponsorshipAdmin</text>
</g>
<!-- Sponsor&#45;&gt;SponsorshipAdmin -->
<g id="edge35" class="edge">
<title>Sponsor&#45;&gt;SponsorshipAdmin</title>
<path fill="none" stroke="#2a3ced" d="M571.2255,-235.2356C600.3479,-223.9873 640.6859,-208.407 672.3111,-196.192"/>
<ellipse fill="none" stroke="#2a3ced" cx="567.0975" cy="-236.8301" rx="4" ry="4"/>
<polygon fill="#2a3ced" stroke="#2a3ced" points="672.4956,-196.1208 683.4454,-196.7155 677.1598,-194.3192 681.824,-192.5177 681.824,-192.5177 681.824,-192.5177 677.1598,-194.3192 680.2026,-188.3199 672.4956,-196.1208 672.4956,-196.1208"/>
</g>
<!-- Sponsor&#45;&gt;User -->
<g id="edge36" class="edge">
<title>Sponsor&#45;&gt;User</title>
<path fill="none" stroke="#bc1258" d="M572.6673,-265.0512C575.4816,-266.0649 578.2803,-267.057 581,-268 632.1283,-285.7282 659.4394,-266.0437 697,-305 746.324,-356.1568 690.9384,-407.5915 740,-459 750.2935,-469.7859 785.7897,-480.2615 813.5118,-487.1051"/>
<polygon fill="#bc1258" stroke="#bc1258" points="572.5218,-264.9981 564.6772,-257.3356 567.8263,-263.2798 563.1308,-261.5615 563.1308,-261.5615 563.1308,-261.5615 567.8263,-263.2798 561.5844,-265.7875 572.5218,-264.9981 572.5218,-264.9981"/>
<polygon fill="#bc1258" stroke="#bc1258" points="813.5882,-487.1233 822.2627,-493.8318 818.4503,-488.2896 823.3123,-489.4559 823.3123,-489.4559 823.3123,-489.4559 818.4503,-488.2896 824.362,-485.08 813.5882,-487.1233 813.5882,-487.1233"/>
</g>
<!-- Tag&#45;&gt;PostTag -->
<g id="edge38" class="edge">
<title>Tag&#45;&gt;PostTag</title>
<path fill="none" stroke="#402a87" d="M1728.2841,-297.1968C1726.6802,-291.0345 1724.9602,-284.426 1723.3302,-278.1634"/>
<ellipse fill="none" stroke="#402a87" cx="1729.2958" cy="-301.084" rx="4" ry="4"/>
<polygon fill="#402a87" stroke="#402a87" points="1723.2273,-277.7679 1725.0634,-266.9569 1721.9679,-272.9292 1720.7084,-268.0904 1720.7084,-268.0904 1720.7084,-268.0904 1721.9679,-272.9292 1716.3535,-269.2239 1723.2273,-277.7679 1723.2273,-277.7679"/>
</g>
<!-- User&#45;&gt;Assignment -->
<g id="edge39" class="edge">
<title>User&#45;&gt;Assignment</title>
<path fill="none" stroke="#f7322b" d="M884.3383,-494.9231C1046.6148,-494.4012 1716.2144,-490.3501 1804,-459 1819.3992,-453.5006 1834.1443,-443.0166 1845.7761,-433.0635"/>
<ellipse fill="none" stroke="#f7322b" cx="880.1211" cy="-494.9357" rx="4" ry="4"/>
<polygon fill="#f7322b" stroke="#f7322b" points="1845.8514,-432.9962 1856.3032,-429.678 1849.5764,-429.6608 1853.3014,-426.3255 1853.3014,-426.3255 1853.3014,-426.3255 1849.5764,-429.6608 1850.2996,-422.973 1845.8514,-432.9962 1845.8514,-432.9962"/>
</g>
<!-- User&#45;&gt;Comment -->
<g id="edge40" class="edge">
<title>User&#45;&gt;Comment</title>
<path fill="none" stroke="#55c88d" d="M813.8365,-493.9832C695.9235,-490.4301 315.1744,-477.757 194,-459 106.0081,-445.3794 0,-498.0399 0,-409 0,-409 0,-409 0,-177 0,-139.546 257.9791,-116.2474 373.3613,-107.7001"/>
<ellipse fill="none" stroke="#55c88d" cx="817.8666" cy="-494.1036" rx="4" ry="4"/>
<polygon fill="#55c88d" stroke="#55c88d" points="373.4343,-107.6949 383.7355,-111.4546 378.421,-107.3307 383.4077,-106.9665 383.4077,-106.9665 383.4077,-106.9665 378.421,-107.3307 383.08,-102.4785 373.4343,-107.6949 373.4343,-107.6949"/>
</g>
<!-- User&#45;&gt;Hackroom -->
<g id="edge43" class="edge">
<title>User&#45;&gt;Hackroom</title>
<path fill="none" stroke="#4ec2b2" d="M811.5999,-493.3036C709.0422,-488.4787 428.39,-474.0517 389.4619,-459 381.1798,-455.7977 365.5458,-443.7368 351.749,-432.2637"/>
<polygon fill="#4ec2b2" stroke="#4ec2b2" points="811.8114,-493.3134 821.5908,-498.2745 816.8059,-493.5464 821.8005,-493.7794 821.8005,-493.7794 821.8005,-493.7794 816.8059,-493.5464 822.0102,-489.2843 811.8114,-493.3134 811.8114,-493.3134"/>
<polygon fill="#4ec2b2" stroke="#4ec2b2" points="351.5505,-432.0963 346.8091,-422.2084 347.7289,-428.872 343.9073,-425.6478 343.9073,-425.6478 343.9073,-425.6478 347.7289,-428.872 341.0055,-429.0872 351.5505,-432.0963 351.5505,-432.0963"/>
<text text-anchor="middle" x="436.269" y="-447.8" font-family="Times,serif" font-size="14.00" fill="#000000">own_hackrooms</text>
</g>
<!-- User&#45;&gt;HackroomOwner -->
<g id="edge42" class="edge">
<title>User&#45;&gt;HackroomOwner</title>
<path fill="none" stroke="#20db76" d="M813.4673,-492.9036C778.8432,-489.5897 725.6272,-481.0416 685,-459 647.1549,-438.4678 651.1726,-415.8337 616,-391 589.3695,-372.1975 579.5337,-372.8013 550,-359 538.6812,-353.7107 526.4021,-348.1147 514.9402,-342.9517"/>
<ellipse fill="none" stroke="#20db76" cx="817.8657" cy="-493.2891" rx="4" ry="4"/>
<polygon fill="#20db76" stroke="#20db76" points="514.6661,-342.8287 507.3866,-334.6276 510.1048,-340.7807 505.5434,-338.7328 505.5434,-338.7328 505.5434,-338.7328 510.1048,-340.7807 503.7003,-342.838 514.6661,-342.8287 514.6661,-342.8287"/>
</g>
<!-- User&#45;&gt;Language -->
<g id="edge46" class="edge">
<title>User&#45;&gt;Language</title>
<path fill="none" stroke="#d62271" d="M811.8017,-494.3568C674.5513,-491.5836 202.3919,-478.3481 161.7031,-427 140.5553,-400.312 167.035,-375.1734 197,-359 223.5516,-344.6689 256.0682,-335.8418 282.9738,-330.5178"/>
<polygon fill="#d62271" stroke="#d62271" points="811.8351,-494.3574 821.7453,-499.0519 816.8342,-494.4551 821.8332,-494.5528 821.8332,-494.5528 821.8332,-494.5528 816.8342,-494.4551 821.9211,-490.0536 811.8351,-494.3574 811.8351,-494.3574"/>
<polygon fill="#d62271" stroke="#d62271" points="283.1573,-330.4835 293.8143,-333.0679 288.0721,-329.5641 292.9868,-328.6446 292.9868,-328.6446 292.9868,-328.6446 288.0721,-329.5641 292.1593,-324.2214 283.1573,-330.4835 283.1573,-330.4835"/>
<text text-anchor="middle" x="215.6484" y="-404.8" font-family="Times,serif" font-size="14.00" fill="#000000">primary_languages</text>
</g>
<!-- User&#45;&gt;Meetup -->
<g id="edge48" class="edge">
<title>User&#45;&gt;Meetup</title>
<path fill="none" stroke="#5428b3" d="M860.2216,-468.1131C880.1373,-420.4627 923.0471,-318.0993 960,-232 963.9227,-222.8602 968.2574,-212.8883 972.1513,-203.976"/>
<polygon fill="#5428b3" stroke="#5428b3" points="860.1862,-468.1981 852.179,-475.6905 858.2587,-472.8117 856.3313,-477.4252 856.3313,-477.4252 856.3313,-477.4252 858.2587,-472.8117 860.4835,-479.1599 860.1862,-468.1981 860.1862,-468.1981"/>
<polygon fill="#5428b3" stroke="#5428b3" points="972.1532,-203.9715 980.2856,-196.6152 974.1582,-199.3911 976.1632,-194.8107 976.1632,-194.8107 976.1632,-194.8107 974.1582,-199.3911 972.0408,-193.0062 972.1532,-203.9715 972.1532,-203.9715"/>
</g>
<!-- User&#45;&gt;Meetup -->
<g id="edge50" class="edge">
<title>User&#45;&gt;Meetup</title>
<path fill="none" stroke="#670d00" d="M886.2114,-494.0283C999.0022,-490.8654 1332.0535,-479.8464 1376,-459 1393.6136,-450.6448 1398.831,-445.1288 1406,-427 1411.8838,-412.1211 1411.2903,-406.1001 1406,-391 1405.0655,-388.3327 1281.1877,-233.7895 1279,-232 1264.6913,-220.2957 1259.6243,-218.578 1242,-213 1170.6538,-190.4193 1083.7503,-181.989 1031.2081,-178.8504"/>
<polygon fill="#670d00" stroke="#670d00" points="885.9971,-494.0341 875.8768,-489.8116 880.999,-494.172 876.0009,-494.3099 876.0009,-494.3099 876.0009,-494.3099 880.999,-494.172 876.125,-498.8082 885.9971,-494.0341 885.9971,-494.0341"/>
<polygon fill="#670d00" stroke="#670d00" points="1031.157,-178.8476 1021.4232,-173.7976 1026.1648,-178.5691 1021.1726,-178.2906 1021.1726,-178.2906 1021.1726,-178.2906 1026.1648,-178.5691 1020.9219,-182.7836 1031.157,-178.8476 1031.157,-178.8476"/>
<text text-anchor="middle" x="1419.0933" y="-318.8" font-family="Times,serif" font-size="14.00" fill="#000000">managed_meetups</text>
</g>
<!-- User&#45;&gt;MeetupRsvp -->
<g id="edge47" class="edge">
<title>User&#45;&gt;MeetupRsvp</title>
<path fill="none" stroke="#334229" d="M884.3259,-493.6593C1055.4449,-486.9373 1790,-455.3811 1790,-409 1790,-409 1790,-409 1790,-177 1790,-135.6997 1668.4571,-116.8371 1590.31,-108.9776"/>
<ellipse fill="none" stroke="#334229" cx="880.1444" cy="-493.8224" rx="4" ry="4"/>
<polygon fill="#334229" stroke="#334229" points="1590.0148,-108.9491 1580.4955,-103.5055 1585.0381,-108.4668 1580.0614,-107.9845 1580.0614,-107.9845 1580.0614,-107.9845 1585.0381,-108.4668 1579.6273,-112.4635 1590.0148,-108.9491 1590.0148,-108.9491"/>
</g>
<!-- User&#45;&gt;Notification -->
<g id="edge56" class="edge">
<title>User&#45;&gt;Notification</title>
<path fill="none" stroke="#9c6dbf" d="M878.9493,-481.2933C891.8682,-475.0068 906.9718,-467.1463 920,-459 932.9466,-450.9048 946.5119,-440.9195 957.9538,-432.0061"/>
<ellipse fill="none" stroke="#9c6dbf" cx="875.2345" cy="-483.074" rx="4" ry="4"/>
<polygon fill="#9c6dbf" stroke="#9c6dbf" points="958.0258,-431.9492 968.6614,-429.2778 961.9483,-428.8484 965.8707,-425.7477 965.8707,-425.7477 965.8707,-425.7477 961.9483,-428.8484 963.08,-422.2175 958.0258,-431.9492 958.0258,-431.9492"/>
</g>
<!-- User&#45;&gt;OrganiserInterest -->
<g id="edge57" class="edge">
<title>User&#45;&gt;OrganiserInterest</title>
<path fill="none" stroke="#459d43" d="M881.6356,-484.9403C929.1652,-470.2896 1017.9619,-442.9185 1074.9618,-425.3487"/>
<ellipse fill="none" stroke="#459d43" cx="877.5819" cy="-486.1898" rx="4" ry="4"/>
<ellipse fill="#459d43" stroke="#459d43" cx="1078.9636" cy="-424.1152" rx="4" ry="4"/>
</g>
<!-- User&#45;&gt;Post -->
<g id="edge51" class="edge">
<title>User&#45;&gt;Post</title>
<path fill="none" stroke="#1a8019" d="M884.2752,-493.6848C994.4123,-489.4466 1330.9801,-475.4604 1439,-459 1499.0759,-449.8454 1567.3999,-431.2789 1607.4874,-419.527"/>
<ellipse fill="none" stroke="#1a8019" cx="880.1334" cy="-493.8432" rx="4" ry="4"/>
<polygon fill="#1a8019" stroke="#1a8019" points="1607.7018,-419.4636 1618.5681,-420.9384 1612.496,-418.0436 1617.2901,-416.6237 1617.2901,-416.6237 1617.2901,-416.6237 1612.496,-418.0436 1616.0122,-412.309 1607.7018,-419.4636 1607.7018,-419.4636"/>
</g>
<!-- User&#45;&gt;SponsorshipAdmin -->
<g id="edge49" class="edge">
<title>User&#45;&gt;SponsorshipAdmin</title>
<path fill="none" stroke="#d96667" d="M828.7657,-473.8797C817.2278,-461.0521 803.1003,-443.9304 793,-427 749.5887,-354.2329 731.6608,-253.6916 725.1894,-205.2843"/>
<ellipse fill="none" stroke="#d96667" cx="831.4929" cy="-476.8609" rx="4" ry="4"/>
<polygon fill="#d96667" stroke="#d96667" points="725.1725,-205.1505 728.3757,-194.6629 724.5421,-200.1904 723.9116,-195.2303 723.9116,-195.2303 723.9116,-195.2303 724.5421,-200.1904 719.4475,-195.7977 725.1725,-205.1505 725.1725,-205.1505"/>
</g>
<!-- User&#45;&gt;User -->
<g id="edge53" class="edge">
<title>User&#45;&gt;User</title>
<path fill="none" stroke="#21e197" d="M885.9433,-497.9717C890.7892,-497.4627 894,-496.4722 894,-495 894,-493.5278 890.7892,-492.5373 885.9433,-492.0283"/>
<polygon fill="#21e197" stroke="#21e197" points="885.7873,-497.9776 875.6194,-493.871 880.7911,-498.1726 875.7949,-498.3676 875.7949,-498.3676 875.7949,-498.3676 880.7911,-498.1726 875.9703,-502.8642 885.7873,-497.9776 885.7873,-497.9776"/>
<polygon fill="#21e197" stroke="#21e197" points="885.7873,-492.0224 875.9703,-487.1358 880.7911,-491.8274 875.7949,-491.6324 875.7949,-491.6324 875.7949,-491.6324 880.7911,-491.8274 875.6194,-496.129 885.7873,-492.0224 885.7873,-492.0224"/>
<text text-anchor="middle" x="936.769" y="-490.8" font-family="Times,serif" font-size="14.00" fill="#000000">followed_users</text>
</g>
<!-- User&#45;&gt;User -->
<g id="edge55" class="edge">
<title>User&#45;&gt;User</title>
<path fill="none" stroke="#5a8bf9" d="M885.379,-500.5997C924.8776,-503.2242 979.5381,-501.3577 979.5381,-495 979.5381,-488.6423 924.8776,-486.7758 885.379,-489.4003"/>
<polygon fill="#5a8bf9" stroke="#5a8bf9" points="885.1715,-500.5833 875.5607,-495.3028 880.1873,-500.1859 875.2031,-499.7885 875.2031,-499.7885 875.2031,-499.7885 880.1873,-500.1859 874.8455,-504.2743 885.1715,-500.5833 885.1715,-500.5833"/>
<polygon fill="#5a8bf9" stroke="#5a8bf9" points="885.1715,-489.4167 874.8455,-485.7257 880.1873,-489.8141 875.2031,-490.2115 875.2031,-490.2115 875.2031,-490.2115 880.1873,-489.8141 875.5607,-494.6972 885.1715,-489.4167 885.1715,-489.4167"/>
<text text-anchor="middle" x="1005.9761" y="-490.8" font-family="Times,serif" font-size="14.00" fill="#000000">followers</text>
</g>
<!-- UserFollow -->
<g id="node27" class="node">
<title>UserFollow</title>
<ellipse fill="none" stroke="#000000" cx="1345" cy="-409" rx="51.7346" ry="18"/>
<text text-anchor="middle" x="1345" y="-404.8" font-family="Times,serif" font-size="14.00" fill="#000000">UserFollow</text>
</g>
<!-- User&#45;&gt;UserFollow -->
<g id="edge52" class="edge">
<title>User&#45;&gt;UserFollow</title>
<path fill="none" stroke="#4cd790" d="M884.1477,-493.8214C996.849,-489.874 1342.8018,-476.3819 1359,-459 1364.8307,-452.7432 1364.4167,-444.2566 1361.5859,-436.0523"/>
<ellipse fill="none" stroke="#4cd790" cx="880.1313" cy="-493.9609" rx="4" ry="4"/>
<polygon fill="#4cd790" stroke="#4cd790" points="1361.4824,-435.822 1361.4861,-424.8561 1359.4321,-431.2617 1357.3819,-426.7014 1357.3819,-426.7014 1357.3819,-426.7014 1359.4321,-431.2617 1353.2776,-428.5466 1361.4824,-435.822 1361.4824,-435.822"/>
</g>
<!-- User&#45;&gt;UserFollow -->
<g id="edge54" class="edge">
<title>User&#45;&gt;UserFollow</title>
<path fill="none" stroke="#2a8e2d" d="M884.4121,-494.4693C973.4323,-492.7456 1204.5385,-485.7505 1276,-459 1285.8606,-455.3089 1286.5945,-451.1916 1295.1104,-445 1301.2277,-440.5522 1307.7781,-435.8105 1314.0538,-431.2779"/>
<ellipse fill="none" stroke="#2a8e2d" cx="880.2503" cy="-494.5462" rx="4" ry="4"/>
<polygon fill="#2a8e2d" stroke="#2a8e2d" points="1314.2656,-431.1251 1325.0081,-428.923 1318.3203,-428.1994 1322.375,-425.2738 1322.375,-425.2738 1322.375,-425.2738 1318.3203,-428.1994 1319.7419,-421.6245 1314.2656,-431.1251 1314.2656,-431.1251"/>
<text text-anchor="middle" x="1325.9448" y="-447.8" font-family="Times,serif" font-size="14.00" fill="#000000">followings</text>
</g>
<!-- User&#45;&gt;UserHackroom -->
<g id="edge41" class="edge">
<title>User&#45;&gt;UserHackroom</title>
<path fill="none" stroke="#189c91" d="M814.1471,-489.9716C776.3183,-483.9164 719.0235,-472.8148 702,-459 663.7197,-427.9349 680.6503,-400.4751 654,-359 651.724,-355.458 649.1423,-351.8769 646.4715,-348.4173"/>
<ellipse fill="none" stroke="#189c91" cx="818.4183" cy="-490.6397" rx="4" ry="4"/>
<polygon fill="#189c91" stroke="#189c91" points="646.4696,-348.4149 643.678,-337.8103 643.3246,-344.5278 640.1796,-340.6408 640.1796,-340.6408 640.1796,-340.6408 643.3246,-344.5278 636.6813,-343.4712 646.4696,-348.4149 646.4696,-348.4149"/>
</g>
<!-- User&#45;&gt;UserLanguage -->
<g id="edge44" class="edge">
<title>User&#45;&gt;UserLanguage</title>
<path fill="none" stroke="#4ddbe0" d="M837.7651,-469.7442C819.5126,-430.8149 780.3368,-355.3847 730,-305 717.5864,-292.5746 702.0799,-281.0094 688.1701,-271.7223"/>
<ellipse fill="none" stroke="#4ddbe0" cx="839.6604" cy="-473.8442" rx="4" ry="4"/>
<polygon fill="#4ddbe0" stroke="#4ddbe0" points="688.1387,-271.7018 682.2123,-262.4753 683.9481,-268.9743 679.7575,-266.2468 679.7575,-266.2468 679.7575,-266.2468 683.9481,-268.9743 677.3028,-270.0183 688.1387,-271.7018 688.1387,-271.7018"/>
</g>
<!-- User&#45;&gt;UserPrimary -->
<g id="edge45" class="edge">
<title>User&#45;&gt;UserPrimary</title>
<path fill="none" stroke="#cadd40" d="M850.1444,-468.8267C851.0916,-447.7923 852.5179,-417.4906 854,-391 856.187,-351.9106 859.1454,-306.7541 861.0632,-278.2908"/>
<ellipse fill="none" stroke="#cadd40" cx="849.9598" cy="-472.963" rx="4" ry="4"/>
<polygon fill="#cadd40" stroke="#cadd40" points="861.0676,-278.2238 866.2332,-268.5508 861.4056,-273.2353 861.7435,-268.2467 861.7435,-268.2467 861.7435,-268.2467 861.4056,-273.2353 857.2538,-267.9426 861.0676,-278.2238 861.0676,-278.2238"/>
</g>
</g>
</svg>
